<svg width="109" height="108" viewBox="0 0 109 108" fill="none" xmlns="http://www.w3.org/2000/svg">
<circle cx="54.5211" cy="53.9797" r="53.7023" fill="#3B57F4" fill-opacity="0.12"/>
<path opacity="0.4" d="M75.1123 49.5488V70.2155C75.1123 77.9655 72.5289 80.5488 64.7789 80.5488H44.1123C36.3623 80.5488 33.7789 77.9655 33.7789 70.2155V49.5488H75.1123Z" fill="#3B57F4"/>
<path d="M79.0648 41.7975V44.3809C79.0648 47.2225 77.6956 49.5475 73.8981 49.5475H35.1481C31.1956 49.5475 29.9814 47.2225 29.9814 44.3809V41.7975C29.9814 38.9559 31.1956 36.6309 35.1481 36.6309H73.8981C77.6956 36.6309 79.0648 38.9559 79.0648 41.7975Z" fill="#3B57F4"/>
<path opacity="0.4" d="M53.5931 36.6303H39.3331C38.4547 35.6744 38.4806 34.2019 39.4106 33.2719L43.0789 29.6036C44.0347 28.6478 45.6106 28.6478 46.5664 29.6036L53.5931 36.6303Z" fill="#3B57F4"/>
<path opacity="0.4" d="M69.6873 36.6303H55.4273L62.454 29.6036C63.4098 28.6478 64.9856 28.6478 65.9415 29.6036L69.6098 33.2719C70.5398 34.2019 70.5656 35.6744 69.6873 36.6303Z" fill="#3B57F4"/>
<path opacity="0.6" d="M46.6181 49.5488V62.8272C46.6181 64.8938 48.8914 66.108 50.6222 64.9972L53.0506 63.3955C53.9289 62.8272 55.0397 62.8272 55.8922 63.3955L58.1914 64.9455C59.8964 66.0822 62.1956 64.868 62.1956 62.8013V49.5488H46.6181Z" fill="#3B57F4"/>
</svg>
