<svg width="24" height="24" viewBox="0 0 24 24" fill="none" xmlns="http://www.w3.org/2000/svg">
<g clip-path="url(#clip0_784_7779)">
<path d="M4.70556 0.00585938C2.12036 0.00585938 0.0045166 2.12165 0.0045166 4.70691V19.2951C0.0045166 21.8803 2.12031 23.9954 4.70556 23.9954H19.2937C21.879 23.9954 23.994 21.8803 23.994 19.2951V4.70691C23.994 2.1217 21.879 0.00585938 19.2937 0.00585938H4.70556ZM5.88795 3.96461C7.1275 3.96461 7.89101 4.77836 7.91458 5.84801C7.91458 6.89405 7.12745 7.73067 5.86397 7.73067H5.84072C4.62476 7.73067 3.83883 6.8941 3.83883 5.84801C3.83883 4.77838 4.64854 3.96461 5.88792 3.96461H5.88795ZM16.5699 8.96405C18.9538 8.96405 20.7408 10.5222 20.7408 13.8705V20.1213H17.118V14.2896C17.118 12.8242 16.5936 11.8244 15.2825 11.8244C14.2816 11.8244 13.685 12.4982 13.4231 13.1492C13.3274 13.3821 13.3039 13.7074 13.3039 14.0332V20.1213H9.68103C9.68103 20.1213 9.72857 10.2426 9.68103 9.2197H13.3046V10.7635C13.7861 10.0207 14.6473 8.96403 16.5699 8.96403V8.96405ZM4.05253 9.22049H7.6754V20.1213H4.05253V9.22049Z" fill="#626262"/>
</g>
<defs>
<clipPath id="clip0_784_7779">
<rect width="24" height="24" fill="white"/>
</clipPath>
</defs>
</svg>
