<svg width="99" height="87" viewBox="0 0 99 87" fill="none" xmlns="http://www.w3.org/2000/svg">
<path fill-rule="evenodd" clip-rule="evenodd" d="M48.0308 73.118C53.8977 66.7077 59.6155 60.0389 65.2257 53.4094C60.4171 53.1246 55.907 53.5648 51.1249 54.1836C50.8902 49.9986 49.1488 43.667 47.4392 39.8604C42.2999 41.4158 38.2407 43.1885 33.5485 45.5855C31.8621 41.7127 29.901 38.3397 27.2954 34.994C24.6737 42.7077 22.579 50.5455 20.9205 58.52C24.6597 60.1245 28.2723 60.7962 31.9314 62.6026C38.2196 65.7062 42.5206 68.7064 48.0308 73.118Z" stroke="#AB3ADD" stroke-width="4.56912" stroke-miterlimit="1.5" stroke-linecap="round" stroke-linejoin="round"/>
<path d="M13.3311 23.5674C14.82 25.2428 16.2531 26.9775 17.7748 28.6226" stroke="#AB3ADD" stroke-width="4.56912" stroke-miterlimit="1.5" stroke-linecap="round" stroke-linejoin="round"/>
<path d="M42.3914 12.3652C42.0778 14.8362 41.9572 17.3245 41.6799 19.798" stroke="#AB3ADD" stroke-width="4.56912" stroke-miterlimit="1.5" stroke-linecap="round" stroke-linejoin="round"/>
<path d="M63.8242 31.281C66.7406 29.5478 69.4717 27.5242 72.3828 25.7843" stroke="#AB3ADD" stroke-width="4.56912" stroke-miterlimit="1.5" stroke-linecap="round" stroke-linejoin="round"/>
<path d="M77.4235 59.9762C80.7737 60.2114 84.1795 60.5023 87.5408 60.4373" stroke="#AB3ADD" stroke-width="4.56912" stroke-miterlimit="1.5" stroke-linecap="round" stroke-linejoin="round"/>
</svg>
