<svg width="93" height="92" viewBox="0 0 93 92" fill="none" xmlns="http://www.w3.org/2000/svg">
<path d="M77.7722 34.9922L76.4039 33.5335L77.7722 34.9922ZM76.358 91.1388C77.139 91.9199 78.4054 91.9199 79.1864 91.1388L91.9143 78.4109C92.6954 77.6299 92.6954 76.3635 91.9143 75.5825C91.1333 74.8014 89.867 74.8014 89.0859 75.5825L77.7722 86.8962L66.4585 75.5825C65.6774 74.8014 64.4111 74.8014 63.6301 75.5825C62.849 76.3635 62.849 77.6299 63.6301 78.4109L76.358 91.1388ZM0.647259 5.55256C38.1049 2.78706 60.5175 7.30441 71.7067 13.8522C77.2804 17.1138 79.8124 20.7169 80.3735 23.941C80.926 27.1156 79.6612 30.478 76.4039 33.5335L79.1405 36.4508C83.0881 32.7479 85.159 28.1085 84.3143 23.2552C83.4782 18.4514 79.8802 14.0006 73.727 10.3998C61.4624 3.22281 38.034 -1.21859 0.352741 1.56342L0.647259 5.55256ZM76.4039 33.5335C71.1552 38.4569 68.4193 43.4793 67.3899 48.5818C66.3679 53.6476 67.0675 58.602 68.3566 63.3289C69.6266 67.9856 71.5691 72.7244 73.0756 77.062C74.6214 81.5127 75.7722 85.6913 75.7722 89.7246H79.7722C79.7722 84.9874 78.4277 80.28 76.8542 75.7497C75.2415 71.1064 73.441 66.7694 72.2157 62.2764C71.0095 57.8535 70.4613 53.5841 71.3109 49.3728C72.1531 45.1982 74.4078 40.8903 79.1405 36.4508L76.4039 33.5335Z" fill="#3B57F4"/>
</svg>
