<svg width="101" height="145" viewBox="0 0 101 145" fill="none" xmlns="http://www.w3.org/2000/svg">
<g filter="url(#filter0_d_658_8152)">
<rect x="17.437" y="5.32031" width="66.126" height="111.092" rx="6.6126" fill="url(#paint0_linear_658_8152)" shape-rendering="crispEdges"/>
<path d="M51.5332 22.1308C51.3606 21.4211 50.6454 20.9857 49.9357 21.1583C49.2259 21.3309 48.7905 22.0462 48.9631 22.7559L51.5332 22.1308ZM50.2476 49.7092L50.0652 48.3994L50.2476 49.7092ZM45.4534 100.224C45.9699 100.741 46.8073 100.741 47.3238 100.224L55.7402 91.808C56.2567 91.2915 56.2567 90.4541 55.7402 89.9377C55.2238 89.4212 54.3864 89.4212 53.8699 89.9377L46.3886 97.419L38.9073 89.9377C38.3908 89.4212 37.5535 89.4212 37.037 89.9377C36.5205 90.4541 36.5205 91.2915 37.037 91.808L45.4534 100.224ZM41.1759 81.9135L42.3582 81.3209L41.1759 81.9135ZM48.9631 22.7559C50.1032 27.4439 49.6781 32.1343 48.5981 36.7183C47.5097 41.3373 45.8014 45.695 44.4053 49.864C43.0447 53.9271 41.948 57.8968 42.4172 61.3693C42.6578 63.15 43.309 64.8114 44.5283 66.2828C45.7389 67.7438 47.4547 68.9517 49.7282 69.9239L50.7682 67.4919C48.7754 66.6397 47.4423 65.6539 46.565 64.5951C45.6964 63.5469 45.2205 62.3627 45.0384 61.0151C44.6622 58.2309 45.5374 54.8131 46.9134 50.7039C48.254 46.7007 50.0472 42.1014 51.1726 37.3249C52.3063 32.5133 52.8073 27.3695 51.5332 22.1308L48.9631 22.7559ZM49.7282 69.9239C54.3192 71.8872 58.2005 71.4842 61.0109 69.5098C63.7655 67.5747 65.2448 64.2991 65.4427 60.9828C65.641 57.6571 64.5645 54.1169 61.9825 51.5878C59.3694 49.0284 55.3755 47.6597 50.0652 48.3994L50.4301 51.0191C55.0866 50.3705 58.2094 51.5947 60.1316 53.4775C62.0849 55.3906 62.9624 58.142 62.8023 60.8253C62.6417 63.5179 61.4502 65.9687 59.4904 67.3455C57.5864 68.6831 54.7097 69.1775 50.7682 67.4919L49.7282 69.9239ZM50.0652 48.3994C45.5442 49.0291 42.1712 50.7085 39.8108 53.1678C37.4567 55.6205 36.2114 58.743 35.7493 62.0861C34.832 68.7213 36.9603 76.4543 39.9936 82.5061L42.3582 81.3209C39.4579 75.5342 37.5523 68.3587 38.3694 62.4483C38.7744 59.5186 39.8384 56.9589 41.7191 54.9993C43.5937 53.0463 46.3813 51.5831 50.4301 51.0191L50.0652 48.3994ZM39.9936 82.5061C42.5821 87.6707 45.0661 93.6921 45.0661 99.2893H47.7111C47.7111 93.0225 44.963 86.5178 42.3582 81.3209L39.9936 82.5061Z" fill="white"/>
</g>
<defs>
<filter id="filter0_d_658_8152" x="0.905519" y="0.0302353" width="99.189" height="144.155" filterUnits="userSpaceOnUse" color-interpolation-filters="sRGB">
<feFlood flood-opacity="0" result="BackgroundImageFix"/>
<feColorMatrix in="SourceAlpha" type="matrix" values="0 0 0 0 0 0 0 0 0 0 0 0 0 0 0 0 0 0 127 0" result="hardAlpha"/>
<feOffset dy="11.2414"/>
<feGaussianBlur stdDeviation="8.26575"/>
<feComposite in2="hardAlpha" operator="out"/>
<feColorMatrix type="matrix" values="0 0 0 0 0.670588 0 0 0 0 0.227451 0 0 0 0 0.866667 0 0 0 0.3 0"/>
<feBlend mode="normal" in2="BackgroundImageFix" result="effect1_dropShadow_658_8152"/>
<feBlend mode="normal" in="SourceGraphic" in2="effect1_dropShadow_658_8152" result="shape"/>
</filter>
<linearGradient id="paint0_linear_658_8152" x1="17.437" y1="-2.18362" x2="97.8613" y2="189.231" gradientUnits="userSpaceOnUse">
<stop stop-color="#AB3ADD"/>
<stop offset="1" stop-color="#3B57F4"/>
</linearGradient>
</defs>
</svg>
