<svg width="46" height="121" viewBox="0 0 46 121" fill="none" xmlns="http://www.w3.org/2000/svg">
<path d="M24.443 1.63871C24.1819 0.565421 23.1003 -0.0930488 22.027 0.167973C20.9537 0.428995 20.2952 1.51067 20.5563 2.58395L24.443 1.63871ZM22.4988 43.3446L22.2228 41.3637L22.4988 43.3446ZM15.2487 119.737C16.0297 120.518 17.2961 120.518 18.0771 119.737L30.805 107.009C31.5861 106.228 31.5861 104.962 30.805 104.181C30.024 103.4 28.7577 103.4 27.9766 104.181L16.6629 115.494L5.3492 104.181C4.56816 103.4 3.30183 103.4 2.52078 104.181C1.73973 104.962 1.73973 106.228 2.52078 107.009L15.2487 119.737ZM8.77993 92.0459L10.5679 91.1498L8.77993 92.0459ZM20.5563 2.58395C22.2804 9.67341 21.6376 16.7666 20.0042 23.6988C18.3583 30.684 15.7749 37.274 13.6636 43.5786C11.606 49.7231 9.94749 55.7263 10.6571 60.9776C11.021 63.6706 12.0057 66.183 13.8497 68.4082C15.6804 70.6176 18.2751 72.4442 21.7132 73.9145L23.286 70.2367C20.2723 68.9479 18.2564 67.4571 16.9296 65.856C15.6161 64.2708 14.8964 62.4799 14.621 60.442C14.0521 56.2315 15.3756 51.0629 17.4566 44.8488C19.4839 38.7948 22.1956 31.8395 23.8976 24.6161C25.612 17.3397 26.3697 9.56101 24.443 1.63871L20.5563 2.58395ZM21.7132 73.9145C28.6561 76.8836 34.5256 76.2741 38.7757 73.2883C42.9414 70.3618 45.1785 65.4083 45.4777 60.3931C45.7777 55.3638 44.1497 50.0101 40.2449 46.1855C36.2933 42.315 30.2535 40.2451 22.2228 41.3637L22.7747 45.3255C29.8166 44.3446 34.539 46.1958 37.446 49.0431C40.3998 51.9363 41.7268 56.0971 41.4848 60.155C41.2419 64.2269 39.44 67.9332 36.4763 70.0153C33.597 72.038 29.2467 72.7857 23.286 70.2367L21.7132 73.9145ZM22.2228 41.3637C15.3859 42.316 10.2851 44.8557 6.7156 48.5748C3.15554 52.284 1.27233 57.0059 0.573398 62.0616C-0.813788 72.0959 2.40485 83.7901 6.99194 92.9421L10.5679 91.1498C6.18178 82.3987 3.30006 71.5475 4.53571 62.6094C5.1482 58.179 6.75721 54.308 9.60145 51.3446C12.4363 48.391 16.6518 46.1783 22.7747 45.3255L22.2228 41.3637ZM6.99194 92.9421C10.9065 100.752 14.6629 109.858 14.6629 118.323H18.6629C18.6629 108.846 14.507 99.0089 10.5679 91.1498L6.99194 92.9421Z" fill="#AB3ADD"/>
</svg>
