<svg width="101" height="101" viewBox="0 0 101 101" fill="none" xmlns="http://www.w3.org/2000/svg">
<circle cx="50.7578" cy="50.3281" r="50" fill="#FAF0FF"/>
<path opacity="0.5" d="M26.3333 50.4401C26.3333 39.0479 26.3333 33.3519 29.8713 29.8114C33.4142 26.2734 39.1078 26.2734 50.5 26.2734C61.8922 26.2734 67.5883 26.2734 71.1263 29.8114C74.6667 33.3543 74.6667 39.0479 74.6667 50.4401C74.6667 61.8323 74.6667 67.5284 71.1263 71.0663C67.5907 74.6068 61.8922 74.6068 50.5 74.6068C39.1078 74.6068 33.4118 74.6068 29.8713 71.0663C26.3333 67.5308 26.3333 61.8323 26.3333 50.4401Z" fill="#AB3ADD"/>
<path d="M63.9754 46.7668C64.2695 46.3961 64.4069 45.9251 64.3585 45.4544C64.31 44.9838 64.0793 44.5507 63.7158 44.2478C63.3523 43.9449 62.8848 43.7961 62.4131 43.8333C61.9414 43.8705 61.5029 44.0906 61.1913 44.4468L56.8486 49.6571C55.9544 50.7325 55.401 51.3874 54.9491 51.7959C54.8315 51.9113 54.6991 52.0104 54.5552 52.0907L54.5286 52.1028L54.5093 52.0931L54.502 52.0907C54.3573 52.0106 54.224 51.9114 54.1057 51.7959C53.6538 51.385 53.1028 50.7325 52.2062 49.6571L51.5005 48.8113C50.7054 47.8567 49.9901 46.9988 49.3231 46.3946C48.5957 45.7373 47.6798 45.1524 46.4714 45.1524C45.2631 45.1524 44.3496 45.7373 43.6198 46.3946C42.9528 46.9988 42.2374 47.8567 41.4448 48.8113L37.0223 54.1134C36.8699 54.2964 36.7551 54.5076 36.6844 54.7349C36.6137 54.9622 36.5884 55.2013 36.6101 55.4383C36.6538 55.9172 36.886 56.359 37.2555 56.6666C37.625 56.9743 38.1016 57.1226 38.5804 57.0788C39.0592 57.0351 39.501 56.8029 39.8087 56.4334L44.1514 51.2231C45.0456 50.1477 45.599 49.4928 46.0509 49.0844C46.1686 48.9691 46.3011 48.8699 46.4448 48.7895L46.4618 48.7823L46.4714 48.7799C46.4787 48.7799 46.4859 48.7847 46.498 48.7895C46.6427 48.8697 46.776 48.9689 46.8944 49.0844C47.3463 49.4952 47.8973 50.1477 48.7938 51.2231L49.4995 52.0689C50.2946 53.0235 51.0099 53.8814 51.6769 54.4856C52.4044 55.1429 53.3203 55.7278 54.5286 55.7278C55.7369 55.7278 56.6504 55.1429 57.3803 54.4856C58.0473 53.8814 58.7626 53.0235 59.5553 52.0689L63.9754 46.7668ZM74.6667 33.5234C74.6667 35.4463 73.9028 37.2903 72.5432 38.65C71.1836 40.0096 69.3395 40.7734 67.4167 40.7734C65.4939 40.7734 63.6498 40.0096 62.2902 38.65C60.9305 37.2903 60.1667 35.4463 60.1667 33.5234C60.1667 31.6006 60.9305 29.7566 62.2902 28.3969C63.6498 27.0373 65.4939 26.2734 67.4167 26.2734C69.3395 26.2734 71.1836 27.0373 72.5432 28.3969C73.9028 29.7566 74.6667 31.6006 74.6667 33.5234Z" fill="#AB3ADD"/>
</svg>
