<svg width="101" height="101" viewBox="0 0 101 101" fill="none" xmlns="http://www.w3.org/2000/svg">
<circle cx="50.8867" cy="50.3281" r="50" fill="#FAF0FF"/>
<path d="M74.9931 54.711C71.268 56.6026 67.1481 57.5856 62.9702 57.5796C48.289 57.5772 36.3869 45.6775 36.3869 30.9939C36.3869 29.4714 36.515 27.9827 36.759 26.5303C35.0311 26.7864 33.673 27.2166 32.4912 27.9416C30.8653 28.9374 29.4981 30.3038 28.5013 31.9291C26.7202 34.8388 26.7202 38.7949 26.7202 46.7046V49.1213C26.7202 54.7521 26.7202 57.5675 27.6385 59.786C28.2461 61.2523 29.1365 62.5845 30.259 63.7065C31.3815 64.8286 32.714 65.7185 34.1805 66.3255C35.7755 66.9877 37.6774 67.1714 40.7127 67.2245C42.7669 67.2608 43.794 67.2777 44.6108 67.7538C45.4252 68.2274 45.9351 69.0854 46.9501 70.8036L48.26 73.0173C49.4272 74.9893 52.3441 74.9893 53.5138 73.0173L54.8236 70.8036C55.8386 69.0878 56.3461 68.2274 57.163 67.7538C57.9798 67.2777 59.0069 67.2608 61.061 67.2245C64.0964 67.1738 65.9983 66.9877 67.5933 66.3255C69.0593 65.7183 70.3914 64.8282 71.5135 63.7062C72.6355 62.5841 73.5256 61.2521 74.1328 59.786C74.6814 58.4641 74.9037 56.9295 74.9931 54.711Z" fill="#AB3ADD"/>
<path fill-rule="evenodd" clip-rule="evenodd" d="M53.5138 73.0173L54.8236 70.8036C55.8386 69.0878 56.3461 68.2274 57.163 67.7538C57.9798 67.2777 59.0069 67.2608 61.061 67.2245C64.0964 67.1738 65.9983 66.9877 67.5933 66.3255C69.0593 65.7183 70.3914 64.8282 71.5135 63.7062C72.6355 62.5841 73.5256 61.2521 74.1328 59.786C74.6814 58.4641 74.9037 56.9295 74.9931 54.711C71.268 56.6026 67.1481 57.5856 62.9702 57.5796C48.289 57.5772 36.3869 45.6775 36.3869 30.9939C36.3869 29.4714 36.515 27.9827 36.759 26.5303C35.0311 26.7864 33.673 27.2166 32.4912 27.9416C30.8653 28.9374 29.4981 30.3038 28.5013 31.9291C26.7202 34.8388 26.7202 38.7949 26.7202 46.7046V49.1213C26.7202 54.7521 26.7202 57.5675 27.6385 59.786C28.2461 61.2523 29.1365 62.5845 30.259 63.7065C31.3815 64.8286 32.714 65.7185 34.1805 66.3255C35.7755 66.9877 37.6774 67.1714 40.7127 67.2245C42.7669 67.2608 43.794 67.2777 44.6108 67.7538C45.4252 68.2274 45.9351 69.0854 46.9501 70.8036L48.26 73.0173C49.4272 74.9893 52.3441 74.9893 53.5138 73.0173Z" fill="#AB3ADD"/>
<path opacity="0.5" d="M54.5119 26.1602H47.2619C42.5735 26.1602 39.2748 26.1602 36.759 26.5299C36.515 27.9799 36.3869 29.4734 36.3869 30.9935C36.3869 45.6747 48.289 57.5768 62.9702 57.5768C67.296 57.5768 71.3802 56.5425 74.9931 54.7082C75.0535 53.2075 75.0535 51.3926 75.0535 49.1185V46.7018C75.0535 38.7921 75.0535 34.836 73.2725 31.9312C72.2767 30.3052 70.9103 28.938 69.285 27.9412C66.3777 26.1602 62.4216 26.1602 54.5119 26.1602Z" fill="#AB3ADD"/>
</svg>
