<svg width="101" height="101" viewBox="0 0 101 101" fill="none" xmlns="http://www.w3.org/2000/svg">
<circle cx="50.7578" cy="50.3281" r="50" fill="#FAF0FF"/>
<path opacity="0.5" d="M28.75 45.4945C28.75 36.3812 28.75 31.8234 31.5823 28.9935C34.4123 26.1611 38.9701 26.1611 48.0833 26.1611H52.9167C62.0299 26.1611 66.5877 26.1611 69.4177 28.9935C72.25 31.8234 72.25 36.3812 72.25 45.4945V55.1611C72.25 64.2744 72.25 68.8322 69.4177 71.6621C66.5877 74.4945 62.0299 74.4945 52.9167 74.4945H48.0833C38.9701 74.4945 34.4123 74.4945 31.5823 71.6621C28.75 68.8322 28.75 64.2744 28.75 55.1611V45.4945Z" fill="#AB3ADD"/>
<path d="M61.4209 61.2056C61.8438 60.8769 62.2281 60.4927 62.9942 59.7266L72.5569 50.1614C72.7889 49.9318 72.6826 49.5331 72.3757 49.4243C70.8793 48.9028 69.5208 48.0484 68.4027 46.9255C67.2798 45.8074 66.4253 44.4489 65.9038 42.9525C65.7951 42.6456 65.3963 42.5392 65.1667 42.7712L55.5992 52.334C54.8331 53.1001 54.4488 53.4843 54.1202 53.9072C53.7311 54.4075 53.3952 54.9464 53.1245 55.5167C52.8949 56.0001 52.7233 56.5172 52.3802 57.5467L51.9355 58.8759L51.2298 60.9905L50.5701 62.9722C50.4878 63.2205 50.4762 63.4869 50.5366 63.7415C50.5969 63.9961 50.7269 64.2289 50.9119 64.4139C51.0969 64.5989 51.3297 64.7288 51.5843 64.7892C51.8389 64.8495 52.1052 64.8379 52.3536 64.7557L54.3352 64.0959L56.4498 63.3902L57.779 62.9456C58.8085 62.6024 59.3257 62.4332 59.809 62.2012C60.3793 61.9282 60.9231 61.5971 61.4209 61.2056ZM75.5512 47.1672C76.0502 46.685 76.4483 46.1083 76.7221 45.4706C76.996 44.833 77.1401 44.1472 77.1461 43.4533C77.1521 42.7594 77.0199 42.0712 76.7572 41.4289C76.4945 40.7866 76.1065 40.2031 75.6159 39.7123C75.1253 39.2215 74.5418 38.8333 73.8996 38.5704C73.2574 38.3075 72.5693 38.175 71.8754 38.1808C71.1815 38.1866 70.4956 38.3306 69.8579 38.6042C69.2202 38.8778 68.6433 39.2757 68.161 39.7746L67.8541 40.0839C67.7078 40.2282 67.5988 40.4058 67.5364 40.6016C67.4741 40.7974 67.4604 41.0054 67.4964 41.2077C67.5447 41.4662 67.6293 41.8481 67.7864 42.3C68.1006 43.2062 68.6951 44.3952 69.814 45.5142C70.7177 46.4251 71.8168 47.1184 73.0282 47.5417C73.4825 47.6988 73.8619 47.7834 74.1205 47.8317C74.3228 47.8676 74.5307 47.8537 74.7264 47.7914C74.9222 47.7291 75.0999 47.6202 75.2442 47.4741L75.5512 47.1672Z" fill="#AB3ADD"/>
<path fill-rule="evenodd" clip-rule="evenodd" d="M39.0208 43.0781C39.0208 42.5974 39.2118 42.1364 39.5517 41.7965C39.8916 41.4566 40.3526 41.2656 40.8333 41.2656H56.5417C57.0224 41.2656 57.4834 41.4566 57.8233 41.7965C58.1632 42.1364 58.3542 42.5974 58.3542 43.0781C58.3542 43.5588 58.1632 44.0198 57.8233 44.3598C57.4834 44.6997 57.0224 44.8906 56.5417 44.8906H40.8333C40.3526 44.8906 39.8916 44.6997 39.5517 44.3598C39.2118 44.0198 39.0208 43.5588 39.0208 43.0781ZM39.0208 52.7448C39.0208 52.2641 39.2118 51.8031 39.5517 51.4632C39.8916 51.1233 40.3526 50.9323 40.8333 50.9323H48.0833C48.564 50.9323 49.0251 51.1233 49.365 51.4632C49.7049 51.8031 49.8958 52.2641 49.8958 52.7448C49.8958 53.2255 49.7049 53.6865 49.365 54.0264C49.0251 54.3663 48.564 54.5573 48.0833 54.5573H40.8333C40.3526 54.5573 39.8916 54.3663 39.5517 54.0264C39.2118 53.6865 39.0208 53.2255 39.0208 52.7448ZM39.0208 62.4115C39.0208 61.9308 39.2118 61.4697 39.5517 61.1298C39.8916 60.7899 40.3526 60.599 40.8333 60.599H44.4583C44.939 60.599 45.4001 60.7899 45.74 61.1298C46.0799 61.4697 46.2708 61.9308 46.2708 62.4115C46.2708 62.8922 46.0799 63.3532 45.74 63.6931C45.4001 64.033 44.939 64.224 44.4583 64.224H40.8333C40.3526 64.224 39.8916 64.033 39.5517 63.6931C39.2118 63.3532 39.0208 62.8922 39.0208 62.4115Z" fill="#AB3ADD"/>
</svg>
