<svg width="101" height="101" viewBox="0 0 101 101" fill="none" xmlns="http://www.w3.org/2000/svg">
<circle cx="50.5" cy="50.3281" r="50" fill="#FAF0FF"/>
<path d="M34.1875 58.7861C34.1875 56.4516 36.0822 54.557 38.4167 54.557H62.5833C64.9178 54.557 66.8125 56.4516 66.8125 58.7861C66.8125 60.5487 66.1123 62.2391 64.866 63.4854C63.6196 64.7318 61.9293 65.432 60.1667 65.432H40.8333C39.0707 65.432 37.3804 64.7318 36.134 63.4854C34.8877 62.2391 34.1875 60.5487 34.1875 58.7861ZM37.5177 37.679C38.1025 32.8166 38.3925 30.3879 39.799 28.7276C40.2452 28.2006 40.7644 27.74 41.3408 27.3598C43.1533 26.1611 45.6038 26.1611 50.5 26.1611C55.3962 26.1611 57.8443 26.1611 59.6592 27.3598C60.2356 27.74 60.7548 28.2006 61.201 28.7276C62.6075 30.3879 62.8999 32.8166 63.4823 37.679L63.7022 39.5084C64.3064 44.5544 64.6109 47.0774 63.1682 48.7014C61.7254 50.3278 59.1855 50.3278 54.1057 50.3278H46.8968C41.8145 50.3278 39.2746 50.3278 37.8342 48.7014C36.3915 47.0774 36.6936 44.5544 37.2978 39.5084L37.5177 37.679Z" fill="#AB3ADD"/>
<path opacity="0.5" d="M26.3333 47.3066C25.8526 47.3066 25.3916 47.4976 25.0517 47.8375C24.7118 48.1774 24.5208 48.6384 24.5208 49.1191C24.5208 49.5998 24.7118 50.0609 25.0517 50.4008C25.3916 50.7407 25.8526 50.9316 26.3333 50.9316C28.3319 50.9316 29.4508 51.154 30.1372 51.4585C30.7389 51.7243 31.128 52.0989 31.5413 52.7804C31.6138 52.9012 31.6452 52.952 31.6766 53.0124C31.708 53.0704 31.7515 53.1526 31.8288 53.3193C31.9497 53.5851 32.0101 53.7543 32.1913 54.2956L34.2793 60.5669C34.3555 60.7947 34.4762 61.005 34.6346 61.1856C34.3383 60.4202 34.1867 59.6065 34.1875 58.7858C34.1875 57.2246 35.0333 55.8616 36.29 55.1294L35.6133 53.1066C35.4754 52.6594 35.31 52.2212 35.1179 51.7944C34.979 51.485 34.8192 51.1854 34.6394 50.8978C33.9507 49.7644 33.0541 48.7808 31.5992 48.1428C30.2314 47.5386 28.5204 47.3066 26.3333 47.3066ZM52.3125 54.5566H48.6875V50.3275H52.3125V54.5566ZM66.3654 61.1856C66.6624 60.4204 66.814 59.6066 66.8125 58.7858C66.8125 57.2246 65.9667 55.8616 64.71 55.1294L65.3867 53.1066C65.5238 52.6592 65.6893 52.2209 65.8821 51.7944C66.0899 51.3473 66.1962 51.1709 66.3606 50.8978C67.0493 49.7644 67.9483 48.7808 69.4007 48.1428C70.7686 47.5386 72.4796 47.3066 74.6667 47.3066C75.1474 47.3066 75.6084 47.4976 75.9483 47.8375C76.2882 48.1774 76.4792 48.6384 76.4792 49.1191C76.4792 49.5998 76.2882 50.0609 75.9483 50.4008C75.6084 50.7407 75.1474 50.9316 74.6667 50.9316C72.6681 50.9316 71.5492 51.154 70.8628 51.4585C70.2611 51.7243 69.872 52.0989 69.4587 52.7804C69.3862 52.9012 69.3548 52.952 69.3234 53.0124C69.2694 53.1131 69.2187 53.2154 69.1712 53.3193C69.0503 53.5851 68.9899 53.7543 68.8087 54.2956L66.7207 60.5669C66.6446 60.7947 66.5238 61.005 66.3654 61.1856ZM48.6875 65.4316H52.3125V68.2495C53.6916 68.6374 54.9547 69.3572 55.9915 70.3459C57.0282 71.3346 57.8071 72.5622 58.2599 73.9214C58.3912 74.3714 58.343 74.8548 58.1254 75.2701C57.9078 75.6853 57.5378 76.0001 57.0931 76.1484C56.6483 76.2966 56.1635 76.2668 55.7403 76.0651C55.317 75.8635 54.9884 75.5057 54.8234 75.0669C54.4 73.7984 53.4994 72.7444 52.3125 72.1282V74.4941C52.3125 74.9748 52.1215 75.4359 51.7816 75.7758C51.4417 76.1157 50.9807 76.3066 50.5 76.3066C50.0193 76.3066 49.5583 76.1157 49.2184 75.7758C48.8785 75.4359 48.6875 74.9748 48.6875 74.4941V72.1258C47.5001 72.7426 46.5995 73.7974 46.1766 75.0669C46.02 75.517 45.6925 75.8873 45.2649 76.0977C44.8373 76.3081 44.344 76.3416 43.8919 76.191C43.4398 76.0404 43.0652 75.7178 42.8491 75.293C42.6331 74.8682 42.5931 74.3755 42.7377 73.9214C43.1907 72.5619 43.9699 71.3342 45.0071 70.3454C46.0443 69.3567 47.3079 68.637 48.6875 68.2495V65.4316Z" fill="#AB3ADD"/>
</svg>
