<svg width="101" height="101" viewBox="0 0 101 101" fill="none" xmlns="http://www.w3.org/2000/svg">
<circle cx="50.7578" cy="50.3281" r="50" fill="#FAF0FF"/>
<path d="M45.9245 35.8281V33.4115H55.5911V35.8281H60.4245V33.4115C60.4232 32.13 59.9136 30.9013 59.0074 29.9952C58.1013 29.089 56.8726 28.5794 55.5911 28.5781H45.9245C44.643 28.5794 43.4144 29.089 42.5082 29.9952C41.6021 30.9013 41.0924 32.13 41.0911 33.4115V35.8281H45.9245Z" fill="#AB3ADD"/>
<path opacity="0.25" d="M43.5078 57.5778C42.8669 57.5778 42.2522 57.3232 41.799 56.87C41.3458 56.4168 41.0911 55.8021 41.0911 55.1611V50.3278C41.0911 49.6869 41.3458 49.0722 41.799 48.619C42.2522 48.1657 42.8669 47.9111 43.5078 47.9111C44.1488 47.9111 44.7634 48.1657 45.2167 48.619C45.6699 49.0722 45.9245 49.6869 45.9245 50.3278V55.1611C45.9245 55.8021 45.6699 56.4168 45.2167 56.87C44.7634 57.3232 44.1488 57.5778 43.5078 57.5778ZM58.0078 57.5778C57.3669 57.5778 56.7522 57.3232 56.299 56.87C55.8458 56.4168 55.5911 55.8021 55.5911 55.1611V50.3278C55.5911 49.6869 55.8458 49.0722 56.299 48.619C56.7522 48.1657 57.3669 47.9111 58.0078 47.9111C58.6488 47.9111 59.2634 48.1657 59.7167 48.619C60.1699 49.0722 60.4245 49.6869 60.4245 50.3278V55.1611C60.4245 55.8021 60.1699 56.4168 59.7167 56.87C59.2634 57.3232 58.6488 57.5778 58.0078 57.5778Z" fill="#AB3ADD"/>
<path opacity="0.5" d="M70.0911 35.8281H31.4245C30.1426 35.8281 28.9132 36.3373 28.0068 37.2438C27.1004 38.1502 26.5911 39.3796 26.5911 40.6615V47.9115C26.5911 49.1933 27.1004 50.4227 28.0068 51.3291C28.9132 52.2356 30.1426 52.7448 31.4245 52.7448H41.0911V50.3281C41.0911 49.6872 41.3458 49.0725 41.799 48.6193C42.2522 48.1661 42.8669 47.9115 43.5078 47.9115C44.1488 47.9115 44.7634 48.1661 45.2167 48.6193C45.6699 49.0725 45.9245 49.6872 45.9245 50.3281V52.7448H55.5911V50.3281C55.5911 49.6872 55.8458 49.0725 56.299 48.6193C56.7522 48.1661 57.3669 47.9115 58.0078 47.9115C58.6488 47.9115 59.2634 48.1661 59.7167 48.6193C60.1699 49.0725 60.4245 49.6872 60.4245 50.3281V52.7448H70.0911C71.373 52.7448 72.6024 52.2356 73.5088 51.3291C74.4153 50.4227 74.9245 49.1933 74.9245 47.9115V40.6615C74.9245 39.3796 74.4153 38.1502 73.5088 37.2438C72.6024 36.3373 71.373 35.8281 70.0911 35.8281Z" fill="#AB3ADD"/>
<path d="M70.0911 52.7445H60.4245V55.1611C60.4245 55.8021 60.1699 56.4168 59.7167 56.87C59.2634 57.3232 58.6488 57.5778 58.0078 57.5778C57.3669 57.5778 56.7522 57.3232 56.299 56.87C55.8458 56.4168 55.5911 55.8021 55.5911 55.1611V52.7445H45.9245V55.1611C45.9245 55.8021 45.6699 56.4168 45.2167 56.87C44.7634 57.3232 44.1488 57.5778 43.5078 57.5778C42.8669 57.5778 42.2522 57.3232 41.799 56.87C41.3458 56.4168 41.0911 55.8021 41.0911 55.1611V52.7445H31.4245C30.1426 52.7445 28.9132 52.2352 28.0068 51.3288C27.1004 50.4224 26.5911 49.193 26.5911 47.9111V67.2445C26.5911 68.5263 27.1004 69.7557 28.0068 70.6621C28.9132 71.5686 30.1426 72.0778 31.4245 72.0778H70.0911C71.373 72.0778 72.6024 71.5686 73.5088 70.6621C74.4153 69.7557 74.9245 68.5263 74.9245 67.2445V47.9111C74.9245 49.193 74.4153 50.4224 73.5088 51.3288C72.6024 52.2352 71.373 52.7445 70.0911 52.7445Z" fill="#AB3ADD"/>
</svg>
