<svg width="101" height="101" viewBox="0 0 101 101" fill="none" xmlns="http://www.w3.org/2000/svg">
<circle cx="50.2422" cy="50.3281" r="50" fill="#FAF0FF"/>
<path opacity="0.5" d="M69.0911 50.3285C69.0911 55.456 67.0542 60.3735 63.4285 63.9992C59.8028 67.6249 54.8853 69.6618 49.7578 69.6618C44.6303 69.6618 39.7128 67.6249 36.0871 63.9992C32.4614 60.3735 30.4245 55.456 30.4245 50.3285C30.4245 45.2009 32.4614 40.2834 36.0871 36.6577C39.7128 33.032 44.6303 30.9951 49.7578 30.9951C54.8853 30.9951 59.8028 33.032 63.4285 36.6577C67.0542 40.2834 69.0911 45.2009 69.0911 50.3285Z" fill="#AB3ADD"/>
<path d="M66.6962 37.7227C67.175 37.6785 67.6166 37.4458 67.9239 37.076C68.2311 36.7062 68.3789 36.2295 68.3347 35.7507C68.2905 35.2719 68.0579 34.8303 67.688 34.523C67.3182 34.2157 66.8415 34.068 66.3627 34.1122C65.338 34.2088 64.2505 34.3683 63.1123 34.5955C62.6492 34.686 62.2398 34.954 61.9716 35.3423L64.671 37.9933C65.3864 37.8725 66.063 37.7807 66.6962 37.7227Z" fill="#AB3ADD"/>
<path fill-rule="evenodd" clip-rule="evenodd" d="M71.3555 34.3302C71.1216 34.2681 70.8775 34.2535 70.6378 34.2872C70.398 34.321 70.1675 34.4024 69.9598 34.5267C69.752 34.651 69.5713 34.8157 69.4282 35.011C69.2852 35.2063 69.1827 35.4282 69.1268 35.6638C69.0709 35.8994 69.0628 36.1437 69.103 36.3825C69.1431 36.6212 69.2306 36.8495 69.3604 37.0538C69.4903 37.2582 69.6597 37.4345 69.8587 37.5723C70.0578 37.7101 70.2824 37.8066 70.5194 37.8562C71.4715 38.0809 71.8389 38.4168 71.9742 38.6343C72.1265 38.8808 72.2956 39.5188 71.5948 40.9253C71.3801 41.3557 71.3451 41.8538 71.4976 42.3099C71.6501 42.7661 71.9776 43.143 72.408 43.3577C72.8384 43.5724 73.3365 43.6074 73.7926 43.4549C74.2488 43.3023 74.6257 42.9749 74.8404 42.5445C75.7539 40.7102 76.201 38.557 75.0482 36.7131C74.2169 35.3839 72.8176 34.6782 71.3555 34.3302ZM70.8118 47.8177C70.9795 47.6487 71.1123 47.4483 71.2026 47.228C71.2929 47.0076 71.3389 46.7717 71.338 46.5336C71.3371 46.2955 71.2893 46.0599 71.1974 45.8403C71.1054 45.6207 70.9711 45.4213 70.8021 45.2536C70.6331 45.0858 70.4328 44.953 70.2124 44.8628C69.9921 44.7725 69.7562 44.7265 69.5181 44.7274C69.28 44.7283 69.0444 44.776 68.8248 44.868C68.6051 44.9599 68.4058 45.0942 68.238 45.2632C66.5802 46.9356 64.4511 48.7191 61.9354 50.5098C61.5438 50.7886 61.2789 51.2116 61.1992 51.6856C61.1194 52.1597 61.2312 52.646 61.5101 53.0377C61.7889 53.4293 62.2118 53.6941 62.6859 53.7738C63.1599 53.8536 63.6463 53.7418 64.0379 53.463C66.6841 51.578 68.9776 49.664 70.8118 47.8177ZM29.4264 57.4505C29.9121 56.8415 30.4825 56.2035 31.1326 55.5413L30.5574 52.3272C30.2443 52.2343 29.912 52.2277 29.5955 52.3081C29.279 52.3885 28.9901 52.5529 28.7594 52.7839C27.9522 53.5959 27.2248 54.4007 26.594 55.1885C26.4454 55.3745 26.3348 55.5879 26.2686 55.8166C26.2024 56.0453 26.1819 56.2848 26.2082 56.5215C26.2346 56.7581 26.3073 56.9872 26.4222 57.1958C26.5372 57.4043 26.692 57.5882 26.878 57.7369C27.064 57.8855 27.2774 57.9961 27.5061 58.0623C27.7349 58.1285 27.9744 58.149 28.211 58.1227C28.4476 58.0963 28.6768 58.0236 28.8853 57.9087C29.0938 57.7937 29.2777 57.6389 29.4264 57.4529V57.4505ZM58.8203 56.8632C59.0291 56.7434 59.2119 56.5831 59.3581 56.3918C59.5043 56.2005 59.6109 55.9819 59.6717 55.749C59.7325 55.516 59.7463 55.2733 59.7122 55.0349C59.6781 54.7966 59.5969 54.5674 59.4733 54.3608C59.3497 54.1542 59.1861 53.9742 58.9922 53.8315C58.7983 53.6888 58.5779 53.5862 58.3439 53.5296C58.1098 53.473 57.8669 53.4636 57.6292 53.502C57.3915 53.5403 57.1638 53.6257 56.9595 53.753C54.5364 55.2017 52.0425 56.5285 49.4871 57.7284C49.0648 57.9405 48.742 58.3091 48.5875 58.7557C48.4331 59.2024 48.4592 59.6917 48.6602 60.1193C48.8613 60.547 49.2215 60.8792 49.6639 61.0452C50.1064 61.2112 50.5962 61.1978 51.029 61.0078C53.6928 59.7556 56.2931 58.3724 58.8203 56.8632ZM27.5607 60.5994C27.7065 60.1411 27.6643 59.6437 27.4434 59.2165C27.2224 58.7894 26.8409 58.4675 26.3826 58.3217C25.9243 58.1759 25.4269 58.2181 24.9997 58.439C24.5726 58.66 24.2507 59.0415 24.1049 59.4998C23.6433 60.9522 23.595 62.5497 24.4674 63.9465C25.5621 65.6961 27.626 66.3777 29.6729 66.5734C29.9117 66.5999 30.1534 66.5786 30.384 66.5108C30.6145 66.443 30.8293 66.3301 31.0157 66.1785C31.2022 66.027 31.3567 65.8398 31.4702 65.628C31.5837 65.4162 31.654 65.184 31.6769 64.9448C31.6998 64.7055 31.6749 64.4642 31.6037 64.2347C31.5324 64.0052 31.4163 63.7921 31.262 63.6079C31.1076 63.4237 30.9182 63.2721 30.7047 63.1617C30.4913 63.0514 30.258 62.9847 30.0185 62.9653C28.3413 62.8058 27.7275 62.3201 27.5414 62.0228C27.4205 61.8295 27.2949 61.4331 27.5607 60.5994ZM45.125 63.5066C45.565 63.3305 45.9185 62.9891 46.1098 62.5555C46.3011 62.1219 46.3149 61.6307 46.1484 61.187C45.9819 60.7433 45.6482 60.3825 45.2188 60.1819C44.7895 59.9813 44.2986 59.9568 43.8515 60.1136C40.891 61.2253 38.136 62.0252 35.7266 62.5037C35.2655 62.6073 34.863 62.8869 34.605 63.283C34.3471 63.6791 34.2541 64.1602 34.3458 64.6239C34.4375 65.0876 34.7067 65.4971 35.0961 65.7651C35.4854 66.0331 35.964 66.1385 36.4299 66.0587C39.0713 65.5367 42.0196 64.6715 45.125 63.5066Z" fill="#AB3ADD"/>
</svg>
