<svg width="101" height="101" viewBox="0 0 101 101" fill="none" xmlns="http://www.w3.org/2000/svg">
<circle cx="50.5" cy="50.3281" r="50" fill="#FAF0FF"/>
<path opacity="0.5" d="M30.7921 30.7328C29.4856 32.0394 28.7516 33.8115 28.7516 35.6592C28.7516 37.5069 29.4856 39.279 30.7921 40.5856L34.6273 44.4232C34.6563 44.3894 35.9686 45.6388 36 45.6074L45.6667 35.9407C45.6981 35.9093 44.4487 34.5971 44.4825 34.5681L40.6448 30.7328C39.3382 29.4263 37.5662 28.6924 35.7185 28.6924C33.8707 28.6924 32.0987 29.4263 30.7921 30.7328ZM33.9048 58.4327C33.9901 58.2137 34.1396 58.0256 34.3337 57.893C34.5277 57.7604 34.7572 57.6895 34.9923 57.6895C35.2273 57.6895 35.4568 57.7604 35.6509 57.893C35.8449 58.0256 35.9944 58.2137 36.0798 58.4327L36.4592 59.3993C36.5172 59.5487 36.6056 59.6845 36.7187 59.7981C36.8319 59.9116 36.9673 60.0005 37.1165 60.0591L38.0783 60.4385C38.2967 60.5255 38.4839 60.6759 38.6158 60.8705C38.7477 61.065 38.8182 61.2946 38.8182 61.5296C38.8182 61.7646 38.7477 61.9943 38.6158 62.1888C38.4839 62.3833 38.2967 62.5338 38.0783 62.6208L37.1165 63.0026C36.9676 63.0617 36.8324 63.1507 36.7193 63.2642C36.6063 63.3777 36.5177 63.5132 36.4592 63.6623L36.0798 64.629C35.9944 64.848 35.8449 65.036 35.6509 65.1687C35.4568 65.3013 35.2273 65.3722 34.9923 65.3722C34.7572 65.3722 34.5277 65.3013 34.3337 65.1687C34.1396 65.036 33.9901 64.848 33.9048 64.629L33.5253 63.6623C33.4668 63.5132 33.3782 63.3777 33.2652 63.2642C33.1521 63.1507 33.0169 63.0617 32.868 63.0026L31.9062 62.6208C31.6878 62.5338 31.5006 62.3833 31.3687 62.1888C31.2368 61.9943 31.1663 61.7646 31.1663 61.5296C31.1663 61.2946 31.2368 61.065 31.3687 60.8705C31.5006 60.6759 31.6878 60.5255 31.9062 60.4385L32.868 60.0591C33.0171 59.9997 33.1525 59.9103 33.2656 59.7964C33.3786 59.6825 33.4671 59.5465 33.5253 59.3969L33.9048 58.4327Z" fill="#AB3ADD"/>
<path opacity="0.2" d="M69.7536 43.5049C69.839 43.286 69.9885 43.0979 70.1825 42.9653C70.3765 42.8327 70.6061 42.7617 70.8411 42.7617C71.0761 42.7617 71.3057 42.8327 71.4997 42.9653C71.6937 43.0979 71.8432 43.286 71.9286 43.5049L72.3056 44.4692C72.4264 44.7713 72.6633 45.0105 72.9653 45.1289L73.9272 45.5108C74.1448 45.5981 74.3312 45.7486 74.4625 45.9429C74.5939 46.1371 74.664 46.3662 74.664 46.6007C74.664 46.8351 74.5939 47.0642 74.4625 47.2585C74.3312 47.4527 74.1448 47.6032 73.9272 47.6906L72.9653 48.0724C72.8161 48.1314 72.6805 48.2203 72.567 48.3338C72.4535 48.4473 72.3645 48.5829 72.3056 48.7322L71.9286 49.6988C71.8432 49.9178 71.6937 50.1059 71.4997 50.2385C71.3057 50.3711 71.0761 50.442 70.8411 50.442C70.6061 50.442 70.3765 50.3711 70.1825 50.2385C69.9885 50.1059 69.839 49.9178 69.7536 49.6988L69.3742 48.7322C69.3155 48.5831 69.2269 48.4477 69.1139 48.3342C69.0008 48.2207 68.8657 48.1316 68.7168 48.0724L67.755 47.6906C67.5374 47.6032 67.351 47.4527 67.2197 47.2585C67.0883 47.0642 67.0182 46.8351 67.0182 46.6007C67.0182 46.3662 67.0883 46.1371 67.2197 45.9429C67.351 45.7486 67.5374 45.5981 67.755 45.5108L68.7168 45.1289C68.8657 45.0697 69.0008 44.9806 69.1139 44.8671C69.2269 44.7537 69.3155 44.6182 69.3742 44.4692L69.7536 43.5025V43.5049Z" fill="#AB3ADD"/>
<path opacity="0.7" d="M60.4083 27.0157C60.4937 26.7967 60.6432 26.6086 60.8373 26.476C61.0313 26.3434 61.2608 26.2725 61.4958 26.2725C61.7309 26.2725 61.9604 26.3434 62.1544 26.476C62.3485 26.6086 62.498 26.7967 62.5833 27.0157L63.6225 29.6619C63.6805 29.8116 63.7689 29.9477 63.882 30.0617C63.9951 30.1756 64.1306 30.265 64.2798 30.3241L66.9164 31.3681C67.1348 31.455 67.322 31.6055 67.4539 31.8C67.5858 31.9946 67.6563 32.2242 67.6563 32.4592C67.6563 32.6942 67.5858 32.9238 67.4539 33.1184C67.322 33.3129 67.1348 33.4634 66.9164 33.5503L64.2823 34.5943C64.133 34.6533 63.9974 34.7422 63.8839 34.8557C63.7704 34.9692 63.6815 35.1048 63.6225 35.2541L62.5833 37.8979C62.498 38.1169 62.3485 38.305 62.1544 38.4376C61.9604 38.5702 61.7309 38.6411 61.4958 38.6411C61.2608 38.6411 61.0313 38.5702 60.8373 38.4376C60.6432 38.305 60.4937 38.1169 60.4083 37.8979L59.3692 35.2517C59.3102 35.1024 59.2213 34.9668 59.1078 34.8533C58.9943 34.7398 58.8587 34.6509 58.7094 34.5919L56.0753 33.5479C55.8569 33.4609 55.6697 33.3105 55.5378 33.116C55.4059 32.9214 55.3354 32.6918 55.3354 32.4568C55.3354 32.2218 55.4059 31.9921 55.5378 31.7976C55.6697 31.6031 55.8569 31.4526 56.0753 31.3657L58.7094 30.3217C58.8589 30.2625 58.9947 30.1731 59.1082 30.0592C59.2217 29.9453 59.3105 29.8092 59.3692 29.6595L60.4083 27.0157Z" fill="#AB3ADD"/>
<path d="M47.0393 37.1242C47.0103 37.158 45.6981 35.9086 45.6667 35.94L36 45.6067C35.9686 45.6381 37.218 46.9504 37.1842 46.9794L60.3552 70.148C61.0021 70.7951 61.7702 71.3084 62.6155 71.6587C63.4608 72.0089 64.3669 72.1893 65.2819 72.1894C66.1969 72.1895 67.103 72.0094 67.9484 71.6593C68.7938 71.3092 69.562 70.7961 70.2091 70.1492C70.8562 69.5022 71.3696 68.7342 71.7198 67.8888C72.0701 67.0435 72.2505 66.1375 72.2506 65.2224C72.2507 64.3074 72.0706 63.4013 71.7205 62.5559C71.3704 61.7105 70.8573 60.9423 70.2103 60.2952L47.0393 37.1242Z" fill="#AB3ADD"/>
</svg>
