<svg width="101" height="101" viewBox="0 0 101 101" fill="none" xmlns="http://www.w3.org/2000/svg">
<circle cx="50.2422" cy="50.3281" r="50" fill="#FAF0FF"/>
<path opacity="0.5" d="M72.0397 35.6719C72.8542 36.8899 72.8542 38.5864 72.8542 41.9818V72.7943H74.0625C74.5432 72.7943 75.0042 72.9852 75.3441 73.3251C75.684 73.665 75.875 74.1261 75.875 74.6068C75.875 75.0875 75.684 75.5485 75.3441 75.8884C75.0042 76.2283 74.5432 76.4193 74.0625 76.4193H25.7292C25.2485 76.4193 24.7874 76.2283 24.4475 75.8884C24.1076 75.5485 23.9167 75.0875 23.9167 74.6068C23.9167 74.1261 24.1076 73.665 24.4475 73.3251C24.7874 72.9852 25.2485 72.7943 25.7292 72.7943H26.9375V41.9818C26.9375 38.5864 26.9375 36.8899 27.7519 35.6719C28.1046 35.1439 28.5579 34.6906 29.0859 34.3379C30.1517 33.6249 35.217 33.5355 37.8294 33.5259C37.8197 34.2291 37.8197 34.9638 37.8197 35.725V38.9609H31.7708C31.2901 38.9609 30.8291 39.1519 30.4892 39.4918C30.1493 39.8317 29.9583 40.2927 29.9583 40.7734C29.9583 41.2541 30.1493 41.7152 30.4892 42.0551C30.8291 42.395 31.2901 42.5859 31.7708 42.5859H37.8197V46.2109H31.7708C31.2901 46.2109 30.8291 46.4019 30.4892 46.7418C30.1493 47.0817 29.9583 47.5427 29.9583 48.0234C29.9583 48.5041 30.1493 48.9652 30.4892 49.3051C30.8291 49.645 31.2901 49.8359 31.7708 49.8359H37.8197V53.4609H31.7708C31.2901 53.4609 30.8291 53.6519 30.4892 53.9918C30.1493 54.3317 29.9583 54.7927 29.9583 55.2734C29.9583 55.7541 30.1493 56.2152 30.4892 56.5551C30.8291 56.895 31.2901 57.0859 31.7708 57.0859H37.8197V72.7943H61.9864V57.0859H68.0208C68.5015 57.0859 68.9625 56.895 69.3025 56.5551C69.6424 56.2152 69.8333 55.7541 69.8333 55.2734C69.8333 54.7927 69.6424 54.3317 69.3025 53.9918C68.9625 53.6519 68.5015 53.4609 68.0208 53.4609H61.9864V49.8359H68.0208C68.5015 49.8359 68.9625 49.645 69.3025 49.3051C69.6424 48.9652 69.8333 48.5041 69.8333 48.0234C69.8333 47.5427 69.6424 47.0817 69.3025 46.7418C68.9625 46.4019 68.5015 46.2109 68.0208 46.2109H61.9864V42.5859H68.0208C68.5015 42.5859 68.9625 42.395 69.3025 42.0551C69.6424 41.7152 69.8333 41.2541 69.8333 40.7734C69.8333 40.2927 69.6424 39.8317 69.3025 39.4918C68.9625 39.1519 68.5015 38.9609 68.0208 38.9609H61.9864V35.7226C61.9864 34.9638 61.9864 34.2291 61.9767 33.5234C64.5892 33.5355 69.6376 33.6249 70.7057 34.3379C71.2337 34.6906 71.687 35.1439 72.0397 35.6719Z" fill="#AB3ADD"/>
<path fill-rule="evenodd" clip-rule="evenodd" d="M47.4792 26.2734H52.3125C56.8703 26.2734 59.1468 26.2734 60.563 27.6896C61.9792 29.1058 61.9792 31.3823 61.9792 35.9401V72.7943H74.0625C74.5432 72.7943 75.0042 72.9852 75.3441 73.3251C75.684 73.665 75.875 74.1261 75.875 74.6068C75.875 75.0875 75.684 75.5485 75.3441 75.8884C75.0042 76.2283 74.5432 76.4193 74.0625 76.4193H25.7292C25.2485 76.4193 24.7874 76.2283 24.4475 75.8884C24.1076 75.5485 23.9167 75.0875 23.9167 74.6068C23.9167 74.1261 24.1076 73.665 24.4475 73.3251C24.7874 72.9852 25.2485 72.7943 25.7292 72.7943H37.8125V35.9401C37.8125 31.3823 37.8125 29.1058 39.2287 27.6896C40.6448 26.2734 42.9213 26.2734 47.4792 26.2734ZM49.8958 65.5443C50.3765 65.5443 50.8375 65.7352 51.1775 66.0751C51.5174 66.415 51.7083 66.8761 51.7083 67.3568V72.7943H48.0833V67.3568C48.0833 66.8761 48.2743 66.415 48.6142 66.0751C48.9541 65.7352 49.4151 65.5443 49.8958 65.5443ZM45.0625 55.2734C44.5818 55.2734 44.1208 55.4644 43.7809 55.8043C43.4409 56.1442 43.25 56.6052 43.25 57.0859C43.25 57.5666 43.4409 58.0277 43.7809 58.3676C44.1208 58.7075 44.5818 58.8984 45.0625 58.8984H54.7292C55.2099 58.8984 55.6709 58.7075 56.0108 58.3676C56.3507 58.0277 56.5417 57.5666 56.5417 57.0859C56.5417 56.6052 56.3507 56.1442 56.0108 55.8043C55.6709 55.4644 55.2099 55.2734 54.7292 55.2734H45.0625ZM43.25 49.8359C43.25 49.3552 43.4409 48.8942 43.7809 48.5543C44.1208 48.2144 44.5818 48.0234 45.0625 48.0234H54.7292C55.2099 48.0234 55.6709 48.2144 56.0108 48.5543C56.3507 48.8942 56.5417 49.3552 56.5417 49.8359C56.5417 50.3166 56.3507 50.7777 56.0108 51.1176C55.6709 51.4575 55.2099 51.6484 54.7292 51.6484H45.0625C44.5818 51.6484 44.1208 51.4575 43.7809 51.1176C43.4409 50.7777 43.25 50.3166 43.25 49.8359ZM45.0625 41.9818C44.5818 41.9818 44.1208 42.1727 43.7809 42.5126C43.4409 42.8525 43.25 43.3136 43.25 43.7943C43.25 44.275 43.4409 44.736 43.7809 45.0759C44.1208 45.4158 44.5818 45.6068 45.0625 45.6068H54.7292C55.2099 45.6068 55.6709 45.4158 56.0108 45.0759C56.3507 44.736 56.5417 44.275 56.5417 43.7943C56.5417 43.3136 56.3507 42.8525 56.0108 42.5126C55.6709 42.1727 55.2099 41.9818 54.7292 41.9818H45.0625ZM43.25 36.5443C43.25 36.0636 43.4409 35.6025 43.7809 35.2626C44.1208 34.9227 44.5818 34.7318 45.0625 34.7318H54.7292C55.2099 34.7318 55.6709 34.9227 56.0108 35.2626C56.3507 35.6025 56.5417 36.0636 56.5417 36.5443C56.5417 37.025 56.3507 37.486 56.0108 37.8259C55.6709 38.1658 55.2099 38.3568 54.7292 38.3568H45.0625C44.5818 38.3568 44.1208 38.1658 43.7809 37.8259C43.4409 37.486 43.25 37.025 43.25 36.5443Z" fill="#AB3ADD"/>
</svg>
