<svg width="101" height="101" viewBox="0 0 101 101" fill="none" xmlns="http://www.w3.org/2000/svg">
<circle cx="50.5" cy="50.3281" r="50" fill="#FAF0FF"/>
<path opacity="0.5" d="M26.6663 50.4401C26.6663 39.0479 26.6663 33.3519 30.2043 29.8114C33.7472 26.2734 39.4408 26.2734 50.833 26.2734C62.2252 26.2734 67.9213 26.2734 71.4593 29.8114C74.9997 33.3543 74.9997 39.0479 74.9997 50.4401C74.9997 61.8323 74.9997 67.5284 71.4593 71.0663C67.9237 74.6068 62.2252 74.6068 50.833 74.6068C39.4408 74.6068 33.7448 74.6068 30.2043 71.0663C26.6663 67.5308 26.6663 61.8323 26.6663 50.4401Z" fill="#AB3ADD"/>
<path d="M54.429 37.0178C54.8929 37.1424 55.2883 37.446 55.5285 37.862C55.7687 38.2779 55.8339 38.7722 55.7098 39.2363L49.4555 62.5813C49.3938 62.8112 49.2874 63.0267 49.1424 63.2155C48.9973 63.4043 48.8166 63.5627 48.6103 63.6817C48.1938 63.9219 47.699 63.9868 47.2346 63.8621C46.7702 63.7374 46.3744 63.4334 46.1342 63.0169C45.894 62.6004 45.8291 62.1055 45.9538 61.6412L52.2081 38.2986C52.2698 38.0684 52.3762 37.8526 52.5214 37.6636C52.6666 37.4746 52.8476 37.316 53.0541 37.197C53.2606 37.0781 53.4886 37.001 53.7249 36.9702C53.9613 36.9395 54.2013 36.9556 54.4314 37.0178H54.429ZM58.0105 41.9091C58.3504 41.5697 58.811 41.379 59.2913 41.379C59.7717 41.379 60.2323 41.5697 60.5722 41.9091L61.0773 42.4118C62.6118 43.9463 63.8927 45.2272 64.7723 46.3799C65.7003 47.5979 66.3528 48.8836 66.3528 50.4399C66.3528 51.9963 65.7003 53.2819 64.7723 54.4999C63.8927 55.6527 62.6118 56.9335 61.0748 58.4681L60.5722 58.9708C60.4062 59.1488 60.2061 59.2917 59.9838 59.3907C59.7615 59.4898 59.5215 59.5431 59.2781 59.5474C59.0347 59.5517 58.793 59.5069 58.5673 59.4157C58.3416 59.3246 58.1366 59.1889 57.9645 59.0168C57.7924 58.8447 57.6567 58.6396 57.5655 58.414C57.4744 58.1883 57.4296 57.9465 57.4339 57.7032C57.4382 57.4598 57.4915 57.2198 57.5905 56.9975C57.6896 56.7751 57.8324 56.575 58.0105 56.4091L58.4238 55.9934C60.0719 54.3453 61.1763 53.2384 61.8893 52.3008C62.5732 51.4066 62.7278 50.8846 62.7278 50.4399C62.7278 49.9953 62.5732 49.4733 61.8893 48.5791C61.1763 47.6438 60.0719 46.5346 58.4238 44.8864L58.0105 44.4708C57.6711 44.1309 57.4804 43.6702 57.4804 43.1899C57.4804 42.7096 57.6711 42.2489 58.0105 41.9091ZM41.0938 41.9091C41.4374 41.5889 41.8919 41.4146 42.3614 41.4229C42.831 41.4312 43.279 41.6214 43.6111 41.9535C43.9432 42.2856 44.1334 42.7336 44.1417 43.2032C44.15 43.6727 43.9757 44.1272 43.6555 44.4708L43.2423 44.8864C41.5941 46.5346 40.4921 47.6414 39.7768 48.5791C39.0928 49.4733 38.9406 49.9953 38.9406 50.4399C38.9406 50.8846 39.0928 51.4066 39.7768 52.3008C40.4921 53.236 41.5941 54.3453 43.2423 55.9934L43.6579 56.4091C43.831 56.5764 43.9689 56.7764 44.0638 56.9976C44.1587 57.2188 44.2086 57.4567 44.2106 57.6973C44.2126 57.938 44.1666 58.1766 44.0753 58.3993C43.9841 58.622 43.8494 58.8243 43.6792 58.9944C43.5089 59.1645 43.3065 59.299 43.0837 59.3901C42.8609 59.4811 42.6222 59.5268 42.3815 59.5246C42.1409 59.5224 41.9031 59.4723 41.682 59.3772C41.4609 59.2821 41.261 59.144 41.0938 58.9708L40.5912 58.4681C39.0542 56.9335 37.7733 55.6527 36.8937 54.4999C35.9657 53.2819 35.3156 51.9963 35.3156 50.4399C35.3156 48.8836 35.9681 47.5979 36.8937 46.3799C37.7733 45.2272 39.0542 43.9463 40.5912 42.4118L41.0938 41.9091Z" fill="#AB3ADD"/>
</svg>
