<svg width="47" height="47" viewBox="0 0 47 47" fill="none" xmlns="http://www.w3.org/2000/svg">
<path d="M36.3574 14.747L35.1499 12.0637L32.4665 10.8562C32.2992 10.7799 32.1574 10.6572 32.0579 10.5025C31.9584 10.3479 31.9055 10.1679 31.9055 9.98407C31.9055 9.80021 31.9584 9.62023 32.0579 9.4656C32.1574 9.31097 32.2992 9.18822 32.4665 9.11199L35.1499 7.90449L36.3574 5.22116C36.4336 5.05384 36.5563 4.91199 36.711 4.81252C36.8656 4.71305 37.0456 4.66016 37.2294 4.66016C37.4133 4.66016 37.5933 4.71305 37.7479 4.81252C37.9025 4.91199 38.0253 5.05384 38.1015 5.22116L39.309 7.90449L41.9924 9.11199C42.1597 9.18822 42.3015 9.31097 42.401 9.4656C42.5005 9.62023 42.5534 9.80021 42.5534 9.98407C42.5534 10.1679 42.5005 10.3479 42.401 10.5025C42.3015 10.6572 42.1597 10.7799 41.9924 10.8562L39.309 12.0637L38.1015 14.747C37.7757 15.4945 36.7024 15.4945 36.3574 14.747ZM42.5674 23.8128L41.954 22.4328C41.8778 22.2655 41.755 22.1237 41.6004 22.0242C41.4458 21.9247 41.2658 21.8718 41.0819 21.8718C40.8981 21.8718 40.7181 21.9247 40.5635 22.0242C40.4088 22.1237 40.2861 22.2655 40.2099 22.4328L39.5965 23.8128L38.1974 24.4262C38.03 24.5024 37.8882 24.6251 37.7887 24.7798C37.6892 24.9344 37.6364 25.1144 37.6364 25.2982C37.6364 25.4821 37.6892 25.6621 37.7887 25.8167C37.8882 25.9713 38.03 26.0941 38.1974 26.1703L39.5774 26.7837L40.1907 28.1828C40.2669 28.3501 40.3897 28.492 40.5443 28.5915C40.6989 28.6909 40.8789 28.7438 41.0628 28.7438C41.2466 28.7438 41.4266 28.6909 41.5812 28.5915C41.7359 28.492 41.8586 28.3501 41.9349 28.1828L42.5482 26.8028L43.9474 26.1895C44.1147 26.1133 44.2565 25.9905 44.356 25.8359C44.4555 25.6812 44.5084 25.5013 44.5084 25.3174C44.5084 25.1335 44.4555 24.9536 44.356 24.7989C44.2565 24.6443 44.1147 24.5216 43.9474 24.4453L42.5674 23.8128ZM32.9074 26.9753L35.2649 28.7578C36.0315 29.3328 36.2424 30.4062 35.7632 31.2495L32.6582 36.6162C32.179 37.4595 31.144 37.8045 30.2624 37.4212L27.5215 36.2712C27.1382 36.5203 26.7165 36.7695 26.2949 36.9803L25.9307 39.932C25.8157 40.8903 24.9915 41.6187 24.0332 41.6187H17.8424C16.884 41.6187 16.0599 40.8903 15.9449 39.932L15.5807 36.9803C15.159 36.7695 14.7565 36.5395 14.354 36.2712L11.6132 37.4212C10.7315 37.8045 9.69653 37.4595 9.21736 36.6162L6.11236 31.2495C5.63319 30.4062 5.84403 29.352 6.61069 28.7578L8.96819 26.9753V26.2662C8.96819 26.0362 8.96819 25.787 8.98736 25.557L6.62986 23.7745C5.86319 23.1995 5.65236 22.1262 6.13153 21.2828L9.23653 15.9162C9.71569 15.0728 10.7507 14.7278 11.6324 15.1112L14.3732 16.2612C14.7565 16.012 15.1782 15.7628 15.5999 15.552L15.964 12.6003C16.0599 11.6612 16.884 10.9328 17.8424 10.9328H24.0332C24.9915 10.9328 25.8157 11.6612 25.9307 12.6195L26.2949 15.5712C26.7165 15.782 27.119 16.012 27.5215 16.2803L30.2624 15.1303C31.144 14.747 32.179 15.092 32.6582 15.9353L35.7632 21.302C36.2424 22.1453 36.0315 23.1995 35.2649 23.7937L32.9074 25.5762C32.9265 25.8062 32.9265 26.0362 32.9265 26.2853C32.9265 26.5345 32.9265 26.7453 32.9074 26.9753ZM26.6974 26.2662C26.6974 23.0845 24.129 20.5162 20.9474 20.5162C17.7657 20.5162 15.1974 23.0845 15.1974 26.2662C15.1974 29.4478 17.7657 32.0162 20.9474 32.0162C24.129 32.0162 26.6974 29.4478 26.6974 26.2662Z" fill="#3B57F4"/>
</svg>
