<svg width="29" height="29" viewBox="0 0 29 29" fill="none" xmlns="http://www.w3.org/2000/svg">
<path fill-rule="evenodd" clip-rule="evenodd" d="M6.26511 23.7428C5.33685 23.7428 4.44661 23.3741 3.79024 22.7177C3.13386 22.0613 2.76511 21.1711 2.76511 20.2428V8.57617C2.76511 7.64791 3.13386 6.75768 3.79024 6.1013C4.44661 5.44492 5.33685 5.07617 6.26511 5.07617H22.5984C23.5267 5.07617 24.4169 5.44492 25.0733 6.1013C25.7297 6.75768 26.0984 7.64791 26.0984 8.57617V20.2428C26.0984 21.1711 25.7297 22.0613 25.0733 22.7177C24.4169 23.3741 23.5267 23.7428 22.5984 23.7428H6.26511ZM9.32761 9.99951C9.20877 9.89803 9.07075 9.82146 8.92174 9.77434C8.77274 9.72723 8.61579 9.71053 8.46021 9.72524C8.30463 9.73995 8.15358 9.78576 8.01605 9.85997C7.87852 9.93417 7.75729 10.0352 7.65957 10.1572C7.56185 10.2792 7.48963 10.4195 7.44719 10.5699C7.40475 10.7203 7.39296 10.8777 7.41252 11.0327C7.43208 11.1878 7.48259 11.3373 7.56105 11.4725C7.63952 11.6076 7.74433 11.7256 7.86928 11.8195L12.2443 15.3207C12.865 15.8177 13.6366 16.0885 14.4318 16.0885C15.227 16.0885 15.9985 15.8177 16.6193 15.3207L20.9943 11.8207C21.1139 11.7249 21.2136 11.6065 21.2875 11.4723C21.3614 11.338 21.4081 11.1905 21.425 11.0382C21.4419 10.8859 21.4286 10.7317 21.386 10.5845C21.3433 10.4373 21.272 10.3 21.1763 10.1803C21.0805 10.0607 20.9621 9.96106 20.8279 9.88715C20.6936 9.81325 20.5461 9.76651 20.3938 9.74961C20.2415 9.73271 20.0873 9.74598 19.9401 9.78866C19.7929 9.83133 19.6556 9.90258 19.5359 9.99834L15.1609 13.4983C14.954 13.664 14.6969 13.7543 14.4318 13.7543C14.1667 13.7543 13.9095 13.664 13.7026 13.4983L9.32761 9.99834V9.99951Z" fill="#3B57F4"/>
</svg>
