<svg width="109" height="109" viewBox="0 0 109 109" fill="none" xmlns="http://www.w3.org/2000/svg">
<circle cx="54.5046" cy="54.6281" r="53.7023" fill="#3B57F4" fill-opacity="0.12"/>
<path opacity="0.4" d="M85.4923 41.4318V59.1391C85.4923 63.5659 84.0167 67.2549 81.4196 69.852C78.852 72.4195 75.163 73.8951 70.7362 73.8951V80.1812C70.7362 82.5422 68.1097 83.9588 66.1619 82.6603L53.029 73.8951H46.7724C47.0085 73.0098 47.1265 72.0949 47.1265 71.1505C47.1265 68.1403 45.9756 65.3662 44.0868 63.2708C41.9619 60.8509 38.8041 59.3457 35.3217 59.3457C32.0164 59.3457 29.0061 60.7033 26.8518 62.9167C26.5861 61.7362 26.4681 60.4671 26.4681 59.1391V41.4318C26.4681 32.5782 32.3705 26.6758 41.2241 26.6758H70.7362C79.5899 26.6758 85.4923 32.5782 85.4923 41.4318Z" fill="#3B57F4"/>
<path d="M66.3092 52.7042H45.6507C44.4407 52.7042 43.4373 51.7007 43.4373 50.4908C43.4373 49.2808 44.4407 48.2773 45.6507 48.2773H66.3092C67.5192 48.2773 68.5226 49.2808 68.5226 50.4908C68.5226 51.7007 67.5192 52.7042 66.3092 52.7042Z" fill="#3B57F4"/>
<path d="M35.3214 59.3457C28.7993 59.3457 23.5166 64.6284 23.5166 71.1505C23.5166 73.3639 24.1363 75.4593 25.2283 77.23C27.2646 80.6534 31.0127 82.9554 35.3214 82.9554C39.6302 82.9554 43.3783 80.6534 45.4146 77.23C46.5066 75.4593 47.1263 73.3639 47.1263 71.1505C47.1263 64.6284 41.8436 59.3457 35.3214 59.3457ZM41.1353 70.1766L34.8492 75.9906C34.4361 76.3742 33.8753 76.5808 33.3441 76.5808C32.7834 76.5808 32.2226 76.3742 31.78 75.9315L28.8583 73.0098C28.0024 72.154 28.0024 70.7374 28.8583 69.8815C29.7141 69.0257 31.1307 69.0257 31.9866 69.8815L33.4032 71.2981L38.1251 66.9303C39.0105 66.104 40.4271 66.163 41.2534 67.0483C42.0797 67.9337 42.0207 69.3503 41.1353 70.1766Z" fill="#3B57F4"/>
</svg>
