<svg width="169" height="35" viewBox="0 0 169 35" fill="none" xmlns="http://www.w3.org/2000/svg">
<path d="M15.03 17.8443C15.03 18.8646 14.2028 19.6917 13.1825 19.6917C12.1622 19.6917 11.3351 18.8646 11.3351 17.8443C11.3351 16.824 12.1622 15.9968 13.1825 15.9968C14.2028 15.9968 15.03 16.824 15.03 17.8443Z" fill="white"/>
<path d="M20.4694 19.6917C21.4897 19.6917 22.3168 18.8646 22.3168 17.8443C22.3168 16.824 21.4897 15.9968 20.4694 15.9968C19.4491 15.9968 18.622 16.824 18.622 17.8443C18.622 18.8646 19.4491 19.6917 20.4694 19.6917Z" fill="white"/>
<path fill-rule="evenodd" clip-rule="evenodd" d="M10.0474 9.32776C11.131 6.63637 13.7686 4.73598 16.8508 4.73438C16.8489 4.73439 16.8471 4.73441 16.8453 4.73444C16.8515 4.73435 16.8578 4.73435 16.864 4.73445C16.8622 4.73441 16.8604 4.73439 16.8585 4.73438C19.9407 4.73598 22.5783 6.63637 23.6619 9.32776C25.0726 9.42419 26.483 9.5506 27.893 9.707C29.6459 9.90143 30.9434 11.4031 30.9434 13.1668V26.3688C30.9434 28.1526 29.6167 29.6641 27.8416 29.8399C20.493 30.5676 13.2163 30.5676 5.8677 29.8399C4.09255 29.6641 2.76594 28.1526 2.76594 26.3688V13.1668C2.76594 11.4031 4.06337 9.90143 5.81632 9.707C7.22631 9.5506 8.63672 9.42419 10.0474 9.32776ZM4.7587 24.9185L16.5906 5.19181C16.7102 4.99243 16.9991 4.99243 17.1187 5.19181L28.9506 24.9185C20.8022 26.3595 12.9071 26.3595 4.7587 24.9185Z" fill="white"/>
<path d="M31.714 13.6261H32.173C33.0232 13.6261 33.7125 14.3153 33.7125 15.1656V20.5229C33.7125 21.3732 33.0232 22.0624 32.173 22.0624H31.714V13.6261Z" fill="white"/>
<path d="M10.0066 33.108V33.9576H23.7027V33.108C23.7027 32.2578 23.0134 31.5685 22.1631 31.5685H11.5461C10.6959 31.5685 10.0066 32.2578 10.0066 33.108Z" fill="white"/>
<path d="M1.99845 13.6261H1.53952C0.689265 13.6261 0 14.3153 0 15.1656V20.5229C0 21.3732 0.689265 22.0624 1.53952 22.0624H1.99845V13.6261Z" fill="white"/>
<path d="M16.856 3.94232C17.7063 3.94232 18.3955 3.25305 18.3955 2.4028C18.3955 1.55255 17.7063 0.863281 16.856 0.863281C16.0058 0.863281 15.3165 1.55255 15.3165 2.4028C15.3165 3.25305 16.0058 3.94232 16.856 3.94232Z" fill="white"/>
<path d="M15.4579 1.75708C15.6827 1.52079 16.1328 1.37018 16.5539 1.39448C17.2354 1.43381 17.8384 2.00533 17.8852 2.68973C17.9013 2.92495 17.8894 3.42869 17.8134 3.60953C18.2156 3.33407 18.3954 2.80378 18.3954 2.4028C18.3954 1.55255 17.7061 0.863281 16.8559 0.863281C16.2362 0.863281 15.702 1.22938 15.4579 1.75708Z" fill="white"/>
<path d="M46.6075 28.4102H41.6891L49.1834 6.70103H55.0983L62.582 28.4102H57.6635L52.2256 11.6619H52.056L46.6075 28.4102ZM46.3001 19.877H57.9179V23.4599H46.3001V19.877ZM70.195 34.8551C68.7322 34.8551 67.4778 34.6537 66.432 34.2508C65.3931 33.8551 64.5663 33.3145 63.9515 32.629C63.3367 31.9435 62.9374 31.1733 62.7537 30.3182L66.9302 29.7564C67.0574 30.0814 67.2588 30.3853 67.5344 30.668C67.81 30.9507 68.1739 31.1768 68.6262 31.3464C69.0855 31.5231 69.6438 31.6114 70.301 31.6114C71.2833 31.6114 72.0924 31.3711 72.7285 30.8906C73.3715 30.4171 73.6931 29.6221 73.6931 28.5056V25.5269H73.5023C73.3044 25.9792 73.0076 26.4067 72.6119 26.8095C72.2161 27.2123 71.7073 27.5409 71.0854 27.7953C70.4636 28.0498 69.7215 28.177 68.8594 28.177C67.6368 28.177 66.5238 27.8943 65.5203 27.3289C64.5239 26.7565 63.7289 25.8838 63.1353 24.7107C62.5488 23.5305 62.2555 22.0395 62.2555 20.2374C62.2555 18.393 62.5558 16.8524 63.1565 15.6158C63.7572 14.3791 64.5557 13.4533 65.5521 12.8385C66.5556 12.2237 67.6545 11.9163 68.8488 11.9163C69.7604 11.9163 70.5236 12.0718 71.1384 12.3827C71.7532 12.6866 72.2479 13.0682 72.6225 13.5275C73.0041 13.9798 73.2973 14.425 73.5023 14.8631H73.6719V12.1283H78.1557V28.5692C78.1557 29.9542 77.8165 31.1132 77.1381 32.046C76.4597 32.9788 75.5198 33.6784 74.3185 34.1448C73.1242 34.6183 71.7497 34.8551 70.195 34.8551ZM70.2904 24.7849C71.0183 24.7849 71.6331 24.6047 72.1348 24.2443C72.6437 23.8768 73.0323 23.3539 73.3009 22.6755C73.5765 21.99 73.7143 21.1702 73.7143 20.2162C73.7143 19.2622 73.58 18.4354 73.3115 17.7358C73.0429 17.0291 72.6543 16.4814 72.1454 16.0928C71.6366 15.7041 71.0183 15.5098 70.2904 15.5098C69.5484 15.5098 68.923 15.7112 68.4142 16.114C67.9054 16.5097 67.5202 17.0609 67.2588 17.7676C66.9973 18.4743 66.8666 19.2905 66.8666 20.2162C66.8666 21.1561 66.9973 21.9688 67.2588 22.6543C67.5273 23.3327 67.9124 23.8592 68.4142 24.2337C68.923 24.6012 69.5484 24.7849 70.2904 24.7849ZM87.6768 28.7282C86.002 28.7282 84.5604 28.389 83.3519 27.7105C82.1506 27.0251 81.2248 26.0569 80.5747 24.8061C79.9245 23.5482 79.5995 22.0607 79.5995 20.3434C79.5995 18.6686 79.9245 17.1987 80.5747 15.9338C81.2248 14.6688 82.14 13.683 83.3201 12.9763C84.5074 12.2696 85.8995 11.9163 87.4966 11.9163C88.5707 11.9163 89.5707 12.0894 90.4964 12.4357C91.4293 12.7749 92.2419 13.2873 92.9345 13.9727C93.6341 14.6582 94.1782 15.5204 94.5669 16.5592C94.9556 17.5909 95.1499 18.7993 95.1499 20.1844V21.4246H81.4015V18.6262H90.8992C90.8992 17.9761 90.7579 17.4001 90.4752 16.8984C90.1926 16.3966 89.8004 16.0044 89.2986 15.7218C88.8039 15.432 88.228 15.2872 87.5708 15.2872C86.8853 15.2872 86.2776 15.4462 85.7476 15.7642C85.2246 16.0751 84.8148 16.4956 84.518 17.0256C84.2211 17.5485 84.0692 18.1315 84.0621 18.7746V21.4352C84.0621 22.2409 84.2105 22.9369 84.5074 23.5235C84.8112 24.11 85.2388 24.5623 85.79 24.8803C86.3412 25.1983 86.9949 25.3573 87.751 25.3573C88.2527 25.3573 88.7121 25.2866 89.129 25.1453C89.546 25.004 89.9028 24.792 90.1996 24.5093C90.4964 24.2266 90.7226 23.8804 90.878 23.4705L95.0545 23.7461C94.8425 24.7496 94.4079 25.6258 93.7507 26.3749C93.1005 27.1169 92.2596 27.6964 91.2279 28.1134C90.2032 28.5232 89.0195 28.7282 87.6768 28.7282ZM101.12 18.9972V28.4102H96.6043V12.1283H100.908V15.001H101.099C101.459 14.054 102.063 13.3049 102.911 12.7537C103.759 12.1954 104.788 11.9163 105.996 11.9163C107.127 11.9163 108.112 12.1636 108.953 12.6583C109.794 13.153 110.448 13.8597 110.914 14.7783C111.381 15.69 111.614 16.7782 111.614 18.0432V28.4102H107.098V18.8488C107.105 17.8524 106.851 17.0751 106.335 16.5168C105.819 15.9514 105.109 15.6688 104.205 15.6688C103.597 15.6688 103.06 15.7995 102.593 16.061C102.134 16.3224 101.774 16.704 101.512 17.2058C101.258 17.7005 101.127 18.2976 101.12 18.9972ZM121.037 28.7282C119.369 28.7282 117.935 28.3748 116.733 27.6681C115.539 26.9544 114.62 25.9651 113.977 24.7001C113.341 23.4351 113.023 21.9794 113.023 20.3328C113.023 18.6651 113.345 17.2023 113.988 15.9444C114.638 14.6794 115.56 13.6936 116.755 12.9869C117.949 12.2732 119.369 11.9163 121.016 11.9163C122.436 11.9163 123.68 12.1742 124.747 12.6901C125.814 13.206 126.659 13.9303 127.281 14.8631C127.902 15.796 128.245 16.8913 128.309 18.1492H124.048C123.927 17.3365 123.609 16.6828 123.094 16.1882C122.585 15.6864 121.917 15.4356 121.09 15.4356C120.39 15.4356 119.779 15.6264 119.256 16.008C118.74 16.3825 118.338 16.9302 118.048 17.651C117.758 18.3718 117.613 19.2446 117.613 20.2692C117.613 21.308 117.755 22.1914 118.037 22.9193C118.327 23.6472 118.733 24.2019 119.256 24.5835C119.779 24.9651 120.39 25.1559 121.09 25.1559C121.606 25.1559 122.069 25.0499 122.479 24.8379C122.896 24.6259 123.238 24.3185 123.507 23.9157C123.783 23.5058 123.963 23.0147 124.048 22.4423H128.309C128.238 23.686 127.899 24.7814 127.291 25.7283C126.691 26.6682 125.86 27.4031 124.8 27.9331C123.74 28.4632 122.486 28.7282 121.037 28.7282ZM132.495 34.5158C131.923 34.5158 131.386 34.4699 130.884 34.378C130.389 34.2932 129.98 34.1837 129.654 34.0494L130.672 30.6786C131.202 30.8411 131.679 30.9295 132.103 30.9436C132.534 30.9577 132.905 30.8588 133.216 30.6468C133.534 30.4348 133.792 30.0744 133.99 29.5656L134.255 28.8766L128.414 12.1283H133.163L136.534 24.0853H136.704L140.106 12.1283H144.887L138.559 30.1698C138.255 31.0461 137.841 31.8093 137.318 32.4594C136.803 33.1166 136.149 33.6219 135.357 33.9752C134.566 34.3356 133.612 34.5158 132.495 34.5158ZM147.422 28.4102H144.666L152.638 6.70103H155.351L163.323 28.4102H160.567L154.079 10.1355H153.91L147.422 28.4102ZM148.44 19.93H159.549V22.2621H148.44V19.93ZM165.047 28.4102V12.1283H167.549V28.4102H165.047ZM166.319 9.41467C165.832 9.41467 165.411 9.2486 165.058 8.91646C164.712 8.58432 164.539 8.18505 164.539 7.71864C164.539 7.25223 164.712 6.85296 165.058 6.52082C165.411 6.18868 165.832 6.02262 166.319 6.02262C166.807 6.02262 167.224 6.18868 167.57 6.52082C167.924 6.85296 168.1 7.25223 168.1 7.71864C168.1 8.18505 167.924 8.58432 167.57 8.91646C167.224 9.2486 166.807 9.41467 166.319 9.41467Z" fill="white"/>
</svg>
