<svg width="47" height="46" viewBox="0 0 47 46" fill="none" xmlns="http://www.w3.org/2000/svg">
<path d="M16.8338 8.62461V11.4996H13.3838C11.8588 11.4996 10.3963 12.1054 9.31797 13.1837C8.23963 14.2621 7.63383 15.7246 7.63383 17.2496V18.9884C9.80327 18.22 12.1671 18.1972 14.3509 18.9238C16.5347 19.6503 18.4137 21.0847 19.6904 22.9996H21.4338V21.8496C21.4338 21.5446 21.555 21.2521 21.7707 21.0364C21.9863 20.8208 22.2788 20.6996 22.5838 20.6996H24.8838C25.1888 20.6996 25.4813 20.8208 25.697 21.0364C25.9127 21.2521 26.0338 21.5446 26.0338 21.8496V22.9996H36.3838C37.2988 22.9996 38.1763 22.6361 38.8233 21.9891C39.4703 21.3421 39.8338 20.4646 39.8338 19.5496V17.2496C39.8338 15.7246 39.228 14.2621 38.1497 13.1837C37.0714 12.1054 35.6088 11.4996 34.0838 11.4996H30.6338V8.62461C30.6338 7.55711 30.2098 6.53334 29.4549 5.7785C28.7001 5.02367 27.6763 4.59961 26.6088 4.59961H20.8588C19.7913 4.59961 18.7676 5.02367 18.0127 5.7785C17.2579 6.53334 16.8338 7.55711 16.8338 8.62461ZM34.0838 36.7996H24.0121L20.4241 33.2116C21.2604 31.4669 21.5888 29.5221 21.3717 27.5996H24.8838C25.1888 27.5996 25.4813 27.4784 25.697 27.2628C25.9127 27.0471 26.0338 26.7546 26.0338 26.4496V25.2996H36.3838C37.6282 25.3013 38.8393 24.8976 39.8338 24.1496V31.0496C39.8338 32.5746 39.228 34.0371 38.1497 35.1155C37.0714 36.1938 35.6088 36.7996 34.0838 36.7996ZM28.3338 11.4996H19.1338V8.62461C19.1338 8.16711 19.3156 7.72835 19.6391 7.40485C19.9626 7.08135 20.4013 6.89961 20.8588 6.89961H26.6088C27.0663 6.89961 27.5051 7.08135 27.8286 7.40485C28.1521 7.72835 28.3338 8.16711 28.3338 8.62461V11.4996ZM11.0838 36.7996C12.8916 36.7996 14.5614 36.2016 15.9046 35.1965L21.7696 41.0615C21.8764 41.1684 22.0032 41.2533 22.1427 41.3112C22.2823 41.3691 22.4319 41.399 22.583 41.3991C22.7341 41.3992 22.8838 41.3695 23.0234 41.3118C23.1631 41.2541 23.29 41.1694 23.3969 41.0627C23.5038 40.9559 23.5886 40.8291 23.6466 40.6895C23.7045 40.55 23.7344 40.4004 23.7345 40.2493C23.7346 40.0982 23.7049 39.9485 23.6472 39.8089C23.5895 39.6692 23.5048 39.5423 23.398 39.4354L17.533 33.5704C18.6187 32.1186 19.1825 30.3428 19.1332 28.5307C19.0839 26.7185 18.4243 24.9761 17.2614 23.5854C16.0984 22.1948 14.5001 21.2374 12.7253 20.8683C10.9504 20.4991 9.10294 20.7399 7.48196 21.5515C5.86098 22.3632 4.56141 23.6982 3.79368 25.3404C3.02594 26.9827 2.83499 28.836 3.25175 30.6002C3.6685 32.3645 4.66856 33.9365 6.08999 35.0616C7.51142 36.1867 9.271 36.7991 11.0838 36.7996ZM11.0838 34.4996C9.55883 34.4996 8.0963 33.8938 7.01797 32.8155C5.93963 31.7371 5.33383 30.2746 5.33383 28.7496C5.33383 27.2246 5.93963 25.7621 7.01797 24.6837C8.0963 23.6054 9.55883 22.9996 11.0838 22.9996C12.6088 22.9996 14.0714 23.6054 15.1497 24.6837C16.228 25.7621 16.8338 27.2246 16.8338 28.7496C16.8338 30.2746 16.228 31.7371 15.1497 32.8155C14.0714 33.8938 12.6088 34.4996 11.0838 34.4996Z" fill="#3B57F4"/>
</svg>
