<svg width="324" height="173" viewBox="0 0 324 173" fill="none" xmlns="http://www.w3.org/2000/svg">
<circle cx="70.4593" cy="69.7326" r="69.5979" fill="#702E8E"/>
<g clip-path="url(#clip0_698_1641)">
<path d="M74.9595 38.7267C74.9595 40.0587 74.3805 41.2557 73.4595 42.0807V47.7267H88.4595C90.8465 47.7267 93.1357 48.6749 94.8235 50.3627C96.5113 52.0505 97.4595 54.3397 97.4595 56.7267V86.7267C97.4595 89.1136 96.5113 91.4028 94.8235 93.0906C93.1357 94.7785 90.8465 95.7267 88.4595 95.7267H52.4595C50.0726 95.7267 47.7834 94.7785 46.0956 93.0906C44.4077 91.4028 43.4595 89.1136 43.4595 86.7267V56.7267C43.4595 54.3397 44.4077 52.0505 46.0956 50.3627C47.7834 48.6749 50.0726 47.7267 52.4595 47.7267H67.4595V42.0807C66.9 41.5802 66.4746 40.9478 66.222 40.241C65.9694 39.5341 65.8976 38.7753 66.0132 38.0336C66.1288 37.2919 66.4281 36.591 66.8838 35.9945C67.3395 35.398 67.9372 34.9251 68.6225 34.6186C69.3077 34.3122 70.0587 34.182 70.8071 34.24C71.5555 34.298 72.2775 34.5422 72.9073 34.9506C73.5372 35.3589 74.0549 35.9183 74.4134 36.5778C74.7718 37.2373 74.9595 37.976 74.9595 38.7267ZM34.4595 62.7267H40.4595V80.7267H34.4595V62.7267ZM106.46 62.7267H100.46V80.7267H106.46V62.7267ZM61.4595 76.2267C62.653 76.2267 63.7976 75.7526 64.6415 74.9086C65.4854 74.0647 65.9595 72.9201 65.9595 71.7267C65.9595 70.5332 65.4854 69.3886 64.6415 68.5447C63.7976 67.7008 62.653 67.2267 61.4595 67.2267C60.2661 67.2267 59.1215 67.7008 58.2776 68.5447C57.4336 69.3886 56.9595 70.5332 56.9595 71.7267C56.9595 72.9201 57.4336 74.0647 58.2776 74.9086C59.1215 75.7526 60.2661 76.2267 61.4595 76.2267ZM83.9595 71.7267C83.9595 70.5332 83.4854 69.3886 82.6415 68.5447C81.7976 67.7008 80.653 67.2267 79.4595 67.2267C78.2661 67.2267 77.1215 67.7008 76.2776 68.5447C75.4336 69.3886 74.9595 70.5332 74.9595 71.7267C74.9595 72.9201 75.4336 74.0647 76.2776 74.9086C77.1215 75.7526 78.2661 76.2267 79.4595 76.2267C80.653 76.2267 81.7976 75.7526 82.6415 74.9086C83.4854 74.0647 83.9595 72.9201 83.9595 71.7267Z" fill="white"/>
</g>
<circle cx="243.815" cy="69.7326" r="69.5979" fill="#702E8E"/>
<circle cx="154.234" cy="69.7327" r="34.9925" fill="#5F2B76"/>
<path d="M154.224 83.91C152.666 83.91 151.403 82.6471 151.403 81.0891V58.3755C151.403 56.8176 152.666 55.5547 154.224 55.5547C155.782 55.5547 157.045 56.8176 157.045 58.3755V81.0891C157.045 82.6471 155.782 83.91 154.224 83.91ZM142.878 72.5427C141.32 72.5427 140.057 71.2798 140.057 69.7219C140.057 68.1639 141.32 66.901 142.878 66.901H165.591C167.149 66.901 168.412 68.1639 168.412 69.7219C168.412 71.2798 167.149 72.5427 165.591 72.5427H142.878Z" fill="white"/>
<path d="M238.065 40.9824H249.565C251.09 40.9824 252.553 41.5882 253.631 42.6666C254.709 43.7449 255.315 45.2074 255.315 46.7324V52.4824H266.815C268.34 52.4824 269.803 53.0882 270.881 54.1666C271.959 55.2449 272.565 56.7074 272.565 58.2324V89.8574C272.565 91.3824 271.959 92.845 270.881 93.9233C269.803 95.0016 268.34 95.6074 266.815 95.6074H220.815C219.29 95.6074 217.828 95.0016 216.749 93.9233C215.671 92.845 215.065 91.3824 215.065 89.8574V58.2324C215.065 55.0412 217.624 52.4824 220.815 52.4824H232.315V46.7324C232.315 43.5412 234.874 40.9824 238.065 40.9824ZM249.565 52.4824V46.7324H238.065V52.4824H249.565Z" fill="white"/>
<rect x="15.9592" y="121.172" width="109" height="51" rx="10" fill="#5F2B76"/>
<path d="M59.482 158.172H55.7547L64.1297 134.899H68.1865L76.5615 158.172H72.8342L66.2547 139.126H66.0729L59.482 158.172ZM60.107 149.058H72.1979V152.013H60.107V149.058ZM79.8058 158.172V140.717H83.2035V158.172H79.8058ZM81.5217 138.024C80.9308 138.024 80.4232 137.827 79.999 137.433C79.5823 137.032 79.374 136.554 79.374 136.001C79.374 135.441 79.5823 134.964 79.999 134.57C80.4232 134.168 80.9308 133.967 81.5217 133.967C82.1126 133.967 82.6164 134.168 83.0331 134.57C83.4573 134.964 83.6695 135.441 83.6695 136.001C83.6695 136.554 83.4573 137.032 83.0331 137.433C82.6164 137.827 82.1126 138.024 81.5217 138.024Z" fill="white"/>
<rect x="168.413" y="121.172" width="155" height="51" rx="10" fill="#5F2B76"/>
<path d="M191.935 158.172H188.208L196.583 134.899H200.64L209.015 158.172H205.288L198.708 139.126H198.526L191.935 158.172ZM192.56 149.058H204.651V152.013H192.56V149.058ZM219.14 165.081C217.754 165.081 216.56 164.899 215.56 164.536C214.568 164.172 213.757 163.691 213.129 163.092C212.5 162.494 212.03 161.839 211.719 161.126L214.64 159.922C214.844 160.255 215.117 160.607 215.458 160.979C215.807 161.357 216.276 161.679 216.867 161.945C217.466 162.21 218.235 162.342 219.174 162.342C220.462 162.342 221.526 162.028 222.367 161.399C223.208 160.778 223.629 159.786 223.629 158.422V154.99H223.413C223.208 155.361 222.913 155.774 222.526 156.229C222.147 156.683 221.625 157.077 220.958 157.411C220.291 157.744 219.424 157.911 218.356 157.911C216.977 157.911 215.735 157.589 214.629 156.945C213.53 156.293 212.659 155.335 212.015 154.07C211.379 152.797 211.06 151.232 211.06 149.376C211.06 147.52 211.375 145.929 212.004 144.604C212.64 143.278 213.511 142.263 214.617 141.558C215.723 140.846 216.977 140.49 218.379 140.49C219.462 140.49 220.337 140.672 221.004 141.036C221.67 141.392 222.189 141.808 222.56 142.286C222.939 142.763 223.231 143.183 223.435 143.547H223.685V140.717H227.015V158.558C227.015 160.058 226.666 161.289 225.969 162.251C225.272 163.214 224.329 163.926 223.14 164.388C221.958 164.85 220.625 165.081 219.14 165.081ZM219.106 155.092C220.083 155.092 220.909 154.865 221.583 154.411C222.265 153.948 222.78 153.289 223.129 152.433C223.485 151.57 223.663 150.536 223.663 149.331C223.663 148.157 223.488 147.123 223.14 146.229C222.791 145.335 222.28 144.638 221.606 144.138C220.932 143.63 220.098 143.376 219.106 143.376C218.083 143.376 217.231 143.642 216.549 144.172C215.867 144.695 215.352 145.407 215.004 146.308C214.663 147.21 214.492 148.217 214.492 149.331C214.492 150.475 214.666 151.479 215.015 152.342C215.363 153.206 215.879 153.88 216.56 154.365C217.25 154.85 218.098 155.092 219.106 155.092ZM239.094 158.524C237.375 158.524 235.894 158.157 234.651 157.422C233.416 156.679 232.462 155.638 231.788 154.297C231.121 152.948 230.788 151.369 230.788 149.558C230.788 147.77 231.121 146.195 231.788 144.831C232.462 143.467 233.401 142.403 234.606 141.638C235.818 140.873 237.235 140.49 238.856 140.49C239.841 140.49 240.795 140.653 241.719 140.979C242.644 141.304 243.473 141.816 244.208 142.513C244.943 143.21 245.522 144.115 245.947 145.229C246.371 146.335 246.583 147.679 246.583 149.263V150.467H232.708V147.922H243.254C243.254 147.028 243.072 146.236 242.708 145.547C242.344 144.85 241.833 144.301 241.174 143.899C240.522 143.498 239.757 143.297 238.879 143.297C237.924 143.297 237.091 143.532 236.379 144.001C235.674 144.464 235.129 145.07 234.742 145.82C234.363 146.562 234.174 147.369 234.174 148.24V150.229C234.174 151.395 234.379 152.388 234.788 153.206C235.204 154.024 235.784 154.649 236.526 155.081C237.269 155.505 238.136 155.717 239.129 155.717C239.772 155.717 240.36 155.626 240.89 155.445C241.42 155.255 241.879 154.975 242.265 154.604C242.651 154.232 242.947 153.774 243.151 153.229L246.367 153.808C246.11 154.755 245.647 155.585 244.981 156.297C244.322 157.001 243.492 157.551 242.492 157.945C241.5 158.331 240.367 158.524 239.094 158.524ZM253.751 147.808V158.172H250.353V140.717H253.614V143.558H253.83C254.232 142.634 254.861 141.892 255.717 141.331C256.58 140.77 257.667 140.49 258.978 140.49C260.167 140.49 261.209 140.74 262.103 141.24C262.997 141.732 263.69 142.467 264.182 143.445C264.675 144.422 264.921 145.63 264.921 147.07V158.172H261.523V147.479C261.523 146.214 261.194 145.225 260.535 144.513C259.876 143.793 258.97 143.433 257.819 143.433C257.031 143.433 256.33 143.604 255.717 143.945C255.111 144.286 254.629 144.786 254.273 145.445C253.925 146.096 253.751 146.884 253.751 147.808ZM276.83 158.524C275.141 158.524 273.686 158.142 272.467 157.376C271.254 156.604 270.323 155.539 269.671 154.183C269.02 152.827 268.694 151.274 268.694 149.524C268.694 147.751 269.027 146.187 269.694 144.831C270.361 143.467 271.3 142.403 272.512 141.638C273.724 140.873 275.152 140.49 276.796 140.49C278.122 140.49 279.304 140.736 280.342 141.229C281.379 141.714 282.217 142.395 282.853 143.274C283.497 144.153 283.879 145.179 284.001 146.354H280.694C280.512 145.536 280.095 144.831 279.444 144.24C278.8 143.649 277.936 143.354 276.853 143.354C275.906 143.354 275.076 143.604 274.364 144.104C273.66 144.596 273.111 145.301 272.717 146.217C272.323 147.126 272.126 148.202 272.126 149.445C272.126 150.717 272.319 151.816 272.705 152.74C273.092 153.664 273.637 154.38 274.342 154.888C275.054 155.395 275.891 155.649 276.853 155.649C277.497 155.649 278.08 155.532 278.603 155.297C279.133 155.054 279.576 154.71 279.932 154.263C280.296 153.816 280.55 153.278 280.694 152.649H284.001C283.879 153.778 283.512 154.786 282.898 155.672C282.285 156.558 281.463 157.255 280.432 157.763C279.41 158.27 278.209 158.524 276.83 158.524ZM289.782 164.717C289.274 164.717 288.812 164.676 288.396 164.592C287.979 164.517 287.668 164.433 287.464 164.342L288.282 161.558C288.903 161.725 289.456 161.797 289.941 161.774C290.426 161.751 290.854 161.57 291.225 161.229C291.604 160.888 291.937 160.331 292.225 159.558L292.646 158.399L286.259 140.717H289.896L294.316 154.263H294.498L298.918 140.717H302.566L295.373 160.501C295.039 161.411 294.615 162.179 294.1 162.808C293.585 163.445 292.971 163.922 292.259 164.24C291.547 164.558 290.721 164.717 289.782 164.717Z" fill="white"/>
<defs>
<clipPath id="clip0_698_1641">
<rect width="72" height="72" fill="white" transform="translate(34.4595 32.7266)"/>
</clipPath>
</defs>
</svg>