<svg width="781" height="217" viewBox="0 0 781 217" fill="none" xmlns="http://www.w3.org/2000/svg">
<rect x="45.3066" y="40.4141" width="690.388" height="176.463" rx="8" fill="#AB3ADD" fill-opacity="0.23"/>
<rect x="22.7168" y="20.4141" width="735.567" height="176.463" rx="8" fill="#AB3ADD" fill-opacity="0.23"/>
<rect x="0.366211" y="0.414062" width="780.269" height="176.463" rx="8" fill="#A623DF"/>
<path d="M91.054 41.8263V63.6445H88.0284L76.9382 47.6431H76.7358V63.6445H73.4439V41.8263H76.4908L87.5916 57.8491H87.794V41.8263H91.054ZM102.493 63.9748C100.959 63.9748 99.6202 63.6232 98.4767 62.9201C97.3333 62.217 96.4455 61.2333 95.8134 59.9691C95.1813 58.7049 94.8652 57.2276 94.8652 55.5373C94.8652 53.8398 95.1813 52.3555 95.8134 51.0842C96.4455 49.8129 97.3333 48.8256 98.4767 48.1225C99.6202 47.4194 100.959 47.0678 102.493 47.0678C104.027 47.0678 105.366 47.4194 106.509 48.1225C107.653 48.8256 108.541 49.8129 109.173 51.0842C109.805 52.3555 110.121 53.8398 110.121 55.5373C110.121 57.2276 109.805 58.7049 109.173 59.9691C108.541 61.2333 107.653 62.217 106.509 62.9201C105.366 63.6232 104.027 63.9748 102.493 63.9748ZM102.504 61.3008C103.498 61.3008 104.322 61.038 104.975 60.5124C105.629 59.9869 106.112 59.2873 106.424 58.4137C106.744 57.5401 106.904 56.5778 106.904 55.5266C106.904 54.4826 106.744 53.5238 106.424 52.6502C106.112 51.7695 105.629 51.0629 104.975 50.5302C104.322 49.9975 103.498 49.7312 102.504 49.7312C101.502 49.7312 100.671 49.9975 100.011 50.5302C99.3574 51.0629 98.8709 51.7695 98.5513 52.6502C98.2388 53.5238 98.0826 54.4826 98.0826 55.5266C98.0826 56.5778 98.2388 57.5401 98.5513 58.4137C98.8709 59.2873 99.3574 59.9869 100.011 60.5124C100.671 61.038 101.502 61.3008 102.504 61.3008ZM116.726 63.6445L111.911 47.2809H115.203L118.409 59.2979H118.569L121.786 47.2809H125.078L128.274 59.2447H128.434L131.619 47.2809H134.911L130.107 63.6445H126.857L123.534 51.8299H123.289L119.965 63.6445H116.726Z" fill="#EABD57"/>
<path d="M142.078 60.6616L141.919 61.8228C141.812 62.6751 141.631 63.5629 141.375 64.4862C141.127 65.4165 140.868 66.2795 140.598 67.0749C140.335 67.8704 140.118 68.5025 139.948 68.9712H137.689C137.782 68.5309 137.909 67.9343 138.073 67.1815C138.236 66.4357 138.396 65.6012 138.552 64.6779C138.708 63.7546 138.826 62.8136 138.904 61.8548L139.01 60.6616H142.078ZM154.42 63.6445V41.8263H157.712V51.3079H168.589V41.8263H171.892V63.6445H168.589V54.131H157.712V63.6445H154.42ZM183.323 63.9748C181.789 63.9748 180.45 63.6232 179.307 62.9201C178.163 62.217 177.276 61.2333 176.643 59.9691C176.011 58.7049 175.695 57.2276 175.695 55.5373C175.695 53.8398 176.011 52.3555 176.643 51.0842C177.276 49.8129 178.163 48.8256 179.307 48.1225C180.45 47.4194 181.789 47.0678 183.323 47.0678C184.857 47.0678 186.196 47.4194 187.339 48.1225C188.483 48.8256 189.371 49.8129 190.003 51.0842C190.635 52.3555 190.951 53.8398 190.951 55.5373C190.951 57.2276 190.635 58.7049 190.003 59.9691C189.371 61.2333 188.483 62.217 187.339 62.9201C186.196 63.6232 184.857 63.9748 183.323 63.9748ZM183.334 61.3008C184.328 61.3008 185.152 61.038 185.805 60.5124C186.459 59.9869 186.942 59.2873 187.254 58.4137C187.574 57.5401 187.734 56.5778 187.734 55.5266C187.734 54.4826 187.574 53.5238 187.254 52.6502C186.942 51.7695 186.459 51.0629 185.805 50.5302C185.152 49.9975 184.328 49.7312 183.334 49.7312C182.332 49.7312 181.501 49.9975 180.841 50.5302C180.188 51.0629 179.701 51.7695 179.381 52.6502C179.069 53.5238 178.913 54.4826 178.913 55.5266C178.913 56.5778 179.069 57.5401 179.381 58.4137C179.701 59.2873 180.188 59.9869 180.841 60.5124C181.501 61.038 182.332 61.3008 183.334 61.3008ZM197.556 63.6445L192.741 47.2809H196.033L199.239 59.2979H199.399L202.616 47.2809H205.908L209.104 59.2447H209.264L212.45 47.2809H215.741L210.937 63.6445H207.688L204.364 51.8299H204.119L200.795 63.6445H197.556ZM228.803 63.6445H225.308L233.16 41.8263H236.963L244.815 63.6445H241.32L235.152 45.7894H234.982L228.803 63.6445ZM229.388 55.1005H240.724V57.8704H229.388V55.1005ZM247.965 63.6445V41.8263H251.151V49.9336H251.343C251.527 49.5927 251.794 49.1985 252.142 48.7511C252.49 48.3036 252.972 47.913 253.59 47.5792C254.208 47.2383 255.025 47.0678 256.041 47.0678C257.362 47.0678 258.541 47.4016 259.578 48.0692C260.615 48.7369 261.428 49.6992 262.017 50.9563C262.614 52.2134 262.912 53.7262 262.912 55.4947C262.912 57.2631 262.617 58.7795 262.028 60.0437C261.438 61.3008 260.629 62.2702 259.599 62.9521C258.569 63.6268 257.394 63.9641 256.073 63.9641C255.078 63.9641 254.265 63.7972 253.633 63.4634C253.008 63.1296 252.518 62.739 252.163 62.2915C251.808 61.8441 251.534 61.4464 251.343 61.0984H251.076V63.6445H247.965ZM251.087 55.4627C251.087 56.6133 251.254 57.6218 251.588 58.4883C251.921 59.3548 252.404 60.033 253.036 60.5231C253.669 61.006 254.443 61.2475 255.359 61.2475C256.311 61.2475 257.106 60.9954 257.745 60.4911C258.384 59.9798 258.867 59.2873 259.194 58.4137C259.528 57.5401 259.695 56.5565 259.695 55.4627C259.695 54.3832 259.531 53.4137 259.205 52.5543C258.885 51.695 258.402 51.0167 257.756 50.5195C257.117 50.0224 256.318 49.7738 255.359 49.7738C254.436 49.7738 253.654 50.0117 253.015 50.4876C252.383 50.9634 251.904 51.6275 251.577 52.4798C251.25 53.332 251.087 54.3263 251.087 55.4627ZM273.382 63.9748C271.848 63.9748 270.509 63.6232 269.365 62.9201C268.222 62.217 267.334 61.2333 266.702 59.9691C266.07 58.7049 265.754 57.2276 265.754 55.5373C265.754 53.8398 266.07 52.3555 266.702 51.0842C267.334 49.8129 268.222 48.8256 269.365 48.1225C270.509 47.4194 271.848 47.0678 273.382 47.0678C274.916 47.0678 276.255 47.4194 277.398 48.1225C278.542 48.8256 279.429 49.8129 280.061 51.0842C280.694 52.3555 281.01 53.8398 281.01 55.5373C281.01 57.2276 280.694 58.7049 280.061 59.9691C279.429 61.2333 278.542 62.217 277.398 62.9201C276.255 63.6232 274.916 63.9748 273.382 63.9748ZM273.392 61.3008C274.387 61.3008 275.211 61.038 275.864 60.5124C276.517 59.9869 277 59.2873 277.313 58.4137C277.632 57.5401 277.792 56.5778 277.792 55.5266C277.792 54.4826 277.632 53.5238 277.313 52.6502C277 51.7695 276.517 51.0629 275.864 50.5302C275.211 49.9975 274.387 49.7312 273.392 49.7312C272.391 49.7312 271.56 49.9975 270.9 50.5302C270.246 51.0629 269.76 51.7695 269.44 52.6502C269.127 53.5238 268.971 54.4826 268.971 55.5266C268.971 56.5778 269.127 57.5401 269.44 58.4137C269.76 59.2873 270.246 59.9869 270.9 60.5124C271.56 61.038 272.391 61.3008 273.392 61.3008ZM294.931 56.8583V47.2809H298.127V63.6445H294.995V60.8107H294.824C294.448 61.6843 293.844 62.4123 293.013 62.9947C292.189 63.57 291.163 63.8576 289.934 63.8576C288.883 63.8576 287.953 63.6268 287.143 63.1651C286.341 62.6964 285.709 62.0039 285.247 61.0877C284.792 60.1715 284.565 59.0387 284.565 57.6893V47.2809H287.751V57.3058C287.751 58.4208 288.059 59.3086 288.677 59.9691C289.295 60.6296 290.098 60.9599 291.085 60.9599C291.682 60.9599 292.275 60.8107 292.864 60.5124C293.461 60.2141 293.954 59.7631 294.345 59.1594C294.743 58.5558 294.938 57.7887 294.931 56.8583ZM310.045 47.2809V49.8377H301.107V47.2809H310.045ZM303.504 43.3604H306.69V58.8398C306.69 59.4577 306.782 59.9229 306.967 60.2354C307.151 60.5408 307.389 60.7504 307.68 60.864C307.979 60.9705 308.302 61.0238 308.65 61.0238C308.906 61.0238 309.129 61.006 309.321 60.9705C309.513 60.935 309.662 60.9066 309.768 60.8853L310.344 63.5167C310.159 63.5877 309.896 63.6587 309.555 63.7298C309.214 63.8079 308.788 63.8505 308.277 63.8576C307.439 63.8718 306.658 63.7227 305.933 63.4102C305.209 63.0977 304.623 62.6147 304.175 61.9613C303.728 61.3079 303.504 60.4876 303.504 59.5004V43.3604ZM321.764 41.8263H325.759L332.705 58.7866H332.961L339.907 41.8263H343.902V63.6445H340.77V47.8562H340.567L334.133 63.6126H331.533L325.099 47.8455H324.896V63.6445H321.764V41.8263ZM348.432 63.6445V47.2809H351.618V63.6445H348.432ZM350.041 44.756C349.487 44.756 349.011 44.5714 348.613 44.2021C348.223 43.8256 348.028 43.3782 348.028 42.8597C348.028 42.3342 348.223 41.8867 348.613 41.5174C349.011 41.141 349.487 40.9528 350.041 40.9528C350.595 40.9528 351.067 41.141 351.458 41.5174C351.856 41.8867 352.055 42.3342 352.055 42.8597C352.055 43.3782 351.856 43.8256 351.458 44.2021C351.067 44.5714 350.595 44.756 350.041 44.756ZM358.417 47.2809L362.029 53.6516L365.672 47.2809H369.156L364.053 55.4627L369.199 63.6445H365.715L362.029 57.5295L358.353 63.6445H354.859L359.951 55.4627L354.923 47.2809H358.417ZM372.426 63.6445V47.2809H375.612V63.6445H372.426ZM374.035 44.756C373.481 44.756 373.005 44.5714 372.608 44.2021C372.217 43.8256 372.022 43.3782 372.022 42.8597C372.022 42.3342 372.217 41.8867 372.608 41.5174C373.005 41.141 373.481 40.9528 374.035 40.9528C374.589 40.9528 375.061 41.141 375.452 41.5174C375.85 41.8867 376.049 42.3342 376.049 42.8597C376.049 43.3782 375.85 43.8256 375.452 44.2021C375.061 44.5714 374.589 44.756 374.035 44.756ZM383.083 53.9286V63.6445H379.897V47.2809H382.955V49.9442H383.157C383.534 49.0778 384.123 48.3817 384.926 47.8562C385.735 47.3306 386.754 47.0678 387.983 47.0678C389.098 47.0678 390.075 47.3022 390.913 47.771C391.751 48.2326 392.401 48.9215 392.862 49.8377C393.324 50.7539 393.555 51.8867 393.555 53.2362V63.6445H390.369V53.6197C390.369 52.4336 390.061 51.5067 389.443 50.8391C388.825 50.1644 387.976 49.8271 386.896 49.8271C386.158 49.8271 385.501 49.9869 384.926 50.3065C384.357 50.6261 383.906 51.0948 383.573 51.7127C383.246 52.3235 383.083 53.0621 383.083 53.9286ZM404.688 70.1218C403.388 70.1218 402.269 69.9513 401.332 69.6104C400.401 69.2695 399.642 68.8185 399.052 68.2575C398.463 67.6964 398.022 67.082 397.731 66.4144L400.469 65.2852C400.661 65.5977 400.916 65.9279 401.236 66.2759C401.563 66.631 402.003 66.9329 402.557 67.1815C403.118 67.43 403.839 67.5543 404.72 67.5543C405.927 67.5543 406.925 67.2596 407.713 66.6701C408.502 66.0877 408.896 65.1573 408.896 63.8789V60.6616H408.693C408.502 61.0096 408.225 61.3967 407.862 61.8228C407.507 62.2489 407.017 62.6183 406.392 62.9308C405.767 63.2433 404.954 63.3995 403.953 63.3995C402.66 63.3995 401.495 63.0977 400.458 62.494C399.428 61.8832 398.612 60.9847 398.008 59.7987C397.411 58.6055 397.113 57.1388 397.113 55.3988C397.113 53.6587 397.408 52.1673 397.997 50.9244C398.594 49.6815 399.411 48.7298 400.448 48.0692C401.485 47.4016 402.66 47.0678 403.974 47.0678C404.99 47.0678 405.81 47.2383 406.435 47.5792C407.06 47.913 407.546 48.3036 407.894 48.7511C408.249 49.1985 408.523 49.5927 408.715 49.9336H408.949V47.2809H412.07V64.0067C412.07 65.413 411.744 66.5671 411.09 67.4691C410.437 68.3711 409.553 69.0387 408.438 69.4719C407.33 69.9052 406.08 70.1218 404.688 70.1218ZM404.656 60.7575C405.572 60.7575 406.346 60.5444 406.978 60.1183C407.617 59.685 408.1 59.0671 408.427 58.2646C408.761 57.4549 408.928 56.4854 408.928 55.3562C408.928 54.2553 408.764 53.2859 408.438 52.4478C408.111 51.6097 407.632 50.9563 406.999 50.4876C406.367 50.0117 405.586 49.7738 404.656 49.7738C403.697 49.7738 402.898 50.0224 402.259 50.5195C401.619 51.0096 401.137 51.6772 400.81 52.5224C400.49 53.3675 400.33 54.3121 400.33 55.3562C400.33 56.4286 400.494 57.3697 400.82 58.1793C401.147 58.989 401.63 59.6211 402.269 60.0756C402.916 60.5302 403.711 60.7575 404.656 60.7575ZM431.92 47.2809V49.8377H422.982V47.2809H431.92ZM425.379 43.3604H428.565V58.8398C428.565 59.4577 428.657 59.9229 428.842 60.2354C429.026 60.5408 429.264 60.7504 429.555 60.864C429.854 60.9705 430.177 61.0238 430.525 61.0238C430.781 61.0238 431.004 61.006 431.196 60.9705C431.388 60.935 431.537 60.9066 431.643 60.8853L432.219 63.5167C432.034 63.5877 431.771 63.6587 431.43 63.7298C431.089 63.8079 430.663 63.8505 430.152 63.8576C429.314 63.8718 428.533 63.7227 427.808 63.4102C427.084 63.0977 426.498 62.6147 426.05 61.9613C425.603 61.3079 425.379 60.4876 425.379 59.5004V43.3604ZM438.981 53.9286V63.6445H435.796V41.8263H438.938V49.9442H439.141C439.524 49.0636 440.11 48.364 440.899 47.8455C441.687 47.3271 442.717 47.0678 443.988 47.0678C445.11 47.0678 446.09 47.2987 446.928 47.7603C447.774 48.2219 448.427 48.9109 448.889 49.8271C449.357 50.7362 449.592 51.8725 449.592 53.2362V63.6445H446.406V53.6197C446.406 52.4194 446.097 51.489 445.48 50.8285C444.862 50.1609 444.002 49.8271 442.901 49.8271C442.149 49.8271 441.474 49.9869 440.877 50.3065C440.288 50.6261 439.823 51.0948 439.482 51.7127C439.148 52.3235 438.981 53.0621 438.981 53.9286ZM460.895 63.9748C459.283 63.9748 457.894 63.6303 456.73 62.9414C455.572 62.2454 454.677 61.2688 454.045 60.0117C453.42 58.7475 453.107 57.2667 453.107 55.5692C453.107 53.8931 453.42 52.4158 454.045 51.1374C454.677 49.859 455.558 48.8612 456.687 48.1438C457.823 47.4265 459.151 47.0678 460.671 47.0678C461.595 47.0678 462.49 47.2205 463.356 47.5259C464.222 47.8313 465 48.3107 465.689 48.9641C466.378 49.6175 466.921 50.4663 467.319 51.5103C467.717 52.5472 467.916 53.8079 467.916 55.2923V56.4215H454.908V54.0352H464.794C464.794 53.1971 464.624 52.4549 464.283 51.8086C463.942 51.1552 463.463 50.6403 462.845 50.2638C462.234 49.8874 461.517 49.6992 460.693 49.6992C459.798 49.6992 459.017 49.9194 458.349 50.3597C457.688 50.793 457.177 51.3612 456.815 52.0643C456.46 52.7603 456.282 53.5167 456.282 54.3335V56.1978C456.282 57.2915 456.474 58.2219 456.857 58.989C457.248 59.756 457.791 60.342 458.487 60.7468C459.183 61.1445 459.997 61.3434 460.927 61.3434C461.531 61.3434 462.081 61.2582 462.578 61.0877C463.075 60.9102 463.505 60.6474 463.867 60.2994C464.23 59.9513 464.507 59.5217 464.698 59.0103L467.713 59.5536C467.472 60.4414 467.039 61.2191 466.414 61.8867C465.796 62.5472 465.018 63.0621 464.08 63.4315C463.15 63.7937 462.088 63.9748 460.895 63.9748ZM482.937 41.8263V63.6445H479.645V41.8263H482.937ZM490.661 53.9286V63.6445H487.475V47.2809H490.533V49.9442H490.735C491.112 49.0778 491.701 48.3817 492.504 47.8562C493.313 47.3306 494.333 47.0678 495.561 47.0678C496.676 47.0678 497.653 47.3022 498.491 47.771C499.329 48.2326 499.979 48.9215 500.441 49.8377C500.902 50.7539 501.133 51.8867 501.133 53.2362V63.6445H497.948V53.6197C497.948 52.4336 497.639 51.5067 497.021 50.8391C496.403 50.1644 495.554 49.8271 494.475 49.8271C493.736 49.8271 493.079 49.9869 492.504 50.3065C491.936 50.6261 491.485 51.0948 491.151 51.7127C490.824 52.3235 490.661 53.0621 490.661 53.9286ZM512.298 63.9748C510.714 63.9748 509.35 63.6161 508.207 62.8988C507.07 62.1744 506.197 61.1765 505.586 59.9052C504.975 58.6339 504.67 57.1779 504.67 55.5373C504.67 53.8754 504.982 52.4087 505.607 51.1374C506.232 49.859 507.113 48.8612 508.249 48.1438C509.386 47.4265 510.725 47.0678 512.266 47.0678C513.509 47.0678 514.617 47.2987 515.59 47.7603C516.563 48.2148 517.347 48.854 517.944 49.6779C518.548 50.5018 518.906 51.4641 519.02 52.565H515.92C515.749 51.7979 515.359 51.1374 514.748 50.5835C514.144 50.0295 513.335 49.7525 512.319 49.7525C511.431 49.7525 510.654 49.9869 509.986 50.4556C509.325 50.9173 508.811 51.5778 508.441 52.4371C508.072 53.2894 507.887 54.2979 507.887 55.4627C507.887 56.6559 508.068 57.6857 508.431 58.5522C508.793 59.4187 509.304 60.0898 509.965 60.5657C510.632 61.0415 511.417 61.2795 512.319 61.2795C512.923 61.2795 513.47 61.1694 513.96 60.9492C514.457 60.7219 514.872 60.3988 515.206 59.9798C515.547 59.5607 515.785 59.0565 515.92 58.467H519.02C518.906 59.5252 518.562 60.4698 517.987 61.3008C517.411 62.1317 516.641 62.7852 515.675 63.261C514.716 63.7369 513.59 63.9748 512.298 63.9748ZM522.426 63.6445V47.2809H525.505V49.8803H525.676C525.974 48.9996 526.5 48.3072 527.252 47.8029C528.012 47.2915 528.872 47.0359 529.831 47.0359C530.029 47.0359 530.264 47.043 530.534 47.0572C530.811 47.0714 531.027 47.0891 531.184 47.1104V50.1573C531.056 50.1218 530.828 50.0827 530.502 50.0401C530.175 49.9904 529.848 49.9656 529.522 49.9656C528.769 49.9656 528.098 50.1254 527.508 50.445C526.926 50.7575 526.464 51.1942 526.123 51.7553C525.782 52.3093 525.612 52.9414 525.612 53.6516V63.6445H522.426ZM540.407 63.9748C538.795 63.9748 537.406 63.6303 536.241 62.9414C535.084 62.2454 534.189 61.2688 533.557 60.0117C532.932 58.7475 532.619 57.2667 532.619 55.5692C532.619 53.8931 532.932 52.4158 533.557 51.1374C534.189 49.859 535.069 48.8612 536.199 48.1438C537.335 47.4265 538.663 47.0678 540.183 47.0678C541.106 47.0678 542.001 47.2205 542.868 47.5259C543.734 47.8313 544.512 48.3107 545.201 48.9641C545.89 49.6175 546.433 50.4663 546.831 51.5103C547.229 52.5472 547.427 53.8079 547.427 55.2923V56.4215H534.42V54.0352H544.306C544.306 53.1971 544.135 52.4549 543.795 51.8086C543.454 51.1552 542.974 50.6403 542.356 50.2638C541.746 49.8874 541.028 49.6992 540.204 49.6992C539.309 49.6992 538.528 49.9194 537.861 50.3597C537.2 50.793 536.689 51.3612 536.327 52.0643C535.971 52.7603 535.794 53.5167 535.794 54.3335V56.1978C535.794 57.2915 535.986 58.2219 536.369 58.989C536.76 59.756 537.303 60.342 537.999 60.7468C538.695 61.1445 539.508 61.3434 540.439 61.3434C541.042 61.3434 541.593 61.2582 542.09 61.0877C542.587 60.9102 543.017 60.6474 543.379 60.2994C543.741 59.9513 544.018 59.5217 544.21 59.0103L547.225 59.5536C546.983 60.4414 546.55 61.2191 545.925 61.8867C545.307 62.5472 544.53 63.0621 543.592 63.4315C542.662 63.7937 541.6 63.9748 540.407 63.9748ZM557.087 63.9641C555.766 63.9641 554.587 63.6268 553.55 62.9521C552.521 62.2702 551.711 61.3008 551.121 60.0437C550.539 58.7795 550.248 57.2631 550.248 55.4947C550.248 53.7262 550.543 52.2134 551.132 50.9563C551.729 49.6992 552.545 48.7369 553.582 48.0692C554.619 47.4016 555.795 47.0678 557.109 47.0678C558.124 47.0678 558.941 47.2383 559.559 47.5792C560.184 47.913 560.667 48.3036 561.008 48.7511C561.356 49.1985 561.626 49.5927 561.817 49.9336H562.009V41.8263H565.195V63.6445H562.084V61.0984H561.817C561.626 61.4464 561.349 61.8441 560.987 62.2915C560.631 62.739 560.141 63.1296 559.516 63.4634C558.891 63.7972 558.082 63.9641 557.087 63.9641ZM557.79 61.2475C558.707 61.2475 559.481 61.006 560.113 60.5231C560.752 60.033 561.235 59.3548 561.562 58.4883C561.896 57.6218 562.062 56.6133 562.062 55.4627C562.062 54.3263 561.899 53.332 561.572 52.4798C561.246 51.6275 560.766 50.9634 560.134 50.4876C559.502 50.0117 558.721 49.7738 557.79 49.7738C556.832 49.7738 556.033 50.0224 555.393 50.5195C554.754 51.0167 554.271 51.695 553.945 52.5543C553.625 53.4137 553.465 54.3832 553.465 55.4627C553.465 56.5565 553.629 57.5401 553.955 58.4137C554.282 59.2873 554.765 59.9798 555.404 60.4911C556.05 60.9954 556.846 61.2475 557.79 61.2475ZM569.741 63.6445V47.2809H572.926V63.6445H569.741ZM571.35 44.756C570.796 44.756 570.32 44.5714 569.922 44.2021C569.531 43.8256 569.336 43.3782 569.336 42.8597C569.336 42.3342 569.531 41.8867 569.922 41.5174C570.32 41.141 570.796 40.9528 571.35 40.9528C571.904 40.9528 572.376 41.141 572.767 41.5174C573.164 41.8867 573.363 42.3342 573.363 42.8597C573.363 43.3782 573.164 43.8256 572.767 44.2021C572.376 44.5714 571.904 44.756 571.35 44.756ZM577.467 63.6445V41.8263H580.653V49.9336H580.844C581.029 49.5927 581.295 49.1985 581.643 48.7511C581.991 48.3036 582.474 47.913 583.092 47.5792C583.71 47.2383 584.527 47.0678 585.543 47.0678C586.864 47.0678 588.043 47.4016 589.08 48.0692C590.116 48.7369 590.93 49.6992 591.519 50.9563C592.116 52.2134 592.414 53.7262 592.414 55.4947C592.414 57.2631 592.119 58.7795 591.53 60.0437C590.94 61.3008 590.131 62.2702 589.101 62.9521C588.071 63.6268 586.896 63.9641 585.575 63.9641C584.58 63.9641 583.767 63.7972 583.135 63.4634C582.51 63.1296 582.02 62.739 581.665 62.2915C581.31 61.8441 581.036 61.4464 580.844 61.0984H580.578V63.6445H577.467ZM580.589 55.4627C580.589 56.6133 580.756 57.6218 581.089 58.4883C581.423 59.3548 581.906 60.033 582.538 60.5231C583.17 61.006 583.945 61.2475 584.861 61.2475C585.812 61.2475 586.608 60.9954 587.247 60.4911C587.886 59.9798 588.369 59.2873 588.696 58.4137C589.03 57.5401 589.197 56.5565 589.197 55.4627C589.197 54.3832 589.033 53.4137 588.707 52.5543C588.387 51.695 587.904 51.0167 587.258 50.5195C586.619 50.0224 585.82 49.7738 584.861 49.7738C583.938 49.7738 583.156 50.0117 582.517 50.4876C581.885 50.9634 581.406 51.6275 581.079 52.4798C580.752 53.332 580.589 54.3263 580.589 55.4627ZM599.176 41.8263V63.6445H595.991V41.8263H599.176ZM610.514 63.9748C608.902 63.9748 607.513 63.6303 606.349 62.9414C605.191 62.2454 604.296 61.2688 603.664 60.0117C603.039 58.7475 602.727 57.2667 602.727 55.5692C602.727 53.8931 603.039 52.4158 603.664 51.1374C604.296 49.859 605.177 48.8612 606.306 48.1438C607.442 47.4265 608.771 47.0678 610.29 47.0678C611.214 47.0678 612.109 47.2205 612.975 47.5259C613.842 47.8313 614.619 48.3107 615.308 48.9641C615.997 49.6175 616.54 50.4663 616.938 51.5103C617.336 52.5472 617.535 53.8079 617.535 55.2923V56.4215H604.527V54.0352H614.413C614.413 53.1971 614.243 52.4549 613.902 51.8086C613.561 51.1552 613.082 50.6403 612.464 50.2638C611.853 49.8874 611.136 49.6992 610.312 49.6992C609.417 49.6992 608.636 49.9194 607.968 50.3597C607.308 50.793 606.796 51.3612 606.434 52.0643C606.079 52.7603 605.901 53.5167 605.901 54.3335V56.1978C605.901 57.2915 606.093 58.2219 606.477 58.989C606.867 59.756 607.411 60.342 608.107 60.7468C608.803 61.1445 609.616 61.3434 610.546 61.3434C611.15 61.3434 611.7 61.2582 612.197 61.0877C612.695 60.9102 613.124 60.6474 613.487 60.2994C613.849 59.9513 614.126 59.5217 614.317 59.0103L617.332 59.5536C617.091 60.4414 616.658 61.2191 616.033 61.8867C615.415 62.5472 614.637 63.0621 613.7 63.4315C612.769 63.7937 611.707 63.9748 610.514 63.9748ZM628.188 44.6602V41.8263H645.074V44.6602H638.266V63.6445H634.985V44.6602H628.188ZM646.85 63.6445V47.2809H649.929V49.8803H650.1C650.398 48.9996 650.923 48.3072 651.676 47.8029C652.436 47.2915 653.296 47.0359 654.254 47.0359C654.453 47.0359 654.688 47.043 654.958 47.0572C655.235 47.0714 655.451 47.0891 655.607 47.1104V50.1573C655.48 50.1218 655.252 50.0827 654.926 50.0401C654.599 49.9904 654.272 49.9656 653.945 49.9656C653.193 49.9656 652.521 50.1254 651.932 50.445C651.35 50.7575 650.888 51.1942 650.547 51.7553C650.206 52.3093 650.036 52.9414 650.036 53.6516V63.6445H646.85ZM664.831 63.9748C663.218 63.9748 661.83 63.6303 660.665 62.9414C659.507 62.2454 658.613 61.2688 657.98 60.0117C657.355 58.7475 657.043 57.2667 657.043 55.5692C657.043 53.8931 657.355 52.4158 657.98 51.1374C658.613 49.859 659.493 48.8612 660.623 48.1438C661.759 47.4265 663.087 47.0678 664.607 47.0678C665.53 47.0678 666.425 47.2205 667.292 47.5259C668.158 47.8313 668.936 48.3107 669.625 48.9641C670.314 49.6175 670.857 50.4663 671.255 51.5103C671.652 52.5472 671.851 53.8079 671.851 55.2923V56.4215H658.843V54.0352H668.73C668.73 53.1971 668.559 52.4549 668.218 51.8086C667.877 51.1552 667.398 50.6403 666.78 50.2638C666.169 49.8874 665.452 49.6992 664.628 49.6992C663.733 49.6992 662.952 49.9194 662.284 50.3597C661.624 50.793 661.113 51.3612 660.75 52.0643C660.395 52.7603 660.218 53.5167 660.218 54.3335V56.1978C660.218 57.2915 660.409 58.2219 660.793 58.989C661.184 59.756 661.727 60.342 662.423 60.7468C663.119 61.1445 663.932 61.3434 664.863 61.3434C665.466 61.3434 666.017 61.2582 666.514 61.0877C667.011 60.9102 667.441 60.6474 667.803 60.2994C668.165 59.9513 668.442 59.5217 668.634 59.0103L671.649 59.5536C671.407 60.4414 670.974 61.2191 670.349 61.8867C669.731 62.5472 668.953 63.0621 668.016 63.4315C667.086 63.7937 666.024 63.9748 664.831 63.9748ZM678.571 53.9286V63.6445H675.385V47.2809H678.443V49.9442H678.645C679.022 49.0778 679.611 48.3817 680.414 47.8562C681.224 47.3306 682.243 47.0678 683.471 47.0678C684.586 47.0678 685.563 47.3022 686.401 47.771C687.239 48.2326 687.889 48.9215 688.351 49.8377C688.812 50.7539 689.043 51.8867 689.043 53.2362V63.6445H685.858V53.6197C685.858 52.4336 685.549 51.5067 684.931 50.8391C684.313 50.1644 683.464 49.8271 682.385 49.8271C681.646 49.8271 680.989 49.9869 680.414 50.3065C679.846 50.6261 679.395 51.0948 679.061 51.7127C678.734 52.3235 678.571 53.0621 678.571 53.9286ZM699.441 63.9641C698.12 63.9641 696.941 63.6268 695.904 62.9521C694.874 62.2702 694.064 61.3008 693.475 60.0437C692.893 58.7795 692.601 57.2631 692.601 55.4947C692.601 53.7262 692.896 52.2134 693.486 50.9563C694.082 49.6992 694.899 48.7369 695.936 48.0692C696.973 47.4016 698.148 47.0678 699.462 47.0678C700.478 47.0678 701.295 47.2383 701.912 47.5792C702.537 47.913 703.02 48.3036 703.361 48.7511C703.709 49.1985 703.979 49.5927 704.171 49.9336H704.363V41.8263H707.548V63.6445H704.437V61.0984H704.171C703.979 61.4464 703.702 61.8441 703.34 62.2915C702.985 62.739 702.495 63.1296 701.87 63.4634C701.245 63.7972 700.435 63.9641 699.441 63.9641ZM700.144 61.2475C701.06 61.2475 701.834 61.006 702.466 60.5231C703.106 60.033 703.589 59.3548 703.915 58.4883C704.249 57.6218 704.416 56.6133 704.416 55.4627C704.416 54.3263 704.253 53.332 703.926 52.4798C703.599 51.6275 703.12 50.9634 702.488 50.4876C701.856 50.0117 701.074 49.7738 700.144 49.7738C699.185 49.7738 698.386 50.0224 697.747 50.5195C697.108 51.0167 696.625 51.695 696.298 52.5543C695.979 53.4137 695.819 54.3832 695.819 55.4627C695.819 56.5565 695.982 57.5401 696.309 58.4137C696.635 59.2873 697.118 59.9798 697.758 60.4911C698.404 60.9954 699.199 61.2475 700.144 61.2475ZM60.4015 100.007C59.3645 100.007 58.427 99.815 57.589 99.4315C56.7509 99.0408 56.0868 98.4762 55.5968 97.7376C55.1138 96.9989 54.8723 96.0934 54.8723 95.021C54.8723 94.0977 55.0499 93.3377 55.405 92.7411C55.7601 92.1445 56.2395 91.6722 56.8432 91.3242C57.4469 90.9762 58.1216 90.7134 58.8674 90.5359C59.6131 90.3583 60.373 90.2234 61.1472 90.131C62.1273 90.0174 62.9228 89.9251 63.5336 89.854C64.1444 89.7759 64.5882 89.6516 64.8652 89.4812C65.1422 89.3107 65.2807 89.0337 65.2807 88.6502V88.5756C65.2807 87.6452 65.0179 86.9244 64.4924 86.413C63.9739 85.9016 63.1998 85.646 62.1699 85.646C61.0975 85.646 60.2523 85.8839 59.6344 86.3597C59.0236 86.8285 58.601 87.3505 58.3667 87.9258L55.373 87.244C55.7282 86.2496 56.2466 85.4471 56.9284 84.8363C57.6174 84.2184 58.4093 83.771 59.3042 83.494C60.199 83.2099 61.1401 83.0678 62.1273 83.0678C62.7807 83.0678 63.4732 83.146 64.2047 83.3022C64.9434 83.4513 65.6323 83.7283 66.2715 84.1332C66.9178 84.538 67.4469 85.1168 67.8588 85.8697C68.2708 86.6154 68.4767 87.5849 68.4767 88.7781V99.6445H65.3659V97.4073H65.2381C65.0321 97.8192 64.7232 98.2241 64.3113 98.6218C63.8993 99.0195 63.3702 99.3498 62.7239 99.6126C62.0776 99.8754 61.3034 100.007 60.4015 100.007ZM61.0939 97.4499C61.9746 97.4499 62.7275 97.2759 63.3525 96.9279C63.9846 96.5799 64.464 96.1254 64.7907 95.5643C65.1245 94.9961 65.2914 94.3888 65.2914 93.7425V91.6332C65.1777 91.7468 64.9576 91.8533 64.6309 91.9528C64.3113 92.0451 63.9455 92.1268 63.5336 92.1978C63.1216 92.2617 62.7203 92.3221 62.3297 92.3789C61.9391 92.4286 61.6124 92.4712 61.3496 92.5067C60.7317 92.5849 60.1671 92.7163 59.6557 92.9009C59.1515 93.0856 58.7466 93.3519 58.4412 93.6999C58.1429 94.0408 57.9938 94.4954 57.9938 95.0636C57.9938 95.8519 58.285 96.4485 58.8674 96.8533C59.4498 97.2511 60.1919 97.4499 61.0939 97.4499ZM75.9048 89.9286V99.6445H72.7195V83.2809H75.777V85.9442H75.9794C76.3558 85.0778 76.9453 84.3817 77.7479 83.8562C78.5575 83.3306 79.5767 83.0678 80.8054 83.0678C81.9205 83.0678 82.897 83.3022 83.7351 83.771C84.5732 84.2326 85.223 84.9215 85.6847 85.8377C86.1463 86.7539 86.3771 87.8867 86.3771 89.2362V99.6445H83.1918V89.6197C83.1918 88.4336 82.8828 87.5067 82.2649 86.8391C81.647 86.1644 80.7983 85.8271 79.7188 85.8271C78.9801 85.8271 78.3232 85.9869 77.7479 86.3065C77.1797 86.6261 76.7287 87.0948 76.3949 87.7127C76.0682 88.3235 75.9048 89.0621 75.9048 89.9286ZM96.7749 99.9641C95.4538 99.9641 94.2749 99.6268 93.2379 98.9521C92.2081 98.2702 91.3984 97.3008 90.8089 96.0437C90.2266 94.7795 89.9354 93.2631 89.9354 91.4947C89.9354 89.7262 90.2301 88.2134 90.8196 86.9563C91.4162 85.6992 92.233 84.7369 93.2699 84.0692C94.3068 83.4016 95.4822 83.0678 96.7962 83.0678C97.8118 83.0678 98.6286 83.2383 99.2464 83.5792C99.8714 83.913 100.354 84.3036 100.695 84.7511C101.043 85.1985 101.313 85.5927 101.505 85.9336H101.697V77.8263H104.882V99.6445H101.771V97.0984H101.505C101.313 97.4464 101.036 97.8441 100.674 98.2915C100.319 98.739 99.8288 99.1296 99.2038 99.4634C98.5788 99.7972 97.7692 99.9641 96.7749 99.9641ZM97.478 97.2475C98.3942 97.2475 99.1683 97.006 99.8004 96.5231C100.44 96.033 100.923 95.3548 101.249 94.4883C101.583 93.6218 101.75 92.6133 101.75 91.4627C101.75 90.3263 101.587 89.332 101.26 88.4798C100.933 87.6275 100.454 86.9634 99.8217 86.4876C99.1896 86.0117 98.4084 85.7738 97.478 85.7738C96.5192 85.7738 95.7202 86.0224 95.081 86.5195C94.4418 87.0167 93.9588 87.695 93.6321 88.5543C93.3125 89.4137 93.1527 90.3832 93.1527 91.4627C93.1527 92.5565 93.3161 93.5401 93.6428 94.4137C93.9695 95.2873 94.4524 95.9798 95.0916 96.4911C95.7379 96.9954 96.5334 97.2475 97.478 97.2475ZM117.624 99.6445V77.8263H125.401C127.098 77.8263 128.504 78.1353 129.619 78.7532C130.734 79.3711 131.569 80.2163 132.123 81.2887C132.677 82.354 132.954 83.5543 132.954 84.8896C132.954 86.2319 132.673 87.4393 132.112 88.5117C131.558 89.5771 130.72 90.4222 129.598 91.0472C128.483 91.6651 127.08 91.9741 125.39 91.9741H120.042V89.1829H125.092C126.164 89.1829 127.034 88.9982 127.702 88.6289C128.369 88.2525 128.859 87.7411 129.172 87.0948C129.484 86.4485 129.641 85.7134 129.641 84.8896C129.641 84.0657 129.484 83.3342 129.172 82.695C128.859 82.0558 128.366 81.555 127.691 81.1928C127.023 80.8306 126.143 80.6495 125.049 80.6495H120.915V99.6445H117.624ZM143.245 99.9748C141.711 99.9748 140.372 99.6232 139.229 98.9201C138.085 98.217 137.197 97.2333 136.565 95.9691C135.933 94.7049 135.617 93.2276 135.617 91.5373C135.617 89.8398 135.933 88.3555 136.565 87.0842C137.197 85.8129 138.085 84.8256 139.229 84.1225C140.372 83.4194 141.711 83.0678 143.245 83.0678C144.779 83.0678 146.118 83.4194 147.261 84.1225C148.405 84.8256 149.293 85.8129 149.925 87.0842C150.557 88.3555 150.873 89.8398 150.873 91.5373C150.873 93.2276 150.557 94.7049 149.925 95.9691C149.293 97.2333 148.405 98.217 147.261 98.9201C146.118 99.6232 144.779 99.9748 143.245 99.9748ZM143.256 97.3008C144.25 97.3008 145.074 97.038 145.727 96.5124C146.381 95.9869 146.864 95.2873 147.176 94.4137C147.496 93.5401 147.656 92.5778 147.656 91.5266C147.656 90.4826 147.496 89.5238 147.176 88.6502C146.864 87.7695 146.381 87.0629 145.727 86.5302C145.074 85.9975 144.25 85.7312 143.256 85.7312C142.254 85.7312 141.423 85.9975 140.763 86.5302C140.109 87.0629 139.623 87.7695 139.303 88.6502C138.991 89.5238 138.835 90.4826 138.835 91.5266C138.835 92.5778 138.991 93.5401 139.303 94.4137C139.623 95.2873 140.109 95.9869 140.763 96.5124C141.423 97.038 142.254 97.3008 143.256 97.3008ZM157.478 99.6445L152.663 83.2809H155.955L159.161 95.2979H159.321L162.538 83.2809H165.83L169.026 95.2447H169.186L172.371 83.2809H175.663L170.859 99.6445H167.609L164.286 87.8299H164.04L160.717 99.6445H157.478ZM185.241 99.9748C183.629 99.9748 182.24 99.6303 181.075 98.9414C179.918 98.2454 179.023 97.2688 178.391 96.0117C177.766 94.7475 177.453 93.2667 177.453 91.5692C177.453 89.8931 177.766 88.4158 178.391 87.1374C179.023 85.859 179.903 84.8612 181.033 84.1438C182.169 83.4265 183.497 83.0678 185.017 83.0678C185.94 83.0678 186.835 83.2205 187.702 83.5259C188.568 83.8313 189.346 84.3107 190.035 84.9641C190.724 85.6175 191.267 86.4663 191.665 87.5103C192.063 88.5472 192.261 89.8079 192.261 91.2923V92.4215H179.254V90.0352H189.14C189.14 89.1971 188.969 88.4549 188.629 87.8086C188.288 87.1552 187.808 86.6403 187.19 86.2638C186.58 85.8874 185.862 85.6992 185.038 85.6992C184.143 85.6992 183.362 85.9194 182.695 86.3597C182.034 86.793 181.523 87.3612 181.161 88.0643C180.805 88.7603 180.628 89.5167 180.628 90.3335V92.1978C180.628 93.2915 180.82 94.2219 181.203 94.989C181.594 95.756 182.137 96.342 182.833 96.7468C183.529 97.1445 184.342 97.3434 185.273 97.3434C185.876 97.3434 186.427 97.2582 186.924 97.0877C187.421 96.9102 187.851 96.6474 188.213 96.2994C188.575 95.9513 188.852 95.5217 189.044 95.0103L192.059 95.5536C191.817 96.4414 191.384 97.2191 190.759 97.8867C190.141 98.5472 189.364 99.0621 188.426 99.4315C187.496 99.7937 186.434 99.9748 185.241 99.9748ZM195.796 99.6445V83.2809H198.874V85.8803H199.045C199.343 84.9996 199.869 84.3072 200.622 83.8029C201.382 83.2915 202.241 83.0359 203.2 83.0359C203.399 83.0359 203.633 83.043 203.903 83.0572C204.18 83.0714 204.396 83.0891 204.553 83.1104V86.1573C204.425 86.1218 204.198 86.0827 203.871 86.0401C203.544 85.9904 203.218 85.9656 202.891 85.9656C202.138 85.9656 201.467 86.1254 200.877 86.445C200.295 86.7575 199.833 87.1942 199.492 87.7553C199.151 88.3093 198.981 88.9414 198.981 89.6516V99.6445H195.796ZM222.142 99.9748C220.607 99.9748 219.269 99.6232 218.125 98.9201C216.982 98.217 216.094 97.2333 215.462 95.9691C214.83 94.7049 214.514 93.2276 214.514 91.5373C214.514 89.8398 214.83 88.3555 215.462 87.0842C216.094 85.8129 216.982 84.8256 218.125 84.1225C219.269 83.4194 220.607 83.0678 222.142 83.0678C223.676 83.0678 225.014 83.4194 226.158 84.1225C227.301 84.8256 228.189 85.8129 228.821 87.0842C229.453 88.3555 229.769 89.8398 229.769 91.5373C229.769 93.2276 229.453 94.7049 228.821 95.9691C228.189 97.2333 227.301 98.217 226.158 98.9201C225.014 99.6232 223.676 99.9748 222.142 99.9748ZM222.152 97.3008C223.146 97.3008 223.97 97.038 224.624 96.5124C225.277 95.9869 225.76 95.2873 226.073 94.4137C226.392 93.5401 226.552 92.5778 226.552 91.5266C226.552 90.4826 226.392 89.5238 226.073 88.6502C225.76 87.7695 225.277 87.0629 224.624 86.5302C223.97 85.9975 223.146 85.7312 222.152 85.7312C221.151 85.7312 220.32 85.9975 219.659 86.5302C219.006 87.0629 218.519 87.7695 218.2 88.6502C217.887 89.5238 217.731 90.4826 217.731 91.5266C217.731 92.5778 217.887 93.5401 218.2 94.4137C218.519 95.2873 219.006 95.9869 219.659 96.5124C220.32 97.038 221.151 97.3008 222.152 97.3008ZM241.113 83.2809V85.8377H231.865V83.2809H241.113ZM234.401 99.6445V81.3846C234.401 80.3619 234.625 79.5131 235.072 78.8384C235.52 78.1566 236.113 77.6488 236.851 77.315C237.59 76.9741 238.392 76.8036 239.259 76.8036C239.898 76.8036 240.445 76.8569 240.9 76.9634C241.354 77.0629 241.691 77.1552 241.912 77.2404L241.166 79.8185C241.017 79.7759 240.825 79.7262 240.591 79.6694C240.356 79.6055 240.072 79.5735 239.738 79.5735C238.964 79.5735 238.41 79.7653 238.076 80.1488C237.75 80.5323 237.586 81.0863 237.586 81.8107V99.6445H234.401ZM254.437 99.6445H250.943L258.795 77.8263H262.598L270.449 99.6445H266.955L260.787 81.7894H260.616L254.437 99.6445ZM255.023 91.1005H266.358V93.8704H255.023V91.1005ZM276.892 77.8263V99.6445H273.6V77.8263H276.892ZM297.008 83.2809V85.8377H288.07V83.2809H297.008ZM290.467 79.3604H293.653V94.8398C293.653 95.4577 293.745 95.9229 293.93 96.2354C294.114 96.5408 294.352 96.7504 294.643 96.864C294.942 96.9705 295.265 97.0238 295.613 97.0238C295.868 97.0238 296.092 97.006 296.284 96.9705C296.476 96.935 296.625 96.9066 296.731 96.8853L297.307 99.5167C297.122 99.5877 296.859 99.6587 296.518 99.7298C296.177 99.8079 295.751 99.8505 295.24 99.8576C294.402 99.8718 293.621 99.7227 292.896 99.4102C292.172 99.0977 291.586 98.6147 291.138 97.9613C290.691 97.3079 290.467 96.4876 290.467 95.5004V79.3604ZM307.249 99.9748C305.715 99.9748 304.376 99.6232 303.233 98.9201C302.089 98.217 301.201 97.2333 300.569 95.9691C299.937 94.7049 299.621 93.2276 299.621 91.5373C299.621 89.8398 299.937 88.3555 300.569 87.0842C301.201 85.8129 302.089 84.8256 303.233 84.1225C304.376 83.4194 305.715 83.0678 307.249 83.0678C308.783 83.0678 310.122 83.4194 311.265 84.1225C312.409 84.8256 313.297 85.8129 313.929 87.0842C314.561 88.3555 314.877 89.8398 314.877 91.5373C314.877 93.2276 314.561 94.7049 313.929 95.9691C313.297 97.2333 312.409 98.217 311.265 98.9201C310.122 99.6232 308.783 99.9748 307.249 99.9748ZM307.26 97.3008C308.254 97.3008 309.078 97.038 309.731 96.5124C310.385 95.9869 310.868 95.2873 311.18 94.4137C311.5 93.5401 311.659 92.5778 311.659 91.5266C311.659 90.4826 311.5 89.5238 311.18 88.6502C310.868 87.7695 310.385 87.0629 309.731 86.5302C309.078 85.9975 308.254 85.7312 307.26 85.7312C306.258 85.7312 305.427 85.9975 304.767 86.5302C304.113 87.0629 303.627 87.7695 303.307 88.6502C302.995 89.5238 302.838 90.4826 302.838 91.5266C302.838 92.5778 302.995 93.5401 303.307 94.4137C303.627 95.2873 304.113 95.9869 304.767 96.5124C305.427 97.038 306.258 97.3008 307.26 97.3008ZM328.471 99.6445H324.976L332.828 77.8263H336.631L344.483 99.6445H340.988L334.82 81.7894H334.65L328.471 99.6445ZM329.056 91.1005H340.392V93.8704H329.056V91.1005ZM347.378 99.6445V83.2809H350.435V85.9442H350.638C350.979 85.0423 351.536 84.3391 352.31 83.8349C353.084 83.3235 354.011 83.0678 355.091 83.0678C356.184 83.0678 357.101 83.3235 357.839 83.8349C358.585 84.3462 359.135 85.0494 359.491 85.9442H359.661C360.052 85.0707 360.673 84.3746 361.525 83.8562C362.378 83.3306 363.393 83.0678 364.572 83.0678C366.057 83.0678 367.268 83.533 368.205 84.4634C369.15 85.3938 369.622 86.7965 369.622 88.6715V99.6445H366.437V88.9698C366.437 87.8619 366.135 87.0593 365.531 86.5621C364.927 86.065 364.206 85.8164 363.368 85.8164C362.331 85.8164 361.525 86.136 360.95 86.7752C360.375 87.4073 360.087 88.2205 360.087 89.2148V99.6445H356.912V88.7674C356.912 87.8796 356.635 87.1658 356.081 86.6261C355.528 86.0863 354.807 85.8164 353.919 85.8164C353.315 85.8164 352.758 85.9762 352.246 86.2958C351.742 86.6083 351.334 87.0451 351.021 87.6062C350.716 88.1673 350.563 88.8171 350.563 89.5558V99.6445H347.378ZM373.891 105.781V83.2809H377.002V85.9336H377.268C377.453 85.5927 377.719 85.1985 378.067 84.7511C378.415 84.3036 378.898 83.913 379.516 83.5792C380.134 83.2383 380.951 83.0678 381.967 83.0678C383.288 83.0678 384.467 83.4016 385.504 84.0692C386.54 84.7369 387.354 85.6992 387.943 86.9563C388.54 88.2134 388.838 89.7262 388.838 91.4947C388.838 93.2631 388.543 94.7795 387.954 96.0437C387.364 97.3008 386.555 98.2702 385.525 98.9521C384.495 99.6268 383.32 99.9641 381.999 99.9641C381.004 99.9641 380.191 99.7972 379.559 99.4634C378.934 99.1296 378.444 98.739 378.089 98.2915C377.734 97.8441 377.46 97.4464 377.268 97.0984H377.077V105.781H373.891ZM377.013 91.4627C377.013 92.6133 377.18 93.6218 377.513 94.4883C377.847 95.3548 378.33 96.033 378.962 96.5231C379.594 97.006 380.369 97.2475 381.285 97.2475C382.237 97.2475 383.032 96.9954 383.671 96.4911C384.31 95.9798 384.793 95.2873 385.12 94.4137C385.454 93.5401 385.621 92.5565 385.621 91.4627C385.621 90.3832 385.457 89.4137 385.131 88.5543C384.811 87.695 384.328 87.0167 383.682 86.5195C383.043 86.0224 382.244 85.7738 381.285 85.7738C380.362 85.7738 379.58 86.0117 378.941 86.4876C378.309 86.9634 377.83 87.6275 377.503 88.4798C377.176 89.332 377.013 90.3263 377.013 91.4627ZM395.592 77.8263V99.6445H392.407V77.8263H395.592ZM399.878 99.6445V83.2809H403.063V99.6445H399.878ZM401.486 80.756C400.932 80.756 400.456 80.5714 400.059 80.2021C399.668 79.8256 399.473 79.3782 399.473 78.8597C399.473 78.3342 399.668 77.8867 400.059 77.5174C400.456 77.141 400.932 76.9528 401.486 76.9528C402.04 76.9528 402.513 77.141 402.903 77.5174C403.301 77.8867 403.5 78.3342 403.5 78.8597C403.5 79.3782 403.301 79.8256 402.903 80.2021C402.513 80.5714 402.04 80.756 401.486 80.756ZM415.136 83.2809V85.8377H405.889V83.2809H415.136ZM408.424 99.6445V81.3846C408.424 80.3619 408.648 79.5131 409.096 78.8384C409.543 78.1566 410.136 77.6488 410.875 77.315C411.613 76.9741 412.416 76.8036 413.282 76.8036C413.922 76.8036 414.468 76.8569 414.923 76.9634C415.377 77.0629 415.715 77.1552 415.935 77.2404L415.189 79.8185C415.04 79.7759 414.848 79.7262 414.614 79.6694C414.38 79.6055 414.096 79.5735 413.762 79.5735C412.988 79.5735 412.434 79.7653 412.1 80.1488C411.773 80.5323 411.61 81.0863 411.61 81.8107V99.6445H408.424ZM420.436 105.781C419.96 105.781 419.527 105.742 419.136 105.664C418.746 105.593 418.455 105.515 418.263 105.429L419.03 102.819C419.612 102.975 420.131 103.043 420.585 103.022C421.04 103 421.441 102.83 421.789 102.51C422.144 102.191 422.457 101.669 422.727 100.944L423.121 99.8576L417.134 83.2809H420.543L424.687 95.9798H424.857L429.001 83.2809H432.421L425.678 101.828C425.365 102.681 424.967 103.402 424.484 103.991C424.001 104.588 423.426 105.035 422.759 105.333C422.091 105.632 421.317 105.781 420.436 105.781ZM450.993 83.2809V85.8377H442.055V83.2809H450.993ZM444.452 79.3604H447.637V94.8398C447.637 95.4577 447.729 95.9229 447.914 96.2354C448.099 96.5408 448.336 96.7504 448.628 96.864C448.926 96.9705 449.249 97.0238 449.597 97.0238C449.853 97.0238 450.077 97.006 450.268 96.9705C450.46 96.935 450.609 96.9066 450.716 96.8853L451.291 99.5167C451.106 99.5877 450.844 99.6587 450.503 99.7298C450.162 99.8079 449.736 99.8505 449.224 99.8576C448.386 99.8718 447.605 99.7227 446.881 99.4102C446.156 99.0977 445.57 98.6147 445.123 97.9613C444.675 97.3079 444.452 96.4876 444.452 95.5004V79.3604ZM458.053 89.9286V99.6445H454.868V77.8263H458.011V85.9442H458.213C458.597 85.0636 459.183 84.364 459.971 83.8455C460.759 83.3271 461.789 83.0678 463.06 83.0678C464.183 83.0678 465.163 83.2987 466.001 83.7603C466.846 84.2219 467.499 84.9109 467.961 85.8271C468.43 86.7362 468.664 87.8725 468.664 89.2362V99.6445H465.479V89.6197C465.479 88.4194 465.17 87.489 464.552 86.8285C463.934 86.1609 463.075 85.8271 461.974 85.8271C461.221 85.8271 460.546 85.9869 459.95 86.3065C459.36 86.6261 458.895 87.0948 458.554 87.7127C458.22 88.3235 458.053 89.0621 458.053 89.9286ZM479.967 99.9748C478.355 99.9748 476.967 99.6303 475.802 98.9414C474.644 98.2454 473.749 97.2688 473.117 96.0117C472.492 94.7475 472.18 93.2667 472.18 91.5692C472.18 89.8931 472.492 88.4158 473.117 87.1374C473.749 85.859 474.63 84.8612 475.759 84.1438C476.896 83.4265 478.224 83.0678 479.744 83.0678C480.667 83.0678 481.562 83.2205 482.428 83.5259C483.295 83.8313 484.072 84.3107 484.761 84.9641C485.45 85.6175 485.994 86.4663 486.391 87.5103C486.789 88.5472 486.988 89.8079 486.988 91.2923V92.4215H473.98V90.0352H483.866C483.866 89.1971 483.696 88.4549 483.355 87.8086C483.014 87.1552 482.535 86.6403 481.917 86.2638C481.306 85.8874 480.589 85.6992 479.765 85.6992C478.87 85.6992 478.089 85.9194 477.421 86.3597C476.761 86.793 476.249 87.3612 475.887 88.0643C475.532 88.7603 475.354 89.5167 475.354 90.3335V92.1978C475.354 93.2915 475.546 94.2219 475.93 94.989C476.32 95.756 476.864 96.342 477.56 96.7468C478.256 97.1445 479.069 97.3434 479.999 97.3434C480.603 97.3434 481.153 97.2582 481.651 97.0877C482.148 96.9102 482.577 96.6474 482.94 96.2994C483.302 95.9513 483.579 95.5217 483.771 95.0103L486.786 95.5536C486.544 96.4414 486.111 97.2191 485.486 97.8867C484.868 98.5472 484.09 99.0621 483.153 99.4315C482.222 99.7937 481.161 99.9748 479.967 99.9748ZM498.717 99.6445V77.8263H502.009V87.3079H512.886V77.8263H516.189V99.6445H512.886V90.131H502.009V99.6445H498.717ZM527.62 99.9748C526.086 99.9748 524.747 99.6232 523.604 98.9201C522.46 98.217 521.572 97.2333 520.94 95.9691C520.308 94.7049 519.992 93.2276 519.992 91.5373C519.992 89.8398 520.308 88.3555 520.94 87.0842C521.572 85.8129 522.46 84.8256 523.604 84.1225C524.747 83.4194 526.086 83.0678 527.62 83.0678C529.154 83.0678 530.493 83.4194 531.636 84.1225C532.78 84.8256 533.668 85.8129 534.3 87.0842C534.932 88.3555 535.248 89.8398 535.248 91.5373C535.248 93.2276 534.932 94.7049 534.3 95.9691C533.668 97.2333 532.78 98.217 531.636 98.9201C530.493 99.6232 529.154 99.9748 527.62 99.9748ZM527.631 97.3008C528.625 97.3008 529.449 97.038 530.102 96.5124C530.756 95.9869 531.239 95.2873 531.551 94.4137C531.871 93.5401 532.031 92.5778 532.031 91.5266C532.031 90.4826 531.871 89.5238 531.551 88.6502C531.239 87.7695 530.756 87.0629 530.102 86.5302C529.449 85.9975 528.625 85.7312 527.631 85.7312C526.629 85.7312 525.798 85.9975 525.138 86.5302C524.484 87.0629 523.998 87.7695 523.678 88.6502C523.366 89.5238 523.21 90.4826 523.21 91.5266C523.21 92.5778 523.366 93.5401 523.678 94.4137C523.998 95.2873 524.484 95.9869 525.138 96.5124C525.798 97.038 526.629 97.3008 527.631 97.3008ZM546.442 83.2809V85.8377H537.504V83.2809H546.442ZM539.901 79.3604H543.086V94.8398C543.086 95.4577 543.178 95.9229 543.363 96.2354C543.548 96.5408 543.786 96.7504 544.077 96.864C544.375 96.9705 544.698 97.0238 545.046 97.0238C545.302 97.0238 545.526 97.006 545.718 96.9705C545.909 96.935 546.058 96.9066 546.165 96.8853L546.74 99.5167C546.556 99.5877 546.293 99.6587 545.952 99.7298C545.611 99.8079 545.185 99.8505 544.673 99.8576C543.835 99.8718 543.054 99.7227 542.33 99.4102C541.605 99.0977 541.019 98.6147 540.572 97.9613C540.124 97.3079 539.901 96.4876 539.901 95.5004V79.3604ZM557.604 83.2809V85.8377H548.666V83.2809H557.604ZM551.063 79.3604H554.248V94.8398C554.248 95.4577 554.341 95.9229 554.525 96.2354C554.71 96.5408 554.948 96.7504 555.239 96.864C555.537 96.9705 555.86 97.0238 556.208 97.0238C556.464 97.0238 556.688 97.006 556.88 96.9705C557.071 96.935 557.221 96.9066 557.327 96.8853L557.902 99.5167C557.718 99.5877 557.455 99.6587 557.114 99.7298C556.773 99.8079 556.347 99.8505 555.836 99.8576C554.998 99.8718 554.216 99.7227 553.492 99.4102C552.767 99.0977 552.181 98.6147 551.734 97.9613C551.287 97.3079 551.063 96.4876 551.063 95.5004V79.3604ZM568.004 99.9748C566.392 99.9748 565.004 99.6303 563.839 98.9414C562.681 98.2454 561.786 97.2688 561.154 96.0117C560.529 94.7475 560.217 93.2667 560.217 91.5692C560.217 89.8931 560.529 88.4158 561.154 87.1374C561.786 85.859 562.667 84.8612 563.796 84.1438C564.933 83.4265 566.261 83.0678 567.781 83.0678C568.704 83.0678 569.599 83.2205 570.465 83.5259C571.332 83.8313 572.11 84.3107 572.798 84.9641C573.487 85.6175 574.031 86.4663 574.428 87.5103C574.826 88.5472 575.025 89.8079 575.025 91.2923V92.4215H562.017V90.0352H571.904C571.904 89.1971 571.733 88.4549 571.392 87.8086C571.051 87.1552 570.572 86.6403 569.954 86.2638C569.343 85.8874 568.626 85.6992 567.802 85.6992C566.907 85.6992 566.126 85.9194 565.458 86.3597C564.798 86.793 564.286 87.3612 563.924 88.0643C563.569 88.7603 563.392 89.5167 563.392 90.3335V92.1978C563.392 93.2915 563.583 94.2219 563.967 94.989C564.357 95.756 564.901 96.342 565.597 96.7468C566.293 97.1445 567.106 97.3434 568.036 97.3434C568.64 97.3434 569.191 97.2582 569.688 97.0877C570.185 96.9102 570.615 96.6474 570.977 96.2994C571.339 95.9513 571.616 95.5217 571.808 95.0103L574.823 95.5536C574.581 96.4414 574.148 97.2191 573.523 97.8867C572.905 98.5472 572.127 99.0621 571.19 99.4315C570.259 99.7937 569.198 99.9748 568.004 99.9748ZM590.821 87.2759L587.934 87.7873C587.814 87.418 587.622 87.0664 587.359 86.7326C587.103 86.3988 586.755 86.1254 586.315 85.9123C585.875 85.6992 585.324 85.5927 584.664 85.5927C583.762 85.5927 583.009 85.7951 582.405 86.1999C581.801 86.5977 581.5 87.1126 581.5 87.7447C581.5 88.2915 581.702 88.7319 582.107 89.0657C582.512 89.3995 583.165 89.6729 584.067 89.886L586.667 90.4826C588.172 90.8306 589.294 91.3668 590.033 92.0913C590.772 92.8157 591.141 93.7567 591.141 94.9144C591.141 95.8945 590.857 96.7681 590.289 97.5352C589.728 98.2951 588.943 98.8917 587.934 99.3249C586.933 99.7582 585.772 99.9748 584.451 99.9748C582.618 99.9748 581.123 99.5842 579.966 98.8029C578.808 98.0146 578.098 96.896 577.835 95.4471L580.914 94.9783C581.105 95.7809 581.5 96.3881 582.096 96.8001C582.693 97.2049 583.471 97.4073 584.429 97.4073C585.473 97.4073 586.308 97.1907 586.933 96.7575C587.558 96.3171 587.87 95.7809 587.87 95.1488C587.87 94.6374 587.679 94.2077 587.295 93.8597C586.919 93.5117 586.34 93.2489 585.559 93.0714L582.789 92.4641C581.262 92.1161 580.132 91.5621 579.401 90.8022C578.676 90.0423 578.314 89.0799 578.314 87.9151C578.314 86.9492 578.584 86.104 579.124 85.3796C579.664 84.6552 580.409 84.0906 581.361 83.6857C582.313 83.2738 583.403 83.0678 584.632 83.0678C586.4 83.0678 587.792 83.4513 588.808 84.2184C589.824 84.9783 590.495 85.9975 590.821 87.2759ZM602.282 83.2809V85.8377H593.344V83.2809H602.282ZM595.741 79.3604H598.926V94.8398C598.926 95.4577 599.018 95.9229 599.203 96.2354C599.388 96.5408 599.626 96.7504 599.917 96.864C600.215 96.9705 600.538 97.0238 600.886 97.0238C601.142 97.0238 601.366 97.006 601.557 96.9705C601.749 96.935 601.898 96.9066 602.005 96.8853L602.58 99.5167C602.395 99.5877 602.133 99.6587 601.792 99.7298C601.451 99.8079 601.025 99.8505 600.513 99.8576C599.675 99.8718 598.894 99.7227 598.17 99.4102C597.445 99.0977 596.859 98.6147 596.412 97.9613C595.964 97.3079 595.741 96.4876 595.741 95.5004V79.3604ZM631.611 77.8263V99.6445H628.585L617.495 83.6431H617.292V99.6445H614.001V77.8263H617.047L628.148 93.8491H628.351V77.8263H631.611ZM636.157 99.6445V83.2809H639.342V99.6445H636.157ZM637.766 80.756C637.212 80.756 636.736 80.5714 636.338 80.2021C635.947 79.8256 635.752 79.3782 635.752 78.8597C635.752 78.3342 635.947 77.8867 636.338 77.5174C636.736 77.141 637.212 76.9528 637.766 76.9528C638.32 76.9528 638.792 77.141 639.183 77.5174C639.58 77.8867 639.779 78.3342 639.779 78.8597C639.779 79.3782 639.58 79.8256 639.183 80.2021C638.792 80.5714 638.32 80.756 637.766 80.756ZM650.52 99.9748C648.937 99.9748 647.573 99.6161 646.43 98.8988C645.293 98.1744 644.42 97.1765 643.809 95.9052C643.198 94.6339 642.893 93.1779 642.893 91.5373C642.893 89.8754 643.205 88.4087 643.83 87.1374C644.455 85.859 645.336 84.8612 646.472 84.1438C647.608 83.4265 648.947 83.0678 650.488 83.0678C651.731 83.0678 652.839 83.2987 653.812 83.7603C654.785 84.2148 655.57 84.854 656.167 85.6779C656.77 86.5018 657.129 87.4641 657.243 88.565H654.143C653.972 87.7979 653.581 87.1374 652.971 86.5835C652.367 86.0295 651.557 85.7525 650.542 85.7525C649.654 85.7525 648.876 85.9869 648.209 86.4556C647.548 86.9173 647.033 87.5778 646.664 88.4371C646.295 89.2894 646.11 90.2979 646.11 91.4627C646.11 92.6559 646.291 93.6857 646.653 94.5522C647.015 95.4187 647.527 96.0898 648.187 96.5657C648.855 97.0415 649.64 97.2795 650.542 97.2795C651.145 97.2795 651.692 97.1694 652.182 96.9492C652.68 96.7219 653.095 96.3988 653.429 95.9798C653.77 95.5607 654.008 95.0565 654.143 94.467H657.243C657.129 95.5252 656.785 96.4698 656.209 97.3008C655.634 98.1317 654.863 98.7852 653.898 99.261C652.939 99.7369 651.813 99.9748 650.52 99.9748ZM663.835 89.9286V99.6445H660.649V77.8263H663.792V85.9442H663.994C664.378 85.0636 664.964 84.364 665.752 83.8455C666.54 83.3271 667.57 83.0678 668.842 83.0678C669.964 83.0678 670.944 83.2987 671.782 83.7603C672.627 84.2219 673.281 84.9109 673.742 85.8271C674.211 86.7362 674.445 87.8725 674.445 89.2362V99.6445H671.26V89.6197C671.26 88.4194 670.951 87.489 670.333 86.8285C669.715 86.1609 668.856 85.8271 667.755 85.8271C667.002 85.8271 666.327 85.9869 665.731 86.3065C665.141 86.6261 664.676 87.0948 664.335 87.7127C664.001 88.3235 663.835 89.0621 663.835 89.9286ZM685.749 99.9748C684.136 99.9748 682.748 99.6303 681.583 98.9414C680.425 98.2454 679.531 97.2688 678.898 96.0117C678.273 94.7475 677.961 93.2667 677.961 91.5692C677.961 89.8931 678.273 88.4158 678.898 87.1374C679.531 85.859 680.411 84.8612 681.54 84.1438C682.677 83.4265 684.005 83.0678 685.525 83.0678C686.448 83.0678 687.343 83.2205 688.21 83.5259C689.076 83.8313 689.854 84.3107 690.543 84.9641C691.232 85.6175 691.775 86.4663 692.173 87.5103C692.57 88.5472 692.769 89.8079 692.769 91.2923V92.4215H679.761V90.0352H689.648C689.648 89.1971 689.477 88.4549 689.136 87.8086C688.795 87.1552 688.316 86.6403 687.698 86.2638C687.087 85.8874 686.37 85.6992 685.546 85.6992C684.651 85.6992 683.87 85.9194 683.202 86.3597C682.542 86.793 682.031 87.3612 681.668 88.0643C681.313 88.7603 681.136 89.5167 681.136 90.3335V92.1978C681.136 93.2915 681.327 94.2219 681.711 94.989C682.102 95.756 682.645 96.342 683.341 96.7468C684.037 97.1445 684.85 97.3434 685.781 97.3434C686.384 97.3434 686.935 97.2582 687.432 97.0877C687.929 96.9102 688.359 96.6474 688.721 96.2994C689.083 95.9513 689.36 95.5217 689.552 95.0103L692.567 95.5536C692.325 96.4414 691.892 97.2191 691.267 97.8867C690.649 98.5472 689.871 99.0621 688.934 99.4315C688.004 99.7937 686.942 99.9748 685.749 99.9748ZM704.243 99.6445V83.2809H707.428V99.6445H704.243ZM705.852 80.756C705.298 80.756 704.822 80.5714 704.424 80.2021C704.033 79.8256 703.838 79.3782 703.838 78.8597C703.838 78.3342 704.033 77.8867 704.424 77.5174C704.822 77.141 705.298 76.9528 705.852 76.9528C706.406 76.9528 706.878 77.141 707.268 77.5174C707.666 77.8867 707.865 78.3342 707.865 78.8597C707.865 79.3782 707.666 79.8256 707.268 80.2021C706.878 80.5714 706.406 80.756 705.852 80.756ZM714.899 89.9286V99.6445H711.714V83.2809H714.771V85.9442H714.974C715.35 85.0778 715.939 84.3817 716.742 83.8562C717.552 83.3306 718.571 83.0678 719.8 83.0678C720.915 83.0678 721.891 83.3022 722.729 83.771C723.567 84.2326 724.217 84.9215 724.679 85.8377C725.14 86.7539 725.371 87.8867 725.371 89.2362V99.6445H722.186V89.6197C722.186 88.4336 721.877 87.5067 721.259 86.8391C720.641 86.1644 719.792 85.8271 718.713 85.8271C717.974 85.8271 717.317 85.9869 716.742 86.3065C716.174 86.6261 715.723 87.0948 715.389 87.7127C715.062 88.3235 714.899 89.0621 714.899 89.9286ZM291.046 119.281V121.838H282.108V119.281H291.046ZM284.505 115.36H287.691V130.84C287.691 131.458 287.783 131.923 287.968 132.235C288.152 132.541 288.39 132.75 288.681 132.864C288.98 132.971 289.303 133.024 289.651 133.024C289.907 133.024 290.13 133.006 290.322 132.971C290.514 132.935 290.663 132.907 290.769 132.885L291.345 135.517C291.16 135.588 290.897 135.659 290.556 135.73C290.215 135.808 289.789 135.85 289.278 135.858C288.44 135.872 287.659 135.723 286.934 135.41C286.21 135.098 285.624 134.615 285.176 133.961C284.729 133.308 284.505 132.488 284.505 131.5V115.36ZM298.107 125.929V135.645H294.922V113.826H298.064V121.944H298.267C298.65 121.064 299.236 120.364 300.025 119.846C300.813 119.327 301.843 119.068 303.114 119.068C304.236 119.068 305.216 119.299 306.054 119.76C306.9 120.222 307.553 120.911 308.015 121.827C308.483 122.736 308.718 123.873 308.718 125.236V135.645H305.532V125.62C305.532 124.419 305.223 123.489 304.606 122.828C303.988 122.161 303.128 121.827 302.027 121.827C301.275 121.827 300.6 121.987 300.003 122.306C299.414 122.626 298.949 123.095 298.608 123.713C298.274 124.324 298.107 125.062 298.107 125.929ZM320.021 135.975C318.409 135.975 317.02 135.63 315.856 134.941C314.698 134.245 313.803 133.269 313.171 132.012C312.546 130.748 312.233 129.267 312.233 127.569C312.233 125.893 312.546 124.416 313.171 123.137C313.803 121.859 314.684 120.861 315.813 120.144C316.949 119.426 318.277 119.068 319.797 119.068C320.721 119.068 321.616 119.221 322.482 119.526C323.348 119.831 324.126 120.311 324.815 120.964C325.504 121.618 326.047 122.466 326.445 123.51C326.843 124.547 327.042 125.808 327.042 127.292V128.422H314.034V126.035H323.92C323.92 125.197 323.75 124.455 323.409 123.809C323.068 123.155 322.589 122.64 321.971 122.264C321.36 121.887 320.642 121.699 319.819 121.699C318.924 121.699 318.142 121.919 317.475 122.36C316.814 122.793 316.303 123.361 315.941 124.064C315.586 124.76 315.408 125.517 315.408 126.333V128.198C315.408 129.292 315.6 130.222 315.983 130.989C316.374 131.756 316.917 132.342 317.613 132.747C318.309 133.145 319.123 133.343 320.053 133.343C320.657 133.343 321.207 133.258 321.704 133.088C322.201 132.91 322.631 132.647 322.993 132.299C323.356 131.951 323.633 131.522 323.824 131.01L326.839 131.554C326.598 132.441 326.165 133.219 325.54 133.887C324.922 134.547 324.144 135.062 323.206 135.431C322.276 135.794 321.214 135.975 320.021 135.975ZM338.771 113.826H342.766L349.712 130.787H349.968L356.914 113.826H360.909V135.645H357.777V119.856H357.574L351.14 135.613H348.54L342.106 119.846H341.903V135.645H338.771V113.826ZM370.201 136.007C369.164 136.007 368.227 135.815 367.389 135.431C366.551 135.041 365.887 134.476 365.397 133.738C364.914 132.999 364.672 132.093 364.672 131.021C364.672 130.098 364.85 129.338 365.205 128.741C365.56 128.145 366.039 127.672 366.643 127.324C367.247 126.976 367.921 126.713 368.667 126.536C369.413 126.358 370.173 126.223 370.947 126.131C371.927 126.017 372.723 125.925 373.333 125.854C373.944 125.776 374.388 125.652 374.665 125.481C374.942 125.311 375.081 125.034 375.081 124.65V124.576C375.081 123.645 374.818 122.924 374.292 122.413C373.774 121.902 373 121.646 371.97 121.646C370.897 121.646 370.052 121.884 369.434 122.36C368.823 122.828 368.401 123.35 368.166 123.926L365.173 123.244C365.528 122.25 366.046 121.447 366.728 120.836C367.417 120.218 368.209 119.771 369.104 119.494C369.999 119.21 370.94 119.068 371.927 119.068C372.581 119.068 373.273 119.146 374.005 119.302C374.743 119.451 375.432 119.728 376.071 120.133C376.718 120.538 377.247 121.117 377.659 121.87C378.071 122.615 378.277 123.585 378.277 124.778V135.645H375.166V133.407H375.038C374.832 133.819 374.523 134.224 374.111 134.622C373.699 135.02 373.17 135.35 372.524 135.613C371.877 135.875 371.103 136.007 370.201 136.007ZM370.894 133.45C371.774 133.45 372.527 133.276 373.152 132.928C373.784 132.58 374.264 132.125 374.59 131.564C374.924 130.996 375.091 130.389 375.091 129.743V127.633C374.978 127.747 374.757 127.853 374.431 127.953C374.111 128.045 373.745 128.127 373.333 128.198C372.921 128.262 372.52 128.322 372.13 128.379C371.739 128.429 371.412 128.471 371.149 128.507C370.532 128.585 369.967 128.716 369.456 128.901C368.951 129.086 368.546 129.352 368.241 129.7C367.943 130.041 367.794 130.495 367.794 131.064C367.794 131.852 368.085 132.449 368.667 132.853C369.25 133.251 369.992 133.45 370.894 133.45ZM382.519 135.645V119.281H385.598V121.88H385.769C386.067 121 386.592 120.307 387.345 119.803C388.105 119.292 388.965 119.036 389.923 119.036C390.122 119.036 390.357 119.043 390.627 119.057C390.903 119.071 391.12 119.089 391.276 119.11V122.157C391.149 122.122 390.921 122.083 390.595 122.04C390.268 121.99 389.941 121.966 389.614 121.966C388.862 121.966 388.19 122.125 387.601 122.445C387.019 122.757 386.557 123.194 386.216 123.755C385.875 124.309 385.705 124.941 385.705 125.652V135.645H382.519ZM396.963 130.094L396.941 126.206H397.495L404.015 119.281H407.829L400.393 127.164H399.892L396.963 130.094ZM394.033 135.645V113.826H397.218V135.645H394.033ZM404.367 135.645L398.507 127.868L400.702 125.641L408.277 135.645H404.367ZM417.111 135.975C415.499 135.975 414.11 135.63 412.945 134.941C411.788 134.245 410.893 133.269 410.261 132.012C409.636 130.748 409.323 129.267 409.323 127.569C409.323 125.893 409.636 124.416 410.261 123.137C410.893 121.859 411.774 120.861 412.903 120.144C414.039 119.426 415.367 119.068 416.887 119.068C417.81 119.068 418.705 119.221 419.572 119.526C420.438 119.831 421.216 120.311 421.905 120.964C422.594 121.618 423.137 122.466 423.535 123.51C423.933 124.547 424.131 125.808 424.131 127.292V128.422H411.124V126.035H421.01C421.01 125.197 420.84 124.455 420.499 123.809C420.158 123.155 419.678 122.64 419.06 122.264C418.45 121.887 417.732 121.699 416.908 121.699C416.014 121.699 415.232 121.919 414.565 122.36C413.904 122.793 413.393 123.361 413.031 124.064C412.676 124.76 412.498 125.517 412.498 126.333V128.198C412.498 129.292 412.69 130.222 413.073 130.989C413.464 131.756 414.007 132.342 414.703 132.747C415.399 133.145 416.212 133.343 417.143 133.343C417.747 133.343 418.297 133.258 418.794 133.088C419.291 132.91 419.721 132.647 420.083 132.299C420.445 131.951 420.722 131.522 420.914 131.01L423.929 131.554C423.688 132.441 423.254 133.219 422.629 133.887C422.011 134.547 421.234 135.062 420.296 135.431C419.366 135.794 418.304 135.975 417.111 135.975ZM435.304 119.281V121.838H426.366V119.281H435.304ZM428.763 115.36H431.948V130.84C431.948 131.458 432.041 131.923 432.225 132.235C432.41 132.541 432.648 132.75 432.939 132.864C433.237 132.971 433.561 133.024 433.909 133.024C434.164 133.024 434.388 133.006 434.58 132.971C434.772 132.935 434.921 132.907 435.027 132.885L435.603 135.517C435.418 135.588 435.155 135.659 434.814 135.73C434.473 135.808 434.047 135.85 433.536 135.858C432.698 135.872 431.916 135.723 431.192 135.41C430.468 135.098 429.882 134.615 429.434 133.961C428.987 133.308 428.763 132.488 428.763 131.5V115.36ZM442.312 129.37V129.167C442.326 127.846 442.457 126.795 442.706 126.014C442.961 125.233 443.324 124.6 443.792 124.118C444.261 123.635 444.826 123.194 445.486 122.797C445.912 122.527 446.296 122.225 446.637 121.891C446.978 121.557 447.248 121.174 447.446 120.74C447.645 120.307 447.745 119.828 447.745 119.302C447.745 118.67 447.596 118.123 447.297 117.662C446.999 117.2 446.601 116.845 446.104 116.596C445.614 116.341 445.067 116.213 444.464 116.213C443.917 116.213 443.395 116.326 442.897 116.554C442.4 116.781 441.988 117.136 441.662 117.619C441.335 118.095 441.147 118.709 441.097 119.462H437.858C437.908 118.184 438.231 117.104 438.828 116.223C439.424 115.336 440.213 114.664 441.193 114.21C442.18 113.755 443.27 113.528 444.464 113.528C445.77 113.528 446.914 113.773 447.894 114.263C448.874 114.746 449.634 115.424 450.174 116.298C450.721 117.164 450.994 118.176 450.994 119.334C450.994 120.13 450.87 120.847 450.621 121.486C450.373 122.118 450.017 122.683 449.556 123.18C449.101 123.677 448.554 124.118 447.915 124.501C447.312 124.877 446.821 125.268 446.445 125.673C446.076 126.078 445.806 126.557 445.635 127.111C445.465 127.665 445.373 128.35 445.358 129.167V129.37H442.312ZM443.92 135.847C443.338 135.847 442.837 135.641 442.418 135.229C441.999 134.81 441.79 134.306 441.79 133.716C441.79 133.134 441.999 132.637 442.418 132.225C442.837 131.806 443.338 131.596 443.92 131.596C444.495 131.596 444.993 131.806 445.412 132.225C445.838 132.637 446.051 133.134 446.051 133.716C446.051 134.107 445.951 134.466 445.753 134.792C445.561 135.112 445.305 135.368 444.986 135.559C444.666 135.751 444.311 135.847 443.92 135.847ZM458.073 129.37V129.167C458.087 127.846 458.219 126.795 458.467 126.014C458.723 125.233 459.085 124.6 459.554 124.118C460.023 123.635 460.587 123.194 461.248 122.797C461.674 122.527 462.058 122.225 462.399 121.891C462.739 121.557 463.009 121.174 463.208 120.74C463.407 120.307 463.506 119.828 463.506 119.302C463.506 118.67 463.357 118.123 463.059 117.662C462.761 117.2 462.363 116.845 461.866 116.596C461.376 116.341 460.829 116.213 460.225 116.213C459.678 116.213 459.156 116.326 458.659 116.554C458.162 116.781 457.75 117.136 457.423 117.619C457.097 118.095 456.908 118.709 456.859 119.462H453.62C453.67 118.184 453.993 117.104 454.59 116.223C455.186 115.336 455.975 114.664 456.955 114.21C457.942 113.755 459.032 113.528 460.225 113.528C461.532 113.528 462.676 113.773 463.656 114.263C464.636 114.746 465.396 115.424 465.935 116.298C466.482 117.164 466.756 118.176 466.756 119.334C466.756 120.13 466.631 120.847 466.383 121.486C466.134 122.118 465.779 122.683 465.318 123.18C464.863 123.677 464.316 124.118 463.677 124.501C463.073 124.877 462.583 125.268 462.207 125.673C461.837 126.078 461.568 126.557 461.397 127.111C461.227 127.665 461.134 128.35 461.12 129.167V129.37H458.073ZM459.682 135.847C459.1 135.847 458.599 135.641 458.18 135.229C457.761 134.81 457.551 134.306 457.551 133.716C457.551 133.134 457.761 132.637 458.18 132.225C458.599 131.806 459.1 131.596 459.682 131.596C460.257 131.596 460.754 131.806 461.173 132.225C461.6 132.637 461.813 133.134 461.813 133.716C461.813 134.107 461.713 134.466 461.514 134.792C461.323 135.112 461.067 135.368 460.747 135.559C460.428 135.751 460.073 135.847 459.682 135.847ZM473.835 129.37V129.167C473.849 127.846 473.981 126.795 474.229 126.014C474.485 125.233 474.847 124.6 475.316 124.118C475.785 123.635 476.349 123.194 477.01 122.797C477.436 122.527 477.819 122.225 478.16 121.891C478.501 121.557 478.771 121.174 478.97 120.74C479.169 120.307 479.268 119.828 479.268 119.302C479.268 118.67 479.119 118.123 478.821 117.662C478.522 117.2 478.125 116.845 477.628 116.596C477.138 116.341 476.591 116.213 475.987 116.213C475.44 116.213 474.918 116.326 474.421 116.554C473.924 116.781 473.512 117.136 473.185 117.619C472.858 118.095 472.67 118.709 472.62 119.462H469.382C469.432 118.184 469.755 117.104 470.351 116.223C470.948 115.336 471.736 114.664 472.716 114.21C473.704 113.755 474.794 113.528 475.987 113.528C477.294 113.528 478.437 113.773 479.417 114.263C480.397 114.746 481.157 115.424 481.697 116.298C482.244 117.164 482.517 118.176 482.517 119.334C482.517 120.13 482.393 120.847 482.145 121.486C481.896 122.118 481.541 122.683 481.079 123.18C480.625 123.677 480.078 124.118 479.439 124.501C478.835 124.877 478.345 125.268 477.968 125.673C477.599 126.078 477.329 126.557 477.159 127.111C476.988 127.665 476.896 128.35 476.882 129.167V129.37H473.835ZM475.444 135.847C474.861 135.847 474.361 135.641 473.941 135.229C473.522 134.81 473.313 134.306 473.313 133.716C473.313 133.134 473.522 132.637 473.941 132.225C474.361 131.806 474.861 131.596 475.444 131.596C476.019 131.596 476.516 131.806 476.935 132.225C477.361 132.637 477.574 133.134 477.574 133.716C477.574 134.107 477.475 134.466 477.276 134.792C477.084 135.112 476.829 135.368 476.509 135.559C476.189 135.751 475.834 135.847 475.444 135.847ZM489.597 129.37V129.167C489.611 127.846 489.742 126.795 489.991 126.014C490.247 125.233 490.609 124.6 491.078 124.118C491.546 123.635 492.111 123.194 492.771 122.797C493.198 122.527 493.581 122.225 493.922 121.891C494.263 121.557 494.533 121.174 494.732 120.74C494.93 120.307 495.03 119.828 495.03 119.302C495.03 118.67 494.881 118.123 494.582 117.662C494.284 117.2 493.886 116.845 493.389 116.596C492.899 116.341 492.352 116.213 491.749 116.213C491.202 116.213 490.68 116.326 490.183 116.554C489.685 116.781 489.274 117.136 488.947 117.619C488.62 118.095 488.432 118.709 488.382 119.462H485.144C485.193 118.184 485.516 117.104 486.113 116.223C486.71 115.336 487.498 114.664 488.478 114.21C489.465 113.755 490.555 113.528 491.749 113.528C493.055 113.528 494.199 113.773 495.179 114.263C496.159 114.746 496.919 115.424 497.459 116.298C498.006 117.164 498.279 118.176 498.279 119.334C498.279 120.13 498.155 120.847 497.906 121.486C497.658 122.118 497.303 122.683 496.841 123.18C496.386 123.677 495.84 124.118 495.2 124.501C494.597 124.877 494.107 125.268 493.73 125.673C493.361 126.078 493.091 126.557 492.921 127.111C492.75 127.665 492.658 128.35 492.644 129.167V129.37H489.597ZM491.205 135.847C490.623 135.847 490.122 135.641 489.703 135.229C489.284 134.81 489.075 134.306 489.075 133.716C489.075 133.134 489.284 132.637 489.703 132.225C490.122 131.806 490.623 131.596 491.205 131.596C491.781 131.596 492.278 131.806 492.697 132.225C493.123 132.637 493.336 133.134 493.336 133.716C493.336 134.107 493.237 134.466 493.038 134.792C492.846 135.112 492.59 135.368 492.271 135.559C491.951 135.751 491.596 135.847 491.205 135.847Z" fill="white"/>
</svg>
