<svg width="357" height="193" viewBox="0 0 357 193" fill="none" xmlns="http://www.w3.org/2000/svg">
<ellipse opacity="0.05" cx="171.432" cy="96.469" rx="89.5684" ry="96.0901" fill="white"/>
<ellipse opacity="0.05" cx="171.432" cy="96.4693" rx="70.0303" ry="75.1294" fill="white"/>
<ellipse opacity="0.05" cx="171.432" cy="96.47" rx="54.1338" ry="58.0755" fill="white"/>
<g filter="url(#filter0_d_658_7533)">
<path d="M23.0732 106.41V71.5011H30.4538V85.9045H45.4368V71.5011H52.8004V106.41H45.4368V91.9897H30.4538V106.41H23.0732ZM70.6811 106.922C67.9879 106.922 65.6697 106.376 63.7266 105.285C61.7947 104.183 60.3061 102.626 59.2607 100.615C58.2152 98.592 57.6925 96.1999 57.6925 93.4386C57.6925 90.7454 58.2152 88.3817 59.2607 86.3477C60.3061 84.3136 61.7777 82.7283 63.6754 81.592C65.5845 80.4556 67.8232 79.8874 70.3913 79.8874C72.1186 79.8874 73.7266 80.1658 75.2152 80.7227C76.7152 81.2681 78.022 82.092 79.1357 83.1942C80.2607 84.2965 81.1357 85.6829 81.7607 87.3533C82.3857 89.0124 82.6982 90.9556 82.6982 93.1829V95.1772H60.5902V90.6772H75.8629C75.8629 89.6317 75.6357 88.7056 75.1811 87.8988C74.7266 87.092 74.0959 86.4613 73.2891 86.0067C72.4936 85.5408 71.5675 85.3079 70.5107 85.3079C69.4084 85.3079 68.4311 85.5636 67.5788 86.0749C66.7379 86.5749 66.0788 87.2511 65.6016 88.1033C65.1243 88.9442 64.88 89.8817 64.8686 90.9158V95.1942C64.8686 96.4897 65.1072 97.609 65.5845 98.5522C66.0732 99.4954 66.7607 100.223 67.647 100.734C68.5334 101.245 69.5845 101.501 70.8004 101.501C71.6072 101.501 72.3459 101.387 73.0163 101.16C73.6868 100.933 74.2607 100.592 74.7379 100.137C75.2152 99.6829 75.5788 99.1261 75.8288 98.467L82.5447 98.9102C82.2038 100.524 81.505 101.933 80.4482 103.137C79.4027 104.331 78.0504 105.262 76.3913 105.933C74.7436 106.592 72.8402 106.922 70.6811 106.922ZM91.2166 116.228C90.2962 116.228 89.4325 116.154 88.6257 116.007C87.8303 115.87 87.1712 115.694 86.6484 115.478L88.2848 110.058C89.1371 110.319 89.9041 110.461 90.5859 110.484C91.2791 110.507 91.8757 110.348 92.3757 110.007C92.8871 109.666 93.3018 109.086 93.62 108.268L94.0462 107.16L84.6541 80.2283H92.2905L97.7109 99.4556H97.9837L103.455 80.2283H111.143L100.967 109.24C100.478 110.649 99.8132 111.876 98.9723 112.922C98.1428 113.978 97.0916 114.791 95.8189 115.359C94.5462 115.939 93.0121 116.228 91.2166 116.228Z" fill="white"/>
<path d="M232.214 71.5011H239.51V95.842C239.51 98.092 239.004 100.047 237.993 101.706C236.993 103.365 235.601 104.643 233.817 105.541C232.033 106.439 229.959 106.887 227.595 106.887C225.493 106.887 223.584 106.518 221.868 105.779C220.163 105.029 218.811 103.893 217.811 102.37C216.811 100.836 216.317 98.9102 216.328 96.592H223.675C223.697 97.5124 223.885 98.3022 224.237 98.9613C224.601 99.609 225.095 100.109 225.72 100.461C226.357 100.802 227.107 100.973 227.97 100.973C228.879 100.973 229.646 100.779 230.271 100.393C230.908 99.9954 231.391 99.4158 231.72 98.6545C232.05 97.8931 232.214 96.9556 232.214 95.842V71.5011ZM269.885 80.2283L260.732 106.41H252.55L243.396 80.2283H251.067L256.504 98.9613H256.777L262.197 80.2283H269.885ZM281.186 71.5011V75.1829C281.186 76.2283 280.982 77.2965 280.572 78.3874C280.175 79.467 279.641 80.4897 278.97 81.4556C278.3 82.4102 277.567 83.2227 276.771 83.8931L273.567 82.0011C274.135 81.1033 274.635 80.109 275.067 79.0181C275.51 77.9272 275.732 76.6602 275.732 75.217V71.5011H281.186ZM304.526 87.6942L297.878 88.1033C297.764 87.5352 297.52 87.0238 297.145 86.5692C296.77 86.1033 296.276 85.734 295.662 85.4613C295.06 85.1772 294.338 85.0352 293.497 85.0352C292.372 85.0352 291.423 85.2738 290.651 85.7511C289.878 86.217 289.491 86.842 289.491 87.6261C289.491 88.2511 289.741 88.7795 290.241 89.2113C290.741 89.6431 291.599 89.9897 292.815 90.2511L297.554 91.2056C300.099 91.7283 301.997 92.5692 303.247 93.7283C304.497 94.8874 305.122 96.4102 305.122 98.2965C305.122 100.012 304.616 101.518 303.605 102.814C302.605 104.109 301.23 105.12 299.48 105.848C297.741 106.564 295.736 106.922 293.463 106.922C289.997 106.922 287.236 106.2 285.179 104.757C283.134 103.302 281.935 101.325 281.582 98.8249L288.724 98.4499C288.94 99.5067 289.463 100.314 290.293 100.87C291.122 101.416 292.185 101.689 293.48 101.689C294.753 101.689 295.776 101.444 296.548 100.956C297.332 100.456 297.73 99.8136 297.741 99.0295C297.73 98.3704 297.452 97.8306 296.906 97.4102C296.361 96.9783 295.52 96.6488 294.384 96.4215L289.849 95.5181C287.293 95.0067 285.389 94.1204 284.139 92.859C282.901 91.5977 282.281 89.9897 282.281 88.0352C282.281 86.3533 282.736 84.9045 283.645 83.6886C284.565 82.4727 285.855 81.5352 287.514 80.8761C289.185 80.217 291.139 79.8874 293.378 79.8874C296.685 79.8874 299.287 80.5863 301.185 81.984C303.094 83.3817 304.207 85.2852 304.526 87.6942Z" fill="white"/>
</g>
<path d="M177.301 52.4168C181.104 60.8012 185.769 71.0887 189.269 75.1762C189.957 73.5887 189.882 70.9262 190.663 64.4262C191.369 58.5637 196.207 58.0043 198.285 58.4199C202.879 59.3793 204.276 64.0324 204.122 65.7481C203.879 68.4824 203.866 68.3887 203.366 75.0043C202.632 84.6762 206.366 91.9793 206.71 100.261C206.71 115.867 193.032 123.536 183.46 123.536C175.801 123.536 168.135 118.636 165.263 116.186L150.901 103.067C149.141 101.701 144.797 97.1887 142.891 94.5918C137.691 87.5199 145.21 82.648 149.435 83.873C149.104 83.6168 147.097 80.3605 146.138 78.7668C143.56 73.5887 146.138 70.1418 148.044 69.1918C152.366 67.0418 155.544 69.4606 156.544 70.7793C156.16 70.1293 154.96 67.4981 153.026 62.6699C151.091 57.8449 154.207 54.8637 156.007 53.9762C159.913 52.1668 163.626 54.4637 164.554 56.5168C165.01 57.5199 167.46 62.8918 168.529 65.2574C167.722 63.2949 166.266 59.3918 165.751 57.5887C164.726 53.3387 167.191 50.4262 168.757 49.6762C170.929 48.6356 175.463 48.3637 177.257 52.3137L177.301 52.4168Z" fill="url(#paint0_radial_658_7533)"/>
<path d="M177.302 52.4168C181.105 60.8012 185.771 71.0887 189.271 75.1762C189.958 73.5887 189.883 70.9262 190.664 64.4262C191.371 58.5637 196.208 58.0043 198.286 58.4199C202.88 59.3793 204.277 64.0324 204.124 65.7481C203.88 68.4824 203.868 68.3887 203.368 75.0043C202.633 84.6762 206.368 91.9793 206.711 100.261C206.711 115.867 193.033 123.536 183.461 123.536C175.802 123.536 168.136 118.636 165.264 116.186L150.902 103.067C149.143 101.701 144.799 97.1887 142.889 94.5918C137.693 87.5199 145.211 82.648 149.436 83.873C149.105 83.6168 147.099 80.3605 146.139 78.7668C143.561 73.5887 146.139 70.1418 148.046 69.1918C152.368 67.0418 155.546 69.4606 156.546 70.7793C156.161 70.1293 154.961 67.4981 153.027 62.6699C151.093 57.8449 154.208 54.8637 156.008 53.9762C159.914 52.1668 163.627 54.4637 164.555 56.5168C165.011 57.5199 167.461 62.8918 168.53 65.2574C167.724 63.2949 166.268 59.3918 165.752 57.5887C164.727 53.3387 167.193 50.4262 168.755 49.6762C170.93 48.6356 175.464 48.3637 177.255 52.3137L177.302 52.4168Z" fill="url(#paint1_radial_658_7533)"/>
<path d="M204.124 65.7477C203.88 68.4821 203.867 68.3884 203.367 75.004C203.108 78.4227 204.964 91.0071 204.964 91.0071C200.449 92.4821 190.664 90.529 189.274 75.1759C189.958 73.5884 189.883 70.9259 190.664 64.4259C191.371 58.5602 196.208 58.004 198.286 58.4196C202.88 59.379 204.277 64.0321 204.124 65.7477Z" fill="url(#paint2_radial_658_7533)"/>
<path d="M204.124 65.7477C203.88 68.4821 203.867 68.3884 203.367 75.004C203.108 78.4227 204.964 91.0071 204.964 91.0071C200.449 92.4821 190.664 90.529 189.274 75.1759C189.958 73.5884 189.883 70.9259 190.664 64.4259C191.371 58.5602 196.208 58.004 198.286 58.4196C202.88 59.379 204.277 64.0321 204.124 65.7477Z" fill="url(#paint3_radial_658_7533)"/>
<path d="M204.124 65.7477C203.88 68.4821 203.867 68.3884 203.367 75.004C203.108 78.4227 204.964 91.0071 204.964 91.0071C200.449 92.4821 190.664 90.529 189.274 75.1759C189.958 73.5884 189.883 70.9259 190.664 64.4259C191.371 58.5602 196.208 58.004 198.286 58.4196C202.88 59.379 204.277 64.0321 204.124 65.7477Z" fill="url(#paint4_radial_658_7533)"/>
<path d="M177.302 52.4168C181.105 60.8012 185.77 71.0887 189.27 75.1762C188.724 79.8512 184.545 82.0887 180.945 81.2512C176.405 79.9324 174.68 76.7106 174.68 76.7106C174.68 76.7106 173.492 74.8731 172.336 72.8512C170.999 70.5137 171.242 70.5668 169.002 66.3356C168.561 65.5043 166.405 59.8668 165.752 57.5887C164.727 53.3387 167.192 50.4262 168.758 49.6762C170.93 48.6356 175.464 48.3637 177.258 52.3137L177.302 52.4168Z" fill="url(#paint5_radial_658_7533)"/>
<path d="M177.302 52.4168C181.105 60.8012 185.77 71.0887 189.27 75.1762C188.724 79.8512 184.545 82.0887 180.945 81.2512C176.405 79.9324 174.68 76.7106 174.68 76.7106C174.68 76.7106 173.492 74.8731 172.336 72.8512C170.999 70.5137 171.242 70.5668 169.002 66.3356C168.561 65.5043 166.405 59.8668 165.752 57.5887C164.727 53.3387 167.192 50.4262 168.758 49.6762C170.93 48.6356 175.464 48.3637 177.258 52.3137L177.302 52.4168Z" fill="url(#paint6_linear_658_7533)"/>
<path d="M177.302 52.4168C181.105 60.8012 185.77 71.0887 189.27 75.1762C188.724 79.8512 184.545 82.0887 180.945 81.2512C176.405 79.9324 174.68 76.7106 174.68 76.7106C174.68 76.7106 173.492 74.8731 172.336 72.8512C170.999 70.5137 171.242 70.5668 169.002 66.3356C168.561 65.5043 166.405 59.8668 165.752 57.5887C164.727 53.3387 167.192 50.4262 168.758 49.6762C170.93 48.6356 175.464 48.3637 177.258 52.3137L177.302 52.4168Z" fill="url(#paint7_radial_658_7533)"/>
<path d="M177.302 52.4168C181.105 60.8012 185.77 71.0887 189.27 75.1762C188.724 79.8512 184.545 82.0887 180.945 81.2512C176.405 79.9324 174.68 76.7106 174.68 76.7106C174.68 76.7106 173.492 74.8731 172.336 72.8512C170.999 70.5137 171.242 70.5668 169.002 66.3356C168.561 65.5043 166.405 59.8668 165.752 57.5887C164.727 53.3387 167.192 50.4262 168.758 49.6762C170.93 48.6356 175.464 48.3637 177.258 52.3137L177.302 52.4168Z" fill="url(#paint8_radial_658_7533)"/>
<path d="M177.302 52.4168C181.105 60.8012 185.77 71.0887 189.27 75.1762C188.724 79.8512 184.545 82.0887 180.945 81.2512C176.405 79.9324 174.68 76.7106 174.68 76.7106C174.68 76.7106 173.492 74.8731 172.336 72.8512C170.999 70.5137 171.242 70.5668 169.002 66.3356C168.561 65.5043 166.405 59.8668 165.752 57.5887C164.727 53.3387 167.192 50.4262 168.758 49.6762C170.93 48.6356 175.464 48.3637 177.258 52.3137L177.302 52.4168Z" fill="url(#paint9_linear_658_7533)"/>
<path d="M164.554 56.5162C165.166 57.8662 169.391 67.1162 169 66.335C170.135 68.8975 173.657 75.1475 174.679 76.8568C176.941 80.6256 174.388 83.76 172.741 84.7162C168 87.4662 165.279 83.96 165.279 83.96C162.779 80.2975 160.691 77.2475 156.563 70.7537C155.569 68.8787 153.757 64.6975 153.025 62.6693C151.222 57.6631 154.207 54.8631 156.007 53.9756C159.913 52.1662 163.625 54.4631 164.554 56.5162Z" fill="url(#paint10_radial_658_7533)"/>
<path d="M164.554 56.5162C165.166 57.8662 169.391 67.1162 169 66.335C170.135 68.8975 173.657 75.1475 174.679 76.8568C176.941 80.6256 174.388 83.76 172.741 84.7162C168 87.4662 165.279 83.96 165.279 83.96C162.779 80.2975 160.691 77.2475 156.563 70.7537C155.569 68.8787 153.757 64.6975 153.025 62.6693C151.222 57.6631 154.207 54.8631 156.007 53.9756C159.913 52.1662 163.625 54.4631 164.554 56.5162Z" fill="url(#paint11_linear_658_7533)"/>
<path d="M164.554 56.5162C165.166 57.8662 169.391 67.1162 169 66.335C170.135 68.8975 173.657 75.1475 174.679 76.8568C176.941 80.6256 174.388 83.76 172.741 84.7162C168 87.4662 165.279 83.96 165.279 83.96C162.779 80.2975 160.691 77.2475 156.563 70.7537C155.569 68.8787 153.757 64.6975 153.025 62.6693C151.222 57.6631 154.207 54.8631 156.007 53.9756C159.913 52.1662 163.625 54.4631 164.554 56.5162Z" fill="url(#paint12_radial_658_7533)"/>
<path d="M164.554 56.5162C165.166 57.8662 169.391 67.1162 169 66.335C170.135 68.8975 173.657 75.1475 174.679 76.8568C176.941 80.6256 174.388 83.76 172.741 84.7162C168 87.4662 165.279 83.96 165.279 83.96C162.779 80.2975 160.691 77.2475 156.563 70.7537C155.569 68.8787 153.757 64.6975 153.025 62.6693C151.222 57.6631 154.207 54.8631 156.007 53.9756C159.913 52.1662 163.625 54.4631 164.554 56.5162Z" fill="url(#paint13_radial_658_7533)"/>
<path d="M164.554 56.5162C165.166 57.8662 169.391 67.1162 169 66.335C170.135 68.8975 173.657 75.1475 174.679 76.8568C176.941 80.6256 174.388 83.76 172.741 84.7162C168 87.4662 165.279 83.96 165.279 83.96C162.779 80.2975 160.691 77.2475 156.563 70.7537C155.569 68.8787 153.757 64.6975 153.025 62.6693C151.222 57.6631 154.207 54.8631 156.007 53.9756C159.913 52.1662 163.625 54.4631 164.554 56.5162Z" fill="url(#paint14_radial_658_7533)"/>
<path d="M164.554 56.5162C165.166 57.8662 169.391 67.1162 169 66.335C170.135 68.8975 173.657 75.1475 174.679 76.8568C176.941 80.6256 174.388 83.76 172.741 84.7162C168 87.4662 165.279 83.96 165.279 83.96C162.779 80.2975 160.691 77.2475 156.563 70.7537C155.569 68.8787 153.757 64.6975 153.025 62.6693C151.222 57.6631 154.207 54.8631 156.007 53.9756C159.913 52.1662 163.625 54.4631 164.554 56.5162Z" fill="url(#paint15_linear_658_7533)"/>
<path d="M148.046 69.1921C152.368 67.0421 155.546 69.4609 156.546 70.7796C159.665 75.489 163.39 80.8421 165.108 83.6921C169.702 91.2859 160.302 94.5796 160.302 94.5796C151.658 84.839 150.058 84.3484 149.436 83.8703C149.105 83.6171 147.099 80.3609 146.14 78.7671C143.561 73.589 146.14 70.139 148.046 69.1921Z" fill="url(#paint16_radial_658_7533)"/>
<path d="M148.046 69.1921C152.368 67.0421 155.546 69.4609 156.546 70.7796C159.665 75.489 163.39 80.8421 165.108 83.6921C169.702 91.2859 160.302 94.5796 160.302 94.5796C151.658 84.839 150.058 84.3484 149.436 83.8703C149.105 83.6171 147.099 80.3609 146.14 78.7671C143.561 73.589 146.14 70.139 148.046 69.1921Z" fill="url(#paint17_linear_658_7533)"/>
<path d="M148.046 69.1921C152.368 67.0421 155.546 69.4609 156.546 70.7796C159.665 75.489 163.39 80.8421 165.108 83.6921C169.702 91.2859 160.302 94.5796 160.302 94.5796C151.658 84.839 150.058 84.3484 149.436 83.8703C149.105 83.6171 147.099 80.3609 146.14 78.7671C143.561 73.589 146.14 70.139 148.046 69.1921Z" fill="url(#paint18_radial_658_7533)"/>
<path d="M148.046 69.1921C152.368 67.0421 155.546 69.4609 156.546 70.7796C159.665 75.489 163.39 80.8421 165.108 83.6921C169.702 91.2859 160.302 94.5796 160.302 94.5796C151.658 84.839 150.058 84.3484 149.436 83.8703C149.105 83.6171 147.099 80.3609 146.14 78.7671C143.561 73.589 146.14 70.139 148.046 69.1921Z" fill="url(#paint19_radial_658_7533)"/>
<path d="M148.046 69.1921C152.368 67.0421 155.546 69.4609 156.546 70.7796C159.665 75.489 163.39 80.8421 165.108 83.6921C169.702 91.2859 160.302 94.5796 160.302 94.5796C151.658 84.839 150.058 84.3484 149.436 83.8703C149.105 83.6171 147.099 80.3609 146.14 78.7671C143.561 73.589 146.14 70.139 148.046 69.1921Z" fill="url(#paint20_radial_658_7533)"/>
<path d="M148.046 69.1921C152.368 67.0421 155.546 69.4609 156.546 70.7796C159.665 75.489 163.39 80.8421 165.108 83.6921C169.702 91.2859 160.302 94.5796 160.302 94.5796C151.658 84.839 150.058 84.3484 149.436 83.8703C149.105 83.6171 147.099 80.3609 146.14 78.7671C143.561 73.589 146.14 70.139 148.046 69.1921Z" fill="url(#paint21_radial_658_7533)"/>
<path d="M142.889 94.593C137.693 87.5212 145.211 82.6493 149.436 83.8743C151.436 85.1087 154.53 88.2055 155.846 89.6024C164.227 97.7743 162.83 100.296 160.486 103.071C158.214 104.952 155.261 106.462 150.902 103.071C149.143 101.702 144.799 97.1899 142.889 94.593Z" fill="url(#paint22_radial_658_7533)"/>
<path d="M142.889 94.593C137.693 87.5212 145.211 82.6493 149.436 83.8743C151.436 85.1087 154.53 88.2055 155.846 89.6024C164.227 97.7743 162.83 100.296 160.486 103.071C158.214 104.952 155.261 106.462 150.902 103.071C149.143 101.702 144.799 97.1899 142.889 94.593Z" fill="url(#paint23_radial_658_7533)"/>
<path d="M142.889 94.593C137.693 87.5212 145.211 82.6493 149.436 83.8743C151.436 85.1087 154.53 88.2055 155.846 89.6024C164.227 97.7743 162.83 100.296 160.486 103.071C158.214 104.952 155.261 106.462 150.902 103.071C149.143 101.702 144.799 97.1899 142.889 94.593Z" fill="url(#paint24_radial_658_7533)"/>
<path d="M142.889 94.593C137.693 87.5212 145.211 82.6493 149.436 83.8743C151.436 85.1087 154.53 88.2055 155.846 89.6024C164.227 97.7743 162.83 100.296 160.486 103.071C158.214 104.952 155.261 106.462 150.902 103.071C149.143 101.702 144.799 97.1899 142.889 94.593Z" fill="url(#paint25_radial_658_7533)"/>
<path d="M142.889 94.593C137.693 87.5212 145.211 82.6493 149.436 83.8743C151.436 85.1087 154.53 88.2055 155.846 89.6024C164.227 97.7743 162.83 100.296 160.486 103.071C158.214 104.952 155.261 106.462 150.902 103.071C149.143 101.702 144.799 97.1899 142.889 94.593Z" fill="url(#paint26_linear_658_7533)"/>
<path d="M177.302 52.4168C181.105 60.8012 185.771 71.0887 189.271 75.1762C189.958 73.5887 189.883 70.9262 190.664 64.4262C191.371 58.5637 196.208 58.0043 198.286 58.4199C202.88 59.3793 204.277 64.0324 204.124 65.7481C203.88 68.4824 203.868 68.3887 203.368 75.0043C202.633 84.6762 206.368 91.9793 206.711 100.261C206.711 115.867 193.033 123.536 183.461 123.536C175.802 123.536 168.136 118.636 165.264 116.186L150.902 103.067C149.143 101.701 144.799 97.1887 142.889 94.5918C137.693 87.5199 145.211 82.648 149.436 83.873C149.105 83.6168 147.099 80.3605 146.139 78.7668C143.561 73.5887 146.139 70.1418 148.046 69.1918C152.368 67.0418 155.546 69.4606 156.546 70.7793C156.161 70.1293 154.961 67.4981 153.027 62.6699C151.093 57.8449 154.208 54.8637 156.008 53.9762C159.914 52.1668 163.627 54.4637 164.555 56.5168C165.011 57.5199 167.461 62.8918 168.53 65.2574C167.724 63.2949 166.268 59.3918 165.752 57.5887C164.727 53.3387 167.193 50.4262 168.755 49.6762C170.93 48.6356 175.464 48.3637 177.255 52.3137L177.302 52.4168Z" fill="url(#paint27_radial_658_7533)"/>
<path d="M177.302 52.4168C181.105 60.8012 185.771 71.0887 189.271 75.1762C189.958 73.5887 189.883 70.9262 190.664 64.4262C191.371 58.5637 196.208 58.0043 198.286 58.4199C202.88 59.3793 204.277 64.0324 204.124 65.7481C203.88 68.4824 203.868 68.3887 203.368 75.0043C202.633 84.6762 206.368 91.9793 206.711 100.261C206.711 115.867 193.033 123.536 183.461 123.536C175.802 123.536 168.136 118.636 165.264 116.186L150.902 103.067C149.143 101.701 144.799 97.1887 142.889 94.5918C137.693 87.5199 145.211 82.648 149.436 83.873C149.105 83.6168 147.099 80.3605 146.139 78.7668C143.561 73.5887 146.139 70.1418 148.046 69.1918C152.368 67.0418 155.546 69.4606 156.546 70.7793C156.161 70.1293 154.961 67.4981 153.027 62.6699C151.093 57.8449 154.208 54.8637 156.008 53.9762C159.914 52.1668 163.627 54.4637 164.555 56.5168C165.011 57.5199 167.461 62.8918 168.53 65.2574C167.724 63.2949 166.268 59.3918 165.752 57.5887C164.727 53.3387 167.193 50.4262 168.755 49.6762C170.93 48.6356 175.464 48.3637 177.255 52.3137L177.302 52.4168Z" fill="url(#paint28_radial_658_7533)"/>
<path d="M177.302 52.4168C181.105 60.8012 185.771 71.0887 189.271 75.1762C189.958 73.5887 189.883 70.9262 190.664 64.4262C191.371 58.5637 196.208 58.0043 198.286 58.4199C202.88 59.3793 204.277 64.0324 204.124 65.7481C203.88 68.4824 203.868 68.3887 203.368 75.0043C202.633 84.6762 206.368 91.9793 206.711 100.261C206.711 115.867 193.033 123.536 183.461 123.536C175.802 123.536 168.136 118.636 165.264 116.186L150.902 103.067C149.143 101.701 144.799 97.1887 142.889 94.5918C137.693 87.5199 145.211 82.648 149.436 83.873C149.105 83.6168 147.099 80.3605 146.139 78.7668C143.561 73.5887 146.139 70.1418 148.046 69.1918C152.368 67.0418 155.546 69.4606 156.546 70.7793C156.161 70.1293 154.961 67.4981 153.027 62.6699C151.093 57.8449 154.208 54.8637 156.008 53.9762C159.914 52.1668 163.627 54.4637 164.555 56.5168C165.011 57.5199 167.461 62.8918 168.53 65.2574C167.724 63.2949 166.268 59.3918 165.752 57.5887C164.727 53.3387 167.193 50.4262 168.755 49.6762C170.93 48.6356 175.464 48.3637 177.255 52.3137L177.302 52.4168Z" fill="url(#paint29_radial_658_7533)"/>
<path d="M182.6 63.6379C184.947 68.4316 187.291 72.7285 189.272 75.0816C189.475 77.1754 189.656 78.3691 190.156 80.1754C186.203 76.2191 182.375 67.5723 182.6 63.6348V63.6379Z" fill="url(#paint30_radial_658_7533)"/>
<path fill-rule="evenodd" clip-rule="evenodd" d="M126.601 83.1152C127.048 83.1161 127.476 83.2942 127.792 83.6106C128.108 83.927 128.285 84.3557 128.285 84.8027C128.285 87.6152 129.423 91.3809 131.876 94.4215C134.282 97.4121 137.938 99.6746 143.063 99.6746C143.51 99.6746 143.938 99.8521 144.254 100.168C144.57 100.484 144.748 100.912 144.748 101.359C144.748 101.806 144.57 102.234 144.254 102.55C143.938 102.866 143.51 103.043 143.063 103.043C136.807 103.043 132.229 100.231 129.251 96.5371C126.319 92.8996 124.916 88.384 124.916 84.7996C124.917 84.3531 125.095 83.9252 125.411 83.6095C125.726 83.2938 126.154 83.1161 126.601 83.1152Z" fill="url(#paint31_radial_658_7533)"/>
<path fill-rule="evenodd" clip-rule="evenodd" d="M126.601 83.1152C127.048 83.1161 127.476 83.2942 127.792 83.6106C128.108 83.927 128.285 84.3557 128.285 84.8027C128.285 87.6152 129.423 91.3809 131.876 94.4215C134.282 97.4121 137.938 99.6746 143.063 99.6746C143.51 99.6746 143.938 99.8521 144.254 100.168C144.57 100.484 144.748 100.912 144.748 101.359C144.748 101.806 144.57 102.234 144.254 102.55C143.938 102.866 143.51 103.043 143.063 103.043C136.807 103.043 132.229 100.231 129.251 96.5371C126.319 92.8996 124.916 88.384 124.916 84.7996C124.917 84.3531 125.095 83.9252 125.411 83.6095C125.726 83.2938 126.154 83.1161 126.601 83.1152Z" fill="url(#paint32_radial_658_7533)"/>
<path fill-rule="evenodd" clip-rule="evenodd" d="M126.601 83.1152C127.048 83.1161 127.476 83.2942 127.792 83.6106C128.108 83.927 128.285 84.3557 128.285 84.8027C128.285 87.6152 129.423 91.3809 131.876 94.4215C134.282 97.4121 137.938 99.6746 143.063 99.6746C143.51 99.6746 143.938 99.8521 144.254 100.168C144.57 100.484 144.748 100.912 144.748 101.359C144.748 101.806 144.57 102.234 144.254 102.55C143.938 102.866 143.51 103.043 143.063 103.043C136.807 103.043 132.229 100.231 129.251 96.5371C126.319 92.8996 124.916 88.384 124.916 84.7996C124.917 84.3531 125.095 83.9252 125.411 83.6095C125.726 83.2938 126.154 83.1161 126.601 83.1152Z" fill="url(#paint33_radial_658_7533)"/>
<path fill-rule="evenodd" clip-rule="evenodd" d="M121.357 89.123C121.805 89.123 122.234 89.3008 122.55 89.6173C122.867 89.9338 123.045 90.363 123.045 90.8105C123.045 96.7793 127.513 104.754 136.907 104.754C137.354 104.754 137.782 104.932 138.098 105.248C138.414 105.564 138.592 105.992 138.592 106.439C138.592 106.885 138.414 107.314 138.098 107.63C137.782 107.946 137.354 108.123 136.907 108.123C125.095 108.123 119.673 98.0293 119.673 90.8105C119.673 90.363 119.851 89.9338 120.167 89.6173C120.484 89.3008 120.91 89.123 121.357 89.123Z" fill="url(#paint34_radial_658_7533)"/>
<path fill-rule="evenodd" clip-rule="evenodd" d="M121.357 89.123C121.805 89.123 122.234 89.3008 122.55 89.6173C122.867 89.9338 123.045 90.363 123.045 90.8105C123.045 96.7793 127.513 104.754 136.907 104.754C137.354 104.754 137.782 104.932 138.098 105.248C138.414 105.564 138.592 105.992 138.592 106.439C138.592 106.885 138.414 107.314 138.098 107.63C137.782 107.946 137.354 108.123 136.907 108.123C125.095 108.123 119.673 98.0293 119.673 90.8105C119.673 90.363 119.851 89.9338 120.167 89.6173C120.484 89.3008 120.91 89.123 121.357 89.123Z" fill="url(#paint35_radial_658_7533)"/>
<path fill-rule="evenodd" clip-rule="evenodd" d="M184.444 61.0879C184.223 61.0892 184.003 61.0468 183.799 60.9633C183.594 60.8798 183.407 60.7568 183.25 60.6012C183.093 60.4457 182.968 60.2607 182.882 60.0568C182.796 59.8529 182.751 59.6341 182.75 59.4129C182.731 56.6004 181.569 52.8411 179.097 49.8161C176.669 46.8411 173.003 44.6036 167.875 44.6348C167.446 44.6116 167.042 44.4254 166.745 44.1143C166.448 43.8032 166.282 43.3906 166.279 42.9607C166.276 42.5309 166.437 42.1161 166.73 41.8012C167.023 41.4862 167.424 41.2949 167.853 41.2661C174.109 41.2254 178.706 44.0129 181.706 47.6848C184.663 51.3036 186.094 55.8098 186.119 59.3911C186.12 59.6125 186.078 59.8321 185.995 60.0373C185.912 60.2425 185.789 60.4293 185.633 60.5869C185.478 60.7445 185.293 60.8699 185.088 60.9558C184.884 61.0418 184.665 61.0867 184.444 61.0879Z" fill="url(#paint36_radial_658_7533)"/>
<path fill-rule="evenodd" clip-rule="evenodd" d="M184.444 61.0879C184.223 61.0892 184.003 61.0468 183.799 60.9633C183.594 60.8798 183.407 60.7568 183.25 60.6012C183.093 60.4457 182.968 60.2607 182.882 60.0568C182.796 59.8529 182.751 59.6341 182.75 59.4129C182.731 56.6004 181.569 52.8411 179.097 49.8161C176.669 46.8411 173.003 44.6036 167.875 44.6348C167.446 44.6116 167.042 44.4254 166.745 44.1143C166.448 43.8032 166.282 43.3906 166.279 42.9607C166.276 42.5309 166.437 42.1161 166.73 41.8012C167.023 41.4862 167.424 41.2949 167.853 41.2661C174.109 41.2254 178.706 44.0129 181.706 47.6848C184.663 51.3036 186.094 55.8098 186.119 59.3911C186.12 59.6125 186.078 59.8321 185.995 60.0373C185.912 60.2425 185.789 60.4293 185.633 60.5869C185.478 60.7445 185.293 60.8699 185.088 60.9558C184.884 61.0418 184.665 61.0867 184.444 61.0879Z" fill="url(#paint37_radial_658_7533)"/>
<path fill-rule="evenodd" clip-rule="evenodd" d="M189.645 55.0489C189.424 55.0501 189.205 55.0078 189 54.9243C188.795 54.8408 188.609 54.7177 188.451 54.5622C188.294 54.4066 188.169 54.2216 188.083 54.0178C187.997 53.8139 187.953 53.5951 187.951 53.3739C187.911 47.4051 183.389 39.4551 173.995 39.5176C173.548 39.5205 173.119 39.3459 172.801 39.032C172.483 38.7182 172.303 38.2909 172.3 37.8442C172.297 37.3975 172.472 36.9679 172.785 36.65C173.099 36.332 173.527 36.1518 173.973 36.1489C185.786 36.0708 191.27 46.1333 191.317 53.352C191.319 53.5732 191.277 53.7926 191.194 53.9976C191.11 54.2025 190.988 54.3892 190.832 54.5467C190.677 54.7043 190.492 54.8297 190.289 54.9159C190.085 55.0021 189.866 55.0473 189.645 55.0489Z" fill="url(#paint38_radial_658_7533)"/>
<path fill-rule="evenodd" clip-rule="evenodd" d="M189.645 55.0489C189.424 55.0501 189.205 55.0078 189 54.9243C188.795 54.8408 188.609 54.7177 188.451 54.5622C188.294 54.4066 188.169 54.2216 188.083 54.0178C187.997 53.8139 187.953 53.5951 187.951 53.3739C187.911 47.4051 183.389 39.4551 173.995 39.5176C173.548 39.5205 173.119 39.3459 172.801 39.032C172.483 38.7182 172.303 38.2909 172.3 37.8442C172.297 37.3975 172.472 36.9679 172.785 36.65C173.099 36.332 173.527 36.1518 173.973 36.1489C185.786 36.0708 191.27 46.1333 191.317 53.352C191.319 53.5732 191.277 53.7926 191.194 53.9976C191.11 54.2025 190.988 54.3892 190.832 54.5467C190.677 54.7043 190.492 54.8297 190.289 54.9159C190.085 55.0021 189.866 55.0473 189.645 55.0489Z" fill="url(#paint39_radial_658_7533)"/>
<defs>
<filter id="filter0_d_658_7533" x="0" y="35.4102" width="357" height="128" filterUnits="userSpaceOnUse" color-interpolation-filters="sRGB">
<feFlood flood-opacity="0" result="BackgroundImageFix"/>
<feColorMatrix in="SourceAlpha" type="matrix" values="0 0 0 0 0 0 0 0 0 0 0 0 0 0 0 0 0 0 127 0" result="hardAlpha"/>
<feOffset dx="15" dy="10"/>
<feGaussianBlur stdDeviation="17.5"/>
<feComposite in2="hardAlpha" operator="out"/>
<feColorMatrix type="matrix" values="0 0 0 0 0 0 0 0 0 0 0 0 0 0 0 0 0 0 0.15 0"/>
<feBlend mode="normal" in2="BackgroundImageFix" result="effect1_dropShadow_658_7533"/>
<feBlend mode="normal" in="SourceGraphic" in2="effect1_dropShadow_658_7533" result="shape"/>
</filter>
<radialGradient id="paint0_radial_658_7533" cx="0" cy="0" r="1" gradientUnits="userSpaceOnUse" gradientTransform="translate(173.916 73.5356) rotate(60.1006) scale(65.7875 42.9781)">
<stop offset="0.003" stop-color="#FFC133"/>
<stop offset="0.698" stop-color="#FFC53F"/>
<stop offset="0.797" stop-color="#FFAD3E"/>
<stop offset="0.945" stop-color="#EC7D58"/>
</radialGradient>
<radialGradient id="paint1_radial_658_7533" cx="0" cy="0" r="1" gradientUnits="userSpaceOnUse" gradientTransform="translate(206.711 87.9887) rotate(-93.012) scale(39.0316 14.9528)">
<stop offset="0.003" stop-color="#FFE849"/>
<stop offset="1" stop-color="#FFE647" stop-opacity="0"/>
</radialGradient>
<radialGradient id="paint2_radial_658_7533" cx="0" cy="0" r="1" gradientUnits="userSpaceOnUse" gradientTransform="translate(202.024 60.0575) rotate(99.682) scale(20.9032 8.00797)">
<stop offset="0.003" stop-color="#FFE849"/>
<stop offset="1" stop-color="#FFE647" stop-opacity="0"/>
</radialGradient>
<radialGradient id="paint3_radial_658_7533" cx="0" cy="0" r="1" gradientUnits="userSpaceOnUse" gradientTransform="translate(189.271 72.6446) scale(8.45459 34.2866)">
<stop stop-color="#EE9F2C"/>
<stop offset="1" stop-color="#EE9F2C" stop-opacity="0"/>
</radialGradient>
<radialGradient id="paint4_radial_658_7533" cx="0" cy="0" r="1" gradientUnits="userSpaceOnUse" gradientTransform="translate(192.983 85.9384) rotate(-94.0856) scale(14.2304 9.88409)">
<stop stop-color="#FFC93D"/>
<stop offset="1" stop-color="#FFC33A" stop-opacity="0"/>
</radialGradient>
<radialGradient id="paint5_radial_658_7533" cx="0" cy="0" r="1" gradientUnits="userSpaceOnUse" gradientTransform="translate(185.033 64.3356) rotate(151.024) scale(14.9584 30.0484)">
<stop offset="0.563" stop-color="#F09D2E" stop-opacity="0"/>
<stop offset="1" stop-color="#F09D2E"/>
</radialGradient>
<linearGradient id="paint6_linear_658_7533" x1="177.392" y1="79.6606" x2="177.392" y2="71.5824" gradientUnits="userSpaceOnUse">
<stop stop-color="#FFC337"/>
<stop offset="1" stop-color="#FFC337" stop-opacity="0"/>
</linearGradient>
<radialGradient id="paint7_radial_658_7533" cx="0" cy="0" r="1" gradientUnits="userSpaceOnUse" gradientTransform="translate(181.908 52.4418) rotate(-13.4957) scale(10.0429 22.2086)">
<stop stop-color="#FFEC4C"/>
<stop offset="1" stop-color="#FFEC4C" stop-opacity="0"/>
</radialGradient>
<radialGradient id="paint8_radial_658_7533" cx="0" cy="0" r="1" gradientUnits="userSpaceOnUse" gradientTransform="translate(165.511 49.0106) rotate(33.3063) scale(9.80452 7.60152)">
<stop stop-color="#D99F2B"/>
<stop offset="1" stop-color="#D99F2B" stop-opacity="0"/>
</radialGradient>
<linearGradient id="paint9_linear_658_7533" x1="167.064" y1="68.7512" x2="171.945" y2="66.4074" gradientUnits="userSpaceOnUse">
<stop stop-color="#A85300"/>
<stop offset="0.825" stop-color="#A85300" stop-opacity="0"/>
</linearGradient>
<radialGradient id="paint10_radial_658_7533" cx="0" cy="0" r="1" gradientUnits="userSpaceOnUse" gradientTransform="translate(170.935 68.9568) rotate(149.148) scale(14.4192 30.0901)">
<stop offset="0.563" stop-color="#F09D2E" stop-opacity="0"/>
<stop offset="1" stop-color="#F09D2E"/>
</radialGradient>
<linearGradient id="paint11_linear_658_7533" x1="163.707" y1="84.5975" x2="163.707" y2="76.3537" gradientUnits="userSpaceOnUse">
<stop stop-color="#FFC337"/>
<stop offset="1" stop-color="#FFC337" stop-opacity="0"/>
</linearGradient>
<radialGradient id="paint12_radial_658_7533" cx="0" cy="0" r="1" gradientUnits="userSpaceOnUse" gradientTransform="translate(169.272 59.7662) rotate(-33.8929) scale(9.5692 29.1335)">
<stop stop-color="#FFEC4C"/>
<stop offset="1" stop-color="#FFEC4C" stop-opacity="0"/>
</radialGradient>
<radialGradient id="paint13_radial_658_7533" cx="0" cy="0" r="1" gradientUnits="userSpaceOnUse" gradientTransform="translate(161.985 71.5818) rotate(-24.9048) scale(12.0589 55.0622)">
<stop offset="0.598" stop-color="#F09D2E" stop-opacity="0"/>
<stop offset="1" stop-color="#F09D2E"/>
</radialGradient>
<radialGradient id="paint14_radial_658_7533" cx="0" cy="0" r="1" gradientUnits="userSpaceOnUse" gradientTransform="translate(151.047 53.3193) rotate(32.6006) scale(9.9691 7.94552)">
<stop stop-color="#D99F2B"/>
<stop offset="1" stop-color="#D99F2B" stop-opacity="0"/>
</radialGradient>
<linearGradient id="paint15_linear_658_7533" x1="155.441" y1="73.535" x2="158.691" y2="71.2631" gradientUnits="userSpaceOnUse">
<stop stop-color="#A85300"/>
<stop offset="0.825" stop-color="#A85300" stop-opacity="0"/>
</linearGradient>
<radialGradient id="paint16_radial_658_7533" cx="0" cy="0" r="1" gradientUnits="userSpaceOnUse" gradientTransform="translate(162.568 81.4578) rotate(137.351) scale(11.9455 23.3917)">
<stop offset="0.563" stop-color="#F09D2E" stop-opacity="0"/>
<stop offset="1" stop-color="#F09D2E"/>
</radialGradient>
<linearGradient id="paint17_linear_658_7533" x1="155.715" y1="94.5796" x2="155.715" y2="87.664" gradientUnits="userSpaceOnUse">
<stop stop-color="#FFC337"/>
<stop offset="1" stop-color="#FFC337" stop-opacity="0"/>
</linearGradient>
<radialGradient id="paint18_radial_658_7533" cx="0" cy="0" r="1" gradientUnits="userSpaceOnUse" gradientTransform="translate(159.64 71.2078) rotate(-12.2959) scale(9.09795 19.272)">
<stop stop-color="#FFEC4C"/>
<stop offset="1" stop-color="#FFEC4C" stop-opacity="0"/>
</radialGradient>
<radialGradient id="paint19_radial_658_7533" cx="0" cy="0" r="1" gradientUnits="userSpaceOnUse" gradientTransform="translate(154.083 83.6609) rotate(-40.217) scale(12.655 64.6966)">
<stop offset="0.598" stop-color="#F09D2E" stop-opacity="0"/>
<stop offset="1" stop-color="#F09D2E"/>
</radialGradient>
<radialGradient id="paint20_radial_658_7533" cx="0" cy="0" r="1" gradientUnits="userSpaceOnUse" gradientTransform="translate(143.708 68.3359) rotate(29.5035) scale(9.15203 6.88807)">
<stop stop-color="#D99F2B"/>
<stop offset="1" stop-color="#D99F2B" stop-opacity="0"/>
</radialGradient>
<radialGradient id="paint21_radial_658_7533" cx="0" cy="0" r="1" gradientUnits="userSpaceOnUse" gradientTransform="translate(148.508 86.3296) rotate(-45.7639) scale(5.17947 23.3859)">
<stop stop-color="#A85300"/>
<stop offset="0.825" stop-color="#A85300" stop-opacity="0"/>
</radialGradient>
<radialGradient id="paint22_radial_658_7533" cx="0" cy="0" r="1" gradientUnits="userSpaceOnUse" gradientTransform="translate(159.911 95.0462) rotate(143.369) scale(11.7438 22.0967)">
<stop offset="0.563" stop-color="#F09D2E" stop-opacity="0"/>
<stop offset="1" stop-color="#F09D2E"/>
</radialGradient>
<radialGradient id="paint23_radial_658_7533" cx="0" cy="0" r="1" gradientUnits="userSpaceOnUse" gradientTransform="translate(156.768 86.168) rotate(-9.97762) scale(9.68143 16.819)">
<stop stop-color="#FFEC4C"/>
<stop offset="1" stop-color="#FFEC4C" stop-opacity="0"/>
</radialGradient>
<radialGradient id="paint24_radial_658_7533" cx="0" cy="0" r="1" gradientUnits="userSpaceOnUse" gradientTransform="translate(150.806 96.9521) rotate(-34.314) scale(12.5495 60.5878)">
<stop offset="0.598" stop-color="#F09D2E" stop-opacity="0"/>
<stop offset="1" stop-color="#F09D2E"/>
</radialGradient>
<radialGradient id="paint25_radial_658_7533" cx="0" cy="0" r="1" gradientUnits="userSpaceOnUse" gradientTransform="translate(139.677 83.6868) rotate(24.5479) scale(9.39282 6.23286)">
<stop stop-color="#D99F2B"/>
<stop offset="1" stop-color="#D99F2B" stop-opacity="0"/>
</radialGradient>
<linearGradient id="paint26_linear_658_7533" x1="160.424" y1="116.506" x2="152.558" y2="100.418" gradientUnits="userSpaceOnUse">
<stop stop-color="#FFC337"/>
<stop offset="1" stop-color="#FFC337" stop-opacity="0"/>
</linearGradient>
<radialGradient id="paint27_radial_658_7533" cx="0" cy="0" r="1" gradientUnits="userSpaceOnUse" gradientTransform="translate(188.549 69.4355) rotate(129.014) scale(54.2959 87.8081)">
<stop offset="0.872" stop-color="#F6814F" stop-opacity="0"/>
<stop offset="1" stop-color="#F7814F"/>
</radialGradient>
<radialGradient id="paint28_radial_658_7533" cx="0" cy="0" r="1" gradientUnits="userSpaceOnUse" gradientTransform="translate(177.221 70.0199) rotate(76.293) scale(57.6978 63.3072)">
<stop offset="0.853" stop-color="#F6814F" stop-opacity="0"/>
<stop offset="1" stop-color="#F7814F"/>
</radialGradient>
<radialGradient id="paint29_radial_658_7533" cx="0" cy="0" r="1" gradientUnits="userSpaceOnUse" gradientTransform="translate(190.305 55.373) rotate(64.44) scale(9.95902 8.87833)">
<stop stop-color="#D99F2B"/>
<stop offset="1" stop-color="#D99F2B" stop-opacity="0"/>
</radialGradient>
<radialGradient id="paint30_radial_658_7533" cx="0" cy="0" r="1" gradientUnits="userSpaceOnUse" gradientTransform="translate(190.159 74.4118) rotate(149.254) scale(3.7925 11.7354)">
<stop offset="0.201" stop-color="#B4813D"/>
<stop offset="1" stop-color="#B4813D" stop-opacity="0"/>
</radialGradient>
<radialGradient id="paint31_radial_658_7533" cx="0" cy="0" r="1" gradientUnits="userSpaceOnUse" gradientTransform="translate(128.998 84.0215) rotate(62.071) scale(16.6005 24.6193)">
<stop stop-color="#419FFD"/>
<stop offset="1" stop-color="#4B6DCB"/>
</radialGradient>
<radialGradient id="paint32_radial_658_7533" cx="0" cy="0" r="1" gradientUnits="userSpaceOnUse" gradientTransform="translate(124.301 85.2559) rotate(2.38594) scale(2.34578 4.93672)">
<stop stop-color="#5486C7"/>
<stop offset="1" stop-color="#5486C7" stop-opacity="0"/>
</radialGradient>
<radialGradient id="paint33_radial_658_7533" cx="0" cy="0" r="1" gradientUnits="userSpaceOnUse" gradientTransform="translate(141.882 98.634) rotate(111.801) scale(2.36654 6.96085)">
<stop stop-color="#5486C7"/>
<stop offset="1" stop-color="#5486C7" stop-opacity="0"/>
</radialGradient>
<radialGradient id="paint34_radial_658_7533" cx="0" cy="0" r="1" gradientUnits="userSpaceOnUse" gradientTransform="translate(130.213 92.6745) rotate(94.712) scale(13.1303 22.0773)">
<stop stop-color="#419FFD"/>
<stop offset="1" stop-color="#4B6DCB"/>
</radialGradient>
<radialGradient id="paint35_radial_658_7533" cx="0" cy="0" r="1" gradientUnits="userSpaceOnUse" gradientTransform="translate(119.088 91.1637) rotate(2.38521) scale(2.23763 4.70683)">
<stop stop-color="#5486C7"/>
<stop offset="1" stop-color="#5486C7" stop-opacity="0"/>
</radialGradient>
<radialGradient id="paint36_radial_658_7533" cx="0" cy="0" r="1" gradientUnits="userSpaceOnUse" gradientTransform="translate(171.544 37.6317) rotate(60.196) scale(13.9475 20.6847)">
<stop stop-color="#419FFD"/>
<stop offset="1" stop-color="#4B6DCB"/>
</radialGradient>
<radialGradient id="paint37_radial_658_7533" cx="0" cy="0" r="1" gradientUnits="userSpaceOnUse" gradientTransform="translate(165.8 42.6817) rotate(18.8622) scale(2.0066 3.22971)">
<stop stop-color="#4D8AC1"/>
<stop offset="1" stop-color="#4D8AC1" stop-opacity="0"/>
</radialGradient>
<radialGradient id="paint38_radial_658_7533" cx="0" cy="0" r="1" gradientUnits="userSpaceOnUse" gradientTransform="translate(177.417 32.6833) rotate(60.69) scale(17.3269 25.7033)">
<stop stop-color="#419FFD"/>
<stop offset="1" stop-color="#4B6DCB"/>
</radialGradient>
<radialGradient id="paint39_radial_658_7533" cx="0" cy="0" r="1" gradientUnits="userSpaceOnUse" gradientTransform="translate(171.939 37.5002) rotate(18.853) scale(1.91397 3.07947)">
<stop stop-color="#4D8AC1"/>
<stop offset="1" stop-color="#4D8AC1" stop-opacity="0"/>
</radialGradient>
</defs>
</svg>
