<svg width="108" height="109" viewBox="0 0 108 109" fill="none" xmlns="http://www.w3.org/2000/svg">
<circle cx="53.9399" cy="54.6281" r="53.7023" fill="#3B57F4" fill-opacity="0.12"/>
<path opacity="0.4" d="M76.7522 41.6042V67.4375C76.7522 75.1875 72.8772 80.3542 63.8355 80.3542H43.1689C34.1272 80.3542 30.2522 75.1875 30.2522 67.4375V41.6042C30.2522 33.8542 34.1272 28.6875 43.1689 28.6875H63.8355C72.8772 28.6875 76.7522 33.8542 76.7522 41.6042Z" fill="#3B57F4"/>
<path d="M70.2939 47.4154H65.1272C61.2006 47.4154 58.0231 44.2379 58.0231 40.3112V35.1445C58.0231 34.0854 58.9014 33.207 59.9606 33.207C61.0197 33.207 61.8981 34.0854 61.8981 35.1445V40.3112C61.8981 42.0937 63.3447 43.5404 65.1272 43.5404H70.2939C71.3531 43.5404 72.2314 44.4187 72.2314 45.4779C72.2314 46.537 71.3531 47.4154 70.2939 47.4154Z" fill="#3B57F4"/>
<path d="M53.5022 59.0391H43.1689C42.1097 59.0391 41.2314 58.1607 41.2314 57.1016C41.2314 56.0424 42.1097 55.1641 43.1689 55.1641H53.5022C54.5614 55.1641 55.4397 56.0424 55.4397 57.1016C55.4397 58.1607 54.5614 59.0391 53.5022 59.0391Z" fill="#3B57F4"/>
<path d="M63.8355 69.375H43.1689C42.1097 69.375 41.2314 68.4967 41.2314 67.4375C41.2314 66.3783 42.1097 65.5 43.1689 65.5H63.8355C64.8947 65.5 65.773 66.3783 65.773 67.4375C65.773 68.4967 64.8947 69.375 63.8355 69.375Z" fill="#3B57F4"/>
</svg>
