<svg width="170" height="36" viewBox="0 0 170 36" fill="none" xmlns="http://www.w3.org/2000/svg">
<path d="M15.03 18.4341C15.03 19.4544 14.2028 20.2815 13.1825 20.2815C12.1622 20.2815 11.3351 19.4544 11.3351 18.4341C11.3351 17.4138 12.1622 16.5867 13.1825 16.5867C14.2028 16.5867 15.03 17.4138 15.03 18.4341Z" fill="url(#paint0_linear_658_6151)"/>
<path d="M20.4694 20.2815C21.4897 20.2815 22.3168 19.4544 22.3168 18.4341C22.3168 17.4138 21.4897 16.5867 20.4694 16.5867C19.4491 16.5867 18.622 17.4138 18.622 18.4341C18.622 19.4544 19.4491 20.2815 20.4694 20.2815Z" fill="url(#paint1_linear_658_6151)"/>
<path fill-rule="evenodd" clip-rule="evenodd" d="M10.0474 9.9176C11.131 7.22621 13.7686 5.32582 16.8508 5.32422C16.8489 5.32423 16.8471 5.32425 16.8453 5.32429C16.8515 5.3242 16.8578 5.3242 16.864 5.32429C16.8622 5.32426 16.8604 5.32423 16.8585 5.32422C19.9407 5.32582 22.5783 7.22621 23.6619 9.9176C25.0726 10.014 26.483 10.1404 27.893 10.2968C29.6459 10.4913 30.9434 11.993 30.9434 13.7567V26.9586C30.9434 28.7425 29.6167 30.254 27.8416 30.4297C20.493 31.1574 13.2163 31.1574 5.8677 30.4297C4.09255 30.254 2.76594 28.7425 2.76594 26.9586V13.7567C2.76594 11.993 4.06337 10.4913 5.81632 10.2968C7.22631 10.1404 8.63672 10.014 10.0474 9.9176ZM4.7587 25.5084L16.5906 5.78165C16.7102 5.58228 16.9991 5.58228 17.1187 5.78165L28.9506 25.5084C20.8022 26.9493 12.9071 26.9493 4.7587 25.5084Z" fill="url(#paint2_linear_658_6151)"/>
<path d="M31.714 14.2159H32.173C33.0232 14.2159 33.7125 14.9052 33.7125 15.7554V21.1128C33.7125 21.963 33.0232 22.6523 32.173 22.6523H31.714V14.2159Z" fill="url(#paint3_linear_658_6151)"/>
<path d="M10.0066 33.6979V34.5475H23.7027V33.6979C23.7027 32.8476 23.0134 32.1584 22.1631 32.1584H11.5461C10.6959 32.1584 10.0066 32.8476 10.0066 33.6979Z" fill="url(#paint4_linear_658_6151)"/>
<path d="M1.99845 14.2159H1.53952C0.689265 14.2159 0 14.9052 0 15.7554V21.1128C0 21.963 0.689265 22.6523 1.53952 22.6523H1.99845V14.2159Z" fill="url(#paint5_linear_658_6151)"/>
<path d="M16.856 4.53216C17.7063 4.53216 18.3956 3.84289 18.3956 2.99264C18.3956 2.14239 17.7063 1.45312 16.856 1.45312C16.0058 1.45312 15.3165 2.14239 15.3165 2.99264C15.3165 3.84289 16.0058 4.53216 16.856 4.53216Z" fill="url(#paint6_linear_658_6151)"/>
<path d="M15.4579 2.34693C15.6827 2.11064 16.1328 1.96002 16.5539 1.98432C17.2354 2.02366 17.8384 2.59518 17.8852 3.27957C17.9013 3.51479 17.8894 4.01854 17.8134 4.19937C18.2156 3.92391 18.3954 3.39363 18.3954 2.99264C18.3954 2.14239 17.7061 1.45312 16.8559 1.45312C16.2362 1.45312 15.702 1.81922 15.4579 2.34693Z" fill="url(#paint7_linear_658_6151)"/>
<path d="M46.6076 29H41.6891L49.1834 7.29087H55.0983L62.582 29H57.6635L52.2257 12.2517H52.0561L46.6076 29ZM46.3002 20.4669H57.9179V24.0497H46.3002V20.4669ZM70.195 35.4449C68.7322 35.4449 67.4779 35.2435 66.432 34.8407C65.3932 34.4449 64.5664 33.9043 63.9516 33.2189C63.3367 32.5334 62.9375 31.7631 62.7537 30.908L66.9302 30.3462C67.0574 30.6713 67.2588 30.9752 67.5344 31.2578C67.81 31.5405 68.1739 31.7666 68.6262 31.9362C69.0856 32.1129 69.6438 32.2012 70.301 32.2012C71.2833 32.2012 72.0925 31.961 72.7285 31.4804C73.3716 31.007 73.6931 30.212 73.6931 29.0954V26.1168H73.5023C73.3044 26.569 73.0076 26.9966 72.6119 27.3994C72.2161 27.8022 71.7073 28.1308 71.0855 28.3852C70.4636 28.6396 69.7216 28.7668 68.8594 28.7668C67.6369 28.7668 66.5239 28.4841 65.5204 27.9188C64.524 27.3464 63.7289 26.4736 63.1353 25.3005C62.5488 24.1204 62.2555 22.6293 62.2555 20.8273C62.2555 18.9828 62.5559 17.4423 63.1565 16.2056C63.7572 14.9689 64.5558 14.0432 65.5522 13.4284C66.5557 12.8136 67.6545 12.5061 68.8488 12.5061C69.7604 12.5061 70.5237 12.6616 71.1385 12.9726C71.7533 13.2764 72.2479 13.658 72.6225 14.1174C73.0041 14.5696 73.2974 15.0149 73.5023 15.453H73.6719V12.7182H78.1558V29.159C78.1558 30.5441 77.8166 31.703 77.1382 32.6359C76.4597 33.5687 75.5199 34.2683 74.3185 34.7347C73.1242 35.2082 71.7497 35.4449 70.195 35.4449ZM70.2904 25.3747C71.0183 25.3747 71.6331 25.1945 72.1349 24.8341C72.6437 24.4667 73.0324 23.9437 73.3009 23.2653C73.5765 22.5798 73.7143 21.7601 73.7143 20.8061C73.7143 19.8521 73.58 19.0252 73.3115 18.3256C73.043 17.619 72.6543 17.0713 72.1455 16.6826C71.6367 16.2939 71.0183 16.0996 70.2904 16.0996C69.5484 16.0996 68.923 16.301 68.4142 16.7038C67.9054 17.0996 67.5203 17.6508 67.2588 18.3574C66.9973 19.0641 66.8666 19.8803 66.8666 20.8061C66.8666 21.746 66.9973 22.5586 67.2588 23.2441C67.5273 23.9225 67.9125 24.449 68.4142 24.8235C68.923 25.191 69.5484 25.3747 70.2904 25.3747ZM87.6768 29.318C86.002 29.318 84.5604 28.9788 83.352 28.3004C82.1506 27.6149 81.2249 26.6468 80.5747 25.3959C79.9246 24.1381 79.5995 22.6505 79.5995 20.9333C79.5995 19.2585 79.9246 17.7886 80.5747 16.5236C81.2249 15.2587 82.14 14.2728 83.3202 13.5662C84.5074 12.8595 85.8995 12.5061 87.4966 12.5061C88.5708 12.5061 89.5707 12.6793 90.4965 13.0256C91.4293 13.3648 92.242 13.8771 92.9345 14.5626C93.6341 15.2481 94.1783 16.1102 94.5669 17.149C94.9556 18.1808 95.1499 19.3892 95.1499 20.7743V22.0145H81.4015V19.2161H90.8993C90.8993 18.5659 90.7579 17.99 90.4753 17.4882C90.1926 16.9865 89.8004 16.5943 89.2987 16.3116C88.804 16.0219 88.228 15.877 87.5708 15.877C86.8854 15.877 86.2776 16.036 85.7476 16.354C85.2247 16.6649 84.8148 17.0854 84.518 17.6154C84.2212 18.1384 84.0692 18.7214 84.0622 19.3645V22.0251C84.0622 22.8307 84.2106 23.5268 84.5074 24.1133C84.8113 24.6999 85.2388 25.1521 85.79 25.4701C86.3412 25.7882 86.9949 25.9472 87.751 25.9472C88.2528 25.9472 88.7121 25.8765 89.1291 25.7352C89.546 25.5938 89.9029 25.3818 90.1997 25.0991C90.4965 24.8165 90.7226 24.4702 90.8781 24.0603L95.0545 24.3359C94.8425 25.3394 94.4079 26.2157 93.7507 26.9648C93.1006 27.7068 92.2596 28.2863 91.2279 28.7032C90.2032 29.1131 89.0195 29.318 87.6768 29.318ZM101.12 19.5871V29H96.6043V12.7182H100.908V15.5908H101.099C101.459 14.6438 102.063 13.8948 102.911 13.3436C103.759 12.7853 104.788 12.5061 105.996 12.5061C107.127 12.5061 108.113 12.7535 108.953 13.2482C109.794 13.7428 110.448 14.4495 110.915 15.3682C111.381 16.2798 111.614 17.3681 111.614 18.633V29H107.098V19.4387C107.106 18.4422 106.851 17.6649 106.335 17.1066C105.819 16.5413 105.109 16.2586 104.205 16.2586C103.597 16.2586 103.06 16.3893 102.593 16.6508C102.134 16.9123 101.774 17.2939 101.512 17.7956C101.258 18.2903 101.127 18.8874 101.12 19.5871ZM121.037 29.318C119.369 29.318 117.935 28.9647 116.733 28.258C115.539 27.5442 114.62 26.5549 113.977 25.2899C113.341 24.025 113.023 22.5692 113.023 20.9227C113.023 19.2549 113.345 17.7921 113.988 16.5342C114.638 15.2693 115.56 14.2834 116.755 13.5768C117.949 12.863 119.369 12.5061 121.016 12.5061C122.436 12.5061 123.68 12.7641 124.747 13.28C125.814 13.7958 126.659 14.5202 127.281 15.453C127.902 16.3858 128.245 17.4812 128.309 18.739H124.048C123.927 17.9264 123.609 17.2727 123.094 16.778C122.585 16.2763 121.917 16.0254 121.09 16.0254C120.391 16.0254 119.779 16.2162 119.256 16.5978C118.74 16.9724 118.338 17.52 118.048 18.2408C117.758 18.9616 117.613 19.8344 117.613 20.8591C117.613 21.8979 117.755 22.7812 118.037 23.5091C118.327 24.237 118.733 24.7917 119.256 25.1733C119.779 25.5549 120.391 25.7458 121.09 25.7458C121.606 25.7458 122.069 25.6397 122.479 25.4277C122.896 25.2157 123.238 24.9083 123.507 24.5055C123.783 24.0957 123.963 23.6045 124.048 23.0321H128.309C128.238 24.2759 127.899 25.3712 127.291 26.3182C126.691 27.258 125.86 27.993 124.8 28.523C123.74 29.053 122.486 29.318 121.037 29.318ZM132.495 35.1057C131.923 35.1057 131.386 35.0598 130.884 34.9679C130.389 34.8831 129.98 34.7736 129.655 34.6393L130.672 31.2684C131.202 31.431 131.679 31.5193 132.103 31.5334C132.534 31.5476 132.905 31.4486 133.216 31.2366C133.534 31.0246 133.792 30.6642 133.99 30.1554L134.255 29.4664L128.414 12.7182H133.163L136.534 24.6751H136.704L140.106 12.7182H144.887L138.559 30.7596C138.255 31.6359 137.841 32.3991 137.318 33.0493C136.803 33.7065 136.149 34.2117 135.357 34.5651C134.566 34.9255 133.612 35.1057 132.495 35.1057ZM147.423 29H144.666L152.638 7.29087H155.351L163.323 29H160.567L154.079 10.7253H153.91L147.423 29ZM148.44 20.5199H159.549V22.8519H148.44V20.5199ZM165.047 29V12.7182H167.549V29H165.047ZM166.319 10.0045C165.832 10.0045 165.411 9.83844 165.058 9.5063C164.712 9.17417 164.539 8.77489 164.539 8.30849C164.539 7.84208 164.712 7.44281 165.058 7.11067C165.411 6.77853 165.832 6.61246 166.319 6.61246C166.807 6.61246 167.224 6.77853 167.57 7.11067C167.924 7.44281 168.1 7.84208 168.1 8.30849C168.1 8.77489 167.924 9.17417 167.57 9.5063C167.224 9.83844 166.807 10.0045 166.319 10.0045Z" fill="#333333"/>
<defs>
<linearGradient id="paint0_linear_658_6151" x1="15.6859" y1="5.32422" x2="31.4261" y2="53.286" gradientUnits="userSpaceOnUse">
<stop offset="0.1875" stop-color="#AB3ADD"/>
<stop offset="1" stop-color="#3B57F4"/>
</linearGradient>
<linearGradient id="paint1_linear_658_6151" x1="15.6859" y1="5.32422" x2="31.4261" y2="53.286" gradientUnits="userSpaceOnUse">
<stop offset="0.1875" stop-color="#AB3ADD"/>
<stop offset="1" stop-color="#3B57F4"/>
</linearGradient>
<linearGradient id="paint2_linear_658_6151" x1="15.6859" y1="5.32422" x2="31.4261" y2="53.286" gradientUnits="userSpaceOnUse">
<stop offset="0.1875" stop-color="#AB3ADD"/>
<stop offset="1" stop-color="#3B57F4"/>
</linearGradient>
<linearGradient id="paint3_linear_658_6151" x1="15.6859" y1="5.32422" x2="31.4261" y2="53.286" gradientUnits="userSpaceOnUse">
<stop offset="0.1875" stop-color="#AB3ADD"/>
<stop offset="1" stop-color="#3B57F4"/>
</linearGradient>
<linearGradient id="paint4_linear_658_6151" x1="15.6859" y1="5.32422" x2="31.4261" y2="53.286" gradientUnits="userSpaceOnUse">
<stop offset="0.1875" stop-color="#AB3ADD"/>
<stop offset="1" stop-color="#3B57F4"/>
</linearGradient>
<linearGradient id="paint5_linear_658_6151" x1="15.6859" y1="5.32422" x2="31.4261" y2="53.286" gradientUnits="userSpaceOnUse">
<stop offset="0.1875" stop-color="#AB3ADD"/>
<stop offset="1" stop-color="#3B57F4"/>
</linearGradient>
<linearGradient id="paint6_linear_658_6151" x1="16.7492" y1="1.45312" x2="18.6027" y2="6.34901" gradientUnits="userSpaceOnUse">
<stop offset="0.1875" stop-color="#AB3ADD"/>
<stop offset="1" stop-color="#3B57F4"/>
</linearGradient>
<linearGradient id="paint7_linear_658_6151" x1="16.8247" y1="1.45312" x2="18.3951" y2="5.88992" gradientUnits="userSpaceOnUse">
<stop offset="0.1875" stop-color="#AB3ADD"/>
<stop offset="1" stop-color="#3B57F4"/>
</linearGradient>
</defs>
</svg>
