<svg width="25" height="25" viewBox="0 0 25 25" fill="none" xmlns="http://www.w3.org/2000/svg">
<g id="majesticons:mail-line">
<path id="Vector" d="M7.63721 9.66016L11.3872 12.6602C11.7419 12.9442 12.1828 13.0989 12.6372 13.0989C13.0916 13.0989 13.5325 12.9442 13.8872 12.6602L17.6372 9.66016M21.6372 17.6602V7.66016C21.6372 7.12972 21.4265 6.62102 21.0514 6.24594C20.6763 5.87087 20.1676 5.66016 19.6372 5.66016H5.63721C5.10677 5.66016 4.59807 5.87087 4.22299 6.24594C3.84792 6.62102 3.63721 7.12972 3.63721 7.66016V17.6602C3.63721 18.1906 3.84792 18.6993 4.22299 19.0744C4.59807 19.4494 5.10677 19.6602 5.63721 19.6602H19.6372C20.1676 19.6602 20.6763 19.4494 21.0514 19.0744C21.4265 18.6993 21.6372 18.1906 21.6372 17.6602Z" stroke="#AB3ADD" stroke-width="1.61326" stroke-linecap="round" stroke-linejoin="round"/>
</g>
</svg>
