<svg width="24" height="24" viewBox="0 0 24 24" fill="none" xmlns="http://www.w3.org/2000/svg">
<path d="M23.8372 5.14419C22.9658 5.54027 22.0265 5.80055 21.0533 5.92503C22.0492 5.32525 22.8187 4.37466 23.1808 3.23168C22.2415 3.79751 21.2004 4.19359 20.1027 4.41992C19.2087 3.44669 17.9525 2.88086 16.5266 2.88086C13.8672 2.88086 11.6944 5.05365 11.6944 7.7357C11.6944 8.12046 11.7397 8.49391 11.8189 8.84473C7.79019 8.64103 4.20282 6.70588 1.81501 3.77487C1.39629 4.48782 1.15864 5.32525 1.15864 6.20795C1.15864 7.89413 2.00739 9.38792 3.32012 10.2367C2.51664 10.2367 1.76974 10.0103 1.11338 9.67084V9.70479C1.11338 12.0587 2.78824 14.0277 5.0063 14.4691C4.29418 14.664 3.54656 14.6911 2.82219 14.5483C3.12956 15.513 3.73152 16.3572 4.54347 16.9621C5.35541 17.567 6.33651 17.9022 7.34884 17.9207C5.63282 19.2792 3.50571 20.0135 1.31708 20.0029C0.932312 20.0029 0.547546 19.9803 0.162781 19.935C2.31294 21.3157 4.8705 22.1191 7.60913 22.1191C16.5266 22.1191 21.4267 14.7181 21.4267 8.30153C21.4267 8.08651 21.4267 7.88281 21.4154 7.6678C22.366 6.9888 23.1808 6.12873 23.8372 5.14419Z" fill="#626262"/>
</svg>
