<svg width="729" height="433" viewBox="0 0 729 433" fill="none" xmlns="http://www.w3.org/2000/svg">
<path d="M48.3846 18.0465V70.4102H38.8221L16.0408 37.4528H15.6573V70.4102H4.58629V18.0465H14.3022L36.9045 50.9783H37.3647V18.0465H48.3846ZM75.2248 71.1772C71.185 71.1772 67.7077 70.359 64.793 68.7227C61.8952 67.0692 59.6623 64.734 58.0941 61.717C56.5259 58.6829 55.7418 55.0948 55.7418 50.9528C55.7418 46.913 56.5259 43.3675 58.0941 40.3164C59.6623 37.2653 61.8697 34.8874 64.7163 33.1829C67.5799 31.4783 70.9379 30.6261 74.7901 30.6261C77.381 30.6261 79.793 31.0437 82.0259 31.8789C84.2759 32.6971 86.2362 33.9329 87.9066 35.5863C89.5941 37.2397 90.9066 39.3192 91.8441 41.8249C92.7816 44.3136 93.2504 47.2283 93.2504 50.5692V53.5607H60.0884V46.8107H82.9975C82.9975 45.2425 82.6566 43.8533 81.9748 42.6431C81.293 41.4329 80.3469 40.4869 79.1367 39.805C77.9435 39.1062 76.5543 38.7567 74.9691 38.7567C73.3157 38.7567 71.8498 39.1403 70.5714 39.9073C69.31 40.6573 68.3214 41.6715 67.6055 42.9499C66.8896 44.2113 66.5231 45.6175 66.506 47.1687V53.5863C66.506 55.5295 66.864 57.2085 67.5799 58.6232C68.3129 60.038 69.3441 61.1289 70.6737 61.896C72.0032 62.663 73.5799 63.0465 75.4038 63.0465C76.614 63.0465 77.7219 62.8761 78.7276 62.5352C79.7333 62.1942 80.5941 61.6829 81.31 61.0011C82.0259 60.3192 82.5714 59.484 82.9464 58.4954L93.0202 59.1602C92.5089 61.5806 91.4606 63.6942 89.8754 65.5011C88.3072 67.2908 86.2788 68.6886 83.7901 69.6942C81.3185 70.6829 78.4634 71.1772 75.2248 71.1772ZM118.256 71.1772C114.216 71.1772 110.739 70.359 107.824 68.7227C104.926 67.0692 102.694 64.734 101.125 61.717C99.5572 58.6829 98.7731 55.0948 98.7731 50.9528C98.7731 46.913 99.5572 43.3675 101.125 40.3164C102.694 37.2653 104.901 34.8874 107.748 33.1829C110.611 31.4783 113.969 30.6261 117.821 30.6261C120.412 30.6261 122.824 31.0437 125.057 31.8789C127.307 32.6971 129.267 33.9329 130.938 35.5863C132.625 37.2397 133.938 39.3192 134.875 41.8249C135.813 44.3136 136.282 47.2283 136.282 50.5692V53.5607H103.12V46.8107H126.029C126.029 45.2425 125.688 43.8533 125.006 42.6431C124.324 41.4329 123.378 40.4869 122.168 39.805C120.975 39.1062 119.586 38.7567 118 38.7567C116.347 38.7567 114.881 39.1403 113.603 39.9073C112.341 40.6573 111.353 41.6715 110.637 42.9499C109.921 44.2113 109.554 45.6175 109.537 47.1687V53.5863C109.537 55.5295 109.895 57.2085 110.611 58.6232C111.344 60.038 112.375 61.1289 113.705 61.896C115.034 62.663 116.611 63.0465 118.435 63.0465C119.645 63.0465 120.753 62.8761 121.759 62.5352C122.765 62.1942 123.625 61.6829 124.341 61.0011C125.057 60.3192 125.603 59.484 125.978 58.4954L136.051 59.1602C135.54 61.5806 134.492 63.6942 132.907 65.5011C131.338 67.2908 129.31 68.6886 126.821 69.6942C124.35 70.6829 121.495 71.1772 118.256 71.1772ZM157.861 71.0494C154.878 71.0494 152.176 70.2823 149.756 68.7482C147.353 67.1971 145.444 64.9215 144.029 61.9215C142.631 58.9045 141.932 55.2056 141.932 50.8249C141.932 46.3249 142.657 42.5835 144.105 39.6005C145.554 36.6005 147.48 34.359 149.884 32.8761C152.304 31.3761 154.955 30.6261 157.836 30.6261C160.034 30.6261 161.867 31.0011 163.333 31.7511C164.816 32.484 166.009 33.4045 166.912 34.5124C167.833 35.6033 168.532 36.6772 169.009 37.734H169.341V18.0465H180.208V70.4102H169.469V64.1204H169.009C168.498 65.2113 167.773 66.2937 166.836 67.3675C165.915 68.4244 164.713 69.3022 163.23 70.0011C161.765 70.6999 159.975 71.0494 157.861 71.0494ZM161.313 62.3817C163.069 62.3817 164.551 61.9045 165.762 60.9499C166.989 59.9783 167.926 58.6232 168.574 56.8846C169.239 55.146 169.571 53.109 169.571 50.7738C169.571 48.4386 169.248 46.4102 168.6 44.6886C167.952 42.967 167.015 41.6374 165.787 40.6999C164.56 39.7624 163.069 39.2937 161.313 39.2937C159.523 39.2937 158.015 39.7795 156.787 40.7511C155.56 41.7227 154.631 43.0692 154 44.7908C153.37 46.5124 153.054 48.5067 153.054 50.7738C153.054 53.0579 153.37 55.0778 154 56.8335C154.648 58.5721 155.577 59.9357 156.787 60.9244C158.015 61.896 159.523 62.3817 161.313 62.3817ZM215.057 70.4102H203.194L221.27 18.0465H235.537L253.588 70.4102H241.725L228.608 30.0124H228.199L215.057 70.4102ZM214.316 49.8278H242.338V58.4698H214.316V49.8278ZM270.578 47.7056V70.4102H259.686V31.1374H270.067V38.0664H270.527C271.397 35.7823 272.854 33.9755 274.9 32.6459C276.945 31.2994 279.425 30.6261 282.34 30.6261C285.067 30.6261 287.445 31.2227 289.473 32.4158C291.502 33.609 293.078 35.3136 294.203 37.5295C295.328 39.7283 295.891 42.3533 295.891 45.4045V70.4102H284.999V47.3477C285.016 44.9442 284.402 43.0692 283.158 41.7227C281.914 40.359 280.201 39.6772 278.019 39.6772C276.553 39.6772 275.257 39.9925 274.132 40.6232C273.025 41.2539 272.155 42.1744 271.525 43.3846C270.911 44.5778 270.596 46.0181 270.578 47.7056ZM309.794 85.1374C308.413 85.1374 307.118 85.0266 305.907 84.805C304.714 84.6005 303.725 84.3363 302.941 84.0124L305.396 75.8817C306.674 76.2738 307.825 76.4869 308.848 76.521C309.887 76.555 310.782 76.3164 311.532 75.805C312.299 75.2937 312.922 74.4244 313.399 73.1971L314.038 71.5352L299.95 31.1374H311.404L319.535 59.9783H319.944L328.152 31.1374H339.683L324.419 74.6545C323.686 76.7681 322.689 78.609 321.427 80.1772C320.183 81.7624 318.606 82.9812 316.697 83.8335C314.788 84.7028 312.487 85.1374 309.794 85.1374ZM366.146 31.1374V39.3192H342.495V31.1374H366.146ZM347.865 21.7283H358.757V58.342C358.757 59.3477 358.91 60.1317 359.217 60.6942C359.524 61.2397 359.95 61.6232 360.495 61.8448C361.058 62.0664 361.706 62.1772 362.439 62.1772C362.95 62.1772 363.461 62.1346 363.973 62.0494C364.484 61.9471 364.876 61.8704 365.149 61.8192L366.862 69.9244C366.316 70.0948 365.549 70.2908 364.561 70.5124C363.572 70.7511 362.37 70.896 360.956 70.9471C358.331 71.0494 356.029 70.6999 354.052 69.8988C352.092 69.0977 350.566 67.8533 349.475 66.1658C348.385 64.4783 347.848 62.3477 347.865 59.7738V21.7283ZM384.977 47.7056V70.4102H374.085V18.0465H384.67V38.0664H385.13C386.017 35.7482 387.449 33.9329 389.426 32.6204C391.403 31.2908 393.883 30.6261 396.866 30.6261C399.593 30.6261 401.971 31.2227 404 32.4158C406.045 33.592 407.63 35.288 408.755 37.5039C409.897 39.7028 410.46 42.3363 410.443 45.4045V70.4102H399.551V47.3477C399.568 44.9272 398.954 43.0437 397.71 41.6971C396.483 40.3505 394.761 39.6772 392.545 39.6772C391.062 39.6772 389.75 39.9925 388.608 40.6232C387.483 41.2539 386.596 42.1744 385.949 43.3846C385.318 44.5778 384.994 46.0181 384.977 47.7056ZM419.015 70.4102V31.1374H429.907V70.4102H419.015ZM424.486 26.0749C422.867 26.0749 421.478 25.538 420.319 24.4641C419.176 23.3732 418.605 22.0692 418.605 20.5522C418.605 19.0522 419.176 17.7653 420.319 16.6914C421.478 15.6005 422.867 15.055 424.486 15.055C426.105 15.055 427.486 15.6005 428.628 16.6914C429.787 17.7653 430.367 19.0522 430.367 20.5522C430.367 22.0692 429.787 23.3732 428.628 24.4641C427.486 25.538 426.105 26.0749 424.486 26.0749ZM449.524 47.7056V70.4102H438.632V31.1374H449.012V38.0664H449.473C450.342 35.7823 451.799 33.9755 453.845 32.6459C455.89 31.2994 458.37 30.6261 461.285 30.6261C464.012 30.6261 466.39 31.2227 468.419 32.4158C470.447 33.609 472.024 35.3136 473.149 37.5295C474.274 39.7283 474.836 42.3533 474.836 45.4045V70.4102H463.944V47.3477C463.961 44.9442 463.348 43.0692 462.103 41.7227C460.859 40.359 459.146 39.6772 456.964 39.6772C455.498 39.6772 454.203 39.9925 453.078 40.6232C451.97 41.2539 451.1 42.1744 450.47 43.3846C449.856 44.5778 449.541 46.0181 449.524 47.7056ZM501.114 85.9556C497.586 85.9556 494.56 85.4698 492.037 84.4982C489.532 83.5437 487.537 82.2397 486.054 80.5863C484.571 78.9329 483.608 77.0749 483.165 75.0124L493.239 73.6573C493.546 74.4414 494.032 75.1744 494.696 75.8562C495.361 76.538 496.239 77.0835 497.33 77.4925C498.438 77.9187 499.784 78.1317 501.37 78.1317C503.739 78.1317 505.691 77.5522 507.225 76.3931C508.776 75.2511 509.551 73.3335 509.551 70.6403V63.4556H509.091C508.614 64.5465 507.898 65.5778 506.944 66.5494C505.989 67.521 504.762 68.3136 503.262 68.9272C501.762 69.5408 499.972 69.8477 497.892 69.8477C494.944 69.8477 492.259 69.1658 489.838 67.8022C487.435 66.4215 485.517 64.3164 484.086 61.4869C482.671 58.6403 481.963 55.0437 481.963 50.6971C481.963 46.2482 482.688 42.5323 484.137 39.5494C485.586 36.5664 487.512 34.3335 489.915 32.8505C492.336 31.3675 494.986 30.6261 497.867 30.6261C500.066 30.6261 501.907 31.0011 503.39 31.7511C504.873 32.484 506.066 33.4045 506.969 34.5124C507.89 35.6033 508.597 36.6772 509.091 37.734H509.5V31.1374H520.316V70.7937C520.316 74.1346 519.498 76.93 517.861 79.18C516.225 81.43 513.958 83.1175 511.06 84.2425C508.179 85.3846 504.864 85.9556 501.114 85.9556ZM501.344 61.6658C503.1 61.6658 504.583 61.2312 505.793 60.3619C507.02 59.4755 507.958 58.2141 508.605 56.5778C509.27 54.9244 509.603 52.9471 509.603 50.646C509.603 48.3448 509.279 46.3505 508.631 44.663C507.983 42.9585 507.046 41.6374 505.819 40.6999C504.591 39.7624 503.1 39.2937 501.344 39.2937C499.554 39.2937 498.046 39.7795 496.819 40.7511C495.591 41.7056 494.662 43.0352 494.032 44.7397C493.401 46.4442 493.086 48.413 493.086 50.646C493.086 52.913 493.401 54.8732 494.032 56.5266C494.679 58.163 495.608 59.4329 496.819 60.3363C498.046 61.2227 499.554 61.6658 501.344 61.6658ZM545.852 70.4102V18.0465H581.136V27.1744H556.923V39.6516H579.321V48.7795H556.923V61.2823H581.238V70.4102H545.852ZM600.625 18.0465V70.4102H589.733V18.0465H600.625ZM642.027 42.3363L632.055 42.9499C631.885 42.0977 631.518 41.3306 630.956 40.6488C630.393 39.9499 629.652 39.396 628.731 38.9869C627.828 38.5607 626.745 38.3477 625.484 38.3477C623.797 38.3477 622.373 38.7056 621.214 39.4215C620.055 40.1204 619.475 41.0579 619.475 42.234C619.475 43.1715 619.85 43.9641 620.6 44.6119C621.35 45.2596 622.637 45.7795 624.461 46.1715L631.569 47.6033C635.387 48.3874 638.234 49.6488 640.109 51.3874C641.984 53.1261 642.922 55.4102 642.922 58.2397C642.922 60.8136 642.163 63.0721 640.646 65.0153C639.146 66.9585 637.083 68.4755 634.458 69.5664C631.85 70.6403 628.842 71.1772 625.433 71.1772C620.234 71.1772 616.092 70.0948 613.007 67.93C609.939 65.7482 608.14 62.7823 607.612 59.0323L618.325 58.4698C618.649 60.055 619.433 61.2653 620.677 62.1005C621.922 62.9187 623.515 63.3278 625.458 63.3278C627.368 63.3278 628.902 62.9613 630.061 62.2283C631.237 61.4783 631.833 60.5153 631.85 59.3391C631.833 58.3505 631.416 57.5408 630.598 56.9102C629.779 56.2624 628.518 55.7681 626.814 55.4272L620.012 54.0721C616.177 53.305 613.322 51.9755 611.447 50.0835C609.589 48.1914 608.66 45.7795 608.66 42.8477C608.66 40.3249 609.342 38.1516 610.706 36.3278C612.086 34.5039 614.021 33.0977 616.51 32.109C619.015 31.1204 621.947 30.6261 625.305 30.6261C630.265 30.6261 634.169 31.6744 637.015 33.7709C639.879 35.8675 641.549 38.7227 642.027 42.3363ZM667.678 71.1772C663.638 71.1772 660.161 70.359 657.246 68.7227C654.348 67.0692 652.115 64.734 650.547 61.717C648.979 58.6829 648.195 55.0948 648.195 50.9528C648.195 46.913 648.979 43.3675 650.547 40.3164C652.115 37.2653 654.323 34.8874 657.169 33.1829C660.033 31.4783 663.391 30.6261 667.243 30.6261C669.834 30.6261 672.246 31.0437 674.479 31.8789C676.729 32.6971 678.689 33.9329 680.36 35.5863C682.047 37.2397 683.36 39.3192 684.297 41.8249C685.235 44.3136 685.703 47.2283 685.703 50.5692V53.5607H652.542V46.8107H675.451C675.451 45.2425 675.11 43.8533 674.428 42.6431C673.746 41.4329 672.8 40.4869 671.59 39.805C670.397 39.1062 669.007 38.7567 667.422 38.7567C665.769 38.7567 664.303 39.1403 663.025 39.9073C661.763 40.6573 660.775 41.6715 660.059 42.9499C659.343 44.2113 658.976 45.6175 658.959 47.1687V53.5863C658.959 55.5295 659.317 57.2085 660.033 58.6232C660.766 60.038 661.797 61.1289 663.127 61.896C664.456 62.663 666.033 63.0465 667.857 63.0465C669.067 63.0465 670.175 62.8761 671.181 62.5352C672.186 62.1942 673.047 61.6829 673.763 61.0011C674.479 60.3192 675.025 59.484 675.4 58.4954L685.473 59.1602C684.962 61.5806 683.914 63.6942 682.328 65.5011C680.76 67.2908 678.732 68.6886 676.243 69.6942C673.772 70.6829 670.917 71.1772 667.678 71.1772ZM702.169 54.7113V53.842C702.186 50.859 702.451 48.4812 702.962 46.7085C703.49 44.9357 704.257 43.5039 705.263 42.413C706.269 41.3221 707.479 40.3335 708.894 39.4471C709.951 38.7653 710.897 38.0579 711.732 37.3249C712.567 36.592 713.232 35.7823 713.726 34.896C714.221 33.9925 714.468 32.9869 714.468 31.8789C714.468 30.7028 714.186 29.6715 713.624 28.7852C713.061 27.8988 712.303 27.217 711.348 26.7397C710.411 26.2624 709.371 26.0238 708.229 26.0238C707.121 26.0238 706.073 26.2709 705.084 26.7653C704.096 27.2425 703.286 27.9585 702.655 28.913C702.025 29.8505 701.684 31.0181 701.632 32.4158H691.201C691.286 29.0067 692.104 26.1942 693.655 23.9783C695.206 21.7454 697.26 20.0835 699.817 18.9925C702.374 17.8846 705.195 17.3306 708.28 17.3306C711.672 17.3306 714.672 17.8931 717.28 19.0181C719.888 20.1261 721.934 21.7369 723.417 23.8505C724.9 25.9641 725.641 28.5124 725.641 31.4954C725.641 33.4897 725.309 35.2624 724.644 36.8136C723.996 38.3477 723.084 39.7113 721.908 40.9045C720.732 42.0806 719.343 43.146 717.74 44.1005C716.394 44.9016 715.286 45.7369 714.417 46.6062C713.564 47.4755 712.925 48.4812 712.499 49.6232C712.09 50.7653 711.877 52.1715 711.86 53.842V54.7113H702.169ZM707.232 71.0749C705.527 71.0749 704.07 70.4783 702.86 69.2852C701.667 68.0749 701.078 66.6261 701.096 64.9386C701.078 63.2681 701.667 61.8363 702.86 60.6431C704.07 59.4499 705.527 58.8533 707.232 58.8533C708.851 58.8533 710.275 59.4499 711.502 60.6431C712.729 61.8363 713.351 63.2681 713.368 64.9386C713.351 66.0636 713.053 67.0948 712.473 68.0323C711.911 68.9528 711.169 69.6942 710.249 70.2567C709.328 70.8022 708.323 71.0749 707.232 71.0749Z" fill="#333333"/>
<path d="M48.3846 18.0465V70.4102H38.8221L16.0408 37.4528H15.6573V70.4102H4.58629V18.0465H14.3022L36.9045 50.9783H37.3647V18.0465H48.3846ZM75.2248 71.1772C71.185 71.1772 67.7077 70.359 64.793 68.7227C61.8952 67.0692 59.6623 64.734 58.0941 61.717C56.5259 58.6829 55.7418 55.0948 55.7418 50.9528C55.7418 46.913 56.5259 43.3675 58.0941 40.3164C59.6623 37.2653 61.8697 34.8874 64.7163 33.1829C67.5799 31.4783 70.9379 30.6261 74.7901 30.6261C77.381 30.6261 79.793 31.0437 82.0259 31.8789C84.2759 32.6971 86.2362 33.9329 87.9066 35.5863C89.5941 37.2397 90.9066 39.3192 91.8441 41.8249C92.7816 44.3136 93.2504 47.2283 93.2504 50.5692V53.5607H60.0884V46.8107H82.9975C82.9975 45.2425 82.6566 43.8533 81.9748 42.6431C81.293 41.4329 80.3469 40.4869 79.1367 39.805C77.9435 39.1062 76.5543 38.7567 74.9691 38.7567C73.3157 38.7567 71.8498 39.1403 70.5714 39.9073C69.31 40.6573 68.3214 41.6715 67.6055 42.9499C66.8896 44.2113 66.5231 45.6175 66.506 47.1687V53.5863C66.506 55.5295 66.864 57.2085 67.5799 58.6232C68.3129 60.038 69.3441 61.1289 70.6737 61.896C72.0032 62.663 73.5799 63.0465 75.4038 63.0465C76.614 63.0465 77.7219 62.8761 78.7276 62.5352C79.7333 62.1942 80.5941 61.6829 81.31 61.0011C82.0259 60.3192 82.5714 59.484 82.9464 58.4954L93.0202 59.1602C92.5089 61.5806 91.4606 63.6942 89.8754 65.5011C88.3072 67.2908 86.2788 68.6886 83.7901 69.6942C81.3185 70.6829 78.4634 71.1772 75.2248 71.1772ZM118.256 71.1772C114.216 71.1772 110.739 70.359 107.824 68.7227C104.926 67.0692 102.694 64.734 101.125 61.717C99.5572 58.6829 98.7731 55.0948 98.7731 50.9528C98.7731 46.913 99.5572 43.3675 101.125 40.3164C102.694 37.2653 104.901 34.8874 107.748 33.1829C110.611 31.4783 113.969 30.6261 117.821 30.6261C120.412 30.6261 122.824 31.0437 125.057 31.8789C127.307 32.6971 129.267 33.9329 130.938 35.5863C132.625 37.2397 133.938 39.3192 134.875 41.8249C135.813 44.3136 136.282 47.2283 136.282 50.5692V53.5607H103.12V46.8107H126.029C126.029 45.2425 125.688 43.8533 125.006 42.6431C124.324 41.4329 123.378 40.4869 122.168 39.805C120.975 39.1062 119.586 38.7567 118 38.7567C116.347 38.7567 114.881 39.1403 113.603 39.9073C112.341 40.6573 111.353 41.6715 110.637 42.9499C109.921 44.2113 109.554 45.6175 109.537 47.1687V53.5863C109.537 55.5295 109.895 57.2085 110.611 58.6232C111.344 60.038 112.375 61.1289 113.705 61.896C115.034 62.663 116.611 63.0465 118.435 63.0465C119.645 63.0465 120.753 62.8761 121.759 62.5352C122.765 62.1942 123.625 61.6829 124.341 61.0011C125.057 60.3192 125.603 59.484 125.978 58.4954L136.051 59.1602C135.54 61.5806 134.492 63.6942 132.907 65.5011C131.338 67.2908 129.31 68.6886 126.821 69.6942C124.35 70.6829 121.495 71.1772 118.256 71.1772ZM157.861 71.0494C154.878 71.0494 152.176 70.2823 149.756 68.7482C147.353 67.1971 145.444 64.9215 144.029 61.9215C142.631 58.9045 141.932 55.2056 141.932 50.8249C141.932 46.3249 142.657 42.5835 144.105 39.6005C145.554 36.6005 147.48 34.359 149.884 32.8761C152.304 31.3761 154.955 30.6261 157.836 30.6261C160.034 30.6261 161.867 31.0011 163.333 31.7511C164.816 32.484 166.009 33.4045 166.912 34.5124C167.833 35.6033 168.532 36.6772 169.009 37.734H169.341V18.0465H180.208V70.4102H169.469V64.1204H169.009C168.498 65.2113 167.773 66.2937 166.836 67.3675C165.915 68.4244 164.713 69.3022 163.23 70.0011C161.765 70.6999 159.975 71.0494 157.861 71.0494ZM161.313 62.3817C163.069 62.3817 164.551 61.9045 165.762 60.9499C166.989 59.9783 167.926 58.6232 168.574 56.8846C169.239 55.146 169.571 53.109 169.571 50.7738C169.571 48.4386 169.248 46.4102 168.6 44.6886C167.952 42.967 167.015 41.6374 165.787 40.6999C164.56 39.7624 163.069 39.2937 161.313 39.2937C159.523 39.2937 158.015 39.7795 156.787 40.7511C155.56 41.7227 154.631 43.0692 154 44.7908C153.37 46.5124 153.054 48.5067 153.054 50.7738C153.054 53.0579 153.37 55.0778 154 56.8335C154.648 58.5721 155.577 59.9357 156.787 60.9244C158.015 61.896 159.523 62.3817 161.313 62.3817ZM215.057 70.4102H203.194L221.27 18.0465H235.537L253.588 70.4102H241.725L228.608 30.0124H228.199L215.057 70.4102ZM214.316 49.8278H242.338V58.4698H214.316V49.8278ZM270.578 47.7056V70.4102H259.686V31.1374H270.067V38.0664H270.527C271.397 35.7823 272.854 33.9755 274.9 32.6459C276.945 31.2994 279.425 30.6261 282.34 30.6261C285.067 30.6261 287.445 31.2227 289.473 32.4158C291.502 33.609 293.078 35.3136 294.203 37.5295C295.328 39.7283 295.891 42.3533 295.891 45.4045V70.4102H284.999V47.3477C285.016 44.9442 284.402 43.0692 283.158 41.7227C281.914 40.359 280.201 39.6772 278.019 39.6772C276.553 39.6772 275.257 39.9925 274.132 40.6232C273.025 41.2539 272.155 42.1744 271.525 43.3846C270.911 44.5778 270.596 46.0181 270.578 47.7056ZM309.794 85.1374C308.413 85.1374 307.118 85.0266 305.907 84.805C304.714 84.6005 303.725 84.3363 302.941 84.0124L305.396 75.8817C306.674 76.2738 307.825 76.4869 308.848 76.521C309.887 76.555 310.782 76.3164 311.532 75.805C312.299 75.2937 312.922 74.4244 313.399 73.1971L314.038 71.5352L299.95 31.1374H311.404L319.535 59.9783H319.944L328.152 31.1374H339.683L324.419 74.6545C323.686 76.7681 322.689 78.609 321.427 80.1772C320.183 81.7624 318.606 82.9812 316.697 83.8335C314.788 84.7028 312.487 85.1374 309.794 85.1374ZM366.146 31.1374V39.3192H342.495V31.1374H366.146ZM347.865 21.7283H358.757V58.342C358.757 59.3477 358.91 60.1317 359.217 60.6942C359.524 61.2397 359.95 61.6232 360.495 61.8448C361.058 62.0664 361.706 62.1772 362.439 62.1772C362.95 62.1772 363.461 62.1346 363.973 62.0494C364.484 61.9471 364.876 61.8704 365.149 61.8192L366.862 69.9244C366.316 70.0948 365.549 70.2908 364.561 70.5124C363.572 70.7511 362.37 70.896 360.956 70.9471C358.331 71.0494 356.029 70.6999 354.052 69.8988C352.092 69.0977 350.566 67.8533 349.475 66.1658C348.385 64.4783 347.848 62.3477 347.865 59.7738V21.7283ZM384.977 47.7056V70.4102H374.085V18.0465H384.67V38.0664H385.13C386.017 35.7482 387.449 33.9329 389.426 32.6204C391.403 31.2908 393.883 30.6261 396.866 30.6261C399.593 30.6261 401.971 31.2227 404 32.4158C406.045 33.592 407.63 35.288 408.755 37.5039C409.897 39.7028 410.46 42.3363 410.443 45.4045V70.4102H399.551V47.3477C399.568 44.9272 398.954 43.0437 397.71 41.6971C396.483 40.3505 394.761 39.6772 392.545 39.6772C391.062 39.6772 389.75 39.9925 388.608 40.6232C387.483 41.2539 386.596 42.1744 385.949 43.3846C385.318 44.5778 384.994 46.0181 384.977 47.7056ZM419.015 70.4102V31.1374H429.907V70.4102H419.015ZM424.486 26.0749C422.867 26.0749 421.478 25.538 420.319 24.4641C419.176 23.3732 418.605 22.0692 418.605 20.5522C418.605 19.0522 419.176 17.7653 420.319 16.6914C421.478 15.6005 422.867 15.055 424.486 15.055C426.105 15.055 427.486 15.6005 428.628 16.6914C429.787 17.7653 430.367 19.0522 430.367 20.5522C430.367 22.0692 429.787 23.3732 428.628 24.4641C427.486 25.538 426.105 26.0749 424.486 26.0749ZM449.524 47.7056V70.4102H438.632V31.1374H449.012V38.0664H449.473C450.342 35.7823 451.799 33.9755 453.845 32.6459C455.89 31.2994 458.37 30.6261 461.285 30.6261C464.012 30.6261 466.39 31.2227 468.419 32.4158C470.447 33.609 472.024 35.3136 473.149 37.5295C474.274 39.7283 474.836 42.3533 474.836 45.4045V70.4102H463.944V47.3477C463.961 44.9442 463.348 43.0692 462.103 41.7227C460.859 40.359 459.146 39.6772 456.964 39.6772C455.498 39.6772 454.203 39.9925 453.078 40.6232C451.97 41.2539 451.1 42.1744 450.47 43.3846C449.856 44.5778 449.541 46.0181 449.524 47.7056ZM501.114 85.9556C497.586 85.9556 494.56 85.4698 492.037 84.4982C489.532 83.5437 487.537 82.2397 486.054 80.5863C484.571 78.9329 483.608 77.0749 483.165 75.0124L493.239 73.6573C493.546 74.4414 494.032 75.1744 494.696 75.8562C495.361 76.538 496.239 77.0835 497.33 77.4925C498.438 77.9187 499.784 78.1317 501.37 78.1317C503.739 78.1317 505.691 77.5522 507.225 76.3931C508.776 75.2511 509.551 73.3335 509.551 70.6403V63.4556H509.091C508.614 64.5465 507.898 65.5778 506.944 66.5494C505.989 67.521 504.762 68.3136 503.262 68.9272C501.762 69.5408 499.972 69.8477 497.892 69.8477C494.944 69.8477 492.259 69.1658 489.838 67.8022C487.435 66.4215 485.517 64.3164 484.086 61.4869C482.671 58.6403 481.963 55.0437 481.963 50.6971C481.963 46.2482 482.688 42.5323 484.137 39.5494C485.586 36.5664 487.512 34.3335 489.915 32.8505C492.336 31.3675 494.986 30.6261 497.867 30.6261C500.066 30.6261 501.907 31.0011 503.39 31.7511C504.873 32.484 506.066 33.4045 506.969 34.5124C507.89 35.6033 508.597 36.6772 509.091 37.734H509.5V31.1374H520.316V70.7937C520.316 74.1346 519.498 76.93 517.861 79.18C516.225 81.43 513.958 83.1175 511.06 84.2425C508.179 85.3846 504.864 85.9556 501.114 85.9556ZM501.344 61.6658C503.1 61.6658 504.583 61.2312 505.793 60.3619C507.02 59.4755 507.958 58.2141 508.605 56.5778C509.27 54.9244 509.603 52.9471 509.603 50.646C509.603 48.3448 509.279 46.3505 508.631 44.663C507.983 42.9585 507.046 41.6374 505.819 40.6999C504.591 39.7624 503.1 39.2937 501.344 39.2937C499.554 39.2937 498.046 39.7795 496.819 40.7511C495.591 41.7056 494.662 43.0352 494.032 44.7397C493.401 46.4442 493.086 48.413 493.086 50.646C493.086 52.913 493.401 54.8732 494.032 56.5266C494.679 58.163 495.608 59.4329 496.819 60.3363C498.046 61.2227 499.554 61.6658 501.344 61.6658ZM545.852 70.4102V18.0465H581.136V27.1744H556.923V39.6516H579.321V48.7795H556.923V61.2823H581.238V70.4102H545.852ZM600.625 18.0465V70.4102H589.733V18.0465H600.625ZM642.027 42.3363L632.055 42.9499C631.885 42.0977 631.518 41.3306 630.956 40.6488C630.393 39.9499 629.652 39.396 628.731 38.9869C627.828 38.5607 626.745 38.3477 625.484 38.3477C623.797 38.3477 622.373 38.7056 621.214 39.4215C620.055 40.1204 619.475 41.0579 619.475 42.234C619.475 43.1715 619.85 43.9641 620.6 44.6119C621.35 45.2596 622.637 45.7795 624.461 46.1715L631.569 47.6033C635.387 48.3874 638.234 49.6488 640.109 51.3874C641.984 53.1261 642.922 55.4102 642.922 58.2397C642.922 60.8136 642.163 63.0721 640.646 65.0153C639.146 66.9585 637.083 68.4755 634.458 69.5664C631.85 70.6403 628.842 71.1772 625.433 71.1772C620.234 71.1772 616.092 70.0948 613.007 67.93C609.939 65.7482 608.14 62.7823 607.612 59.0323L618.325 58.4698C618.649 60.055 619.433 61.2653 620.677 62.1005C621.922 62.9187 623.515 63.3278 625.458 63.3278C627.368 63.3278 628.902 62.9613 630.061 62.2283C631.237 61.4783 631.833 60.5153 631.85 59.3391C631.833 58.3505 631.416 57.5408 630.598 56.9102C629.779 56.2624 628.518 55.7681 626.814 55.4272L620.012 54.0721C616.177 53.305 613.322 51.9755 611.447 50.0835C609.589 48.1914 608.66 45.7795 608.66 42.8477C608.66 40.3249 609.342 38.1516 610.706 36.3278C612.086 34.5039 614.021 33.0977 616.51 32.109C619.015 31.1204 621.947 30.6261 625.305 30.6261C630.265 30.6261 634.169 31.6744 637.015 33.7709C639.879 35.8675 641.549 38.7227 642.027 42.3363ZM667.678 71.1772C663.638 71.1772 660.161 70.359 657.246 68.7227C654.348 67.0692 652.115 64.734 650.547 61.717C648.979 58.6829 648.195 55.0948 648.195 50.9528C648.195 46.913 648.979 43.3675 650.547 40.3164C652.115 37.2653 654.323 34.8874 657.169 33.1829C660.033 31.4783 663.391 30.6261 667.243 30.6261C669.834 30.6261 672.246 31.0437 674.479 31.8789C676.729 32.6971 678.689 33.9329 680.36 35.5863C682.047 37.2397 683.36 39.3192 684.297 41.8249C685.235 44.3136 685.703 47.2283 685.703 50.5692V53.5607H652.542V46.8107H675.451C675.451 45.2425 675.11 43.8533 674.428 42.6431C673.746 41.4329 672.8 40.4869 671.59 39.805C670.397 39.1062 669.007 38.7567 667.422 38.7567C665.769 38.7567 664.303 39.1403 663.025 39.9073C661.763 40.6573 660.775 41.6715 660.059 42.9499C659.343 44.2113 658.976 45.6175 658.959 47.1687V53.5863C658.959 55.5295 659.317 57.2085 660.033 58.6232C660.766 60.038 661.797 61.1289 663.127 61.896C664.456 62.663 666.033 63.0465 667.857 63.0465C669.067 63.0465 670.175 62.8761 671.181 62.5352C672.186 62.1942 673.047 61.6829 673.763 61.0011C674.479 60.3192 675.025 59.484 675.4 58.4954L685.473 59.1602C684.962 61.5806 683.914 63.6942 682.328 65.5011C680.76 67.2908 678.732 68.6886 676.243 69.6942C673.772 70.6829 670.917 71.1772 667.678 71.1772ZM702.169 54.7113V53.842C702.186 50.859 702.451 48.4812 702.962 46.7085C703.49 44.9357 704.257 43.5039 705.263 42.413C706.269 41.3221 707.479 40.3335 708.894 39.4471C709.951 38.7653 710.897 38.0579 711.732 37.3249C712.567 36.592 713.232 35.7823 713.726 34.896C714.221 33.9925 714.468 32.9869 714.468 31.8789C714.468 30.7028 714.186 29.6715 713.624 28.7852C713.061 27.8988 712.303 27.217 711.348 26.7397C710.411 26.2624 709.371 26.0238 708.229 26.0238C707.121 26.0238 706.073 26.2709 705.084 26.7653C704.096 27.2425 703.286 27.9585 702.655 28.913C702.025 29.8505 701.684 31.0181 701.632 32.4158H691.201C691.286 29.0067 692.104 26.1942 693.655 23.9783C695.206 21.7454 697.26 20.0835 699.817 18.9925C702.374 17.8846 705.195 17.3306 708.28 17.3306C711.672 17.3306 714.672 17.8931 717.28 19.0181C719.888 20.1261 721.934 21.7369 723.417 23.8505C724.9 25.9641 725.641 28.5124 725.641 31.4954C725.641 33.4897 725.309 35.2624 724.644 36.8136C723.996 38.3477 723.084 39.7113 721.908 40.9045C720.732 42.0806 719.343 43.146 717.74 44.1005C716.394 44.9016 715.286 45.7369 714.417 46.6062C713.564 47.4755 712.925 48.4812 712.499 49.6232C712.09 50.7653 711.877 52.1715 711.86 53.842V54.7113H702.169ZM707.232 71.0749C705.527 71.0749 704.07 70.4783 702.86 69.2852C701.667 68.0749 701.078 66.6261 701.096 64.9386C701.078 63.2681 701.667 61.8363 702.86 60.6431C704.07 59.4499 705.527 58.8533 707.232 58.8533C708.851 58.8533 710.275 59.4499 711.502 60.6431C712.729 61.8363 713.351 63.2681 713.368 64.9386C713.351 66.0636 713.053 67.0948 712.473 68.0323C711.911 68.9528 711.169 69.6942 710.249 70.2567C709.328 70.8022 708.323 71.0749 707.232 71.0749Z" fill="url(#paint0_linear_658_7430)"/>
<path d="M119.5 118.956V136.41H116.867V118.956H119.5ZM129.361 123.319V125.365H121.963V123.319H129.361ZM123.992 136.41V121.802C123.992 120.984 124.171 120.305 124.529 119.765C124.887 119.22 125.361 118.814 125.952 118.547C126.543 118.274 127.185 118.137 127.878 118.137C128.39 118.137 128.827 118.18 129.191 118.265C129.554 118.345 129.824 118.419 130 118.487L129.404 120.549C129.284 120.515 129.131 120.475 128.944 120.43C128.756 120.379 128.529 120.353 128.262 120.353C127.642 120.353 127.199 120.507 126.932 120.814C126.671 121.12 126.54 121.564 126.54 122.143V136.41H123.992ZM139.953 141.319C139.572 141.319 139.225 141.288 138.913 141.225C138.6 141.169 138.368 141.106 138.214 141.038L138.828 138.95C139.294 139.075 139.708 139.129 140.072 139.112C140.436 139.095 140.757 138.958 141.035 138.703C141.319 138.447 141.569 138.029 141.785 137.45L142.1 136.581L137.311 123.319H140.038L143.353 133.478H143.49L146.805 123.319H149.541L144.146 138.157C143.896 138.839 143.578 139.416 143.191 139.887C142.805 140.365 142.345 140.723 141.811 140.961C141.277 141.2 140.657 141.319 139.953 141.319ZM157.005 136.674C155.777 136.674 154.706 136.393 153.792 135.831C152.877 135.268 152.167 134.481 151.661 133.47C151.155 132.458 150.902 131.277 150.902 129.924C150.902 128.566 151.155 127.379 151.661 126.362C152.167 125.345 152.877 124.555 153.792 123.993C154.706 123.43 155.777 123.149 157.005 123.149C158.232 123.149 159.303 123.43 160.218 123.993C161.132 124.555 161.843 125.345 162.348 126.362C162.854 127.379 163.107 128.566 163.107 129.924C163.107 131.277 162.854 132.458 162.348 133.47C161.843 134.481 161.132 135.268 160.218 135.831C159.303 136.393 158.232 136.674 157.005 136.674ZM157.013 134.535C157.809 134.535 158.468 134.325 158.99 133.904C159.513 133.484 159.9 132.924 160.15 132.225C160.405 131.527 160.533 130.757 160.533 129.916C160.533 129.081 160.405 128.314 160.15 127.615C159.9 126.91 159.513 126.345 158.99 125.919C158.468 125.493 157.809 125.279 157.013 125.279C156.212 125.279 155.547 125.493 155.019 125.919C154.496 126.345 154.107 126.91 153.851 127.615C153.601 128.314 153.476 129.081 153.476 129.916C153.476 130.757 153.601 131.527 153.851 132.225C154.107 132.924 154.496 133.484 155.019 133.904C155.547 134.325 156.212 134.535 157.013 134.535ZM174.244 130.981V123.319H176.801V136.41H174.295V134.143H174.159C173.858 134.842 173.375 135.424 172.71 135.89C172.051 136.35 171.23 136.581 170.247 136.581C169.406 136.581 168.662 136.396 168.014 136.027C167.372 135.652 166.866 135.098 166.497 134.365C166.133 133.632 165.951 132.725 165.951 131.646V123.319H168.5V131.339C168.5 132.231 168.747 132.941 169.241 133.47C169.735 133.998 170.377 134.262 171.167 134.262C171.645 134.262 172.119 134.143 172.591 133.904C173.068 133.666 173.463 133.305 173.775 132.822C174.093 132.339 174.25 131.725 174.244 130.981ZM189.125 128.637V136.41H186.576V123.319H189.022V125.45H189.184C189.485 124.757 189.957 124.2 190.599 123.779C191.247 123.359 192.062 123.149 193.045 123.149C193.937 123.149 194.718 123.336 195.389 123.711C196.059 124.081 196.579 124.632 196.949 125.365C197.318 126.098 197.502 127.004 197.502 128.083V136.41H194.954V128.39C194.954 127.441 194.707 126.7 194.213 126.166C193.718 125.626 193.039 125.356 192.176 125.356C191.585 125.356 191.059 125.484 190.599 125.74C190.145 125.995 189.784 126.37 189.517 126.865C189.255 127.353 189.125 127.944 189.125 128.637ZM206.562 136.674C205.272 136.674 204.162 136.399 203.23 135.848C202.304 135.291 201.588 134.51 201.082 133.504C200.582 132.493 200.332 131.308 200.332 129.95C200.332 128.609 200.582 127.427 201.082 126.404C201.588 125.382 202.292 124.583 203.196 124.01C204.105 123.436 205.167 123.149 206.383 123.149C207.122 123.149 207.838 123.271 208.531 123.515C209.224 123.76 209.846 124.143 210.397 124.666C210.949 125.189 211.383 125.868 211.701 126.703C212.02 127.532 212.179 128.541 212.179 129.728V130.632H201.772V128.723H209.681C209.681 128.052 209.545 127.458 209.272 126.941C209 126.419 208.616 126.007 208.122 125.706C207.633 125.404 207.059 125.254 206.4 125.254C205.684 125.254 205.059 125.43 204.525 125.782C203.997 126.129 203.588 126.583 203.298 127.146C203.014 127.703 202.872 128.308 202.872 128.961V130.453C202.872 131.328 203.025 132.072 203.332 132.686C203.645 133.299 204.079 133.768 204.636 134.092C205.193 134.41 205.843 134.569 206.588 134.569C207.071 134.569 207.511 134.501 207.909 134.365C208.306 134.223 208.65 134.012 208.94 133.734C209.23 133.456 209.451 133.112 209.605 132.703L212.017 133.137C211.824 133.848 211.477 134.47 210.977 135.004C210.483 135.532 209.86 135.944 209.11 136.24C208.366 136.529 207.517 136.674 206.562 136.674ZM220.648 136.674C219.358 136.674 218.248 136.399 217.316 135.848C216.39 135.291 215.674 134.51 215.168 133.504C214.668 132.493 214.418 131.308 214.418 129.95C214.418 128.609 214.668 127.427 215.168 126.404C215.674 125.382 216.378 124.583 217.282 124.01C218.191 123.436 219.253 123.149 220.469 123.149C221.208 123.149 221.924 123.271 222.617 123.515C223.31 123.76 223.932 124.143 224.483 124.666C225.034 125.189 225.469 125.868 225.787 126.703C226.105 127.532 226.265 128.541 226.265 129.728V130.632H215.858V128.723H223.767C223.767 128.052 223.631 127.458 223.358 126.941C223.086 126.419 222.702 126.007 222.208 125.706C221.719 125.404 221.145 125.254 220.486 125.254C219.77 125.254 219.145 125.43 218.611 125.782C218.083 126.129 217.674 126.583 217.384 127.146C217.1 127.703 216.958 128.308 216.958 128.961V130.453C216.958 131.328 217.111 132.072 217.418 132.686C217.73 133.299 218.165 133.768 218.722 134.092C219.279 134.41 219.929 134.569 220.674 134.569C221.157 134.569 221.597 134.501 221.995 134.365C222.392 134.223 222.736 134.012 223.026 133.734C223.316 133.456 223.537 133.112 223.691 132.703L226.103 133.137C225.909 133.848 225.563 134.47 225.063 135.004C224.569 135.532 223.946 135.944 223.196 136.24C222.452 136.529 221.603 136.674 220.648 136.674ZM233.993 136.666C232.936 136.666 231.993 136.396 231.163 135.856C230.339 135.311 229.691 134.535 229.22 133.529C228.754 132.518 228.521 131.305 228.521 129.89C228.521 128.475 228.757 127.265 229.228 126.26C229.706 125.254 230.359 124.484 231.189 123.95C232.018 123.416 232.958 123.149 234.01 123.149C234.822 123.149 235.475 123.285 235.97 123.558C236.47 123.825 236.856 124.137 237.129 124.495C237.407 124.853 237.623 125.169 237.777 125.441H237.93V118.956H240.478V136.41H237.99V134.373H237.777C237.623 134.652 237.402 134.97 237.112 135.328C236.828 135.686 236.436 135.998 235.936 136.265C235.436 136.532 234.788 136.666 233.993 136.666ZM234.555 134.493C235.288 134.493 235.907 134.299 236.413 133.913C236.924 133.521 237.311 132.978 237.572 132.285C237.839 131.592 237.973 130.785 237.973 129.865C237.973 128.956 237.842 128.16 237.581 127.478C237.319 126.797 236.936 126.265 236.43 125.885C235.924 125.504 235.299 125.314 234.555 125.314C233.788 125.314 233.149 125.512 232.637 125.91C232.126 126.308 231.74 126.85 231.478 127.538C231.223 128.225 231.095 129.001 231.095 129.865C231.095 130.74 231.225 131.527 231.487 132.225C231.748 132.924 232.135 133.478 232.646 133.887C233.163 134.291 233.799 134.493 234.555 134.493ZM254.277 136.7C253.447 136.7 252.697 136.547 252.027 136.24C251.356 135.927 250.825 135.475 250.433 134.885C250.047 134.294 249.853 133.569 249.853 132.711C249.853 131.973 249.995 131.365 250.279 130.887C250.564 130.41 250.947 130.032 251.43 129.754C251.913 129.475 252.453 129.265 253.049 129.123C253.646 128.981 254.254 128.873 254.873 128.799C255.657 128.708 256.294 128.635 256.782 128.578C257.271 128.515 257.626 128.416 257.848 128.279C258.069 128.143 258.18 127.922 258.18 127.615V127.555C258.18 126.811 257.97 126.234 257.549 125.825C257.135 125.416 256.515 125.211 255.691 125.211C254.833 125.211 254.157 125.402 253.663 125.782C253.174 126.157 252.836 126.575 252.649 127.035L250.254 126.49C250.538 125.694 250.953 125.052 251.498 124.564C252.049 124.069 252.683 123.711 253.399 123.49C254.115 123.262 254.868 123.149 255.657 123.149C256.18 123.149 256.734 123.211 257.319 123.336C257.91 123.456 258.461 123.677 258.973 124.001C259.49 124.325 259.913 124.788 260.243 125.39C260.572 125.987 260.737 126.762 260.737 127.717V136.41H258.248V134.62H258.146C257.981 134.95 257.734 135.274 257.404 135.592C257.075 135.91 256.652 136.174 256.135 136.385C255.618 136.595 254.998 136.7 254.277 136.7ZM254.831 134.654C255.535 134.654 256.137 134.515 256.637 134.237C257.143 133.958 257.527 133.595 257.788 133.146C258.055 132.691 258.189 132.206 258.189 131.689V130.001C258.098 130.092 257.922 130.177 257.66 130.257C257.404 130.331 257.112 130.396 256.782 130.453C256.453 130.504 256.132 130.552 255.819 130.598C255.507 130.637 255.245 130.672 255.035 130.7C254.541 130.762 254.089 130.868 253.68 131.015C253.277 131.163 252.953 131.376 252.708 131.654C252.47 131.927 252.35 132.291 252.35 132.745C252.35 133.376 252.583 133.853 253.049 134.177C253.515 134.495 254.109 134.654 254.831 134.654ZM266.679 128.637V136.41H264.131V123.319H266.577V125.45H266.739C267.04 124.757 267.512 124.2 268.154 123.779C268.801 123.359 269.617 123.149 270.6 123.149C271.492 123.149 272.273 123.336 272.944 123.711C273.614 124.081 274.134 124.632 274.503 125.365C274.873 126.098 275.057 127.004 275.057 128.083V136.41H272.509V128.39C272.509 127.441 272.262 126.7 271.767 126.166C271.273 125.626 270.594 125.356 269.73 125.356C269.14 125.356 268.614 125.484 268.154 125.74C267.699 125.995 267.338 126.37 267.071 126.865C266.81 127.353 266.679 127.944 266.679 128.637ZM279.617 141.319C279.236 141.319 278.89 141.288 278.577 141.225C278.265 141.169 278.032 141.106 277.878 141.038L278.492 138.95C278.958 139.075 279.373 139.129 279.736 139.112C280.1 139.095 280.421 138.958 280.699 138.703C280.983 138.447 281.233 138.029 281.449 137.45L281.765 136.581L276.975 123.319H279.702L283.017 133.478H283.154L286.469 123.319H289.205L283.81 138.157C283.56 138.839 283.242 139.416 282.855 139.887C282.469 140.365 282.009 140.723 281.475 140.961C280.941 141.2 280.321 141.319 279.617 141.319ZM297.711 123.319V125.365H290.56V123.319H297.711ZM292.478 120.183H295.026V132.566C295.026 133.061 295.1 133.433 295.248 133.683C295.395 133.927 295.586 134.095 295.819 134.186C296.057 134.271 296.316 134.314 296.594 134.314C296.799 134.314 296.978 134.299 297.131 134.271C297.284 134.243 297.404 134.22 297.489 134.203L297.949 136.308C297.801 136.365 297.591 136.422 297.319 136.478C297.046 136.541 296.705 136.575 296.296 136.581C295.625 136.592 295 136.473 294.421 136.223C293.841 135.973 293.373 135.586 293.015 135.064C292.657 134.541 292.478 133.885 292.478 133.095V120.183ZM303.359 128.637V136.41H300.811V118.956H303.325V125.45H303.487C303.794 124.745 304.262 124.186 304.893 123.771C305.524 123.356 306.348 123.149 307.365 123.149C308.262 123.149 309.047 123.333 309.717 123.703C310.393 124.072 310.916 124.623 311.285 125.356C311.66 126.083 311.848 126.993 311.848 128.083V136.41H309.299V128.39C309.299 127.43 309.052 126.686 308.558 126.157C308.064 125.623 307.376 125.356 306.495 125.356C305.893 125.356 305.353 125.484 304.876 125.74C304.404 125.995 304.032 126.37 303.76 126.865C303.493 127.353 303.359 127.944 303.359 128.637ZM315.248 136.41V123.319H317.797V136.41H315.248ZM316.535 121.299C316.092 121.299 315.711 121.152 315.393 120.856C315.081 120.555 314.924 120.197 314.924 119.782C314.924 119.362 315.081 119.004 315.393 118.708C315.711 118.407 316.092 118.257 316.535 118.257C316.978 118.257 317.356 118.407 317.669 118.708C317.987 119.004 318.146 119.362 318.146 119.782C318.146 120.197 317.987 120.555 317.669 120.856C317.356 121.152 316.978 121.299 316.535 121.299ZM323.773 128.637V136.41H321.225V123.319H323.671V125.45H323.833C324.134 124.757 324.605 124.2 325.248 123.779C325.895 123.359 326.711 123.149 327.694 123.149C328.586 123.149 329.367 123.336 330.037 123.711C330.708 124.081 331.228 124.632 331.597 125.365C331.966 126.098 332.151 127.004 332.151 128.083V136.41H329.603V128.39C329.603 127.441 329.355 126.7 328.861 126.166C328.367 125.626 327.688 125.356 326.824 125.356C326.233 125.356 325.708 125.484 325.248 125.74C324.793 125.995 324.432 126.37 324.165 126.865C323.904 127.353 323.773 127.944 323.773 128.637ZM341.057 141.592C340.017 141.592 339.123 141.456 338.373 141.183C337.628 140.91 337.02 140.549 336.549 140.1C336.077 139.652 335.725 139.16 335.492 138.626L337.682 137.723C337.836 137.973 338.04 138.237 338.296 138.515C338.557 138.799 338.909 139.041 339.353 139.24C339.801 139.439 340.378 139.538 341.083 139.538C342.049 139.538 342.847 139.302 343.478 138.831C344.108 138.365 344.424 137.62 344.424 136.598V134.024H344.262C344.108 134.302 343.887 134.612 343.597 134.953C343.313 135.294 342.921 135.589 342.421 135.839C341.921 136.089 341.27 136.214 340.469 136.214C339.435 136.214 338.503 135.973 337.674 135.49C336.85 135.001 336.196 134.282 335.713 133.333C335.236 132.379 334.998 131.206 334.998 129.814C334.998 128.422 335.233 127.228 335.705 126.234C336.182 125.24 336.836 124.478 337.665 123.95C338.495 123.416 339.435 123.149 340.486 123.149C341.299 123.149 341.955 123.285 342.455 123.558C342.955 123.825 343.344 124.137 343.623 124.495C343.907 124.853 344.125 125.169 344.279 125.441H344.466V123.319H346.963V136.7C346.963 137.825 346.702 138.748 346.179 139.47C345.657 140.191 344.949 140.725 344.057 141.072C343.171 141.419 342.171 141.592 341.057 141.592ZM341.032 134.1C341.765 134.1 342.384 133.93 342.89 133.589C343.401 133.243 343.787 132.748 344.049 132.106C344.316 131.458 344.449 130.683 344.449 129.779C344.449 128.899 344.319 128.123 344.057 127.453C343.796 126.782 343.412 126.26 342.907 125.885C342.401 125.504 341.776 125.314 341.032 125.314C340.265 125.314 339.625 125.512 339.114 125.91C338.603 126.302 338.216 126.836 337.955 127.512C337.699 128.189 337.571 128.944 337.571 129.779C337.571 130.637 337.702 131.39 337.963 132.038C338.225 132.686 338.611 133.191 339.123 133.555C339.64 133.919 340.276 134.1 341.032 134.1ZM360.542 136.7C359.713 136.7 358.963 136.547 358.292 136.24C357.622 135.927 357.091 135.475 356.699 134.885C356.312 134.294 356.119 133.569 356.119 132.711C356.119 131.973 356.261 131.365 356.545 130.887C356.829 130.41 357.213 130.032 357.696 129.754C358.179 129.475 358.718 129.265 359.315 129.123C359.912 128.981 360.52 128.873 361.139 128.799C361.923 128.708 362.559 128.635 363.048 128.578C363.537 128.515 363.892 128.416 364.113 128.279C364.335 128.143 364.446 127.922 364.446 127.615V127.555C364.446 126.811 364.235 126.234 363.815 125.825C363.4 125.416 362.781 125.211 361.957 125.211C361.099 125.211 360.423 125.402 359.929 125.782C359.44 126.157 359.102 126.575 358.914 127.035L356.52 126.49C356.804 125.694 357.218 125.052 357.764 124.564C358.315 124.069 358.949 123.711 359.664 123.49C360.38 123.262 361.133 123.149 361.923 123.149C362.446 123.149 363 123.211 363.585 123.336C364.176 123.456 364.727 123.677 365.238 124.001C365.755 124.325 366.179 124.788 366.508 125.39C366.838 125.987 367.002 126.762 367.002 127.717V136.41H364.514V134.62H364.412C364.247 134.95 364 135.274 363.67 135.592C363.341 135.91 362.917 136.174 362.4 136.385C361.883 136.595 361.264 136.7 360.542 136.7ZM361.096 134.654C361.801 134.654 362.403 134.515 362.903 134.237C363.409 133.958 363.792 133.595 364.054 133.146C364.321 132.691 364.454 132.206 364.454 131.689V130.001C364.363 130.092 364.187 130.177 363.926 130.257C363.67 130.331 363.377 130.396 363.048 130.453C362.718 130.504 362.397 130.552 362.085 130.598C361.772 130.637 361.511 130.672 361.301 130.7C360.806 130.762 360.355 130.868 359.946 131.015C359.542 131.163 359.218 131.376 358.974 131.654C358.735 131.927 358.616 132.291 358.616 132.745C358.616 133.376 358.849 133.853 359.315 134.177C359.781 134.495 360.375 134.654 361.096 134.654ZM376.507 123.319V125.365H369.357V123.319H376.507ZM371.275 120.183H373.823V132.566C373.823 133.061 373.897 133.433 374.044 133.683C374.192 133.927 374.382 134.095 374.615 134.186C374.854 134.271 375.113 134.314 375.391 134.314C375.596 134.314 375.775 134.299 375.928 134.271C376.081 134.243 376.201 134.22 376.286 134.203L376.746 136.308C376.598 136.365 376.388 136.422 376.115 136.478C375.843 136.541 375.502 136.575 375.093 136.581C374.422 136.592 373.797 136.473 373.218 136.223C372.638 135.973 372.169 135.586 371.811 135.064C371.453 134.541 371.275 133.885 371.275 133.095V120.183ZM389.488 136.7C388.658 136.7 387.908 136.547 387.238 136.24C386.567 135.927 386.036 135.475 385.644 134.885C385.257 134.294 385.064 133.569 385.064 132.711C385.064 131.973 385.206 131.365 385.49 130.887C385.775 130.41 386.158 130.032 386.641 129.754C387.124 129.475 387.664 129.265 388.26 129.123C388.857 128.981 389.465 128.873 390.084 128.799C390.868 128.708 391.505 128.635 391.993 128.578C392.482 128.515 392.837 128.416 393.059 128.279C393.28 128.143 393.391 127.922 393.391 127.615V127.555C393.391 126.811 393.181 126.234 392.76 125.825C392.346 125.416 391.726 125.211 390.902 125.211C390.044 125.211 389.368 125.402 388.874 125.782C388.385 126.157 388.047 126.575 387.86 127.035L385.465 126.49C385.749 125.694 386.164 125.052 386.709 124.564C387.26 124.069 387.894 123.711 388.61 123.49C389.326 123.262 390.078 123.149 390.868 123.149C391.391 123.149 391.945 123.211 392.53 123.336C393.121 123.456 393.672 123.677 394.184 124.001C394.701 124.325 395.124 124.788 395.453 125.39C395.783 125.987 395.948 126.762 395.948 127.717V136.41H393.459V134.62H393.357C393.192 134.95 392.945 135.274 392.615 135.592C392.286 135.91 391.863 136.174 391.346 136.385C390.828 136.595 390.209 136.7 389.488 136.7ZM390.042 134.654C390.746 134.654 391.348 134.515 391.848 134.237C392.354 133.958 392.738 133.595 392.999 133.146C393.266 132.691 393.4 132.206 393.4 131.689V130.001C393.309 130.092 393.132 130.177 392.871 130.257C392.615 130.331 392.323 130.396 391.993 130.453C391.664 130.504 391.343 130.552 391.03 130.598C390.718 130.637 390.456 130.672 390.246 130.7C389.752 130.762 389.3 130.868 388.891 131.015C388.488 131.163 388.164 131.376 387.919 131.654C387.681 131.927 387.561 132.291 387.561 132.745C387.561 133.376 387.794 133.853 388.26 134.177C388.726 134.495 389.32 134.654 390.042 134.654ZM401.89 118.956V136.41H399.342V118.956H401.89ZM407.867 118.956V136.41H405.319V118.956H407.867ZM423.757 123.319V125.365H416.607V123.319H423.757ZM418.525 120.183H421.073V132.566C421.073 133.061 421.147 133.433 421.294 133.683C421.442 133.927 421.632 134.095 421.865 134.186C422.104 134.271 422.363 134.314 422.641 134.314C422.846 134.314 423.025 134.299 423.178 134.271C423.331 134.243 423.451 134.22 423.536 134.203L423.996 136.308C423.848 136.365 423.638 136.422 423.365 136.478C423.093 136.541 422.752 136.575 422.343 136.581C421.672 136.592 421.047 136.473 420.468 136.223C419.888 135.973 419.419 135.586 419.061 135.064C418.703 134.541 418.525 133.885 418.525 133.095V120.183ZM429.406 128.637V136.41H426.858V118.956H429.372V125.45H429.534C429.841 124.745 430.309 124.186 430.94 123.771C431.571 123.356 432.395 123.149 433.412 123.149C434.309 123.149 435.093 123.333 435.764 123.703C436.44 124.072 436.963 124.623 437.332 125.356C437.707 126.083 437.895 126.993 437.895 128.083V136.41H435.346V128.39C435.346 127.43 435.099 126.686 434.605 126.157C434.11 125.623 433.423 125.356 432.542 125.356C431.94 125.356 431.4 125.484 430.923 125.74C430.451 125.995 430.079 126.37 429.806 126.865C429.539 127.353 429.406 127.944 429.406 128.637ZM445.105 136.7C444.275 136.7 443.525 136.547 442.855 136.24C442.184 135.927 441.653 135.475 441.261 134.885C440.875 134.294 440.681 133.569 440.681 132.711C440.681 131.973 440.824 131.365 441.108 130.887C441.392 130.41 441.775 130.032 442.258 129.754C442.741 129.475 443.281 129.265 443.877 129.123C444.474 128.981 445.082 128.873 445.701 128.799C446.485 128.708 447.122 128.635 447.61 128.578C448.099 128.515 448.454 128.416 448.676 128.279C448.897 128.143 449.008 127.922 449.008 127.615V127.555C449.008 126.811 448.798 126.234 448.377 125.825C447.963 125.416 447.343 125.211 446.52 125.211C445.662 125.211 444.985 125.402 444.491 125.782C444.002 126.157 443.664 126.575 443.477 127.035L441.082 126.49C441.366 125.694 441.781 125.052 442.326 124.564C442.877 124.069 443.511 123.711 444.227 123.49C444.943 123.262 445.696 123.149 446.485 123.149C447.008 123.149 447.562 123.211 448.147 123.336C448.738 123.456 449.289 123.677 449.801 124.001C450.318 124.325 450.741 124.788 451.071 125.39C451.4 125.987 451.565 126.762 451.565 127.717V136.41H449.076V134.62H448.974C448.809 134.95 448.562 135.274 448.233 135.592C447.903 135.91 447.48 136.174 446.963 136.385C446.446 136.595 445.826 136.7 445.105 136.7ZM445.659 134.654C446.363 134.654 446.966 134.515 447.466 134.237C447.971 133.958 448.355 133.595 448.616 133.146C448.883 132.691 449.017 132.206 449.017 131.689V130.001C448.926 130.092 448.75 130.177 448.488 130.257C448.233 130.331 447.94 130.396 447.61 130.453C447.281 130.504 446.96 130.552 446.647 130.598C446.335 130.637 446.074 130.672 445.863 130.7C445.369 130.762 444.917 130.868 444.508 131.015C444.105 131.163 443.781 131.376 443.537 131.654C443.298 131.927 443.179 132.291 443.179 132.745C443.179 133.376 443.412 133.853 443.877 134.177C444.343 134.495 444.937 134.654 445.659 134.654ZM461.07 123.319V125.365H453.919V123.319H461.07ZM455.837 120.183H458.385V132.566C458.385 133.061 458.459 133.433 458.607 133.683C458.755 133.927 458.945 134.095 459.178 134.186C459.417 134.271 459.675 134.314 459.953 134.314C460.158 134.314 460.337 134.299 460.49 134.271C460.644 134.243 460.763 134.22 460.848 134.203L461.309 136.308C461.161 136.365 460.951 136.422 460.678 136.478C460.405 136.541 460.064 136.575 459.655 136.581C458.985 136.592 458.36 136.473 457.78 136.223C457.201 135.973 456.732 135.586 456.374 135.064C456.016 134.541 455.837 133.885 455.837 133.095V120.183ZM475.755 136.674C474.488 136.674 473.397 136.387 472.482 135.814C471.573 135.234 470.874 134.436 470.385 133.419C469.897 132.402 469.652 131.237 469.652 129.924C469.652 128.595 469.902 127.422 470.402 126.404C470.902 125.382 471.607 124.583 472.516 124.01C473.425 123.436 474.496 123.149 475.729 123.149C476.723 123.149 477.61 123.333 478.388 123.703C479.167 124.066 479.794 124.578 480.272 125.237C480.755 125.896 481.042 126.666 481.132 127.547H478.652C478.516 126.933 478.203 126.404 477.715 125.961C477.232 125.518 476.584 125.297 475.772 125.297C475.061 125.297 474.439 125.484 473.905 125.859C473.377 126.228 472.965 126.757 472.669 127.444C472.374 128.126 472.226 128.933 472.226 129.865C472.226 130.819 472.371 131.643 472.661 132.336C472.951 133.029 473.36 133.566 473.888 133.947C474.422 134.328 475.05 134.518 475.772 134.518C476.255 134.518 476.692 134.43 477.084 134.254C477.482 134.072 477.814 133.814 478.081 133.478C478.354 133.143 478.544 132.74 478.652 132.268H481.132C481.042 133.115 480.766 133.87 480.306 134.535C479.846 135.2 479.229 135.723 478.456 136.103C477.689 136.484 476.789 136.674 475.755 136.674ZM487.667 136.7C486.838 136.7 486.088 136.547 485.417 136.24C484.747 135.927 484.216 135.475 483.824 134.885C483.437 134.294 483.244 133.569 483.244 132.711C483.244 131.973 483.386 131.365 483.67 130.887C483.954 130.41 484.338 130.032 484.821 129.754C485.304 129.475 485.843 129.265 486.44 129.123C487.037 128.981 487.645 128.873 488.264 128.799C489.048 128.708 489.684 128.635 490.173 128.578C490.662 128.515 491.017 128.416 491.238 128.279C491.46 128.143 491.571 127.922 491.571 127.615V127.555C491.571 126.811 491.36 126.234 490.94 125.825C490.525 125.416 489.906 125.211 489.082 125.211C488.224 125.211 487.548 125.402 487.054 125.782C486.565 126.157 486.227 126.575 486.039 127.035L483.645 126.49C483.929 125.694 484.343 125.052 484.889 124.564C485.44 124.069 486.074 123.711 486.789 123.49C487.505 123.262 488.258 123.149 489.048 123.149C489.571 123.149 490.125 123.211 490.71 123.336C491.301 123.456 491.852 123.677 492.363 124.001C492.88 124.325 493.304 124.788 493.633 125.39C493.963 125.987 494.127 126.762 494.127 127.717V136.41H491.639V134.62H491.537C491.372 134.95 491.125 135.274 490.795 135.592C490.466 135.91 490.042 136.174 489.525 136.385C489.008 136.595 488.389 136.7 487.667 136.7ZM488.221 134.654C488.926 134.654 489.528 134.515 490.028 134.237C490.534 133.958 490.917 133.595 491.179 133.146C491.446 132.691 491.579 132.206 491.579 131.689V130.001C491.488 130.092 491.312 130.177 491.051 130.257C490.795 130.331 490.502 130.396 490.173 130.453C489.843 130.504 489.522 130.552 489.21 130.598C488.897 130.637 488.636 130.672 488.426 130.7C487.931 130.762 487.48 130.868 487.071 131.015C486.667 131.163 486.343 131.376 486.099 131.654C485.86 131.927 485.741 132.291 485.741 132.745C485.741 133.376 485.974 133.853 486.44 134.177C486.906 134.495 487.5 134.654 488.221 134.654ZM500.07 128.637V136.41H497.522V123.319H499.968V125.45H500.13C500.431 124.757 500.902 124.2 501.544 123.779C502.192 123.359 503.007 123.149 503.99 123.149C504.882 123.149 505.664 123.336 506.334 123.711C507.005 124.081 507.525 124.632 507.894 125.365C508.263 126.098 508.448 127.004 508.448 128.083V136.41H505.9V128.39C505.9 127.441 505.652 126.7 505.158 126.166C504.664 125.626 503.985 125.356 503.121 125.356C502.53 125.356 502.005 125.484 501.544 125.74C501.09 125.995 500.729 126.37 500.462 126.865C500.201 127.353 500.07 127.944 500.07 128.637ZM520.765 128.637V136.41H518.217V118.956H520.731V125.45H520.893C521.2 124.745 521.669 124.186 522.299 123.771C522.93 123.356 523.754 123.149 524.771 123.149C525.669 123.149 526.453 123.333 527.123 123.703C527.799 124.072 528.322 124.623 528.691 125.356C529.066 126.083 529.254 126.993 529.254 128.083V136.41H526.706V128.39C526.706 127.43 526.458 126.686 525.964 126.157C525.47 125.623 524.782 125.356 523.902 125.356C523.299 125.356 522.76 125.484 522.282 125.74C521.811 125.995 521.439 126.37 521.166 126.865C520.899 127.353 520.765 127.944 520.765 128.637ZM538.297 136.674C537.007 136.674 535.896 136.399 534.964 135.848C534.038 135.291 533.322 134.51 532.816 133.504C532.316 132.493 532.066 131.308 532.066 129.95C532.066 128.609 532.316 127.427 532.816 126.404C533.322 125.382 534.027 124.583 534.93 124.01C535.839 123.436 536.902 123.149 538.118 123.149C538.856 123.149 539.572 123.271 540.265 123.515C540.958 123.76 541.581 124.143 542.132 124.666C542.683 125.189 543.118 125.868 543.436 126.703C543.754 127.532 543.913 128.541 543.913 129.728V130.632H533.507V128.723H541.416C541.416 128.052 541.279 127.458 541.007 126.941C540.734 126.419 540.35 126.007 539.856 125.706C539.368 125.404 538.794 125.254 538.135 125.254C537.419 125.254 536.794 125.43 536.26 125.782C535.731 126.129 535.322 126.583 535.032 127.146C534.748 127.703 534.606 128.308 534.606 128.961V130.453C534.606 131.328 534.76 132.072 535.066 132.686C535.379 133.299 535.814 133.768 536.37 134.092C536.927 134.41 537.578 134.569 538.322 134.569C538.805 134.569 539.245 134.501 539.643 134.365C540.041 134.223 540.385 134.012 540.674 133.734C540.964 133.456 541.186 133.112 541.339 132.703L543.751 133.137C543.558 133.848 543.211 134.47 542.711 135.004C542.217 135.532 541.595 135.944 540.845 136.24C540.1 136.529 539.251 136.674 538.297 136.674ZM549.289 118.956V136.41H546.74V118.956H549.289ZM552.717 141.319V123.319H555.206V125.441H555.419C555.566 125.169 555.779 124.853 556.058 124.495C556.336 124.137 556.723 123.825 557.217 123.558C557.711 123.285 558.365 123.149 559.177 123.149C560.234 123.149 561.177 123.416 562.007 123.95C562.836 124.484 563.487 125.254 563.958 126.26C564.436 127.265 564.674 128.475 564.674 129.89C564.674 131.305 564.439 132.518 563.967 133.529C563.495 134.535 562.848 135.311 562.024 135.856C561.2 136.396 560.26 136.666 559.203 136.666C558.407 136.666 557.757 136.532 557.251 136.265C556.751 135.998 556.359 135.686 556.075 135.328C555.791 134.97 555.572 134.652 555.419 134.373H555.265V141.319H552.717ZM555.214 129.865C555.214 130.785 555.348 131.592 555.615 132.285C555.882 132.978 556.268 133.521 556.774 133.913C557.279 134.299 557.899 134.493 558.632 134.493C559.393 134.493 560.029 134.291 560.541 133.887C561.052 133.478 561.439 132.924 561.7 132.225C561.967 131.527 562.1 130.74 562.1 129.865C562.1 129.001 561.97 128.225 561.708 127.538C561.453 126.85 561.066 126.308 560.549 125.91C560.038 125.512 559.399 125.314 558.632 125.314C557.893 125.314 557.268 125.504 556.757 125.885C556.251 126.265 555.868 126.797 555.606 127.478C555.345 128.16 555.214 128.956 555.214 129.865ZM575.492 141.319C575.111 141.319 574.765 141.288 574.452 141.225C574.14 141.169 573.907 141.106 573.753 141.038L574.367 138.95C574.833 139.075 575.248 139.129 575.611 139.112C575.975 139.095 576.296 138.958 576.574 138.703C576.858 138.447 577.108 138.029 577.324 137.45L577.64 136.581L572.85 123.319H575.577L578.892 133.478H579.029L582.344 123.319H585.08L579.685 138.157C579.435 138.839 579.117 139.416 578.73 139.887C578.344 140.365 577.884 140.723 577.35 140.961C576.816 141.2 576.196 141.319 575.492 141.319ZM592.544 136.674C591.316 136.674 590.245 136.393 589.331 135.831C588.416 135.268 587.706 134.481 587.2 133.47C586.694 132.458 586.441 131.277 586.441 129.924C586.441 128.566 586.694 127.379 587.2 126.362C587.706 125.345 588.416 124.555 589.331 123.993C590.245 123.43 591.316 123.149 592.544 123.149C593.771 123.149 594.842 123.43 595.757 123.993C596.672 124.555 597.382 125.345 597.887 126.362C598.393 127.379 598.646 128.566 598.646 129.924C598.646 131.277 598.393 132.458 597.887 133.47C597.382 134.481 596.672 135.268 595.757 135.831C594.842 136.393 593.771 136.674 592.544 136.674ZM592.552 134.535C593.348 134.535 594.007 134.325 594.529 133.904C595.052 133.484 595.439 132.924 595.689 132.225C595.944 131.527 596.072 130.757 596.072 129.916C596.072 129.081 595.944 128.314 595.689 127.615C595.439 126.91 595.052 126.345 594.529 125.919C594.007 125.493 593.348 125.279 592.552 125.279C591.751 125.279 591.086 125.493 590.558 125.919C590.035 126.345 589.646 126.91 589.39 127.615C589.14 128.314 589.015 129.081 589.015 129.916C589.015 130.757 589.14 131.527 589.39 132.225C589.646 132.924 590.035 133.484 590.558 133.904C591.086 134.325 591.751 134.535 592.552 134.535ZM609.783 130.981V123.319H612.34V136.41H609.834V134.143H609.698C609.397 134.842 608.914 135.424 608.249 135.89C607.59 136.35 606.769 136.581 605.786 136.581C604.945 136.581 604.201 136.396 603.553 136.027C602.911 135.652 602.405 135.098 602.036 134.365C601.672 133.632 601.49 132.725 601.49 131.646V123.319H604.039V131.339C604.039 132.231 604.286 132.941 604.78 133.47C605.275 133.998 605.917 134.262 606.706 134.262C607.184 134.262 607.658 134.143 608.13 133.904C608.607 133.666 609.002 133.305 609.314 132.822C609.632 132.339 609.789 131.725 609.783 130.981ZM86.5099 170.319V152.319H88.9986V154.441H89.2116C89.3594 154.169 89.5724 153.853 89.8509 153.495C90.1293 153.137 90.5156 152.825 91.0099 152.558C91.5043 152.285 92.1577 152.149 92.9702 152.149C94.027 152.149 94.9702 152.416 95.7997 152.95C96.6293 153.484 97.2798 154.254 97.7514 155.26C98.2287 156.265 98.4673 157.475 98.4673 158.89C98.4673 160.305 98.2315 161.518 97.7599 162.529C97.2884 163.535 96.6406 164.311 95.8168 164.856C94.9929 165.396 94.0526 165.666 92.9957 165.666C92.2003 165.666 91.5497 165.532 91.044 165.265C90.544 164.998 90.152 164.686 89.8679 164.328C89.5838 163.97 89.3651 163.652 89.2116 163.373H89.0582V170.319H86.5099ZM89.0071 158.865C89.0071 159.785 89.1406 160.592 89.4077 161.285C89.6747 161.978 90.0611 162.521 90.5668 162.913C91.0724 163.299 91.6918 163.493 92.4247 163.493C93.1861 163.493 93.8224 163.291 94.3338 162.887C94.8452 162.478 95.2315 161.924 95.4929 161.225C95.7599 160.527 95.8935 159.74 95.8935 158.865C95.8935 158.001 95.7628 157.225 95.5014 156.538C95.2457 155.85 94.8594 155.308 94.3423 154.91C93.831 154.512 93.1918 154.314 92.4247 154.314C91.6861 154.314 91.0611 154.504 90.5497 154.885C90.044 155.265 89.6605 155.797 89.3991 156.478C89.1378 157.16 89.0071 157.956 89.0071 158.865ZM101.322 165.41V152.319H103.786V154.399H103.922C104.161 153.694 104.581 153.14 105.183 152.737C105.791 152.328 106.479 152.123 107.246 152.123C107.405 152.123 107.592 152.129 107.808 152.14C108.03 152.152 108.203 152.166 108.328 152.183V154.62C108.226 154.592 108.044 154.561 107.783 154.527C107.521 154.487 107.26 154.467 106.999 154.467C106.396 154.467 105.859 154.595 105.388 154.85C104.922 155.1 104.553 155.45 104.28 155.899C104.007 156.342 103.871 156.848 103.871 157.416V165.41H101.322ZM115.579 165.674C114.352 165.674 113.281 165.393 112.366 164.831C111.451 164.268 110.741 163.481 110.235 162.47C109.729 161.458 109.477 160.277 109.477 158.924C109.477 157.566 109.729 156.379 110.235 155.362C110.741 154.345 111.451 153.555 112.366 152.993C113.281 152.43 114.352 152.149 115.579 152.149C116.806 152.149 117.877 152.43 118.792 152.993C119.707 153.555 120.417 154.345 120.923 155.362C121.428 156.379 121.681 157.566 121.681 158.924C121.681 160.277 121.428 161.458 120.923 162.47C120.417 163.481 119.707 164.268 118.792 164.831C117.877 165.393 116.806 165.674 115.579 165.674ZM115.587 163.535C116.383 163.535 117.042 163.325 117.565 162.904C118.087 162.484 118.474 161.924 118.724 161.225C118.979 160.527 119.107 159.757 119.107 158.916C119.107 158.081 118.979 157.314 118.724 156.615C118.474 155.91 118.087 155.345 117.565 154.919C117.042 154.493 116.383 154.279 115.587 154.279C114.786 154.279 114.121 154.493 113.593 154.919C113.07 155.345 112.681 155.91 112.425 156.615C112.175 157.314 112.05 158.081 112.05 158.916C112.05 159.757 112.175 160.527 112.425 161.225C112.681 161.924 113.07 162.484 113.593 162.904C114.121 163.325 114.786 163.535 115.587 163.535ZM124.526 165.41V152.319H126.972V154.45H127.134C127.406 153.728 127.852 153.166 128.472 152.762C129.091 152.353 129.832 152.149 130.696 152.149C131.571 152.149 132.304 152.353 132.895 152.762C133.491 153.172 133.932 153.734 134.216 154.45H134.352C134.665 153.751 135.162 153.194 135.844 152.779C136.526 152.359 137.338 152.149 138.281 152.149C139.469 152.149 140.438 152.521 141.188 153.265C141.943 154.01 142.321 155.132 142.321 156.632V165.41H139.773V156.87C139.773 155.984 139.531 155.342 139.048 154.944C138.565 154.547 137.989 154.348 137.318 154.348C136.489 154.348 135.844 154.603 135.384 155.115C134.923 155.62 134.693 156.271 134.693 157.066V165.41H132.153V156.708C132.153 155.998 131.932 155.427 131.489 154.995C131.045 154.564 130.469 154.348 129.759 154.348C129.276 154.348 128.83 154.475 128.42 154.731C128.017 154.981 127.69 155.331 127.44 155.779C127.196 156.228 127.074 156.748 127.074 157.339V165.41H124.526ZM151.251 165.674C150.023 165.674 148.952 165.393 148.038 164.831C147.123 164.268 146.413 163.481 145.907 162.47C145.401 161.458 145.148 160.277 145.148 158.924C145.148 157.566 145.401 156.379 145.907 155.362C146.413 154.345 147.123 153.555 148.038 152.993C148.952 152.43 150.023 152.149 151.251 152.149C152.478 152.149 153.549 152.43 154.464 152.993C155.379 153.555 156.089 154.345 156.594 155.362C157.1 156.379 157.353 157.566 157.353 158.924C157.353 160.277 157.1 161.458 156.594 162.47C156.089 163.481 155.379 164.268 154.464 164.831C153.549 165.393 152.478 165.674 151.251 165.674ZM151.259 163.535C152.055 163.535 152.714 163.325 153.237 162.904C153.759 162.484 154.146 161.924 154.396 161.225C154.651 160.527 154.779 159.757 154.779 158.916C154.779 158.081 154.651 157.314 154.396 156.615C154.146 155.91 153.759 155.345 153.237 154.919C152.714 154.493 152.055 154.279 151.259 154.279C150.458 154.279 149.793 154.493 149.265 154.919C148.742 155.345 148.353 155.91 148.097 156.615C147.847 157.314 147.722 158.081 147.722 158.916C147.722 159.757 147.847 160.527 148.097 161.225C148.353 161.924 148.742 162.484 149.265 162.904C149.793 163.325 150.458 163.535 151.259 163.535ZM166.308 152.319V154.365H159.158V152.319H166.308ZM161.075 149.183H163.624V161.566C163.624 162.061 163.697 162.433 163.845 162.683C163.993 162.927 164.183 163.095 164.416 163.186C164.655 163.271 164.913 163.314 165.192 163.314C165.396 163.314 165.575 163.299 165.729 163.271C165.882 163.243 166.001 163.22 166.087 163.203L166.547 165.308C166.399 165.365 166.189 165.422 165.916 165.478C165.643 165.541 165.303 165.575 164.893 165.581C164.223 165.592 163.598 165.473 163.018 165.223C162.439 164.973 161.97 164.586 161.612 164.064C161.254 163.541 161.075 162.885 161.075 162.095V149.183ZM174.629 165.674C173.339 165.674 172.228 165.399 171.296 164.848C170.37 164.291 169.654 163.51 169.148 162.504C168.648 161.493 168.398 160.308 168.398 158.95C168.398 157.609 168.648 156.427 169.148 155.404C169.654 154.382 170.359 153.583 171.262 153.01C172.171 152.436 173.234 152.149 174.45 152.149C175.188 152.149 175.904 152.271 176.597 152.515C177.29 152.76 177.913 153.143 178.464 153.666C179.015 154.189 179.45 154.868 179.768 155.703C180.086 156.532 180.245 157.541 180.245 158.728V159.632H169.839V157.723H177.748C177.748 157.052 177.612 156.458 177.339 155.941C177.066 155.419 176.683 155.007 176.188 154.706C175.7 154.404 175.126 154.254 174.467 154.254C173.751 154.254 173.126 154.43 172.592 154.782C172.063 155.129 171.654 155.583 171.364 156.146C171.08 156.703 170.938 157.308 170.938 157.961V159.453C170.938 160.328 171.092 161.072 171.398 161.686C171.711 162.299 172.146 162.768 172.702 163.092C173.259 163.41 173.91 163.569 174.654 163.569C175.137 163.569 175.577 163.501 175.975 163.365C176.373 163.223 176.717 163.012 177.006 162.734C177.296 162.456 177.518 162.112 177.671 161.703L180.083 162.137C179.89 162.848 179.543 163.47 179.043 164.004C178.549 164.532 177.927 164.944 177.177 165.24C176.433 165.529 175.583 165.674 174.629 165.674ZM191.103 165.41H188.308L194.589 147.956H197.631L203.913 165.41H201.117L196.183 151.126H196.046L191.103 165.41ZM191.572 158.575H200.64V160.791H191.572V158.575ZM211.506 170.592C210.467 170.592 209.572 170.456 208.822 170.183C208.077 169.91 207.469 169.549 206.998 169.1C206.526 168.652 206.174 168.16 205.941 167.626L208.131 166.723C208.285 166.973 208.489 167.237 208.745 167.515C209.006 167.799 209.359 168.041 209.802 168.24C210.251 168.439 210.827 168.538 211.532 168.538C212.498 168.538 213.296 168.302 213.927 167.831C214.558 167.365 214.873 166.62 214.873 165.598V163.024H214.711C214.558 163.302 214.336 163.612 214.046 163.953C213.762 164.294 213.37 164.589 212.87 164.839C212.37 165.089 211.719 165.214 210.918 165.214C209.884 165.214 208.952 164.973 208.123 164.49C207.299 164.001 206.646 163.282 206.163 162.333C205.685 161.379 205.447 160.206 205.447 158.814C205.447 157.422 205.683 156.228 206.154 155.234C206.631 154.24 207.285 153.478 208.114 152.95C208.944 152.416 209.884 152.149 210.935 152.149C211.748 152.149 212.404 152.285 212.904 152.558C213.404 152.825 213.793 153.137 214.072 153.495C214.356 153.853 214.575 154.169 214.728 154.441H214.915V152.319H217.413V165.7C217.413 166.825 217.151 167.748 216.629 168.47C216.106 169.191 215.398 169.725 214.506 170.072C213.62 170.419 212.62 170.592 211.506 170.592ZM211.481 163.1C212.214 163.1 212.833 162.93 213.339 162.589C213.85 162.243 214.237 161.748 214.498 161.106C214.765 160.458 214.898 159.683 214.898 158.779C214.898 157.899 214.768 157.123 214.506 156.453C214.245 155.782 213.862 155.26 213.356 154.885C212.85 154.504 212.225 154.314 211.481 154.314C210.714 154.314 210.075 154.512 209.563 154.91C209.052 155.302 208.665 155.836 208.404 156.512C208.148 157.189 208.021 157.944 208.021 158.779C208.021 159.637 208.151 160.39 208.413 161.038C208.674 161.686 209.06 162.191 209.572 162.555C210.089 162.919 210.725 163.1 211.481 163.1ZM226.472 165.674C225.183 165.674 224.072 165.399 223.14 164.848C222.214 164.291 221.498 163.51 220.992 162.504C220.492 161.493 220.242 160.308 220.242 158.95C220.242 157.609 220.492 156.427 220.992 155.404C221.498 154.382 222.202 153.583 223.106 153.01C224.015 152.436 225.077 152.149 226.293 152.149C227.032 152.149 227.748 152.271 228.441 152.515C229.134 152.76 229.756 153.143 230.308 153.666C230.859 154.189 231.293 154.868 231.612 155.703C231.93 156.532 232.089 157.541 232.089 158.728V159.632H221.683V157.723H229.592C229.592 157.052 229.455 156.458 229.183 155.941C228.91 155.419 228.526 155.007 228.032 154.706C227.543 154.404 226.969 154.254 226.31 154.254C225.594 154.254 224.969 154.43 224.435 154.782C223.907 155.129 223.498 155.583 223.208 156.146C222.924 156.703 222.782 157.308 222.782 157.961V159.453C222.782 160.328 222.935 161.072 223.242 161.686C223.555 162.299 223.989 162.768 224.546 163.092C225.103 163.41 225.754 163.569 226.498 163.569C226.981 163.569 227.421 163.501 227.819 163.365C228.217 163.223 228.56 163.012 228.85 162.734C229.14 162.456 229.362 162.112 229.515 161.703L231.927 162.137C231.734 162.848 231.387 163.47 230.887 164.004C230.393 164.532 229.771 164.944 229.021 165.24C228.276 165.529 227.427 165.674 226.472 165.674ZM237.464 157.637V165.41H234.916V152.319H237.362V154.45H237.524C237.825 153.757 238.297 153.2 238.939 152.779C239.587 152.359 240.402 152.149 241.385 152.149C242.277 152.149 243.058 152.336 243.729 152.711C244.399 153.081 244.919 153.632 245.288 154.365C245.658 155.098 245.842 156.004 245.842 157.083V165.41H243.294V157.39C243.294 156.441 243.047 155.7 242.553 155.166C242.058 154.626 241.379 154.356 240.516 154.356C239.925 154.356 239.399 154.484 238.939 154.74C238.484 154.995 238.124 155.37 237.857 155.865C237.595 156.353 237.464 156.944 237.464 157.637ZM254.774 165.674C253.507 165.674 252.416 165.387 251.501 164.814C250.592 164.234 249.893 163.436 249.405 162.419C248.916 161.402 248.672 160.237 248.672 158.924C248.672 157.595 248.922 156.422 249.422 155.404C249.922 154.382 250.626 153.583 251.536 153.01C252.445 152.436 253.516 152.149 254.749 152.149C255.743 152.149 256.629 152.333 257.408 152.703C258.186 153.066 258.814 153.578 259.291 154.237C259.774 154.896 260.061 155.666 260.152 156.547H257.672C257.536 155.933 257.223 155.404 256.734 154.961C256.251 154.518 255.604 154.297 254.791 154.297C254.081 154.297 253.459 154.484 252.925 154.859C252.396 155.228 251.984 155.757 251.689 156.444C251.393 157.126 251.246 157.933 251.246 158.865C251.246 159.819 251.391 160.643 251.68 161.336C251.97 162.029 252.379 162.566 252.908 162.947C253.442 163.328 254.07 163.518 254.791 163.518C255.274 163.518 255.712 163.43 256.104 163.254C256.501 163.072 256.834 162.814 257.101 162.478C257.374 162.143 257.564 161.74 257.672 161.268H260.152C260.061 162.115 259.786 162.87 259.325 163.535C258.865 164.2 258.249 164.723 257.476 165.103C256.709 165.484 255.808 165.674 254.774 165.674ZM264.488 170.319C264.107 170.319 263.761 170.288 263.448 170.225C263.136 170.169 262.903 170.106 262.749 170.038L263.363 167.95C263.829 168.075 264.244 168.129 264.607 168.112C264.971 168.095 265.292 167.958 265.57 167.703C265.854 167.447 266.104 167.029 266.32 166.45L266.636 165.581L261.846 152.319H264.573L267.888 162.478H268.025L271.34 152.319H274.076L268.681 167.157C268.431 167.839 268.113 168.416 267.727 168.887C267.34 169.365 266.88 169.723 266.346 169.961C265.812 170.2 265.192 170.319 264.488 170.319ZM276.509 165.41H273.714L279.995 147.956H283.038L289.319 165.41H286.523L281.589 151.126H281.452L276.509 165.41ZM276.978 158.575H286.046V160.791H276.978V158.575ZM294.473 147.956V165.41H291.839V147.956H294.473ZM310.566 152.319V154.365H303.415V152.319H310.566ZM305.333 149.183H307.881V161.566C307.881 162.061 307.955 162.433 308.103 162.683C308.251 162.927 308.441 163.095 308.674 163.186C308.913 163.271 309.171 163.314 309.45 163.314C309.654 163.314 309.833 163.299 309.987 163.271C310.14 163.243 310.259 163.22 310.344 163.203L310.805 165.308C310.657 165.365 310.447 165.422 310.174 165.478C309.901 165.541 309.56 165.575 309.151 165.581C308.481 165.592 307.856 165.473 307.276 165.223C306.697 164.973 306.228 164.586 305.87 164.064C305.512 163.541 305.333 162.885 305.333 162.095V149.183ZM318.759 165.674C317.531 165.674 316.46 165.393 315.545 164.831C314.631 164.268 313.92 163.481 313.415 162.47C312.909 161.458 312.656 160.277 312.656 158.924C312.656 157.566 312.909 156.379 313.415 155.362C313.92 154.345 314.631 153.555 315.545 152.993C316.46 152.43 317.531 152.149 318.759 152.149C319.986 152.149 321.057 152.43 321.972 152.993C322.886 153.555 323.597 154.345 324.102 155.362C324.608 156.379 324.861 157.566 324.861 158.924C324.861 160.277 324.608 161.458 324.102 162.47C323.597 163.481 322.886 164.268 321.972 164.831C321.057 165.393 319.986 165.674 318.759 165.674ZM318.767 163.535C319.563 163.535 320.222 163.325 320.744 162.904C321.267 162.484 321.653 161.924 321.903 161.225C322.159 160.527 322.287 159.757 322.287 158.916C322.287 158.081 322.159 157.314 321.903 156.615C321.653 155.91 321.267 155.345 320.744 154.919C320.222 154.493 319.563 154.279 318.767 154.279C317.966 154.279 317.301 154.493 316.773 154.919C316.25 155.345 315.861 155.91 315.605 156.615C315.355 157.314 315.23 158.081 315.23 158.916C315.23 159.757 315.355 160.527 315.605 161.225C315.861 161.924 316.25 162.484 316.773 162.904C317.301 163.325 317.966 163.535 318.767 163.535ZM335.668 170.319C335.287 170.319 334.94 170.288 334.628 170.225C334.315 170.169 334.082 170.106 333.929 170.038L334.543 167.95C335.009 168.075 335.423 168.129 335.787 168.112C336.151 168.095 336.472 167.958 336.75 167.703C337.034 167.447 337.284 167.029 337.5 166.45L337.815 165.581L333.026 152.319H335.753L339.068 162.478H339.205L342.52 152.319H345.256L339.861 167.157C339.611 167.839 339.293 168.416 338.906 168.887C338.52 169.365 338.06 169.723 337.526 169.961C336.991 170.2 336.372 170.319 335.668 170.319ZM352.719 165.674C351.492 165.674 350.421 165.393 349.506 164.831C348.592 164.268 347.881 163.481 347.376 162.47C346.87 161.458 346.617 160.277 346.617 158.924C346.617 157.566 346.87 156.379 347.376 155.362C347.881 154.345 348.592 153.555 349.506 152.993C350.421 152.43 351.492 152.149 352.719 152.149C353.947 152.149 355.018 152.43 355.933 152.993C356.847 153.555 357.558 154.345 358.063 155.362C358.569 156.379 358.822 157.566 358.822 158.924C358.822 160.277 358.569 161.458 358.063 162.47C357.558 163.481 356.847 164.268 355.933 164.831C355.018 165.393 353.947 165.674 352.719 165.674ZM352.728 163.535C353.523 163.535 354.183 163.325 354.705 162.904C355.228 162.484 355.614 161.924 355.864 161.225C356.12 160.527 356.248 159.757 356.248 158.916C356.248 158.081 356.12 157.314 355.864 156.615C355.614 155.91 355.228 155.345 354.705 154.919C354.183 154.493 353.523 154.279 352.728 154.279C351.927 154.279 351.262 154.493 350.734 154.919C350.211 155.345 349.822 155.91 349.566 156.615C349.316 157.314 349.191 158.081 349.191 158.916C349.191 159.757 349.316 160.527 349.566 161.225C349.822 161.924 350.211 162.484 350.734 162.904C351.262 163.325 351.927 163.535 352.728 163.535ZM369.959 159.981V152.319H372.516V165.41H370.01V163.143H369.874C369.572 163.842 369.089 164.424 368.425 164.89C367.766 165.35 366.945 165.581 365.962 165.581C365.121 165.581 364.376 165.396 363.729 165.027C363.087 164.652 362.581 164.098 362.212 163.365C361.848 162.632 361.666 161.725 361.666 160.646V152.319H364.214V160.339C364.214 161.231 364.462 161.941 364.956 162.47C365.45 162.998 366.092 163.262 366.882 163.262C367.359 163.262 367.834 163.143 368.305 162.904C368.783 162.666 369.178 162.305 369.49 161.822C369.808 161.339 369.964 160.725 369.959 159.981ZM375.94 165.41V152.319H378.403V154.399H378.539C378.778 153.694 379.198 153.14 379.8 152.737C380.408 152.328 381.096 152.123 381.863 152.123C382.022 152.123 382.21 152.129 382.425 152.14C382.647 152.152 382.82 152.166 382.945 152.183V154.62C382.843 154.592 382.661 154.561 382.4 154.527C382.138 154.487 381.877 154.467 381.616 154.467C381.013 154.467 380.477 154.595 380.005 154.85C379.539 155.1 379.17 155.45 378.897 155.899C378.624 156.342 378.488 156.848 378.488 157.416V165.41H375.94ZM394.05 147.956V165.41H391.502V147.956H394.05ZM397.479 165.41V152.319H400.027V165.41H397.479ZM398.766 150.299C398.322 150.299 397.942 150.152 397.624 149.856C397.311 149.555 397.155 149.197 397.155 148.782C397.155 148.362 397.311 148.004 397.624 147.708C397.942 147.407 398.322 147.257 398.766 147.257C399.209 147.257 399.587 147.407 399.899 147.708C400.217 148.004 400.376 148.362 400.376 148.782C400.376 149.197 400.217 149.555 399.899 149.856C399.587 150.152 399.209 150.299 398.766 150.299ZM413.265 155.515L410.955 155.924C410.859 155.629 410.705 155.348 410.495 155.081C410.29 154.814 410.012 154.595 409.66 154.424C409.308 154.254 408.867 154.169 408.339 154.169C407.617 154.169 407.015 154.331 406.532 154.654C406.049 154.973 405.808 155.385 405.808 155.89C405.808 156.328 405.969 156.68 406.293 156.947C406.617 157.214 407.14 157.433 407.862 157.603L409.941 158.081C411.146 158.359 412.043 158.788 412.634 159.368C413.225 159.947 413.521 160.7 413.521 161.626C413.521 162.41 413.293 163.109 412.839 163.723C412.39 164.331 411.762 164.808 410.955 165.154C410.154 165.501 409.225 165.674 408.168 165.674C406.702 165.674 405.506 165.362 404.58 164.737C403.654 164.106 403.086 163.211 402.876 162.052L405.339 161.677C405.492 162.319 405.808 162.805 406.285 163.135C406.762 163.458 407.384 163.62 408.151 163.62C408.987 163.62 409.654 163.447 410.154 163.1C410.654 162.748 410.904 162.319 410.904 161.814C410.904 161.404 410.751 161.061 410.444 160.782C410.143 160.504 409.68 160.294 409.055 160.152L406.839 159.666C405.617 159.387 404.714 158.944 404.129 158.336C403.549 157.728 403.259 156.958 403.259 156.027C403.259 155.254 403.475 154.578 403.907 153.998C404.339 153.419 404.935 152.967 405.697 152.643C406.458 152.314 407.33 152.149 408.313 152.149C409.728 152.149 410.842 152.456 411.654 153.069C412.467 153.677 413.004 154.493 413.265 155.515ZM422.433 152.319V154.365H415.283V152.319H422.433ZM417.2 149.183H419.749V161.566C419.749 162.061 419.822 162.433 419.97 162.683C420.118 162.927 420.308 163.095 420.541 163.186C420.78 163.271 421.038 163.314 421.317 163.314C421.521 163.314 421.7 163.299 421.854 163.271C422.007 163.243 422.126 163.22 422.212 163.203L422.672 165.308C422.524 165.365 422.314 165.422 422.041 165.478C421.768 165.541 421.428 165.575 421.018 165.581C420.348 165.592 419.723 165.473 419.143 165.223C418.564 164.973 418.095 164.586 417.737 164.064C417.379 163.541 417.2 162.885 417.2 162.095V149.183ZM426.957 165.572C426.491 165.572 426.09 165.407 425.755 165.078C425.42 164.743 425.252 164.339 425.252 163.868C425.252 163.402 425.42 163.004 425.755 162.674C426.09 162.339 426.491 162.172 426.957 162.172C427.423 162.172 427.823 162.339 428.158 162.674C428.494 163.004 428.661 163.402 428.661 163.868C428.661 164.18 428.582 164.467 428.423 164.728C428.269 164.984 428.065 165.189 427.809 165.342C427.553 165.495 427.269 165.572 426.957 165.572ZM433.323 165.572C432.857 165.572 432.457 165.407 432.121 165.078C431.786 164.743 431.619 164.339 431.619 163.868C431.619 163.402 431.786 163.004 432.121 162.674C432.457 162.339 432.857 162.172 433.323 162.172C433.789 162.172 434.19 162.339 434.525 162.674C434.86 163.004 435.028 163.402 435.028 163.868C435.028 164.18 434.948 164.467 434.789 164.728C434.636 164.984 434.431 165.189 434.175 165.342C433.92 165.495 433.636 165.572 433.323 165.572ZM439.698 165.572C439.232 165.572 438.832 165.407 438.496 165.078C438.161 164.743 437.994 164.339 437.994 163.868C437.994 163.402 438.161 163.004 438.496 162.674C438.832 162.339 439.232 162.172 439.698 162.172C440.164 162.172 440.565 162.339 440.9 162.674C441.235 163.004 441.403 163.402 441.403 163.868C441.403 164.18 441.323 164.467 441.164 164.728C441.011 164.984 440.806 165.189 440.55 165.342C440.295 165.495 440.011 165.572 439.698 165.572ZM457.076 152.319V154.365H449.678V152.319H457.076ZM451.707 165.41V150.802C451.707 149.984 451.886 149.305 452.244 148.765C452.602 148.22 453.076 147.814 453.667 147.547C454.258 147.274 454.9 147.137 455.593 147.137C456.104 147.137 456.542 147.18 456.906 147.265C457.269 147.345 457.539 147.419 457.715 147.487L457.119 149.549C456.999 149.515 456.846 149.475 456.658 149.43C456.471 149.379 456.244 149.353 455.977 149.353C455.357 149.353 454.914 149.507 454.647 149.814C454.386 150.12 454.255 150.564 454.255 151.143V165.41H451.707ZM464.832 165.674C463.542 165.674 462.431 165.399 461.499 164.848C460.573 164.291 459.857 163.51 459.352 162.504C458.852 161.493 458.602 160.308 458.602 158.95C458.602 157.609 458.852 156.427 459.352 155.404C459.857 154.382 460.562 153.583 461.465 153.01C462.374 152.436 463.437 152.149 464.653 152.149C465.391 152.149 466.107 152.271 466.8 152.515C467.494 152.76 468.116 153.143 468.667 153.666C469.218 154.189 469.653 154.868 469.971 155.703C470.289 156.532 470.448 157.541 470.448 158.728V159.632H460.042V157.723H467.951C467.951 157.052 467.815 156.458 467.542 155.941C467.269 155.419 466.886 155.007 466.391 154.706C465.903 154.404 465.329 154.254 464.67 154.254C463.954 154.254 463.329 154.43 462.795 154.782C462.266 155.129 461.857 155.583 461.567 156.146C461.283 156.703 461.141 157.308 461.141 157.961V159.453C461.141 160.328 461.295 161.072 461.602 161.686C461.914 162.299 462.349 162.768 462.906 163.092C463.462 163.41 464.113 163.569 464.857 163.569C465.34 163.569 465.781 163.501 466.178 163.365C466.576 163.223 466.92 163.012 467.21 162.734C467.499 162.456 467.721 162.112 467.874 161.703L470.286 162.137C470.093 162.848 469.746 163.47 469.246 164.004C468.752 164.532 468.13 164.944 467.38 165.24C466.636 165.529 465.786 165.674 464.832 165.674ZM478.918 165.674C477.628 165.674 476.517 165.399 475.585 164.848C474.659 164.291 473.943 163.51 473.438 162.504C472.938 161.493 472.688 160.308 472.688 158.95C472.688 157.609 472.938 156.427 473.438 155.404C473.943 154.382 474.648 153.583 475.551 153.01C476.46 152.436 477.523 152.149 478.739 152.149C479.477 152.149 480.193 152.271 480.886 152.515C481.58 152.76 482.202 153.143 482.753 153.666C483.304 154.189 483.739 154.868 484.057 155.703C484.375 156.532 484.534 157.541 484.534 158.728V159.632H474.128V157.723H482.037C482.037 157.052 481.901 156.458 481.628 155.941C481.355 155.419 480.972 155.007 480.477 154.706C479.989 154.404 479.415 154.254 478.756 154.254C478.04 154.254 477.415 154.43 476.881 154.782C476.352 155.129 475.943 155.583 475.653 156.146C475.369 156.703 475.227 157.308 475.227 157.961V159.453C475.227 160.328 475.381 161.072 475.688 161.686C476 162.299 476.435 162.768 476.991 163.092C477.548 163.41 478.199 163.569 478.943 163.569C479.426 163.569 479.866 163.501 480.264 163.365C480.662 163.223 481.006 163.012 481.295 162.734C481.585 162.456 481.807 162.112 481.96 161.703L484.372 162.137C484.179 162.848 483.832 163.47 483.332 164.004C482.838 164.532 482.216 164.944 481.466 165.24C480.722 165.529 479.872 165.674 478.918 165.674ZM489.91 147.956V165.41H487.362V147.956H489.91ZM505.92 152.319V154.365H498.522V152.319H505.92ZM500.55 165.41V150.802C500.55 149.984 500.729 149.305 501.087 148.765C501.445 148.22 501.92 147.814 502.511 147.547C503.102 147.274 503.744 147.137 504.437 147.137C504.948 147.137 505.386 147.18 505.749 147.265C506.113 147.345 506.383 147.419 506.559 147.487L505.962 149.549C505.843 149.515 505.69 149.475 505.502 149.43C505.315 149.379 505.087 149.353 504.82 149.353C504.201 149.353 503.758 149.507 503.491 149.814C503.229 150.12 503.099 150.564 503.099 151.143V165.41H500.55ZM508.549 165.41V152.319H511.012V154.399H511.148C511.387 153.694 511.808 153.14 512.41 152.737C513.018 152.328 513.705 152.123 514.472 152.123C514.631 152.123 514.819 152.129 515.035 152.14C515.256 152.152 515.43 152.166 515.555 152.183V154.62C515.452 154.592 515.271 154.561 515.009 154.527C514.748 154.487 514.487 154.467 514.225 154.467C513.623 154.467 513.086 154.595 512.614 154.85C512.148 155.1 511.779 155.45 511.506 155.899C511.234 156.342 511.097 156.848 511.097 157.416V165.41H508.549ZM522.933 165.674C521.643 165.674 520.533 165.399 519.601 164.848C518.675 164.291 517.959 163.51 517.453 162.504C516.953 161.493 516.703 160.308 516.703 158.95C516.703 157.609 516.953 156.427 517.453 155.404C517.959 154.382 518.663 153.583 519.567 153.01C520.476 152.436 521.538 152.149 522.754 152.149C523.493 152.149 524.209 152.271 524.902 152.515C525.595 152.76 526.217 153.143 526.768 153.666C527.32 154.189 527.754 154.868 528.072 155.703C528.391 156.532 528.55 157.541 528.55 158.728V159.632H518.143V157.723H526.053C526.053 157.052 525.916 156.458 525.643 155.941C525.371 155.419 524.987 155.007 524.493 154.706C524.004 154.404 523.43 154.254 522.771 154.254C522.055 154.254 521.43 154.43 520.896 154.782C520.368 155.129 519.959 155.583 519.669 156.146C519.385 156.703 519.243 157.308 519.243 157.961V159.453C519.243 160.328 519.396 161.072 519.703 161.686C520.016 162.299 520.45 162.768 521.007 163.092C521.564 163.41 522.214 163.569 522.959 163.569C523.442 163.569 523.882 163.501 524.28 163.365C524.678 163.223 525.021 163.012 525.311 162.734C525.601 162.456 525.822 162.112 525.976 161.703L528.388 162.137C528.195 162.848 527.848 163.47 527.348 164.004C526.854 164.532 526.232 164.944 525.482 165.24C524.737 165.529 523.888 165.674 522.933 165.674ZM537.019 165.674C535.729 165.674 534.619 165.399 533.687 164.848C532.761 164.291 532.045 163.51 531.539 162.504C531.039 161.493 530.789 160.308 530.789 158.95C530.789 157.609 531.039 156.427 531.539 155.404C532.045 154.382 532.749 153.583 533.653 153.01C534.562 152.436 535.624 152.149 536.84 152.149C537.579 152.149 538.295 152.271 538.988 152.515C539.681 152.76 540.303 153.143 540.854 153.666C541.406 154.189 541.84 154.868 542.158 155.703C542.477 156.532 542.636 157.541 542.636 158.728V159.632H532.229V157.723H540.138C540.138 157.052 540.002 156.458 539.729 155.941C539.457 155.419 539.073 155.007 538.579 154.706C538.09 154.404 537.516 154.254 536.857 154.254C536.141 154.254 535.516 154.43 534.982 154.782C534.454 155.129 534.045 155.583 533.755 156.146C533.471 156.703 533.329 157.308 533.329 157.961V159.453C533.329 160.328 533.482 161.072 533.789 161.686C534.102 162.299 534.536 162.768 535.093 163.092C535.65 163.41 536.3 163.569 537.045 163.569C537.528 163.569 537.968 163.501 538.366 163.365C538.763 163.223 539.107 163.012 539.397 162.734C539.687 162.456 539.908 162.112 540.062 161.703L542.474 162.137C542.281 162.848 541.934 163.47 541.434 164.004C540.94 164.532 540.317 164.944 539.567 165.24C538.823 165.529 537.974 165.674 537.019 165.674ZM557.925 152.319V154.365H550.775V152.319H557.925ZM552.692 149.183H555.241V161.566C555.241 162.061 555.315 162.433 555.462 162.683C555.61 162.927 555.8 163.095 556.033 163.186C556.272 163.271 556.531 163.314 556.809 163.314C557.013 163.314 557.192 163.299 557.346 163.271C557.499 163.243 557.619 163.22 557.704 163.203L558.164 165.308C558.016 165.365 557.806 165.422 557.533 165.478C557.261 165.541 556.92 165.575 556.511 165.581C555.84 165.592 555.215 165.473 554.636 165.223C554.056 164.973 553.587 164.586 553.229 164.064C552.871 163.541 552.692 162.885 552.692 162.095V149.183ZM566.118 165.674C564.891 165.674 563.82 165.393 562.905 164.831C561.99 164.268 561.28 163.481 560.774 162.47C560.268 161.458 560.016 160.277 560.016 158.924C560.016 157.566 560.268 156.379 560.774 155.362C561.28 154.345 561.99 153.555 562.905 152.993C563.82 152.43 564.891 152.149 566.118 152.149C567.345 152.149 568.416 152.43 569.331 152.993C570.246 153.555 570.956 154.345 571.462 155.362C571.967 156.379 572.22 157.566 572.22 158.924C572.22 160.277 571.967 161.458 571.462 162.47C570.956 163.481 570.246 164.268 569.331 164.831C568.416 165.393 567.345 165.674 566.118 165.674ZM566.126 163.535C566.922 163.535 567.581 163.325 568.104 162.904C568.626 162.484 569.013 161.924 569.263 161.225C569.518 160.527 569.646 159.757 569.646 158.916C569.646 158.081 569.518 157.314 569.263 156.615C569.013 155.91 568.626 155.345 568.104 154.919C567.581 154.493 566.922 154.279 566.126 154.279C565.325 154.279 564.661 154.493 564.132 154.919C563.609 155.345 563.22 155.91 562.964 156.615C562.714 157.314 562.589 158.081 562.589 158.916C562.589 159.757 562.714 160.527 562.964 161.225C563.22 161.924 563.609 162.484 564.132 162.904C564.661 163.325 565.325 163.535 566.126 163.535ZM586.905 170.592C585.865 170.592 584.97 170.456 584.22 170.183C583.476 169.91 582.868 169.549 582.396 169.1C581.925 168.652 581.572 168.16 581.339 167.626L583.53 166.723C583.683 166.973 583.888 167.237 584.143 167.515C584.405 167.799 584.757 168.041 585.2 168.24C585.649 168.439 586.226 168.538 586.93 168.538C587.896 168.538 588.695 168.302 589.325 167.831C589.956 167.365 590.271 166.62 590.271 165.598V163.024H590.109C589.956 163.302 589.734 163.612 589.445 163.953C589.161 164.294 588.768 164.589 588.268 164.839C587.768 165.089 587.118 165.214 586.317 165.214C585.283 165.214 584.351 164.973 583.521 164.49C582.697 164.001 582.044 163.282 581.561 162.333C581.084 161.379 580.845 160.206 580.845 158.814C580.845 157.422 581.081 156.228 581.553 155.234C582.03 154.24 582.683 153.478 583.513 152.95C584.342 152.416 585.283 152.149 586.334 152.149C587.146 152.149 587.803 152.285 588.303 152.558C588.803 152.825 589.192 153.137 589.47 153.495C589.754 153.853 589.973 154.169 590.126 154.441H590.314V152.319H592.811V165.7C592.811 166.825 592.55 167.748 592.027 168.47C591.504 169.191 590.797 169.725 589.905 170.072C589.018 170.419 588.018 170.592 586.905 170.592ZM586.879 163.1C587.612 163.1 588.232 162.93 588.737 162.589C589.249 162.243 589.635 161.748 589.896 161.106C590.163 160.458 590.297 159.683 590.297 158.779C590.297 157.899 590.166 157.123 589.905 156.453C589.643 155.782 589.26 155.26 588.754 154.885C588.249 154.504 587.624 154.314 586.879 154.314C586.112 154.314 585.473 154.512 584.962 154.91C584.45 155.302 584.064 155.836 583.803 156.512C583.547 157.189 583.419 157.944 583.419 158.779C583.419 159.637 583.55 160.39 583.811 161.038C584.072 161.686 584.459 162.191 584.97 162.555C585.487 162.919 586.124 163.1 586.879 163.1ZM601.871 165.674C600.581 165.674 599.47 165.399 598.538 164.848C597.612 164.291 596.896 163.51 596.391 162.504C595.891 161.493 595.641 160.308 595.641 158.95C595.641 157.609 595.891 156.427 596.391 155.404C596.896 154.382 597.601 153.583 598.504 153.01C599.413 152.436 600.476 152.149 601.692 152.149C602.43 152.149 603.146 152.271 603.839 152.515C604.533 152.76 605.155 153.143 605.706 153.666C606.257 154.189 606.692 154.868 607.01 155.703C607.328 156.532 607.487 157.541 607.487 158.728V159.632H597.081V157.723H604.99C604.99 157.052 604.854 156.458 604.581 155.941C604.308 155.419 603.925 155.007 603.43 154.706C602.942 154.404 602.368 154.254 601.709 154.254C600.993 154.254 600.368 154.43 599.834 154.782C599.305 155.129 598.896 155.583 598.607 156.146C598.322 156.703 598.18 157.308 598.18 157.961V159.453C598.18 160.328 598.334 161.072 598.641 161.686C598.953 162.299 599.388 162.768 599.945 163.092C600.501 163.41 601.152 163.569 601.896 163.569C602.379 163.569 602.82 163.501 603.217 163.365C603.615 163.223 603.959 163.012 604.249 162.734C604.538 162.456 604.76 162.112 604.913 161.703L607.325 162.137C607.132 162.848 606.786 163.47 606.286 164.004C605.791 164.532 605.169 164.944 604.419 165.24C603.675 165.529 602.825 165.674 601.871 165.674ZM616.425 152.319V154.365H609.275V152.319H616.425ZM611.192 149.183H613.741V161.566C613.741 162.061 613.815 162.433 613.962 162.683C614.11 162.927 614.3 163.095 614.533 163.186C614.772 163.271 615.031 163.314 615.309 163.314C615.513 163.314 615.692 163.299 615.846 163.271C615.999 163.243 616.119 163.22 616.204 163.203L616.664 165.308C616.516 165.365 616.306 165.422 616.033 165.478C615.761 165.541 615.42 165.575 615.011 165.581C614.34 165.592 613.715 165.473 613.136 165.223C612.556 164.973 612.087 164.586 611.729 164.064C611.371 163.541 611.192 162.885 611.192 162.095V149.183ZM625.596 165.41V152.319H628.144V165.41H625.596ZM626.883 150.299C626.44 150.299 626.059 150.152 625.741 149.856C625.428 149.555 625.272 149.197 625.272 148.782C625.272 148.362 625.428 148.004 625.741 147.708C626.059 147.407 626.44 147.257 626.883 147.257C627.326 147.257 627.704 147.407 628.016 147.708C628.335 148.004 628.494 148.362 628.494 148.782C628.494 149.197 628.335 149.555 628.016 149.856C627.704 150.152 627.326 150.299 626.883 150.299ZM634.121 157.637V165.41H631.572V152.319H634.018V154.45H634.18C634.482 153.757 634.953 153.2 635.595 152.779C636.243 152.359 637.058 152.149 638.041 152.149C638.933 152.149 639.714 152.336 640.385 152.711C641.055 153.081 641.575 153.632 641.945 154.365C642.314 155.098 642.499 156.004 642.499 157.083V165.41H639.95V157.39C639.95 156.441 639.703 155.7 639.209 155.166C638.714 154.626 638.036 154.356 637.172 154.356C636.581 154.356 636.055 154.484 635.595 154.74C635.141 154.995 634.78 155.37 634.513 155.865C634.251 156.353 634.121 156.944 634.121 157.637ZM336.136 181.319V183.365H328.986V181.319H336.136ZM330.903 178.183H333.452V190.566C333.452 191.061 333.526 191.433 333.673 191.683C333.821 191.927 334.011 192.095 334.244 192.186C334.483 192.271 334.741 192.314 335.02 192.314C335.224 192.314 335.403 192.299 335.557 192.271C335.71 192.243 335.83 192.22 335.915 192.203L336.375 194.308C336.227 194.365 336.017 194.422 335.744 194.478C335.472 194.541 335.131 194.575 334.722 194.581C334.051 194.592 333.426 194.473 332.847 194.223C332.267 193.973 331.798 193.586 331.44 193.064C331.082 192.541 330.903 191.885 330.903 191.095V178.183ZM344.329 194.674C343.102 194.674 342.031 194.393 341.116 193.831C340.201 193.268 339.491 192.481 338.985 191.47C338.479 190.458 338.227 189.277 338.227 187.924C338.227 186.566 338.479 185.379 338.985 184.362C339.491 183.345 340.201 182.555 341.116 181.993C342.031 181.43 343.102 181.149 344.329 181.149C345.556 181.149 346.627 181.43 347.542 181.993C348.457 182.555 349.167 183.345 349.673 184.362C350.178 185.379 350.431 186.566 350.431 187.924C350.431 189.277 350.178 190.458 349.673 191.47C349.167 192.481 348.457 193.268 347.542 193.831C346.627 194.393 345.556 194.674 344.329 194.674ZM344.337 192.535C345.133 192.535 345.792 192.325 346.315 191.904C346.837 191.484 347.224 190.924 347.474 190.225C347.729 189.527 347.857 188.757 347.857 187.916C347.857 187.081 347.729 186.314 347.474 185.615C347.224 184.91 346.837 184.345 346.315 183.919C345.792 183.493 345.133 183.279 344.337 183.279C343.536 183.279 342.871 183.493 342.343 183.919C341.82 184.345 341.431 184.91 341.175 185.615C340.925 186.314 340.8 187.081 340.8 187.916C340.8 188.757 340.925 189.527 341.175 190.225C341.431 190.924 341.82 191.484 342.343 191.904C342.871 192.325 343.536 192.535 344.337 192.535ZM361.568 188.981V181.319H364.125V194.41H361.619V192.143H361.483C361.182 192.842 360.699 193.424 360.034 193.89C359.375 194.35 358.554 194.581 357.571 194.581C356.73 194.581 355.986 194.396 355.338 194.027C354.696 193.652 354.19 193.098 353.821 192.365C353.457 191.632 353.276 190.725 353.276 189.646V181.319H355.824V189.339C355.824 190.231 356.071 190.941 356.565 191.47C357.06 191.998 357.702 192.262 358.491 192.262C358.969 192.262 359.443 192.143 359.915 191.904C360.392 191.666 360.787 191.305 361.099 190.822C361.418 190.339 361.574 189.725 361.568 188.981ZM373.063 194.674C371.796 194.674 370.705 194.387 369.79 193.814C368.881 193.234 368.183 192.436 367.694 191.419C367.205 190.402 366.961 189.237 366.961 187.924C366.961 186.595 367.211 185.422 367.711 184.404C368.211 183.382 368.915 182.583 369.825 182.01C370.734 181.436 371.805 181.149 373.038 181.149C374.032 181.149 374.918 181.333 375.697 181.703C376.475 182.066 377.103 182.578 377.58 183.237C378.063 183.896 378.35 184.666 378.441 185.547H375.961C375.825 184.933 375.512 184.404 375.023 183.961C374.54 183.518 373.893 183.297 373.08 183.297C372.37 183.297 371.748 183.484 371.214 183.859C370.685 184.228 370.273 184.757 369.978 185.444C369.683 186.126 369.535 186.933 369.535 187.865C369.535 188.819 369.68 189.643 369.969 190.336C370.259 191.029 370.668 191.566 371.197 191.947C371.731 192.328 372.359 192.518 373.08 192.518C373.563 192.518 374.001 192.43 374.393 192.254C374.79 192.072 375.123 191.814 375.39 191.478C375.663 191.143 375.853 190.74 375.961 190.268H378.441C378.35 191.115 378.075 191.87 377.614 192.535C377.154 193.2 376.538 193.723 375.765 194.103C374.998 194.484 374.097 194.674 373.063 194.674ZM383.714 186.637V194.41H381.166V176.956H383.68V183.45H383.842C384.149 182.745 384.618 182.186 385.249 181.771C385.879 181.356 386.703 181.149 387.72 181.149C388.618 181.149 389.402 181.333 390.072 181.703C390.749 182.072 391.271 182.623 391.641 183.356C392.016 184.083 392.203 184.993 392.203 186.083V194.41H389.655V186.39C389.655 185.43 389.408 184.686 388.913 184.157C388.419 183.623 387.732 183.356 386.851 183.356C386.249 183.356 385.709 183.484 385.232 183.74C384.76 183.995 384.388 184.37 384.115 184.865C383.848 185.353 383.714 185.944 383.714 186.637ZM397.283 194.572C396.817 194.572 396.416 194.407 396.081 194.078C395.746 193.743 395.578 193.339 395.578 192.868C395.578 192.402 395.746 192.004 396.081 191.674C396.416 191.339 396.817 191.172 397.283 191.172C397.749 191.172 398.149 191.339 398.484 191.674C398.82 192.004 398.987 192.402 398.987 192.868C398.987 193.18 398.908 193.467 398.749 193.728C398.595 193.984 398.391 194.189 398.135 194.342C397.879 194.495 397.595 194.572 397.283 194.572Z" fill="#333333"/>
<path d="M377.809 243.41C359.279 263.827 376.196 279.747 386.115 299.556C395.06 317.421 377.809 337.838 359.279 332.734C342.456 328.1 348.417 305.937 366.946 309.765C387.933 314.101 404.155 362.22 376.041 381.361C336.444 408.32 315.831 350.598 359.279 344.218C407.839 337.087 384.789 413.746 374.788 431.41M374.788 431.41C374.788 431.41 391.494 418.793 394 422.999M374.788 431.41C373.095 422.157 365.767 420.475 359.753 418.793" stroke="#3B57F4" stroke-width="3" stroke-linecap="round" stroke-linejoin="round"/>
<defs>
<linearGradient id="paint0_linear_658_7430" x1="339.192" y1="0.410156" x2="346.324" y2="158.253" gradientUnits="userSpaceOnUse">
<stop offset="0.1875" stop-color="#AB3ADD"/>
<stop offset="1" stop-color="#3B57F4"/>
</linearGradient>
</defs>
</svg>
