<svg width="109" height="108" viewBox="0 0 109 108" fill="none" xmlns="http://www.w3.org/2000/svg">
<circle cx="54.3034" cy="53.9797" r="53.7023" fill="#3B57F4" fill-opacity="0.12"/>
<path opacity="0.4" d="M75.8387 50.0423H68.3729C62.2504 50.0423 57.2645 45.0564 57.2645 38.9339V31.4681C57.2645 30.0473 56.102 28.8848 54.6812 28.8848H43.7279C35.7712 28.8848 29.3387 34.0514 29.3387 43.2739V66.1623C29.3387 75.3848 35.7712 80.5514 43.7279 80.5514H64.0329C71.9895 80.5514 78.422 75.3848 78.422 66.1623V52.6256C78.422 51.2048 77.2595 50.0423 75.8387 50.0423Z" fill="#3B57F4"/>
<path d="M63.697 29.4292C62.6379 28.37 60.8037 29.0933 60.8037 30.5658V39.5817C60.8037 43.3533 64.007 46.4792 67.9079 46.4792C70.362 46.505 73.772 46.505 76.6912 46.505C78.1637 46.505 78.9387 44.7742 77.9054 43.7408C74.1854 39.995 67.5204 33.2525 63.697 29.4292Z" fill="#3B57F4"/>
<path d="M54.6037 61.7454C53.8546 60.9963 52.6146 60.9963 51.8654 61.7454L50.0054 63.6054V52.7812C50.0054 51.7221 49.1271 50.8438 48.0679 50.8438C47.0087 50.8438 46.1304 51.7221 46.1304 52.7812V63.6054L44.2704 61.7454C43.5212 60.9963 42.2812 60.9963 41.5321 61.7454C40.7829 62.4946 40.7829 63.7346 41.5321 64.4837L46.6987 69.6504C46.7246 69.6763 46.7504 69.6762 46.7504 69.7021C46.9054 69.8571 47.1121 69.9863 47.3187 70.0896C47.5771 70.1671 47.8096 70.2188 48.0679 70.2188C48.3262 70.2188 48.5587 70.1671 48.7912 70.0638C49.0237 69.9604 49.2304 69.8313 49.4371 69.6504L54.6037 64.4837C55.3529 63.7346 55.3529 62.4946 54.6037 61.7454Z" fill="#3B57F4"/>
</svg>
