<svg width="73" height="57" viewBox="0 0 73 57" fill="none" xmlns="http://www.w3.org/2000/svg">
<path d="M17.51 26.4793C14.9209 26.4881 12.3777 27.1631 10.125 28.4393C13.2965 20.2301 18.5567 12.9913 25.385 7.43933C25.7757 7.11759 26.0992 6.72205 26.337 6.27529C26.5748 5.82854 26.7223 5.33932 26.7711 4.83556C26.8198 4.3318 26.7689 3.82337 26.6211 3.33931C26.4734 2.85524 26.2317 2.40501 25.91 2.01433C25.5883 1.62365 25.1927 1.30016 24.746 1.06234C24.2992 0.824518 23.81 0.677023 23.3062 0.628272C22.8025 0.579522 22.294 0.630473 21.81 0.778212C21.3259 0.925952 20.8757 1.16759 20.485 1.48933C6.485 12.8643 0.255001 28.6143 0.255001 38.3793C0.279123 41.832 1.30805 45.203 3.21614 48.0807C5.12423 50.9584 7.82893 53.2182 11 54.5843C13.0523 55.5785 15.2997 56.1045 17.58 56.1243C19.5871 56.2219 21.5931 55.9108 23.4764 55.2099C25.3597 54.5091 27.081 53.433 28.536 52.047C29.9911 50.661 31.1494 48.9939 31.9409 47.1469C32.7324 45.2999 33.1405 43.3113 33.1405 41.3018C33.1405 39.2923 32.7324 37.3038 31.9409 35.4568C31.1494 33.6097 29.9911 31.9426 28.536 30.5567C27.081 29.1707 25.3597 28.0946 23.4764 27.3937C21.5931 26.6929 19.5871 26.3818 17.58 26.4793H17.51Z" fill="url(#paint0_linear_788_7830)"/>
<path d="M56.5 26.4795C53.9105 26.4851 51.3665 27.1603 49.115 28.4395C52.2853 20.2389 57.5316 13.0025 64.34 7.43951C64.7661 7.13234 65.1249 6.74122 65.3942 6.2902C65.6636 5.83919 65.8377 5.33783 65.9061 4.81698C65.9744 4.29614 65.9354 3.76682 65.7915 3.2616C65.6476 2.75639 65.4018 2.28597 65.0693 1.8793C64.7368 1.47262 64.3245 1.1383 63.858 0.896898C63.3914 0.655499 62.8804 0.512133 62.3564 0.47562C61.8323 0.439108 61.3064 0.510221 60.8108 0.684587C60.3153 0.858953 59.8607 1.13288 59.475 1.48951C45.475 12.8645 39.245 28.6145 39.245 38.3795C39.2616 41.7931 40.2605 45.1298 42.1224 47.991C43.9844 50.8521 46.6306 53.1168 49.745 54.5145C51.8492 55.5378 54.1602 56.0646 56.5 56.0545C58.5071 56.1521 60.5131 55.841 62.3964 55.1401C64.2797 54.4392 66.001 53.3632 67.456 51.9772C68.911 50.5912 70.0694 48.9241 70.8609 47.0771C71.6524 45.23 72.0605 43.2415 72.0605 41.232C72.0605 39.2225 71.6524 37.234 70.8609 35.3869C70.0694 33.5399 68.911 31.8728 67.456 30.4868C66.001 29.1008 64.2797 28.0248 62.3964 27.3239C60.5131 26.623 58.5071 26.312 56.5 26.4095V26.4795Z" fill="url(#paint1_linear_788_7830)"/>
<defs>
<linearGradient id="paint0_linear_788_7830" x1="15.5561" y1="0.610351" x2="61.3721" y2="72.2751" gradientUnits="userSpaceOnUse">
<stop offset="0.1875" stop-color="#AB3ADD"/>
<stop offset="1" stop-color="#3B57F4"/>
</linearGradient>
<linearGradient id="paint1_linear_788_7830" x1="54.5135" y1="0.466308" x2="100.457" y2="72.0823" gradientUnits="userSpaceOnUse">
<stop offset="0.1875" stop-color="#AB3ADD"/>
<stop offset="1" stop-color="#3B57F4"/>
</linearGradient>
</defs>
</svg>
