<svg width="47" height="47" viewBox="0 0 47 47" fill="none" xmlns="http://www.w3.org/2000/svg">
<path d="M28.1552 14.7482C24.4649 15.3401 21.1042 17.2217 18.6706 20.0583C17.1357 19.6709 15.7524 18.8319 14.6996 17.6497C13.6468 16.4676 12.9729 14.9967 12.7652 13.4274C12.5575 11.858 12.8255 10.2625 13.5345 8.84714C14.2435 7.43179 15.361 6.26177 16.7422 5.48845C18.1235 4.71512 19.705 4.37408 21.2822 4.50944C22.8595 4.6448 24.3598 5.25033 25.5891 6.2477C26.8184 7.24507 27.7201 8.58838 28.1776 10.1038C28.6351 11.6193 28.6273 13.2372 28.1552 14.7482ZM16.5805 23.1719C15.4765 25.3282 14.8555 27.7719 14.8555 30.3594C14.8555 34.1257 16.1722 37.5814 18.3687 40.2983C10.7011 39.4243 6.23047 34.1055 6.23047 28.9219V27.4844C6.23047 26.3407 6.68482 25.2438 7.49357 24.435C8.30232 23.6263 9.39922 23.1719 10.543 23.1719H16.5805ZM30.668 43.2969C32.3669 43.2969 34.0493 42.9623 35.6189 42.3121C37.1886 41.6619 38.6148 40.709 39.8162 39.5076C41.0175 38.3062 41.9705 36.88 42.6207 35.3104C43.2708 33.7407 43.6055 32.0584 43.6055 30.3594C43.6055 28.6604 43.2708 26.9781 42.6207 25.4084C41.9705 23.8388 41.0175 22.4126 39.8162 21.2112C38.6148 20.0099 37.1886 19.0569 35.6189 18.4067C34.0493 17.7565 32.3669 17.4219 30.668 17.4219C27.2367 17.4219 23.946 18.785 21.5198 21.2112C19.0935 23.6375 17.7305 26.9282 17.7305 30.3594C17.7305 33.7906 19.0935 37.0813 21.5198 39.5076C23.946 41.9338 27.2367 43.2969 30.668 43.2969ZM30.668 23.1719C31.0492 23.1719 31.4149 23.3234 31.6844 23.5929C31.954 23.8625 32.1055 24.2282 32.1055 24.6094V28.9219H36.418C36.7992 28.9219 37.1649 29.0734 37.4344 29.3429C37.704 29.6125 37.8555 29.9782 37.8555 30.3594C37.8555 30.7407 37.704 31.1063 37.4344 31.3759C37.1649 31.6455 36.7992 31.7969 36.418 31.7969H32.1055V36.1094C32.1055 36.4907 31.954 36.8563 31.6844 37.1259C31.4149 37.3955 31.0492 37.5469 30.668 37.5469C30.2867 37.5469 29.9211 37.3955 29.6515 37.1259C29.3819 36.8563 29.2305 36.4907 29.2305 36.1094V31.7969H24.918C24.5367 31.7969 24.1711 31.6455 23.9015 31.3759C23.6319 31.1063 23.4805 30.7407 23.4805 30.3594C23.4805 29.9782 23.6319 29.6125 23.9015 29.3429C24.1711 29.0734 24.5367 28.9219 24.918 28.9219H29.2305V24.6094C29.2305 24.2282 29.3819 23.8625 29.6515 23.5929C29.9211 23.3234 30.2867 23.1719 30.668 23.1719Z" fill="#3B57F4"/>
</svg>
