<svg width="29" height="29" viewBox="0 0 29 29" fill="none" xmlns="http://www.w3.org/2000/svg">
<path d="M9.92336 4.04883C11.1072 4.04883 12.2548 4.38112 13.2436 4.99323C14.7204 4.83604 16.2138 5.01025 17.6148 5.50316C19.0158 5.99608 20.2892 6.79529 21.3423 7.84259C22.2655 8.76302 22.9982 9.85642 23.4984 11.0603C23.9986 12.2641 24.2566 13.5547 24.2576 14.8584C24.2576 15.3211 24.2253 15.7826 24.1607 16.2386C24.6884 17.1754 24.9663 18.2321 24.9679 19.3073C24.9679 20.1309 24.8051 20.9465 24.4888 21.707C24.1725 22.4675 23.7089 23.158 23.1248 23.7387C21.9449 24.9153 20.3462 25.5753 18.68 25.5737C17.5499 25.5737 16.4494 25.2697 15.4916 24.7073C13.9956 24.886 12.4785 24.7237 11.0541 24.2329C9.62964 23.742 8.33474 22.9351 7.26638 21.8728C6.34348 20.9524 5.61099 19.8592 5.11077 18.6557C4.61055 17.4521 4.35241 16.1617 4.3511 14.8584C4.3511 14.37 4.38608 13.8844 4.45873 13.4041C3.78001 12.2122 3.51239 10.83 3.69717 9.47091C3.88196 8.1118 4.50886 6.85127 5.48116 5.88382C6.66065 4.70913 8.2587 4.04936 9.92336 4.04883ZM10.5247 13.4794C10.7669 13.8951 11.1032 14.2489 11.5054 14.514C12.0383 14.8627 12.6048 15.157 13.1965 15.3924C13.8584 15.6682 14.3709 15.9037 14.7369 16.096C15.0449 16.2467 15.3248 16.4512 15.5642 16.6987C15.7458 16.8898 15.8467 17.144 15.8467 17.4091C15.8543 17.5953 15.8174 17.7807 15.739 17.9499C15.6606 18.119 15.5431 18.2671 15.3961 18.3817C15.0046 18.6454 14.5351 18.7705 14.0642 18.7369C13.5802 18.7424 13.1003 18.648 12.6543 18.4597C12.4129 18.3524 12.1742 18.239 11.9386 18.1194C11.6953 17.9901 11.4245 17.9209 11.1489 17.9176C10.9022 17.9073 10.661 17.9921 10.4749 18.1544C10.386 18.2389 10.3165 18.3418 10.2712 18.4558C10.2259 18.5698 10.2059 18.6924 10.2126 18.8149C10.2069 19.0469 10.2768 19.2745 10.4117 19.4633C10.5744 19.6696 10.785 19.8331 11.0252 19.9396C11.9629 20.3462 12.9795 20.5388 14.001 20.5033C14.7448 20.5181 15.4852 20.3973 16.1858 20.1468C16.7667 19.9406 17.2728 19.5653 17.6387 19.0692C17.9979 18.5445 18.1795 17.9189 18.158 17.2839C18.172 16.765 18.0421 16.2524 17.7826 15.8028C17.5193 15.3754 17.1646 15.0115 16.7441 14.7373C16.211 14.3934 15.6455 14.1028 15.0557 13.8696C14.9927 13.8387 14.9275 13.8127 14.8606 13.7915C14.4004 13.605 13.9459 13.4044 13.4978 13.1902C13.2259 13.0625 12.9797 12.886 12.7714 12.6695C12.5963 12.4853 12.4998 12.2402 12.5023 11.9861C12.4937 11.7925 12.5372 11.6001 12.6283 11.429C12.7194 11.2579 12.8548 11.1144 13.0202 11.0135C13.4131 10.7793 13.8654 10.6638 14.3225 10.6812C14.6723 10.6771 15.0221 10.7215 15.3611 10.8103C15.7297 10.9166 16.0902 11.0485 16.44 11.2045C16.5813 11.2704 16.736 11.3054 16.892 11.3068C17.0059 11.3096 17.1191 11.2882 17.2241 11.2442C17.3291 11.2001 17.4237 11.1343 17.5015 11.0511C17.6674 10.8696 17.7545 10.6296 17.7436 10.3839C17.7476 10.1497 17.6664 9.92212 17.5149 9.74351C17.3079 9.52642 17.0512 9.36297 16.7669 9.26727C16.4584 9.15387 16.1393 9.0714 15.8145 9.02108C15.36 8.9467 14.9 8.9116 14.4395 8.91614C13.7359 8.91167 13.0367 9.0291 12.3732 9.26323C11.7628 9.4691 11.2178 9.83302 10.7938 10.318C10.3858 10.801 10.1703 11.4174 10.1884 12.0494C10.1749 12.5471 10.2906 13.0395 10.5247 13.4794Z" fill="#3B57F4"/>
</svg>
