<svg width="416" height="16" viewBox="0 0 416 16" fill="none" xmlns="http://www.w3.org/2000/svg">
<path d="M341.371 2.7311C342.333 2.25302 343.466 1.72748 343.89 1.56296C344.896 1.17218 347.823 1.38426 348.254 1.87931C348.439 2.09217 349.338 2.3051 350.251 2.35309C353.195 2.5072 354.125 3.12972 353.943 4.82284C353.797 6.19319 353.913 6.34107 354.91 6.05522C355.915 5.76708 355.928 5.79829 355.031 6.33187C354.474 6.66262 353.778 6.86106 353.485 6.77284C353.192 6.68437 352.993 6.88403 353.042 7.21638C353.15 7.93883 353.766 8.0118 355.044 7.45384C355.563 7.22726 356.509 7.09429 357.147 7.15851C358.534 7.2984 363.798 6.53065 363.809 6.1869C363.814 6.05413 364.227 5.96363 364.727 5.98609C365.228 6.00829 366.538 5.87834 367.64 5.6971C368.91 5.48784 369.803 5.48321 370.081 5.68378C370.355 5.88182 370.975 5.86741 371.734 5.64615C373.724 5.06594 379.37 4.54724 378.922 4.98549C378.661 5.24074 379.063 5.33728 380.232 5.30104C381.296 5.26795 382.468 5.50197 383.411 5.93569C384.632 6.49792 384.768 6.75684 384.158 7.36026C383.748 7.76584 383.593 8.22846 383.815 8.38842C384.036 8.54835 383.909 8.6647 383.532 8.64709C383.154 8.62946 382.667 8.90735 382.449 9.26431C382.231 9.62127 381.609 10.3218 381.069 10.821C380.016 11.7929 380.399 12.2741 381.968 11.9511C382.501 11.8418 383.394 11.7456 383.956 11.7374C384.517 11.7289 385.243 11.5627 385.569 11.3675C385.894 11.1725 386.39 11.1189 386.672 11.2484C386.952 11.3778 387.611 11.3602 388.135 11.2095C388.659 11.0586 389.992 10.9369 391.098 10.939C392.205 10.9414 393.236 10.8002 393.391 10.6255C393.546 10.4508 394.148 10.3302 394.729 10.3573C395.31 10.3845 396.6 10.2289 397.595 10.0118C398.59 9.79478 399.401 9.71956 399.397 9.84521C399.392 9.97056 399.969 9.89066 400.678 9.66702C401.988 9.25449 409.727 8.31863 410.165 8.52013C410.615 8.72725 409.454 9.5611 408.761 9.52871C408.379 9.5109 408.275 9.37244 408.528 9.22101C408.78 9.06958 408.64 8.92946 408.217 8.90968C407.793 8.8899 407.439 9.06957 407.431 9.30901C407.422 9.59321 406.999 9.65895 406.212 9.49843C405.518 9.35678 405.188 9.3826 405.433 9.55969C405.667 9.72852 405.515 10.0446 405.096 10.2622C404.474 10.5846 404.412 10.5654 404.76 10.1581C404.995 9.88353 404.87 9.64379 404.483 9.62571C404.095 9.60759 403.774 9.6968 403.77 9.82422C403.76 10.1194 399.338 10.5993 398.619 10.3829C398.322 10.2937 397.885 10.411 397.647 10.6438C397.092 11.1875 398.13 11.2286 400.927 10.7733C402.153 10.5738 403.302 10.477 403.479 10.5586C403.656 10.6402 402.485 10.9093 400.876 11.1565C398.764 11.4813 397.735 11.506 397.169 11.2454C396.604 10.9851 396.191 10.9988 395.685 11.2948C395.299 11.5205 394.968 11.5706 394.95 11.4065C394.931 11.2424 394.421 11.4857 393.816 11.9472C393.211 12.4086 392.883 12.5601 393.086 12.2841C393.29 12.008 393.138 11.7671 392.751 11.749C392.363 11.7309 392.041 11.866 392.035 12.0494C392.028 12.2607 391.238 12.2817 389.875 12.1068C388.693 11.9548 387.526 11.9505 387.281 12.0969C387.037 12.2434 387.393 12.3891 388.073 12.4209C389.338 12.48 391.215 13.3702 391.197 13.9025C391.191 14.0655 390.737 13.9306 390.186 13.603C389.635 13.2751 388.832 13.0785 388.402 13.1661C387.971 13.2535 387.623 13.1983 387.629 13.043C387.644 12.5775 385.575 12.3021 383.632 12.5111C381.821 12.7059 381.086 13.2818 382.56 13.3506C382.983 13.3704 383.155 13.26 382.94 13.1054C382.42 12.7297 385.055 12.5886 386.192 12.9311C387.235 13.2449 384.878 13.7557 382.829 13.66C381.82 13.6129 381.76 13.6893 382.492 14.0895C382.982 14.3572 383.26 14.5816 383.111 14.5879C382.962 14.5943 381.861 14.6186 380.665 14.6414C379.469 14.6645 378.234 14.8297 377.92 15.0082C377.537 15.2257 377.208 15.1059 376.922 14.6455C376.688 14.2674 376.207 13.9443 375.853 13.9278C375.5 13.9113 375.298 13.735 375.405 13.5358C375.512 13.3369 375.071 13.1842 374.424 13.1968C373.465 13.2155 373.279 12.9539 373.413 11.7735C373.539 10.6676 373.272 10.2345 372.281 9.93356C371.249 9.62029 370.981 9.63097 370.969 9.98718C370.956 10.3875 370.493 10.4668 369.036 10.3192C368.781 10.2933 368.298 10.4364 367.962 10.6374C367.627 10.8384 366.929 10.9969 366.411 10.9903C365.893 10.9833 364.896 10.9715 364.195 10.9637C363.495 10.9556 362.913 11.1644 362.904 11.4272C362.892 11.7899 362.363 11.8495 360.71 11.6732C359.352 11.5281 358.527 11.5709 358.52 11.7863C358.504 12.2492 355.143 12.6915 353.77 12.4113C353.168 12.2885 352.672 12.3134 352.666 12.4666C352.661 12.6201 352.166 12.7225 351.566 12.6945C350.965 12.6664 350.479 12.487 350.486 12.2959C350.492 12.1047 349.684 11.758 348.69 11.5258C347.205 11.1789 346.879 11.1815 346.867 11.5413C346.859 11.7825 347.344 12.0025 347.944 12.0305C348.544 12.0586 349.031 12.2149 349.026 12.3779C349.012 12.793 345.849 12.6008 344.807 12.1215C343.587 11.5599 343.752 11.2426 345.236 11.3015C346.345 11.3453 346.323 11.3004 345.065 10.9528C343.064 10.3999 343.058 10.396 343.609 10.0662C343.949 9.86213 344.525 9.8852 345.485 10.1407C346.603 10.439 346.791 10.4193 346.459 10.0388C346.162 9.69718 344.968 9.51707 342.125 9.38424C337.714 9.17821 337.029 9.19874 337.279 9.52889C337.374 9.65593 336.615 9.72049 335.591 9.67267C334.567 9.62485 333.913 9.71867 334.138 9.88114C335.072 10.5546 329.723 10.7508 328.023 10.1054C327.181 9.78558 327.07 9.83857 327.398 10.403C327.709 10.9366 327.489 11.0751 326.41 11.0247C325.648 10.9891 325.028 10.8307 325.033 10.6728C325.038 10.5151 324.602 10.4339 324.063 10.4927C322.92 10.6171 321.794 10.0727 320.793 8.91172C320.208 8.23378 320.27 8.12479 321.136 8.30146C321.716 8.41966 322.195 8.38445 322.2 8.22324C322.22 7.65308 318.552 7.45567 316.891 7.93724C315.327 8.39072 315.321 8.40975 316.726 8.4893C317.921 8.55703 317.986 8.61229 317.087 8.80032C316.277 8.96939 315.724 8.83165 314.961 8.27092L313.929 7.51337L313.092 8.1222C312.535 8.52803 311.692 8.67892 310.568 8.57448C308.779 8.40871 306.658 8.82784 307.223 9.23563C307.763 9.62534 303.759 9.64904 299.686 9.28011C297.142 9.0494 295.553 9.04671 294.773 9.27117C293.831 9.54239 293.516 9.52826 293.052 9.19316C292.652 8.90435 292.333 8.87317 291.975 9.08764C291.212 9.5447 289.292 9.35826 288.192 8.72008C287.281 8.19226 287.248 8.194 287.69 8.7483C288.038 9.18363 287.889 9.28621 287.133 9.13393C284.09 8.52164 282.841 8.38229 282.832 8.65344C282.826 8.8191 280.97 8.85942 278.638 8.74397C276.337 8.63054 272.487 8.5365 270.082 8.53547C267.677 8.53414 264.236 8.4666 262.435 8.38485C260.634 8.30339 258.721 8.36185 258.185 8.51488C257.593 8.68344 257.019 8.67472 256.728 8.49283C255.969 8.0193 250.707 7.8611 251.11 8.32364C251.517 8.79172 245.269 8.58357 244.609 8.10722C244.377 7.94029 243.705 7.85633 243.114 7.92077C242.511 7.98638 242.046 7.8697 242.054 7.65367C242.061 7.43734 241.344 7.54782 240.411 7.907C238.945 8.47101 238.729 8.48256 238.525 8.00734C238.333 7.56058 238.105 7.52532 237.161 7.79706C235.958 8.14389 232.943 8.16629 225.284 7.88572C222.682 7.79059 220.366 7.80355 220.14 7.91495C219.913 8.02605 216.387 8.03024 212.305 7.92386C205.859 7.75573 204.885 7.6687 204.899 7.26093C204.913 6.8339 204.809 6.82874 203.756 7.20368C202.514 7.64519 201.24 7.70264 201.253 7.3165C201.266 6.93985 196.703 6.87749 194.732 7.22739C193.377 7.46774 192.866 7.45602 192.657 7.17942C192.454 6.91052 191.927 6.91087 190.69 7.18103C189.418 7.45851 188.418 7.45426 186.65 7.16392C184.096 6.74484 182.742 6.83889 183.496 7.38374C183.801 7.60369 183.632 7.62547 183.029 7.44385C181.741 7.05631 178.585 6.78598 179.021 7.10049C179.567 7.49462 176.684 7.5627 175.843 7.17555C175.324 6.93672 174.803 6.91535 174.141 7.10587C173.617 7.25681 172.093 7.29839 170.753 7.19782C169.376 7.09462 168.166 7.16424 167.968 7.358C167.735 7.58691 166.973 7.59555 165.674 7.38351C164.273 7.15482 162.949 7.20281 160.938 7.55439C158.603 7.96267 158.046 7.96927 157.527 7.5951C157.005 7.21843 156.581 7.19472 154.841 7.44383C153.705 7.60652 151.463 7.74312 149.859 7.74688C148.256 7.75063 146.449 7.83631 145.845 7.93688C144.671 8.13225 138.215 8.27801 137.287 8.13019C136.982 8.08147 136.822 7.91999 136.933 7.77112C137.057 7.60508 136.636 7.58126 135.842 7.70977C135.131 7.82468 134.172 7.84547 133.711 7.75566C133.25 7.66586 132.654 7.72291 132.388 7.88236C131.673 8.31077 130.532 8.17499 130.55 7.6638C130.558 7.41931 130.073 7.19634 129.473 7.1683C128.873 7.14026 128.375 7.31735 128.367 7.56183C128.353 7.96812 126.897 8.10105 125.077 7.8623C122.572 7.53368 118.351 7.34836 117.313 7.5216C116.503 7.65652 115.97 7.59542 115.737 7.34054C115.513 7.09681 115.357 7.13046 115.31 7.43221C115.254 7.79968 114.572 7.8622 112.329 7.70579C110.729 7.59426 109.417 7.60866 109.412 7.73786C109.404 7.98383 106.022 7.6552 104.811 7.29056C104.394 7.16509 104.34 7.24656 104.679 7.49125C105.11 7.80256 104.775 7.84449 103.311 7.66155C102.245 7.52831 101.192 7.52664 100.974 7.65771C100.755 7.78877 99.9673 7.86775 99.2237 7.83302C98.4808 7.79831 97.7566 7.90013 97.6157 8.05946C97.4482 8.24843 96.173 8.20281 93.9383 7.92776C92.0571 7.69594 90.3318 7.57261 90.1046 7.65371C89.8767 7.73448 89.249 7.80637 88.7087 7.81349C88.1685 7.82061 87.0521 7.88155 86.2285 7.94934C85.2156 8.03262 84.511 7.89819 84.0525 7.53425C83.4406 7.048 83.3252 7.05507 82.86 7.60618C82.4455 8.09704 81.8928 8.17245 80.0273 7.99182C78.7525 7.86845 75.2446 7.92008 72.2321 8.10615C69.2196 8.29252 65.2834 8.44376 63.4849 8.44226C61.6863 8.44105 59.6073 8.5431 58.8655 8.66933C58.123 8.79551 57.0456 8.80276 56.4702 8.68536C55.5068 8.48869 48.6555 9.00924 45.8509 9.49204C45.1919 9.6055 43.9629 9.59232 43.119 9.46267C42.2758 9.33305 41.5808 9.36618 41.5751 9.53628C41.5694 9.70668 39.6791 9.85227 37.3737 9.86005C35.0691 9.86785 33.0161 9.9539 32.8124 10.0512C31.9865 10.446 26.674 10.6526 25.8266 10.3227C25.2389 10.094 24.8418 10.1123 24.5683 10.3806C24.3482 10.5962 23.0941 10.8098 21.7822 10.8553C20.4696 10.9006 18.8772 11.0951 18.2433 11.2869C16.1618 11.9175 12.8931 12.0292 9.80812 11.5759C6.19157 11.0442 6.13191 11.0195 7.27467 10.5202C7.85825 10.2655 7.91928 10.098 7.43612 10.0754C7.01118 10.0556 6.45587 10.1632 6.20299 10.3146C5.43541 10.7747 4.3603 10.5628 3.73711 9.82843C3.36909 9.39482 3.43973 9.07162 3.92489 8.96933C4.45482 8.85785 4.40591 8.64393 3.77259 8.29766C3.26164 8.01824 2.58542 7.84211 2.26915 7.90629C1.2 8.12378 0.947047 7.17256 1.93596 6.65393C2.72531 6.23995 2.74327 6.03094 2.02641 5.58994C1.53589 5.28832 0.918505 5.1182 0.654441 5.21212C0.390377 5.30605 0.17989 5.21549 0.186779 5.01072C0.203667 4.50871 4.02151 3.08605 4.75742 3.30742C5.0792 3.40436 5.67274 3.15694 6.07607 2.75787C6.70026 2.14088 7.25999 2.05334 9.81618 2.17274C12.1061 2.2797 12.7323 2.20893 12.4425 1.87662C12.1352 1.52301 12.5014 1.51192 14.3662 1.81807C17.198 2.28277 17.0407 2.27809 17.0534 1.89966C17.0592 1.72719 16.7338 1.65293 16.3302 1.73499C15.9266 1.81705 15.6055 1.61298 15.6167 1.28137C15.6344 0.755365 15.8758 0.726873 17.5074 1.05745C18.536 1.26577 19.6603 1.37885 20.0052 1.30888C20.3508 1.23866 20.5741 1.44824 20.5026 1.77496C20.3556 2.43947 19.5343 2.52576 18.9923 1.93354C18.7372 1.6542 18.6187 1.64361 18.5687 1.89624C18.472 2.38561 19.5893 2.66576 21.0171 2.51015C21.6798 2.43781 22.0563 2.18795 21.8535 1.95469C21.6508 1.72142 21.8323 1.54678 22.2572 1.56663C22.6821 1.58648 23.1913 1.87591 23.3885 2.20983C23.5857 2.54375 24.0508 2.75512 24.4214 2.67983C24.7927 2.60427 26.0995 2.47269 27.3253 2.38688C29.2326 2.25367 29.426 2.28764 28.662 2.62148C27.943 2.93546 27.9991 3.02207 28.9502 3.06649C29.5992 3.09681 30.1433 2.88834 30.1588 2.60353C30.1808 2.20684 30.3288 2.18466 30.7894 2.50951C31.2678 2.84618 31.4927 2.83412 31.8846 2.45025C32.2621 2.08055 32.9035 2.03454 34.6132 2.25419C36.4287 2.4877 36.9202 2.43675 37.2357 1.98401C37.5573 1.52266 37.8519 1.49605 38.9463 1.82824C39.6742 2.04923 40.1035 2.329 39.9012 2.45014C39.3991 2.75111 40.4713 2.76794 41.8125 2.48006C42.5466 2.32261 42.6102 2.22823 42.0042 2.19666C40.5499 2.12161 40.9715 1.63465 42.5737 1.53911C43.3777 1.49119 43.8623 1.55567 43.6503 1.6826C43.4384 1.80952 43.5753 2.00648 43.9541 2.12064C44.3329 2.23479 44.9718 2.1094 45.3736 1.84264C46.0632 1.38363 46.1854 1.39172 47.5996 1.98639C48.4224 2.33232 49.1005 2.47321 49.1064 2.29926C49.1122 2.1253 50.4298 1.95415 52.0343 1.91869C53.6388 1.88322 54.9557 1.73281 54.9607 1.58404C54.9657 1.43528 55.8081 1.35294 56.8318 1.40076C57.8876 1.45007 58.4953 1.60697 58.2342 1.76307C57.5053 2.19976 59.0929 2.14778 60.3712 1.69341C61.0114 1.46539 61.525 1.42764 61.5189 1.609C61.5109 1.84785 61.9235 1.86623 63.0369 1.67693C63.8776 1.53396 64.7374 1.49636 64.9484 1.59318C65.4148 1.80819 66.9695 1.28393 67.5689 0.709705C67.8189 0.470283 68.0409 0.673876 68.0857 1.1844C68.1543 1.9605 68.2498 2.00414 68.8099 1.51504C69.165 1.20514 69.4721 1.13369 69.493 1.35639C69.5198 1.64376 70.1143 1.73358 71.5378 1.66561C73.0269 1.59448 73.2609 1.6342 72.4436 1.81951C71.4977 2.03415 71.5217 2.0786 72.6152 2.13354C73.3158 2.16864 73.8932 2.05522 73.8991 1.88127C73.9052 1.69961 74.5277 1.67408 75.3586 1.82093C76.1556 1.96174 76.8114 1.96388 76.8161 1.82578C76.8207 1.68739 77.8119 1.46924 79.0187 1.3407C80.2255 1.21216 81.2088 1.22899 81.2038 1.37775C81.1835 1.98229 83.1554 1.68499 83.9646 0.961478C84.4425 0.534726 84.6681 0.455624 84.4661 0.785736C84.146 1.30979 84.3775 1.38206 86.2965 1.35683C87.719 1.33839 88.489 1.45627 88.4811 1.69097C88.4744 1.89071 89.1234 1.76906 89.9237 1.42118C91.2394 0.848658 91.3789 0.842406 91.3835 1.35343C91.3882 1.86327 91.5394 1.85579 92.9304 1.27728L94.4729 0.636097L95.8414 1.40079C96.5946 1.82123 97.254 2.08592 97.3075 1.98869C97.3611 1.89146 97.4913 1.68235 97.5965 1.52402C97.7016 1.36569 97.8322 1.14473 97.8863 1.03298C97.9403 0.921232 98.3718 1.00817 98.8454 1.22618C99.8796 1.70219 101.595 1.82505 101.608 1.4238C101.613 1.26614 101.124 1.19075 100.521 1.25635C99.9172 1.32225 99.4274 1.25694 99.4323 1.11114C99.4372 0.965334 100.097 0.856648 100.898 0.869438C101.731 0.882802 102.349 1.07551 102.34 1.3188C102.333 1.55321 102.653 1.7801 103.052 1.82339C105.12 2.04673 105.597 2.00991 105.61 1.62614C105.617 1.39529 106.117 1.17464 106.719 1.13601C107.693 1.07344 107.692 1.09507 106.713 1.32922C105.224 1.68502 106.376 1.72456 108.07 1.37571C109.12 1.15968 109.922 1.22473 111.688 1.66904C112.936 1.98318 114.129 2.1369 114.34 2.01049C114.551 1.88442 114.314 1.69437 113.814 1.5882C113.242 1.46708 113.354 1.40793 114.119 1.4288C114.786 1.44719 115.465 1.63532 115.626 1.84676C115.845 2.13362 116.184 2.15983 116.958 1.94936C117.53 1.7944 118.815 1.73898 119.814 1.82631C120.813 1.91394 122.721 1.8324 124.053 1.645C125.869 1.39027 126.681 1.39941 127.295 1.68184C128.45 2.21367 129.276 2.19526 129.295 1.63725C129.305 1.32875 129.706 1.24182 130.434 1.3904C131.138 1.53397 131.377 1.48967 131.076 1.27197C130.741 1.03014 131.339 1.02486 133.043 1.25491C134.389 1.43652 135.597 1.70842 135.726 1.859C135.856 2.00931 136.249 2.07399 136.601 2.00256C136.952 1.93112 137.048 1.65212 136.813 1.38265C136.449 0.96406 136.621 0.954862 137.987 1.31903C139.238 1.65264 139.833 1.67478 140.715 1.42097C141.649 1.15176 141.969 1.19608 142.579 1.67986C143.275 2.23269 143.39 2.22944 144.715 1.61728C145.486 1.26179 146.019 1.14988 145.902 1.36879C145.784 1.58769 146.096 1.8471 146.593 1.94513C147.091 2.04319 147.503 1.97902 147.509 1.8024C147.515 1.62459 148.839 1.54307 150.478 1.61965C152.105 1.69565 154.114 1.64257 154.942 1.50169C155.796 1.35666 156.252 1.3634 155.995 1.51733C155.746 1.66657 156.167 1.88478 156.93 2.00203C157.944 2.15804 158.208 2.09026 157.913 1.75027C157.578 1.366 157.77 1.35504 159.019 1.68793C160.012 1.95306 160.687 1.99616 160.989 1.81471C161.243 1.66271 162.722 1.59793 164.275 1.67049C165.829 1.74306 167.307 1.67853 167.559 1.52709C168.212 1.13639 170.666 1.30355 171.016 1.76276C171.235 2.04929 171.575 2.07557 172.349 1.86596C173.545 1.54164 177.424 1.2613 178.495 1.42171C180.649 1.74465 184.671 1.97791 184.677 1.77995C184.682 1.65401 185.666 1.62462 186.866 1.71448C188.065 1.80435 189.051 1.75332 189.056 1.6007C189.061 1.44483 189.718 1.49745 190.556 1.72094C191.647 2.012 192.313 2.04191 193.038 1.83302C193.586 1.67516 194.205 1.6738 194.421 1.82994C194.637 1.98544 195.89 2.13364 197.208 2.15956C198.525 2.18548 200.07 2.37874 200.641 2.58942C201.436 2.88269 201.554 2.87961 201.145 2.57646C200.799 2.31987 201.075 2.19474 201.928 2.22065C209.583 2.45327 218.51 2.35676 219.093 2.03494C219.477 1.82285 219.638 1.82891 219.639 2.0551C219.639 2.23199 220.785 2.43037 222.186 2.4958C224.015 2.58124 224.743 2.4826 224.77 2.14637C224.801 1.77531 224.972 1.80378 225.598 2.2839C226.366 2.87243 226.416 2.87507 227.394 2.385C227.948 2.10782 228.395 2.04473 228.389 2.24446C228.38 2.51236 228.75 2.5442 229.798 2.36607C230.663 2.21918 231.38 2.24055 231.63 2.4208C232.007 2.69308 234.73 2.75527 236.948 2.5419C237.454 2.49311 238.68 2.6177 239.672 2.8187C240.8 3.04742 241.479 3.0797 241.485 2.90456C241.49 2.75075 241.926 2.71296 242.455 2.82078C242.984 2.92857 244.274 2.92471 245.322 2.81191C246.37 2.69911 247.328 2.71773 247.45 2.85315C247.573 2.98889 249.56 3.03215 251.868 2.95C254.176 2.86784 256.06 2.90628 256.056 3.03578C256.051 3.16528 256.871 3.18277 257.876 3.07452C259.206 2.93154 259.718 2.9777 259.75 3.24368C259.785 3.5225 259.886 3.52485 260.176 3.25437C260.386 3.05908 260.854 2.98862 261.217 3.09788C261.58 3.20714 261.881 3.18856 261.885 3.05669C261.89 2.92481 263.286 2.87218 264.987 2.93976C268.831 3.09231 272.243 3.03475 273.411 2.79752C273.906 2.69659 274.818 2.85495 275.469 3.15452C276.295 3.53444 276.867 3.61046 277.423 3.41291C277.854 3.25943 278.941 3.16802 279.838 3.20992C280.735 3.25183 281.657 3.17319 281.887 3.03525C282.358 2.75331 283.668 2.84537 285.017 3.25506C285.514 3.40587 286.302 3.45129 286.768 3.35644C287.236 3.26163 288.744 3.25375 290.122 3.33916C291.5 3.42461 293.619 3.33331 294.832 3.1359C296.044 2.93847 296.813 2.91114 296.539 3.07496C295.86 3.48163 296.587 3.48059 298.532 3.07188C300.229 2.71542 301.694 2.77346 305.086 3.33111C306.56 3.5736 307.465 3.55 308.426 3.24493C309.15 3.01434 310.432 2.8581 311.274 2.89743C312.166 2.9391 313.006 2.7305 313.287 2.39784C313.552 2.08372 314.093 1.84189 314.49 1.86041C314.887 1.87897 314.982 2.03124 314.703 2.19893C314.349 2.41068 314.724 2.45518 315.93 2.34501C317.798 2.17433 319.329 2.23751 322.753 2.62661C323.951 2.7627 325.182 2.90091 325.487 2.93389C325.794 2.9669 326.573 3.48413 327.219 4.08358C328.331 5.11439 328.461 5.14869 329.643 4.71625C330.33 4.46459 330.755 4.15258 330.586 4.02213C330.418 3.89169 330.627 3.80144 331.051 3.82122C331.474 3.841 331.815 4.05843 331.806 4.3041C331.794 4.66979 332.046 4.69877 333.191 4.46315C334.012 4.29404 334.486 3.93031 334.337 3.58352C334.197 3.25822 334.285 3.08514 334.532 3.19907C334.78 3.31304 335.405 3.28407 335.923 3.1352C336.569 2.94874 337.294 2.979 338.243 3.23232C339.387 3.53745 339.922 3.4517 341.371 2.7311Z" fill="#FEAC5E"/>
<path d="M308.532 2.91777C308.128 2.99983 307.803 2.92557 307.809 2.7531C307.815 2.58063 308.147 2.45456 308.547 2.47325C308.947 2.49195 309.273 2.56591 309.27 2.63793C309.268 2.70994 308.936 2.83571 308.532 2.91777Z" fill="#FEAC5E"/>
<path d="M415.533 8.06419C415.109 8.04441 414.767 7.89484 414.772 7.73185C414.778 7.56886 414.926 7.44224 415.103 7.4505C415.28 7.45876 415.622 7.60829 415.864 7.78283C416.106 7.95738 415.956 8.08397 415.533 8.06419Z" fill="#FEAC5E"/>
<path d="M411.981 8.17433C410.979 8.11027 411.023 8.06157 412.216 7.90924C414.174 7.65939 414.2 7.66058 413.671 7.97721C413.418 8.12864 412.658 8.2172 411.981 8.17433Z" fill="#FEAC5E"/>
<path d="M306.869 3.16775C306.624 3.25485 305.995 3.23618 305.474 3.12603C304.896 3.00438 305.071 2.9422 305.919 2.96757C306.686 2.99065 307.113 3.08065 306.869 3.16775Z" fill="#FEAC5E"/>
<path d="M290.713 3.12427C290.536 3.11601 290.194 2.96648 289.952 2.79193C289.71 2.61739 289.86 2.4908 290.283 2.51058C290.707 2.53036 291.049 2.67993 291.044 2.84292C291.038 3.0059 290.89 3.13253 290.713 3.12427Z" fill="#FEAC5E"/>
<path d="M180.28 1.23085C179.857 1.21107 179.716 1.07095 179.969 0.919517C180.222 0.768084 180.573 0.650908 180.75 0.659167C180.927 0.667426 181.066 0.807511 181.061 0.9705C181.055 1.13349 180.704 1.25063 180.28 1.23085Z" fill="#FEAC5E"/>
<path d="M148.578 1.23409C147.954 1.20496 147.65 1.05719 147.903 0.905761C148.156 0.754328 148.671 0.644799 149.048 0.662404C149.425 0.68001 149.728 0.827742 149.722 0.990731C149.717 1.15372 149.202 1.26322 148.578 1.23409Z" fill="#FEAC5E"/>
<path d="M133.866 1.13607C132.778 1.08137 132.753 1.03748 133.694 0.835682C135.08 0.538278 135.162 0.542118 135.15 0.903657C135.144 1.06665 134.566 1.17114 133.866 1.13607Z" fill="#FEAC5E"/>
<path d="M391.676 12.9994C391.058 12.8732 390.555 12.7176 390.557 12.6536C390.565 12.4135 391.947 12.6132 392.365 12.9149C392.614 13.0946 392.32 13.1307 391.676 12.9994Z" fill="#FEAC5E"/>
<path d="M126.593 0.700473C126.091 0.759507 125.272 0.72127 124.774 0.615503C124.277 0.510066 124.688 0.461907 125.689 0.508641C126.689 0.555375 127.097 0.641769 126.593 0.700473Z" fill="#FEAC5E"/>
<path d="M118.361 1.45302C117.969 1.33496 117.652 1.11299 117.657 0.959484C117.671 0.533343 118.19 0.651659 118.656 1.18753C118.896 1.46286 118.77 1.57598 118.361 1.45302Z" fill="#FEAC5E"/>
<path d="M384.68 14.0373C384.685 13.9016 385.264 13.7562 385.966 13.7142C386.669 13.6726 387.326 13.6267 387.427 13.6124C387.528 13.5981 387.606 13.7045 387.602 13.8482C387.597 13.9922 386.936 14.1492 386.132 14.1972C385.329 14.2448 384.676 14.1731 384.68 14.0373Z" fill="#FEAC5E"/>
<path d="M86.2752 0.9952C85.8517 0.975419 85.7114 0.835301 85.9642 0.683868C86.2171 0.532436 86.568 0.41526 86.7448 0.423519C86.9216 0.431778 87.0612 0.571862 87.0557 0.734851C87.0502 0.89784 86.6986 1.01498 86.2752 0.9952Z" fill="#FEAC5E"/>
<path d="M62.8005 0.968401C62.5556 1.0555 61.9273 1.03683 61.4056 0.926685C60.8281 0.805029 61.0029 0.74285 61.8511 0.768221C62.6185 0.791302 63.0454 0.8813 62.8005 0.968401Z" fill="#FEAC5E"/>
<path d="M31.6405 1.55971C29.5934 1.62436 30.5984 1.19107 32.7498 1.08113C33.5528 1.03998 34.3581 0.998058 34.5384 0.987488C34.7188 0.976916 34.527 1.08935 34.1125 1.23679C33.6972 1.3845 32.5846 1.5299 31.6405 1.55971Z" fill="#FEAC5E"/>
<path d="M36.0281 2.06947C35.6486 1.95528 35.5291 1.67457 35.7627 1.44595C36.3603 0.860366 36.7624 0.951275 36.7384 1.66694C36.7271 2.0024 36.4076 2.18366 36.0281 2.06947Z" fill="#FEAC5E"/>
<path d="M10.5851 1.91185C10.2351 1.8955 9.95953 1.5511 9.97314 1.14659C9.98675 0.74208 10.2821 0.496769 10.6292 0.601131C10.9762 0.70579 11.2518 1.0499 11.2411 1.36639C11.2305 1.68289 10.9351 1.9282 10.5851 1.91185Z" fill="#FEAC5E"/>
<path d="M4.9767 1.27382C4.73986 1.16481 4.8079 0.918682 5.12847 0.72678C5.59705 0.445922 5.76878 0.453935 6.00459 0.766508C6.34231 1.21266 5.61901 1.56946 4.9767 1.27382Z" fill="#FEAC5E"/>
<path d="M7.91714 1.36606C7.34874 1.10473 6.88697 0.814843 6.89011 0.721494C6.90646 0.235492 8.78247 0.730054 8.85931 1.24059C8.93792 1.76338 8.81494 1.7796 7.91714 1.36606Z" fill="#FEAC5E"/>
<path d="M25.7972 1.94716C24.9976 1.88518 24.3467 1.73784 24.3507 1.6196C24.3546 1.50165 25.0121 1.45549 25.8117 1.51748C26.6112 1.57946 27.2622 1.7268 27.2582 1.84504C27.2542 1.96299 26.5968 2.00914 25.7972 1.94716Z" fill="#FEAC5E"/>
<path d="M1.70763 3.12963C1.30404 3.2117 0.978581 3.13744 0.984384 2.96496C0.990186 2.79249 1.32238 2.66643 1.72258 2.68512C2.12278 2.70381 2.44825 2.77778 2.44582 2.84979C2.4434 2.9218 2.11122 3.04757 1.70763 3.12963Z" fill="#FEAC5E"/>
</svg>
